<?xml version="1.0" encoding="UTF-8" standalone="no"?>
<!-- Created with PhysiCell (http://PhysiCell.MathCancer.org/) -->
<svg 
 xmlns:dc="http://purl.org/dc/elements/1.1/" 
 xmlns:cc="http://creativecommons.org/ns#" 
 xmlns:rdf="http://www.w3.org/1999/02/22-rdf-syntax-ns#" 
 xmlns:svg="http://www.w3.org/2000/svg" 
 xmlns="http://www.w3.org/2000/svg" 
 version="1.1" 
 width="3000" 
 height="3210" 
 id="svg2">
  <rect x="0" y="0" width="3000" height="3210" stroke-width="6" stroke="white" fill="white"/>
  <text x="37.5" y="90"
   font-family="Arial" font-size="75" fill="black" >
   Current time: 0 days, 4 hours, and 0.00 minutes, z = 0.00 &#956;m
  </text>
  <text x="37.5" y="172.5"
   font-family="Arial" font-size="71.25" fill="black" >
   179 agents
  </text>
 <g id="tissue" 
    transform="translate(0,3210) scale(1,-1)">
  <g id="ECM">
  </g>
  <g id="cells">
   <g id="cell0">
  <circle cx="1617.84" cy="1725.79" r="6.89675" stroke-width="0.5" stroke="black" fill="red"/>
  <circle cx="1617.84" cy="1725.79" r="4.17024" stroke-width="0.5" stroke="black" fill="red"/>
   </g>
   <g id="cell1">
  <circle cx="2014.88" cy="2330.23" r="8.41271" stroke-width="0.5" stroke="black" fill="red"/>
  <circle cx="2014.88" cy="2330.23" r="5.05167" stroke-width="0.5" stroke="black" fill="red"/>
   </g>
   <g id="cell2">
  <circle cx="1743.94" cy="2355.4" r="7.27253" stroke-width="0.5" stroke="black" fill="red"/>
  <circle cx="1743.94" cy="2355.4" r="4.41835" stroke-width="0.5" stroke="black" fill="red"/>
   </g>
   <g id="cell3">
  <circle cx="1602.77" cy="2333.97" r="7.72056" stroke-width="0.5" stroke="black" fill="red"/>
  <circle cx="1602.77" cy="2333.97" r="4.69003" stroke-width="0.5" stroke="black" fill="red"/>
   </g>
   <g id="cell4">
  <circle cx="1316.77" cy="1796.55" r="8.41271" stroke-width="0.5" stroke="black" fill="red"/>
  <circle cx="1316.77" cy="1796.55" r="5.05167" stroke-width="0.5" stroke="black" fill="red"/>
   </g>
   <g id="cell5">
  <circle cx="1850.15" cy="1222.52" r="8.41271" stroke-width="0.5" stroke="black" fill="cyan"/>
  <circle cx="1850.15" cy="1222.52" r="5.05167" stroke-width="0.5" stroke="black" fill="cyan"/>
   </g>
   <g id="cell6">
  <circle cx="1350.21" cy="1014.08" r="8.41271" stroke-width="0.5" stroke="black" fill="cyan"/>
  <circle cx="1350.21" cy="1014.08" r="5.05167" stroke-width="0.5" stroke="black" fill="cyan"/>
   </g>
   <g id="cell7">
  <circle cx="2440.39" cy="440.937" r="8.41271" stroke-width="0.5" stroke="black" fill="cyan"/>
  <circle cx="2440.39" cy="440.937" r="5.05167" stroke-width="0.5" stroke="black" fill="cyan"/>
   </g>
   <g id="cell8">
  <circle cx="2610.17" cy="949.479" r="6.67777" stroke-width="0.5" stroke="black" fill="cyan"/>
  <circle cx="2610.17" cy="949.479" r="4.09835" stroke-width="0.5" stroke="black" fill="cyan"/>
   </g>
   <g id="cell9">
  <circle cx="1223.66" cy="1443.61" r="7.11815" stroke-width="0.5" stroke="black" fill="cyan"/>
  <circle cx="1223.66" cy="1443.61" r="4.31954" stroke-width="0.5" stroke="black" fill="cyan"/>
   </g>
   <g id="cell10">
  <circle cx="2202.33" cy="2249.66" r="6.20288" stroke-width="0.5" stroke="black" fill="red"/>
  <circle cx="2202.33" cy="2249.66" r="3.79518" stroke-width="0.5" stroke="black" fill="red"/>
   </g>
   <g id="cell11">
  <circle cx="1572.71" cy="1455.27" r="7.46878" stroke-width="0.5" stroke="black" fill="red"/>
  <circle cx="1572.71" cy="1455.27" r="4.53982" stroke-width="0.5" stroke="black" fill="red"/>
   </g>
   <g id="cell12">
  <circle cx="1655.85" cy="1232.8" r="6.50747" stroke-width="0.5" stroke="black" fill="red"/>
  <circle cx="1655.85" cy="1232.8" r="3.99117" stroke-width="0.5" stroke="black" fill="red"/>
   </g>
   <g id="cell13">
  <circle cx="2521.43" cy="2306.59" r="8.41271" stroke-width="0.5" stroke="black" fill="red"/>
  <circle cx="2521.43" cy="2306.59" r="5.05167" stroke-width="0.5" stroke="black" fill="red"/>
   </g>
   <g id="cell14">
  <circle cx="474.523" cy="1116.05" r="8.41271" stroke-width="0.5" stroke="black" fill="cyan"/>
  <circle cx="474.523" cy="1116.05" r="5.05167" stroke-width="0.5" stroke="black" fill="cyan"/>
   </g>
   <g id="cell15">
  <circle cx="509.11" cy="1855.61" r="8.41271" stroke-width="0.5" stroke="black" fill="red"/>
  <circle cx="509.11" cy="1855.61" r="5.05167" stroke-width="0.5" stroke="black" fill="red"/>
   </g>
   <g id="cell16">
  <circle cx="348.524" cy="1183.78" r="8.41271" stroke-width="0.5" stroke="black" fill="red"/>
  <circle cx="348.524" cy="1183.78" r="5.05167" stroke-width="0.5" stroke="black" fill="red"/>
   </g>
   <g id="cell17">
  <circle cx="2298.29" cy="2597.17" r="8.41271" stroke-width="0.5" stroke="black" fill="red"/>
  <circle cx="2298.29" cy="2597.17" r="5.05167" stroke-width="0.5" stroke="black" fill="red"/>
   </g>
   <g id="cell18">
  <circle cx="2167.58" cy="636.842" r="8.41271" stroke-width="0.5" stroke="black" fill="red"/>
  <circle cx="2167.58" cy="636.842" r="5.05167" stroke-width="0.5" stroke="black" fill="red"/>
   </g>
   <g id="cell19">
  <circle cx="2388.03" cy="2388.21" r="8.41271" stroke-width="0.5" stroke="black" fill="red"/>
  <circle cx="2388.03" cy="2388.21" r="5.05167" stroke-width="0.5" stroke="black" fill="red"/>
   </g>
   <g id="cell20">
  <circle cx="2648.68" cy="1436.66" r="8.41271" stroke-width="0.5" stroke="black" fill="red"/>
  <circle cx="2648.68" cy="1436.66" r="5.05167" stroke-width="0.5" stroke="black" fill="red"/>
   </g>
   <g id="cell21">
  <circle cx="2221.99" cy="2225.61" r="7.59183" stroke-width="0.5" stroke="black" fill="red"/>
  <circle cx="2221.99" cy="2225.61" r="4.61399" stroke-width="0.5" stroke="black" fill="red"/>
   </g>
   <g id="cell22">
  <circle cx="1405.26" cy="1542.03" r="7.56839" stroke-width="0.5" stroke="black" fill="red"/>
  <circle cx="1405.26" cy="1542.03" r="4.59998" stroke-width="0.5" stroke="black" fill="red"/>
   </g>
   <g id="cell23">
  <circle cx="2173.27" cy="1929.31" r="8.41271" stroke-width="0.5" stroke="black" fill="red"/>
  <circle cx="2173.27" cy="1929.31" r="5.05167" stroke-width="0.5" stroke="black" fill="red"/>
   </g>
   <g id="cell24">
  <circle cx="583.859" cy="2029.52" r="8.41271" stroke-width="0.5" stroke="black" fill="red"/>
  <circle cx="583.859" cy="2029.52" r="5.05167" stroke-width="0.5" stroke="black" fill="red"/>
   </g>
   <g id="cell25">
  <circle cx="1834.17" cy="1701.53" r="8.41271" stroke-width="0.5" stroke="black" fill="cyan"/>
  <circle cx="1834.17" cy="1701.53" r="5.05167" stroke-width="0.5" stroke="black" fill="cyan"/>
   </g>
   <g id="cell26">
  <circle cx="644.048" cy="1589.7" r="8.41271" stroke-width="0.5" stroke="black" fill="red"/>
  <circle cx="644.048" cy="1589.7" r="5.05167" stroke-width="0.5" stroke="black" fill="red"/>
   </g>
   <g id="cell27">
  <circle cx="2567.21" cy="2120.68" r="8.41271" stroke-width="0.5" stroke="black" fill="red"/>
  <circle cx="2567.21" cy="2120.68" r="5.05167" stroke-width="0.5" stroke="black" fill="red"/>
   </g>
   <g id="cell28">
  <circle cx="1552.44" cy="554.178" r="8.41271" stroke-width="0.5" stroke="black" fill="cyan"/>
  <circle cx="1552.44" cy="554.178" r="5.05167" stroke-width="0.5" stroke="black" fill="cyan"/>
   </g>
   <g id="cell29">
  <circle cx="1295.19" cy="1436.64" r="8.41271" stroke-width="0.5" stroke="black" fill="red"/>
  <circle cx="1295.19" cy="1436.64" r="5.05167" stroke-width="0.5" stroke="black" fill="red"/>
   </g>
   <g id="cell30">
  <circle cx="934.933" cy="747.198" r="8.41271" stroke-width="0.5" stroke="black" fill="red"/>
  <circle cx="934.933" cy="747.198" r="5.05167" stroke-width="0.5" stroke="black" fill="red"/>
   </g>
   <g id="cell31">
  <circle cx="2158.16" cy="2068.6" r="8.41271" stroke-width="0.5" stroke="black" fill="red"/>
  <circle cx="2158.16" cy="2068.6" r="5.05167" stroke-width="0.5" stroke="black" fill="red"/>
   </g>
   <g id="cell32">
  <circle cx="1395.08" cy="815.365" r="7.08639" stroke-width="0.5" stroke="black" fill="red"/>
  <circle cx="1395.08" cy="815.365" r="4.29876" stroke-width="0.5" stroke="black" fill="red"/>
   </g>
   <g id="cell33">
  <circle cx="1664.24" cy="624.524" r="8.41271" stroke-width="0.5" stroke="black" fill="cyan"/>
  <circle cx="1664.24" cy="624.524" r="5.05167" stroke-width="0.5" stroke="black" fill="cyan"/>
   </g>
   <g id="cell34">
  <circle cx="342.175" cy="1081.35" r="7.21189" stroke-width="0.5" stroke="black" fill="red"/>
  <circle cx="342.175" cy="1081.35" r="4.37993" stroke-width="0.5" stroke="black" fill="red"/>
   </g>
   <g id="cell35">
  <circle cx="1782.33" cy="659.22" r="8.41271" stroke-width="0.5" stroke="black" fill="cyan"/>
  <circle cx="1782.33" cy="659.22" r="5.05167" stroke-width="0.5" stroke="black" fill="cyan"/>
   </g>
   <g id="cell36">
  <circle cx="1768.06" cy="830.764" r="6.86652" stroke-width="0.5" stroke="black" fill="red"/>
  <circle cx="1768.06" cy="830.764" r="4.14883" stroke-width="0.5" stroke="black" fill="red"/>
   </g>
   <g id="cell37">
  <circle cx="1780.64" cy="1227.57" r="8.41271" stroke-width="0.5" stroke="black" fill="cyan"/>
  <circle cx="1780.64" cy="1227.57" r="5.05167" stroke-width="0.5" stroke="black" fill="cyan"/>
   </g>
   <g id="cell38">
  <circle cx="2565" cy="2466.24" r="8.41271" stroke-width="0.5" stroke="black" fill="red"/>
  <circle cx="2565" cy="2466.24" r="5.05167" stroke-width="0.5" stroke="black" fill="red"/>
   </g>
   <g id="cell39">
  <circle cx="1938.72" cy="1383.42" r="6.95901" stroke-width="0.5" stroke="black" fill="red"/>
  <circle cx="1938.72" cy="1383.42" r="4.21341" stroke-width="0.5" stroke="black" fill="red"/>
   </g>
   <g id="cell40">
  <circle cx="1162.82" cy="1771.35" r="8.41271" stroke-width="0.5" stroke="black" fill="red"/>
  <circle cx="1162.82" cy="1771.35" r="5.05167" stroke-width="0.5" stroke="black" fill="red"/>
   </g>
   <g id="cell41">
  <circle cx="1348.88" cy="2465.64" r="8.41271" stroke-width="0.5" stroke="black" fill="red"/>
  <circle cx="1348.88" cy="2465.64" r="5.05167" stroke-width="0.5" stroke="black" fill="red"/>
   </g>
   <g id="cell42">
  <circle cx="1974.31" cy="538.273" r="8.41271" stroke-width="0.5" stroke="black" fill="red"/>
  <circle cx="1974.31" cy="538.273" r="5.05167" stroke-width="0.5" stroke="black" fill="red"/>
   </g>
   <g id="cell43">
  <circle cx="444.541" cy="2627.54" r="8.41271" stroke-width="0.5" stroke="black" fill="red"/>
  <circle cx="444.541" cy="2627.54" r="5.05167" stroke-width="0.5" stroke="black" fill="red"/>
   </g>
   <g id="cell44">
  <circle cx="1900.24" cy="1867.54" r="8.41271" stroke-width="0.5" stroke="black" fill="red"/>
  <circle cx="1900.24" cy="1867.54" r="5.05167" stroke-width="0.5" stroke="black" fill="red"/>
   </g>
   <g id="cell45">
  <circle cx="1909.53" cy="710.183" r="8.41271" stroke-width="0.5" stroke="black" fill="cyan"/>
  <circle cx="1909.53" cy="710.183" r="5.05167" stroke-width="0.5" stroke="black" fill="cyan"/>
   </g>
   <g id="cell46">
  <circle cx="804.918" cy="1159.57" r="8.41271" stroke-width="0.5" stroke="black" fill="red"/>
  <circle cx="804.918" cy="1159.57" r="5.05167" stroke-width="0.5" stroke="black" fill="red"/>
   </g>
   <g id="cell47">
  <circle cx="612.623" cy="2098.85" r="6.95901" stroke-width="0.5" stroke="black" fill="red"/>
  <circle cx="612.623" cy="2098.85" r="4.21341" stroke-width="0.5" stroke="black" fill="red"/>
   </g>
   <g id="cell48">
  <circle cx="1061.1" cy="1758.24" r="7.72056" stroke-width="0.5" stroke="black" fill="cyan"/>
  <circle cx="1061.1" cy="1758.24" r="4.69003" stroke-width="0.5" stroke="black" fill="cyan"/>
   </g>
   <g id="cell49">
  <circle cx="1186.42" cy="1078.63" r="5.92975" stroke-width="0.5" stroke="black" fill="cyan"/>
  <circle cx="1186.42" cy="1078.63" r="3.65856" stroke-width="0.5" stroke="black" fill="cyan"/>
   </g>
   <g id="cell50">
  <circle cx="1668.47" cy="392.221" r="8.41271" stroke-width="0.5" stroke="black" fill="red"/>
  <circle cx="1668.47" cy="392.221" r="5.05167" stroke-width="0.5" stroke="black" fill="red"/>
   </g>
   <g id="cell51">
  <circle cx="1352.64" cy="1822.26" r="8.41271" stroke-width="0.5" stroke="black" fill="red"/>
  <circle cx="1352.64" cy="1822.26" r="5.05167" stroke-width="0.5" stroke="black" fill="red"/>
   </g>
   <g id="cell52">
  <circle cx="2676.35" cy="2605.82" r="7.67987" stroke-width="0.5" stroke="black" fill="cyan"/>
  <circle cx="2676.35" cy="2605.82" r="4.66617" stroke-width="0.5" stroke="black" fill="cyan"/>
   </g>
   <g id="cell53">
  <circle cx="549.631" cy="1860.88" r="6.78181" stroke-width="0.5" stroke="black" fill="cyan"/>
  <circle cx="549.631" cy="1860.88" r="4.08714" stroke-width="0.5" stroke="black" fill="cyan"/>
   </g>
   <g id="cell54">
  <circle cx="801.304" cy="1824.14" r="8.41271" stroke-width="0.5" stroke="black" fill="red"/>
  <circle cx="801.304" cy="1824.14" r="5.05167" stroke-width="0.5" stroke="black" fill="red"/>
   </g>
   <g id="cell55">
  <circle cx="692.401" cy="2689.92" r="7.70049" stroke-width="0.5" stroke="black" fill="red"/>
  <circle cx="692.401" cy="2689.92" r="4.67828" stroke-width="0.5" stroke="black" fill="red"/>
   </g>
   <g id="cell56">
  <circle cx="1868.95" cy="1692.76" r="6.71158" stroke-width="0.5" stroke="black" fill="red"/>
  <circle cx="1868.95" cy="1692.76" r="4.03435" stroke-width="0.5" stroke="black" fill="red"/>
   </g>
   <g id="cell57">
  <circle cx="909.475" cy="1287.4" r="7.56839" stroke-width="0.5" stroke="black" fill="red"/>
  <circle cx="909.475" cy="1287.4" r="4.59998" stroke-width="0.5" stroke="black" fill="red"/>
   </g>
   <g id="cell58">
  <circle cx="1419.15" cy="1439.27" r="8.41271" stroke-width="0.5" stroke="black" fill="red"/>
  <circle cx="1419.15" cy="1439.27" r="5.05167" stroke-width="0.5" stroke="black" fill="red"/>
   </g>
   <g id="cell59">
  <circle cx="886.621" cy="1796.42" r="8.41271" stroke-width="0.5" stroke="black" fill="cyan"/>
  <circle cx="886.621" cy="1796.42" r="5.05167" stroke-width="0.5" stroke="black" fill="cyan"/>
   </g>
   <g id="cell60">
  <circle cx="683.473" cy="1107.37" r="6.83713" stroke-width="0.5" stroke="black" fill="red"/>
  <circle cx="683.473" cy="1107.37" r="4.12773" stroke-width="0.5" stroke="black" fill="red"/>
   </g>
   <g id="cell61">
  <circle cx="564.9" cy="1919.41" r="8.41271" stroke-width="0.5" stroke="black" fill="red"/>
  <circle cx="564.9" cy="1919.41" r="5.05167" stroke-width="0.5" stroke="black" fill="red"/>
   </g>
   <g id="cell62">
  <circle cx="1875.19" cy="1061.28" r="8.41271" stroke-width="0.5" stroke="black" fill="red"/>
  <circle cx="1875.19" cy="1061.28" r="5.05167" stroke-width="0.5" stroke="black" fill="red"/>
   </g>
   <g id="cell63">
  <circle cx="629.361" cy="2172.36" r="6.99069" stroke-width="0.5" stroke="black" fill="red"/>
  <circle cx="629.361" cy="2172.36" r="4.23498" stroke-width="0.5" stroke="black" fill="red"/>
   </g>
   <g id="cell64">
  <circle cx="771.798" cy="2578.97" r="8.41271" stroke-width="0.5" stroke="black" fill="red"/>
  <circle cx="771.798" cy="2578.97" r="5.05167" stroke-width="0.5" stroke="black" fill="red"/>
   </g>
   <g id="cell65">
  <circle cx="1184.94" cy="1890.06" r="8.41271" stroke-width="0.5" stroke="black" fill="red"/>
  <circle cx="1184.94" cy="1890.06" r="5.05167" stroke-width="0.5" stroke="black" fill="red"/>
   </g>
   <g id="cell66">
  <circle cx="2274.52" cy="330.824" r="7.30216" stroke-width="0.5" stroke="black" fill="red"/>
  <circle cx="2274.52" cy="330.824" r="4.43696" stroke-width="0.5" stroke="black" fill="red"/>
   </g>
   <g id="cell67">
  <circle cx="534.07" cy="1798.95" r="6.95901" stroke-width="0.5" stroke="black" fill="red"/>
  <circle cx="534.07" cy="1798.95" r="4.21341" stroke-width="0.5" stroke="black" fill="red"/>
   </g>
   <g id="cell68">
  <circle cx="2311.07" cy="1916.78" r="8.41271" stroke-width="0.5" stroke="black" fill="cyan"/>
  <circle cx="2311.07" cy="1916.78" r="5.05167" stroke-width="0.5" stroke="black" fill="cyan"/>
   </g>
   <g id="cell69">
  <circle cx="524.769" cy="2628.26" r="6.69514" stroke-width="0.5" stroke="black" fill="red"/>
  <circle cx="524.769" cy="2628.26" r="4.10613" stroke-width="0.5" stroke="black" fill="red"/>
   </g>
   <g id="cell70">
  <circle cx="2643.5" cy="2407.66" r="8.41271" stroke-width="0.5" stroke="black" fill="red"/>
  <circle cx="2643.5" cy="2407.66" r="5.05167" stroke-width="0.5" stroke="black" fill="red"/>
   </g>
   <g id="cell71">
  <circle cx="1424.76" cy="1523.1" r="8.41271" stroke-width="0.5" stroke="black" fill="red"/>
  <circle cx="1424.76" cy="1523.1" r="5.05167" stroke-width="0.5" stroke="black" fill="red"/>
   </g>
   <g id="cell72">
  <circle cx="2640.06" cy="437.832" r="5.86347" stroke-width="0.5" stroke="black" fill="red"/>
  <circle cx="2640.06" cy="437.832" r="3.58182" stroke-width="0.5" stroke="black" fill="red"/>
   </g>
   <g id="cell73">
  <circle cx="1750.61" cy="1377.81" r="7.30216" stroke-width="0.5" stroke="black" fill="cyan"/>
  <circle cx="1750.61" cy="1377.81" r="4.43696" stroke-width="0.5" stroke="black" fill="cyan"/>
   </g>
   <g id="cell74">
  <circle cx="2073.99" cy="352.84" r="7.61469" stroke-width="0.5" stroke="black" fill="cyan"/>
  <circle cx="2073.99" cy="352.84" r="4.62762" stroke-width="0.5" stroke="black" fill="cyan"/>
   </g>
   <g id="cell75">
  <circle cx="390.267" cy="1358.05" r="7.02257" stroke-width="0.5" stroke="black" fill="red"/>
  <circle cx="390.267" cy="1358.05" r="4.25644" stroke-width="0.5" stroke="black" fill="red"/>
   </g>
   <g id="cell76">
  <circle cx="975.051" cy="2654.25" r="8.41271" stroke-width="0.5" stroke="black" fill="cyan"/>
  <circle cx="975.051" cy="2654.25" r="5.05167" stroke-width="0.5" stroke="black" fill="cyan"/>
   </g>
   <g id="cell77">
  <circle cx="588.472" cy="1162.67" r="8.41271" stroke-width="0.5" stroke="black" fill="red"/>
  <circle cx="588.472" cy="1162.67" r="5.05167" stroke-width="0.5" stroke="black" fill="red"/>
   </g>
   <g id="cell78">
  <circle cx="1010.74" cy="1454.14" r="8.41271" stroke-width="0.5" stroke="black" fill="red"/>
  <circle cx="1010.74" cy="1454.14" r="5.05167" stroke-width="0.5" stroke="black" fill="red"/>
   </g>
   <g id="cell79">
  <circle cx="584.947" cy="1952.79" r="8.41271" stroke-width="0.5" stroke="black" fill="red"/>
  <circle cx="584.947" cy="1952.79" r="5.05167" stroke-width="0.5" stroke="black" fill="red"/>
   </g>
   <g id="cell80">
  <circle cx="1063.16" cy="2413.14" r="8.41271" stroke-width="0.5" stroke="black" fill="red"/>
  <circle cx="1063.16" cy="2413.14" r="5.05167" stroke-width="0.5" stroke="black" fill="red"/>
   </g>
   <g id="cell81">
  <circle cx="1295.71" cy="2502.6" r="6.4984" stroke-width="0.5" stroke="black" fill="red"/>
  <circle cx="1295.71" cy="2502.6" r="3.98836" stroke-width="0.5" stroke="black" fill="red"/>
   </g>
   <g id="cell82">
  <circle cx="453.954" cy="820.373" r="8.41271" stroke-width="0.5" stroke="black" fill="red"/>
  <circle cx="453.954" cy="820.373" r="5.05167" stroke-width="0.5" stroke="black" fill="red"/>
   </g>
   <g id="cell83">
  <circle cx="1961.93" cy="1656.45" r="8.41271" stroke-width="0.5" stroke="black" fill="red"/>
  <circle cx="1961.93" cy="1656.45" r="5.05167" stroke-width="0.5" stroke="black" fill="red"/>
   </g>
   <g id="cell84">
  <circle cx="1657.12" cy="2371.9" r="7.33129" stroke-width="0.5" stroke="black" fill="red"/>
  <circle cx="1657.12" cy="2371.9" r="4.45516" stroke-width="0.5" stroke="black" fill="red"/>
   </g>
   <g id="cell85">
  <circle cx="938.412" cy="1516.78" r="8.41271" stroke-width="0.5" stroke="black" fill="cyan"/>
  <circle cx="938.412" cy="1516.78" r="5.05167" stroke-width="0.5" stroke="black" fill="cyan"/>
   </g>
   <g id="cell86">
  <circle cx="1560.78" cy="2500.05" r="7.72056" stroke-width="0.5" stroke="black" fill="cyan"/>
  <circle cx="1560.78" cy="2500.05" r="4.69003" stroke-width="0.5" stroke="black" fill="cyan"/>
   </g>
   <g id="cell87">
  <circle cx="525.457" cy="2510.78" r="8.41271" stroke-width="0.5" stroke="black" fill="cyan"/>
  <circle cx="525.457" cy="2510.78" r="5.05167" stroke-width="0.5" stroke="black" fill="cyan"/>
   </g>
   <g id="cell88">
  <circle cx="1684.87" cy="507.626" r="6.81877" stroke-width="0.5" stroke="black" fill="cyan"/>
  <circle cx="1684.87" cy="507.626" r="4.18078" stroke-width="0.5" stroke="black" fill="cyan"/>
   </g>
   <g id="cell89">
  <circle cx="2530.31" cy="966.525" r="8.41271" stroke-width="0.5" stroke="black" fill="red"/>
  <circle cx="2530.31" cy="966.525" r="5.05167" stroke-width="0.5" stroke="black" fill="red"/>
   </g>
   <g id="cell90">
  <circle cx="1064.57" cy="322.456" r="8.41271" stroke-width="0.5" stroke="black" fill="red"/>
  <circle cx="1064.57" cy="322.456" r="5.05167" stroke-width="0.5" stroke="black" fill="red"/>
   </g>
   <g id="cell91">
  <circle cx="1905.41" cy="2319.64" r="6.83713" stroke-width="0.5" stroke="black" fill="cyan"/>
  <circle cx="1905.41" cy="2319.64" r="4.12773" stroke-width="0.5" stroke="black" fill="cyan"/>
   </g>
   <g id="cell92">
  <circle cx="622.376" cy="1844.35" r="6.93348" stroke-width="0.5" stroke="black" fill="red"/>
  <circle cx="622.376" cy="1844.35" r="4.25272" stroke-width="0.5" stroke="black" fill="red"/>
   </g>
   <g id="cell93">
  <circle cx="2020.76" cy="2315.33" r="8.41271" stroke-width="0.5" stroke="black" fill="red"/>
  <circle cx="2020.76" cy="2315.33" r="5.05167" stroke-width="0.5" stroke="black" fill="red"/>
   </g>
   <g id="cell94">
  <circle cx="990.238" cy="933.008" r="6.86652" stroke-width="0.5" stroke="black" fill="cyan"/>
  <circle cx="990.238" cy="933.008" r="4.14883" stroke-width="0.5" stroke="black" fill="cyan"/>
   </g>
   <g id="cell95">
  <circle cx="743.847" cy="1256.11" r="7.11815" stroke-width="0.5" stroke="black" fill="red"/>
  <circle cx="743.847" cy="1256.11" r="4.31954" stroke-width="0.5" stroke="black" fill="red"/>
   </g>
   <g id="cell96">
  <circle cx="1707.63" cy="1626.77" r="8.41271" stroke-width="0.5" stroke="black" fill="red"/>
  <circle cx="1707.63" cy="1626.77" r="5.05167" stroke-width="0.5" stroke="black" fill="red"/>
   </g>
   <g id="cell97">
  <circle cx="348.258" cy="695.857" r="8.41271" stroke-width="0.5" stroke="black" fill="red"/>
  <circle cx="348.258" cy="695.857" r="5.05167" stroke-width="0.5" stroke="black" fill="red"/>
   </g>
   <g id="cell98">
  <circle cx="2289.46" cy="1187.54" r="8.41271" stroke-width="0.5" stroke="black" fill="red"/>
  <circle cx="2289.46" cy="1187.54" r="5.05167" stroke-width="0.5" stroke="black" fill="red"/>
   </g>
   <g id="cell99">
  <circle cx="308.872" cy="656.537" r="8.41271" stroke-width="0.5" stroke="black" fill="cyan"/>
  <circle cx="308.872" cy="656.537" r="5.05167" stroke-width="0.5" stroke="black" fill="cyan"/>
   </g>
   <g id="cell100">
  <circle cx="1617.34" cy="2332.3" r="7.72056" stroke-width="0.5" stroke="black" fill="red"/>
  <circle cx="1617.34" cy="2332.3" r="4.69003" stroke-width="0.5" stroke="black" fill="red"/>
   </g>
   <g id="cell101">
  <circle cx="1046.57" cy="1760.22" r="7.72056" stroke-width="0.5" stroke="black" fill="cyan"/>
  <circle cx="1046.57" cy="1760.22" r="4.69003" stroke-width="0.5" stroke="black" fill="cyan"/>
   </g>
   <g id="cell102">
  <circle cx="1546.12" cy="2500.29" r="7.72056" stroke-width="0.5" stroke="black" fill="cyan"/>
  <circle cx="1546.12" cy="2500.29" r="4.69003" stroke-width="0.5" stroke="black" fill="cyan"/>
   </g>
   <g id="cell103">
  <circle cx="1674.11" cy="491.509" r="7.72056" stroke-width="0.5" stroke="black" fill="cyan"/>
  <circle cx="1674.11" cy="491.509" r="4.69003" stroke-width="0.5" stroke="black" fill="cyan"/>
   </g>
   <g id="cell104">
  <circle cx="1007.29" cy="941.891" r="6.37149" stroke-width="0.5" stroke="black" fill="red"/>
  <circle cx="1007.29" cy="941.891" r="3.895" stroke-width="0.5" stroke="black" fill="red"/>
   </g>
   <g id="cell105">
  <circle cx="678.145" cy="2686.66" r="7.70049" stroke-width="0.5" stroke="black" fill="red"/>
  <circle cx="678.145" cy="2686.66" r="4.67828" stroke-width="0.5" stroke="black" fill="red"/>
   </g>
   <g id="cell106">
  <circle cx="1158.5" cy="1083.33" r="7.70049" stroke-width="0.5" stroke="black" fill="cyan"/>
  <circle cx="1158.5" cy="1083.33" r="4.67828" stroke-width="0.5" stroke="black" fill="cyan"/>
   </g>
   <g id="cell107">
  <circle cx="2663.17" cy="2604.14" r="6.22592" stroke-width="0.5" stroke="black" fill="cyan"/>
  <circle cx="2663.17" cy="2604.14" r="3.84129" stroke-width="0.5" stroke="black" fill="cyan"/>
   </g>
   <g id="cell108">
  <circle cx="530.912" cy="2640.62" r="6.73053" stroke-width="0.5" stroke="black" fill="red"/>
  <circle cx="530.912" cy="2640.62" r="4.12812" stroke-width="0.5" stroke="black" fill="red"/>
   </g>
   <g id="cell109">
  <circle cx="2074.71" cy="338.4" r="7.61469" stroke-width="0.5" stroke="black" fill="cyan"/>
  <circle cx="2074.71" cy="338.4" r="4.62762" stroke-width="0.5" stroke="black" fill="cyan"/>
   </g>
   <g id="cell110">
  <circle cx="623.204" cy="1860.53" r="7.59183" stroke-width="0.5" stroke="black" fill="red"/>
  <circle cx="623.204" cy="1860.53" r="4.61399" stroke-width="0.5" stroke="black" fill="red"/>
   </g>
   <g id="cell111">
  <circle cx="2210.93" cy="2216.38" r="7.59183" stroke-width="0.5" stroke="black" fill="red"/>
  <circle cx="2210.93" cy="2216.38" r="4.61399" stroke-width="0.5" stroke="black" fill="red"/>
   </g>
   <g id="cell112">
  <circle cx="2659.52" cy="2582.31" r="7.15532" stroke-width="0.5" stroke="black" fill="cyan"/>
  <circle cx="2659.52" cy="2582.31" r="4.38456" stroke-width="0.5" stroke="black" fill="cyan"/>
   </g>
   <g id="cell113">
  <circle cx="1417.31" cy="1553.53" r="6.75641" stroke-width="0.5" stroke="black" fill="red"/>
  <circle cx="1417.31" cy="1553.53" r="4.14529" stroke-width="0.5" stroke="black" fill="red"/>
   </g>
   <g id="cell114">
  <circle cx="908.515" cy="1301.1" r="6.99069" stroke-width="0.5" stroke="black" fill="cyan"/>
  <circle cx="908.515" cy="1301.1" r="4.23498" stroke-width="0.5" stroke="black" fill="cyan"/>
   </g>
   <g id="cell115">
  <circle cx="1674.26" cy="1246.72" r="8.41271" stroke-width="0.5" stroke="black" fill="cyan"/>
  <circle cx="1674.26" cy="1246.72" r="5.05167" stroke-width="0.5" stroke="black" fill="cyan"/>
   </g>
   <g id="cell116">
  <circle cx="464.298" cy="1105" r="7.46878" stroke-width="0.5" stroke="black" fill="cyan"/>
  <circle cx="464.298" cy="1105" r="4.53982" stroke-width="0.5" stroke="black" fill="cyan"/>
   </g>
   <g id="cell117">
  <circle cx="465.091" cy="1090.87" r="7.46878" stroke-width="0.5" stroke="black" fill="cyan"/>
  <circle cx="465.091" cy="1090.87" r="4.53982" stroke-width="0.5" stroke="black" fill="cyan"/>
   </g>
   <g id="cell118">
  <circle cx="2192.05" cy="2257.45" r="7.46878" stroke-width="0.5" stroke="black" fill="red"/>
  <circle cx="2192.05" cy="2257.45" r="4.53982" stroke-width="0.5" stroke="black" fill="red"/>
   </g>
   <g id="cell119">
  <circle cx="1562.64" cy="1445.31" r="7.46878" stroke-width="0.5" stroke="black" fill="red"/>
  <circle cx="1562.64" cy="1445.31" r="4.53982" stroke-width="0.5" stroke="black" fill="red"/>
   </g>
   <g id="cell120">
  <circle cx="598.584" cy="1849.6" r="5.81868" stroke-width="0.5" stroke="black" fill="red"/>
  <circle cx="598.584" cy="1849.6" r="3.58865" stroke-width="0.5" stroke="black" fill="red"/>
   </g>
   <g id="cell121">
  <circle cx="2609.01" cy="962.845" r="7.44242" stroke-width="0.5" stroke="black" fill="cyan"/>
  <circle cx="2609.01" cy="962.845" r="4.52373" stroke-width="0.5" stroke="black" fill="cyan"/>
   </g>
   <g id="cell122">
  <circle cx="1169.98" cy="1090.87" r="5.80129" stroke-width="0.5" stroke="black" fill="cyan"/>
  <circle cx="1169.98" cy="1090.87" r="3.5751" stroke-width="0.5" stroke="black" fill="cyan"/>
   </g>
   <g id="cell123">
  <circle cx="1283.26" cy="2506.67" r="7.33129" stroke-width="0.5" stroke="black" fill="red"/>
  <circle cx="1283.26" cy="2506.67" r="4.45516" stroke-width="0.5" stroke="black" fill="red"/>
   </g>
   <g id="cell124">
  <circle cx="1665.06" cy="2384.58" r="8.41271" stroke-width="0.5" stroke="black" fill="cyan"/>
  <circle cx="1665.06" cy="2384.58" r="5.05167" stroke-width="0.5" stroke="black" fill="cyan"/>
   </g>
   <g id="cell125">
  <circle cx="320.897" cy="644.221" r="6.30293" stroke-width="0.5" stroke="black" fill="red"/>
  <circle cx="320.897" cy="644.221" r="3.86516" stroke-width="0.5" stroke="black" fill="red"/>
   </g>
   <g id="cell126">
  <circle cx="2264.37" cy="338.113" r="5.79573" stroke-width="0.5" stroke="black" fill="red"/>
  <circle cx="2264.37" cy="338.113" r="3.52162" stroke-width="0.5" stroke="black" fill="red"/>
   </g>
   <g id="cell127">
  <circle cx="1405.95" cy="1565.21" r="5.73865" stroke-width="0.5" stroke="black" fill="red"/>
  <circle cx="1405.95" cy="1565.21" r="3.54255" stroke-width="0.5" stroke="black" fill="red"/>
   </g>
   <g id="cell128">
  <circle cx="1753.4" cy="1391.38" r="7.30216" stroke-width="0.5" stroke="black" fill="cyan"/>
  <circle cx="1753.4" cy="1391.38" r="4.43696" stroke-width="0.5" stroke="black" fill="cyan"/>
   </g>
   <g id="cell129">
  <circle cx="2620.78" cy="956.389" r="6.67777" stroke-width="0.5" stroke="black" fill="cyan"/>
  <circle cx="2620.78" cy="956.389" r="4.09835" stroke-width="0.5" stroke="black" fill="cyan"/>
   </g>
   <g id="cell130">
  <circle cx="1687.45" cy="494.976" r="6.81877" stroke-width="0.5" stroke="black" fill="cyan"/>
  <circle cx="1687.45" cy="494.976" r="4.18078" stroke-width="0.5" stroke="black" fill="cyan"/>
   </g>
   <g id="cell131">
  <circle cx="1752.1" cy="2366.53" r="7.27253" stroke-width="0.5" stroke="black" fill="red"/>
  <circle cx="1752.1" cy="2366.53" r="4.41835" stroke-width="0.5" stroke="black" fill="red"/>
   </g>
   <g id="cell132">
  <circle cx="543.281" cy="2643.91" r="6.73053" stroke-width="0.5" stroke="black" fill="red"/>
  <circle cx="543.281" cy="2643.91" r="4.12812" stroke-width="0.5" stroke="black" fill="red"/>
   </g>
   <g id="cell133">
  <circle cx="351.071" cy="1070.96" r="7.21189" stroke-width="0.5" stroke="black" fill="red"/>
  <circle cx="351.071" cy="1070.96" r="4.37993" stroke-width="0.5" stroke="black" fill="red"/>
   </g>
   <g id="cell134">
  <circle cx="537.35" cy="2629.69" r="6.69514" stroke-width="0.5" stroke="black" fill="red"/>
  <circle cx="537.35" cy="2629.69" r="4.10613" stroke-width="0.5" stroke="black" fill="red"/>
   </g>
   <g id="cell135">
  <circle cx="1307.64" cy="2498.48" r="5.28878" stroke-width="0.5" stroke="black" fill="red"/>
  <circle cx="1307.64" cy="2498.48" r="3.25538" stroke-width="0.5" stroke="black" fill="red"/>
   </g>
   <g id="cell136">
  <circle cx="730.99" cy="1251.99" r="7.11815" stroke-width="0.5" stroke="black" fill="red"/>
  <circle cx="730.99" cy="1251.99" r="4.31954" stroke-width="0.5" stroke="black" fill="red"/>
   </g>
   <g id="cell137">
  <circle cx="1213.22" cy="1452.17" r="7.11815" stroke-width="0.5" stroke="black" fill="cyan"/>
  <circle cx="1213.22" cy="1452.17" r="4.31954" stroke-width="0.5" stroke="black" fill="cyan"/>
   </g>
   <g id="cell138">
  <circle cx="1657.24" cy="1246.82" r="8.41271" stroke-width="0.5" stroke="black" fill="cyan"/>
  <circle cx="1657.24" cy="1246.82" r="5.05167" stroke-width="0.5" stroke="black" fill="cyan"/>
   </g>
   <g id="cell139">
  <circle cx="2668.88" cy="2596.64" r="4.26753" stroke-width="0.5" stroke="black" fill="cyan"/>
  <circle cx="2668.88" cy="2596.64" r="2.64733" stroke-width="0.5" stroke="black" fill="cyan"/>
   </g>
   <g id="cell140">
  <circle cx="1667.48" cy="1235.2" r="6.46942" stroke-width="0.5" stroke="black" fill="red"/>
  <circle cx="1667.48" cy="1235.2" r="3.96703" stroke-width="0.5" stroke="black" fill="red"/>
   </g>
   <g id="cell141">
  <circle cx="1394.09" cy="828.77" r="7.08639" stroke-width="0.5" stroke="black" fill="red"/>
  <circle cx="1394.09" cy="828.77" r="4.29876" stroke-width="0.5" stroke="black" fill="red"/>
   </g>
   <g id="cell142">
  <circle cx="307.432" cy="640.569" r="8.41271" stroke-width="0.5" stroke="black" fill="cyan"/>
  <circle cx="307.432" cy="640.569" r="5.05167" stroke-width="0.5" stroke="black" fill="cyan"/>
   </g>
   <g id="cell143">
  <circle cx="2652.01" cy="435.134" r="7.0545" stroke-width="0.5" stroke="black" fill="red"/>
  <circle cx="2652.01" cy="435.134" r="4.27772" stroke-width="0.5" stroke="black" fill="red"/>
   </g>
   <g id="cell144">
  <circle cx="895.781" cy="1301.48" r="6.46438" stroke-width="0.5" stroke="black" fill="red"/>
  <circle cx="895.781" cy="1301.48" r="3.96234" stroke-width="0.5" stroke="black" fill="red"/>
   </g>
   <g id="cell145">
  <circle cx="401.968" cy="1364.41" r="7.02257" stroke-width="0.5" stroke="black" fill="red"/>
  <circle cx="401.968" cy="1364.41" r="4.25644" stroke-width="0.5" stroke="black" fill="red"/>
   </g>
   <g id="cell146">
  <circle cx="908.742" cy="1314.29" r="6.99069" stroke-width="0.5" stroke="black" fill="cyan"/>
  <circle cx="908.742" cy="1314.29" r="4.23498" stroke-width="0.5" stroke="black" fill="cyan"/>
   </g>
   <g id="cell147">
  <circle cx="1839.01" cy="1687.72" r="6.99069" stroke-width="0.5" stroke="black" fill="red"/>
  <circle cx="1839.01" cy="1687.72" r="4.23498" stroke-width="0.5" stroke="black" fill="red"/>
   </g>
   <g id="cell148">
  <circle cx="636.179" cy="2159.4" r="8.41271" stroke-width="0.5" stroke="black" fill="cyan"/>
  <circle cx="636.179" cy="2159.4" r="5.05167" stroke-width="0.5" stroke="black" fill="cyan"/>
   </g>
   <g id="cell149">
  <circle cx="1931.42" cy="1372.42" r="6.95901" stroke-width="0.5" stroke="black" fill="red"/>
  <circle cx="1931.42" cy="1372.42" r="4.21341" stroke-width="0.5" stroke="black" fill="red"/>
   </g>
   <g id="cell150">
  <circle cx="530.879" cy="1786.14" r="6.95901" stroke-width="0.5" stroke="black" fill="red"/>
  <circle cx="530.879" cy="1786.14" r="4.21341" stroke-width="0.5" stroke="black" fill="red"/>
   </g>
   <g id="cell151">
  <circle cx="602.678" cy="2107.54" r="6.95901" stroke-width="0.5" stroke="black" fill="red"/>
  <circle cx="602.678" cy="2107.54" r="4.21341" stroke-width="0.5" stroke="black" fill="red"/>
   </g>
   <g id="cell152">
  <circle cx="1183.07" cy="1067.8" r="5.92975" stroke-width="0.5" stroke="black" fill="cyan"/>
  <circle cx="1183.07" cy="1067.8" r="3.65856" stroke-width="0.5" stroke="black" fill="cyan"/>
   </g>
   <g id="cell153">
  <circle cx="2677.23" cy="2593.51" r="5.37675" stroke-width="0.5" stroke="black" fill="cyan"/>
  <circle cx="2677.23" cy="2593.51" r="3.33543" stroke-width="0.5" stroke="black" fill="cyan"/>
   </g>
   <g id="cell154">
  <circle cx="1405.54" cy="1554.48" r="5.73865" stroke-width="0.5" stroke="black" fill="red"/>
  <circle cx="1405.54" cy="1554.48" r="3.54255" stroke-width="0.5" stroke="black" fill="red"/>
   </g>
   <g id="cell155">
  <circle cx="1002.5" cy="930.846" r="6.37149" stroke-width="0.5" stroke="black" fill="red"/>
  <circle cx="1002.5" cy="930.846" r="3.895" stroke-width="0.5" stroke="black" fill="red"/>
   </g>
   <g id="cell156">
  <circle cx="610.416" cy="1863.8" r="4.68949" stroke-width="0.5" stroke="black" fill="red"/>
  <circle cx="610.416" cy="1863.8" r="2.89611" stroke-width="0.5" stroke="black" fill="red"/>
   </g>
   <g id="cell157">
  <circle cx="1618.38" cy="1713.78" r="5.70759" stroke-width="0.5" stroke="black" fill="red"/>
  <circle cx="1618.38" cy="1713.78" r="3.47727" stroke-width="0.5" stroke="black" fill="red"/>
   </g>
   <g id="cell158">
  <circle cx="2207.88" cy="2237.01" r="8.41271" stroke-width="0.5" stroke="black" fill="cyan"/>
  <circle cx="2207.88" cy="2237.01" r="5.05167" stroke-width="0.5" stroke="black" fill="cyan"/>
   </g>
   <g id="cell159">
  <circle cx="1176.84" cy="1075.64" r="4.81794" stroke-width="0.5" stroke="black" fill="cyan"/>
  <circle cx="1176.84" cy="1075.64" r="2.98148" stroke-width="0.5" stroke="black" fill="cyan"/>
   </g>
   <g id="cell160">
  <circle cx="1772.3" cy="843.085" r="6.86652" stroke-width="0.5" stroke="black" fill="red"/>
  <circle cx="1772.3" cy="843.085" r="4.14883" stroke-width="0.5" stroke="black" fill="red"/>
   </g>
   <g id="cell161">
  <circle cx="2641.74" cy="424.431" r="8.41271" stroke-width="0.5" stroke="black" fill="cyan"/>
  <circle cx="2641.74" cy="424.431" r="5.05167" stroke-width="0.5" stroke="black" fill="cyan"/>
   </g>
   <g id="cell162">
  <circle cx="985.957" cy="2644.66" r="6.86652" stroke-width="0.5" stroke="black" fill="red"/>
  <circle cx="985.957" cy="2644.66" r="4.14883" stroke-width="0.5" stroke="black" fill="red"/>
   </g>
   <g id="cell163">
  <circle cx="977.8" cy="936.532" r="6.86652" stroke-width="0.5" stroke="black" fill="cyan"/>
  <circle cx="977.8" cy="936.532" r="4.14883" stroke-width="0.5" stroke="black" fill="cyan"/>
   </g>
   <g id="cell164">
  <circle cx="933.655" cy="1532.06" r="8.41271" stroke-width="0.5" stroke="black" fill="cyan"/>
  <circle cx="933.655" cy="1532.06" r="5.05167" stroke-width="0.5" stroke="black" fill="cyan"/>
   </g>
   <g id="cell165">
  <circle cx="1894.03" cy="2325.86" r="6.83713" stroke-width="0.5" stroke="black" fill="cyan"/>
  <circle cx="1894.03" cy="2325.86" r="4.12773" stroke-width="0.5" stroke="black" fill="cyan"/>
   </g>
   <g id="cell166">
  <circle cx="535.807" cy="1870.24" r="6.83713" stroke-width="0.5" stroke="black" fill="red"/>
  <circle cx="535.807" cy="1870.24" r="4.12773" stroke-width="0.5" stroke="black" fill="red"/>
   </g>
   <g id="cell167">
  <circle cx="677.613" cy="1118.95" r="6.83713" stroke-width="0.5" stroke="black" fill="red"/>
  <circle cx="677.613" cy="1118.95" r="4.12773" stroke-width="0.5" stroke="black" fill="red"/>
   </g>
   <g id="cell168">
  <circle cx="1608.26" cy="1717.41" r="5.70759" stroke-width="0.5" stroke="black" fill="red"/>
  <circle cx="1608.26" cy="1717.41" r="3.47727" stroke-width="0.5" stroke="black" fill="red"/>
   </g>
   <g id="cell169">
  <circle cx="1665.56" cy="1256.72" r="5.38025" stroke-width="0.5" stroke="black" fill="red"/>
  <circle cx="1665.56" cy="1256.72" r="3.31501" stroke-width="0.5" stroke="black" fill="red"/>
   </g>
   <g id="cell170">
  <circle cx="1169.84" cy="1080.99" r="4.81794" stroke-width="0.5" stroke="black" fill="cyan"/>
  <circle cx="1169.84" cy="1080.99" r="2.98148" stroke-width="0.5" stroke="black" fill="cyan"/>
   </g>
   <g id="cell171">
  <circle cx="548.269" cy="1873.68" r="6.78181" stroke-width="0.5" stroke="black" fill="cyan"/>
  <circle cx="548.269" cy="1873.68" r="4.08714" stroke-width="0.5" stroke="black" fill="cyan"/>
   </g>
   <g id="cell172">
  <circle cx="1305.32" cy="2508.19" r="5.28878" stroke-width="0.5" stroke="black" fill="red"/>
  <circle cx="1305.32" cy="2508.19" r="3.25538" stroke-width="0.5" stroke="black" fill="red"/>
   </g>
   <g id="cell173">
  <circle cx="2439.98" cy="426.581" r="6.75639" stroke-width="0.5" stroke="black" fill="red"/>
  <circle cx="2439.98" cy="426.581" r="4.06813" stroke-width="0.5" stroke="black" fill="red"/>
   </g>
   <g id="cell174">
  <circle cx="1677.97" cy="1261.47" r="8.41271" stroke-width="0.5" stroke="black" fill="cyan"/>
  <circle cx="1677.97" cy="1261.47" r="5.05167" stroke-width="0.5" stroke="black" fill="cyan"/>
   </g>
   <g id="cell175">
  <circle cx="611.036" cy="1851.95" r="8.41271" stroke-width="0.5" stroke="black" fill="cyan"/>
  <circle cx="611.036" cy="1851.95" r="5.05167" stroke-width="0.5" stroke="black" fill="cyan"/>
   </g>
   <g id="cell176">
  <circle cx="1864.2" cy="1704.48" r="6.71158" stroke-width="0.5" stroke="black" fill="red"/>
  <circle cx="1864.2" cy="1704.48" r="4.03435" stroke-width="0.5" stroke="black" fill="red"/>
   </g>
   <g id="cell177">
  <circle cx="2665.99" cy="2589.8" r="4.26753" stroke-width="0.5" stroke="black" fill="cyan"/>
  <circle cx="2665.99" cy="2589.8" r="2.64733" stroke-width="0.5" stroke="black" fill="cyan"/>
   </g>
   <g id="cell178">
  <circle cx="2256.17" cy="331.637" r="5.79573" stroke-width="0.5" stroke="black" fill="red"/>
  <circle cx="2256.17" cy="331.637" r="3.52162" stroke-width="0.5" stroke="black" fill="red"/>
   </g>
  </g>
 </g>
  <rect x="2725" y="3105" width="200" height="30" stroke-width="6" stroke="rgb(255,255,255)" fill="rgb(0,0,0)"/>
  <text x="2743.75" y="3086.25"
   font-family="Arial" font-size="75" fill="black" >
   200 &#956;m
  </text>
  <text x="75" y="3135"
   font-family="Arial" font-size="56.25" fill="black" >
   0 days, 0 hours, 0 minutes, and 2.9911 seconds
  </text>
  <rect x="0" y="210" width="3000" height="3000" stroke-width="6" stroke="rgb(0,0,0)" fill="none"/>
</svg>
