<?xml version="1.0" encoding="UTF-8" standalone="no"?>
<!-- Created with PhysiCell (http://PhysiCell.MathCancer.org/) -->
<svg 
 xmlns:dc="http://purl.org/dc/elements/1.1/" 
 xmlns:cc="http://creativecommons.org/ns#" 
 xmlns:rdf="http://www.w3.org/1999/02/22-rdf-syntax-ns#" 
 xmlns:svg="http://www.w3.org/2000/svg" 
 xmlns="http://www.w3.org/2000/svg" 
 version="1.1" 
 width="3000" 
 height="3210" 
 id="svg2">
  <rect x="0" y="0" width="3000" height="3210" stroke-width="6" stroke="white" fill="white"/>
  <text x="37.5" y="90"
   font-family="Arial" font-size="75" fill="black" >
   Current time: 0 days, 6 hours, and 0.00 minutes, z = 0.00 &#956;m
  </text>
  <text x="37.5" y="172.5"
   font-family="Arial" font-size="71.25" fill="black" >
   200 agents
  </text>
 <g id="tissue" 
    transform="translate(0,3210) scale(1,-1)">
  <g id="ECM">
  </g>
  <g id="cells">
   <g id="cell0">
  <circle cx="1615.57" cy="1726.05" r="6.67717" stroke-width="0.5" stroke="black" fill="red"/>
  <circle cx="1615.57" cy="1726.05" r="4.00951" stroke-width="0.5" stroke="black" fill="red"/>
   </g>
   <g id="cell1">
  <circle cx="2011.32" cy="2331.69" r="6.67717" stroke-width="0.5" stroke="black" fill="red"/>
  <circle cx="2011.32" cy="2331.69" r="4.00951" stroke-width="0.5" stroke="black" fill="red"/>
   </g>
   <g id="cell2">
  <circle cx="1748.65" cy="2358.73" r="6.67717" stroke-width="0.5" stroke="black" fill="red"/>
  <circle cx="1748.65" cy="2358.73" r="4.00951" stroke-width="0.5" stroke="black" fill="red"/>
   </g>
   <g id="cell3">
  <circle cx="1610.63" cy="2335.5" r="6.67717" stroke-width="0.5" stroke="black" fill="red"/>
  <circle cx="1610.63" cy="2335.5" r="4.00951" stroke-width="0.5" stroke="black" fill="red"/>
   </g>
   <g id="cell4">
  <circle cx="1319.45" cy="1794.16" r="6.67717" stroke-width="0.5" stroke="black" fill="red"/>
  <circle cx="1319.45" cy="1794.16" r="4.00951" stroke-width="0.5" stroke="black" fill="red"/>
   </g>
   <g id="cell5">
  <circle cx="1852.52" cy="1219.83" r="6.67717" stroke-width="0.5" stroke="black" fill="red"/>
  <circle cx="1852.52" cy="1219.83" r="4.00951" stroke-width="0.5" stroke="black" fill="red"/>
   </g>
   <g id="cell6">
  <circle cx="1350.8" cy="1011.68" r="6.67717" stroke-width="0.5" stroke="black" fill="red"/>
  <circle cx="1350.8" cy="1011.68" r="4.00951" stroke-width="0.5" stroke="black" fill="red"/>
   </g>
   <g id="cell7">
  <circle cx="2443.04" cy="433.844" r="6.67717" stroke-width="0.5" stroke="black" fill="red"/>
  <circle cx="2443.04" cy="433.844" r="4.00951" stroke-width="0.5" stroke="black" fill="red"/>
   </g>
   <g id="cell8">
  <circle cx="2610.91" cy="951.648" r="6.67717" stroke-width="0.5" stroke="black" fill="red"/>
  <circle cx="2610.91" cy="951.648" r="4.00951" stroke-width="0.5" stroke="black" fill="red"/>
   </g>
   <g id="cell9">
  <circle cx="1216.7" cy="1446.85" r="6.67717" stroke-width="0.5" stroke="black" fill="red"/>
  <circle cx="1216.7" cy="1446.85" r="4.00951" stroke-width="0.5" stroke="black" fill="red"/>
   </g>
   <g id="cell10">
  <circle cx="2200.09" cy="2245.62" r="6.67717" stroke-width="0.5" stroke="black" fill="red"/>
  <circle cx="2200.09" cy="2245.62" r="4.00951" stroke-width="0.5" stroke="black" fill="red"/>
   </g>
   <g id="cell11">
  <circle cx="1566.13" cy="1450.36" r="6.67717" stroke-width="0.5" stroke="black" fill="red"/>
  <circle cx="1566.13" cy="1450.36" r="4.00951" stroke-width="0.5" stroke="black" fill="red"/>
   </g>
   <g id="cell12">
  <circle cx="1662.23" cy="1239.26" r="6.67717" stroke-width="0.5" stroke="black" fill="red"/>
  <circle cx="1662.23" cy="1239.26" r="4.00951" stroke-width="0.5" stroke="black" fill="red"/>
   </g>
   <g id="cell13">
  <circle cx="2520.77" cy="2310.13" r="6.67717" stroke-width="0.5" stroke="black" fill="red"/>
  <circle cx="2520.77" cy="2310.13" r="4.00951" stroke-width="0.5" stroke="black" fill="red"/>
   </g>
   <g id="cell14">
  <circle cx="468.254" cy="1112.56" r="6.67717" stroke-width="0.5" stroke="black" fill="red"/>
  <circle cx="468.254" cy="1112.56" r="4.00951" stroke-width="0.5" stroke="black" fill="red"/>
   </g>
   <g id="cell15">
  <circle cx="507.221" cy="1858.66" r="6.67717" stroke-width="0.5" stroke="black" fill="red"/>
  <circle cx="507.221" cy="1858.66" r="4.00951" stroke-width="0.5" stroke="black" fill="red"/>
   </g>
   <g id="cell16">
  <circle cx="347.23" cy="1180.43" r="6.67717" stroke-width="0.5" stroke="black" fill="red"/>
  <circle cx="347.23" cy="1180.43" r="4.00951" stroke-width="0.5" stroke="black" fill="red"/>
   </g>
   <g id="cell17">
  <circle cx="2294.95" cy="2595.86" r="6.67717" stroke-width="0.5" stroke="black" fill="red"/>
  <circle cx="2294.95" cy="2595.86" r="4.00951" stroke-width="0.5" stroke="black" fill="red"/>
   </g>
   <g id="cell18">
  <circle cx="2169.52" cy="633.825" r="6.67717" stroke-width="0.5" stroke="black" fill="red"/>
  <circle cx="2169.52" cy="633.825" r="4.00951" stroke-width="0.5" stroke="black" fill="red"/>
   </g>
   <g id="cell19">
  <circle cx="2391.53" cy="2388.99" r="6.67717" stroke-width="0.5" stroke="black" fill="red"/>
  <circle cx="2391.53" cy="2388.99" r="4.00951" stroke-width="0.5" stroke="black" fill="red"/>
   </g>
   <g id="cell20">
  <circle cx="2645.41" cy="1438.14" r="6.67717" stroke-width="0.5" stroke="black" fill="red"/>
  <circle cx="2645.41" cy="1438.14" r="4.00951" stroke-width="0.5" stroke="black" fill="red"/>
   </g>
   <g id="cell21">
  <circle cx="2217.49" cy="2225.74" r="6.67717" stroke-width="0.5" stroke="black" fill="cyan"/>
  <circle cx="2217.49" cy="2225.74" r="4.00951" stroke-width="0.5" stroke="black" fill="cyan"/>
   </g>
   <g id="cell22">
  <circle cx="1411.62" cy="1548.51" r="6.67717" stroke-width="0.5" stroke="black" fill="cyan"/>
  <circle cx="1411.62" cy="1548.51" r="4.00951" stroke-width="0.5" stroke="black" fill="cyan"/>
   </g>
   <g id="cell23">
  <circle cx="2170.79" cy="1926.71" r="6.67717" stroke-width="0.5" stroke="black" fill="red"/>
  <circle cx="2170.79" cy="1926.71" r="4.00951" stroke-width="0.5" stroke="black" fill="red"/>
   </g>
   <g id="cell24">
  <circle cx="586.348" cy="2032.1" r="6.67717" stroke-width="0.5" stroke="black" fill="red"/>
  <circle cx="586.348" cy="2032.1" r="4.00951" stroke-width="0.5" stroke="black" fill="red"/>
   </g>
   <g id="cell25">
  <circle cx="1838.35" cy="1694.37" r="6.67717" stroke-width="0.5" stroke="black" fill="red"/>
  <circle cx="1838.35" cy="1694.37" r="4.00951" stroke-width="0.5" stroke="black" fill="red"/>
   </g>
   <g id="cell26">
  <circle cx="646.577" cy="1587.15" r="6.67717" stroke-width="0.5" stroke="black" fill="red"/>
  <circle cx="646.577" cy="1587.15" r="4.00951" stroke-width="0.5" stroke="black" fill="red"/>
   </g>
   <g id="cell27">
  <circle cx="2568.9" cy="2123.84" r="6.67717" stroke-width="0.5" stroke="black" fill="cyan"/>
  <circle cx="2568.9" cy="2123.84" r="4.00951" stroke-width="0.5" stroke="black" fill="cyan"/>
   </g>
   <g id="cell28">
  <circle cx="1552.55" cy="550.591" r="6.67717" stroke-width="0.5" stroke="black" fill="red"/>
  <circle cx="1552.55" cy="550.591" r="4.00951" stroke-width="0.5" stroke="black" fill="red"/>
   </g>
   <g id="cell29">
  <circle cx="1298.36" cy="1437.23" r="6.67717" stroke-width="0.5" stroke="black" fill="red"/>
  <circle cx="1298.36" cy="1437.23" r="4.00951" stroke-width="0.5" stroke="black" fill="red"/>
   </g>
   <g id="cell30">
  <circle cx="938.329" cy="746.037" r="6.67717" stroke-width="0.5" stroke="black" fill="red"/>
  <circle cx="938.329" cy="746.037" r="4.00951" stroke-width="0.5" stroke="black" fill="red"/>
   </g>
   <g id="cell31">
  <circle cx="2159.83" cy="2065.43" r="6.67717" stroke-width="0.5" stroke="black" fill="red"/>
  <circle cx="2159.83" cy="2065.43" r="4.00951" stroke-width="0.5" stroke="black" fill="red"/>
   </g>
   <g id="cell32">
  <circle cx="1391.19" cy="819.347" r="6.67717" stroke-width="0.5" stroke="black" fill="red"/>
  <circle cx="1391.19" cy="819.347" r="4.00951" stroke-width="0.5" stroke="black" fill="red"/>
   </g>
   <g id="cell33">
  <circle cx="1666.85" cy="622.053" r="6.67717" stroke-width="0.5" stroke="black" fill="red"/>
  <circle cx="1666.85" cy="622.053" r="4.00951" stroke-width="0.5" stroke="black" fill="red"/>
   </g>
   <g id="cell34">
  <circle cx="343.855" cy="1082.12" r="6.67717" stroke-width="0.5" stroke="black" fill="red"/>
  <circle cx="343.855" cy="1082.12" r="4.00951" stroke-width="0.5" stroke="black" fill="red"/>
   </g>
   <g id="cell35">
  <circle cx="1784.81" cy="661.81" r="6.67717" stroke-width="0.5" stroke="black" fill="red"/>
  <circle cx="1784.81" cy="661.81" r="4.00951" stroke-width="0.5" stroke="black" fill="red"/>
   </g>
   <g id="cell36">
  <circle cx="1769.9" cy="831.506" r="6.67717" stroke-width="0.5" stroke="black" fill="cyan"/>
  <circle cx="1769.9" cy="831.506" r="4.00951" stroke-width="0.5" stroke="black" fill="cyan"/>
   </g>
   <g id="cell37">
  <circle cx="1778.57" cy="1224.64" r="6.67717" stroke-width="0.5" stroke="black" fill="cyan"/>
  <circle cx="1778.57" cy="1224.64" r="4.00951" stroke-width="0.5" stroke="black" fill="cyan"/>
   </g>
   <g id="cell38">
  <circle cx="2568.55" cy="2465.76" r="6.67717" stroke-width="0.5" stroke="black" fill="red"/>
  <circle cx="2568.55" cy="2465.76" r="4.00951" stroke-width="0.5" stroke="black" fill="red"/>
   </g>
   <g id="cell39">
  <circle cx="1934.52" cy="1376.8" r="6.67717" stroke-width="0.5" stroke="black" fill="red"/>
  <circle cx="1934.52" cy="1376.8" r="4.00951" stroke-width="0.5" stroke="black" fill="red"/>
   </g>
   <g id="cell40">
  <circle cx="1163.95" cy="1767.49" r="6.67717" stroke-width="0.5" stroke="black" fill="red"/>
  <circle cx="1163.95" cy="1767.49" r="4.00951" stroke-width="0.5" stroke="black" fill="red"/>
   </g>
   <g id="cell41">
  <circle cx="1350.89" cy="2462.66" r="6.67717" stroke-width="0.5" stroke="black" fill="red"/>
  <circle cx="1350.89" cy="2462.66" r="4.00951" stroke-width="0.5" stroke="black" fill="red"/>
   </g>
   <g id="cell42">
  <circle cx="1974.44" cy="534.686" r="6.67717" stroke-width="0.5" stroke="black" fill="red"/>
  <circle cx="1974.44" cy="534.686" r="4.00951" stroke-width="0.5" stroke="black" fill="red"/>
   </g>
   <g id="cell43">
  <circle cx="444.237" cy="2631.12" r="6.67717" stroke-width="0.5" stroke="black" fill="red"/>
  <circle cx="444.237" cy="2631.12" r="4.00951" stroke-width="0.5" stroke="black" fill="red"/>
   </g>
   <g id="cell44">
  <circle cx="1897.31" cy="1865.47" r="6.67717" stroke-width="0.5" stroke="black" fill="red"/>
  <circle cx="1897.31" cy="1865.47" r="4.00951" stroke-width="0.5" stroke="black" fill="red"/>
   </g>
   <g id="cell45">
  <circle cx="1910.93" cy="713.49" r="6.67717" stroke-width="0.5" stroke="black" fill="red"/>
  <circle cx="1910.93" cy="713.49" r="4.00951" stroke-width="0.5" stroke="black" fill="red"/>
   </g>
   <g id="cell46">
  <circle cx="803.571" cy="1156.24" r="6.67717" stroke-width="0.5" stroke="black" fill="red"/>
  <circle cx="803.571" cy="1156.24" r="4.00951" stroke-width="0.5" stroke="black" fill="red"/>
   </g>
   <g id="cell47">
  <circle cx="613.006" cy="2101.44" r="6.67717" stroke-width="0.5" stroke="black" fill="red"/>
  <circle cx="613.006" cy="2101.44" r="4.00951" stroke-width="0.5" stroke="black" fill="red"/>
   </g>
   <g id="cell48">
  <circle cx="1056.41" cy="1762.33" r="6.67717" stroke-width="0.5" stroke="black" fill="red"/>
  <circle cx="1056.41" cy="1762.33" r="4.00951" stroke-width="0.5" stroke="black" fill="red"/>
   </g>
   <g id="cell49">
  <circle cx="1169.13" cy="1079.56" r="6.67717" stroke-width="0.5" stroke="black" fill="cyan"/>
  <circle cx="1169.13" cy="1079.56" r="4.00951" stroke-width="0.5" stroke="black" fill="cyan"/>
   </g>
   <g id="cell50">
  <circle cx="1666.11" cy="389.491" r="6.67717" stroke-width="0.5" stroke="black" fill="red"/>
  <circle cx="1666.11" cy="389.491" r="4.00951" stroke-width="0.5" stroke="black" fill="red"/>
   </g>
   <g id="cell51">
  <circle cx="1355.62" cy="1820.25" r="6.67717" stroke-width="0.5" stroke="black" fill="red"/>
  <circle cx="1355.62" cy="1820.25" r="4.00951" stroke-width="0.5" stroke="black" fill="red"/>
   </g>
   <g id="cell52">
  <circle cx="2670.53" cy="2598.25" r="6.67717" stroke-width="0.5" stroke="black" fill="red"/>
  <circle cx="2670.53" cy="2598.25" r="4.00951" stroke-width="0.5" stroke="black" fill="red"/>
   </g>
   <g id="cell53">
  <circle cx="541.372" cy="1866.08" r="6.67717" stroke-width="0.5" stroke="black" fill="red"/>
  <circle cx="541.372" cy="1866.08" r="4.00951" stroke-width="0.5" stroke="black" fill="red"/>
   </g>
   <g id="cell54">
  <circle cx="803.396" cy="1821.65" r="6.67717" stroke-width="0.5" stroke="black" fill="red"/>
  <circle cx="803.396" cy="1821.65" r="4.00951" stroke-width="0.5" stroke="black" fill="red"/>
   </g>
   <g id="cell55">
  <circle cx="685.988" cy="2685.32" r="6.67717" stroke-width="0.5" stroke="black" fill="red"/>
  <circle cx="685.988" cy="2685.32" r="4.00951" stroke-width="0.5" stroke="black" fill="red"/>
   </g>
   <g id="cell56">
  <circle cx="1865.47" cy="1693.46" r="6.67717" stroke-width="0.5" stroke="black" fill="red"/>
  <circle cx="1865.47" cy="1693.46" r="4.00951" stroke-width="0.5" stroke="black" fill="red"/>
   </g>
   <g id="cell57">
  <circle cx="910.467" cy="1296.99" r="6.67717" stroke-width="0.5" stroke="black" fill="red"/>
  <circle cx="910.467" cy="1296.99" r="4.00951" stroke-width="0.5" stroke="black" fill="red"/>
   </g>
   <g id="cell58">
  <circle cx="1415.57" cy="1439.54" r="6.67717" stroke-width="0.5" stroke="black" fill="red"/>
  <circle cx="1415.57" cy="1439.54" r="4.00951" stroke-width="0.5" stroke="black" fill="red"/>
   </g>
   <g id="cell59">
  <circle cx="883.175" cy="1797.43" r="6.67717" stroke-width="0.5" stroke="black" fill="red"/>
  <circle cx="883.175" cy="1797.43" r="4.00951" stroke-width="0.5" stroke="black" fill="red"/>
   </g>
   <g id="cell60">
  <circle cx="684.97" cy="1112.23" r="6.67717" stroke-width="0.5" stroke="black" fill="red"/>
  <circle cx="684.97" cy="1112.23" r="4.00951" stroke-width="0.5" stroke="black" fill="red"/>
   </g>
   <g id="cell61">
  <circle cx="561.633" cy="1919.57" r="6.67717" stroke-width="0.5" stroke="black" fill="cyan"/>
  <circle cx="561.633" cy="1919.57" r="4.00951" stroke-width="0.5" stroke="black" fill="cyan"/>
   </g>
   <g id="cell62">
  <circle cx="1878.64" cy="1062.26" r="6.67717" stroke-width="0.5" stroke="black" fill="red"/>
  <circle cx="1878.64" cy="1062.26" r="4.00951" stroke-width="0.5" stroke="black" fill="red"/>
   </g>
   <g id="cell63">
  <circle cx="633.907" cy="2170.81" r="6.67717" stroke-width="0.5" stroke="black" fill="red"/>
  <circle cx="633.907" cy="2170.81" r="4.00951" stroke-width="0.5" stroke="black" fill="red"/>
   </g>
   <g id="cell64">
  <circle cx="773.198" cy="2582.37" r="6.67717" stroke-width="0.5" stroke="black" fill="red"/>
  <circle cx="773.198" cy="2582.37" r="4.00951" stroke-width="0.5" stroke="black" fill="red"/>
   </g>
   <g id="cell65">
  <circle cx="1187.43" cy="1892.65" r="6.67717" stroke-width="0.5" stroke="black" fill="red"/>
  <circle cx="1187.43" cy="1892.65" r="4.00951" stroke-width="0.5" stroke="black" fill="red"/>
   </g>
   <g id="cell66">
  <circle cx="2273.88" cy="333.389" r="6.67717" stroke-width="0.5" stroke="black" fill="red"/>
  <circle cx="2273.88" cy="333.389" r="4.00951" stroke-width="0.5" stroke="black" fill="red"/>
   </g>
   <g id="cell67">
  <circle cx="533.074" cy="1798.42" r="6.67717" stroke-width="0.5" stroke="black" fill="red"/>
  <circle cx="533.074" cy="1798.42" r="4.00951" stroke-width="0.5" stroke="black" fill="red"/>
   </g>
   <g id="cell68">
  <circle cx="2307.47" cy="1915.58" r="6.67717" stroke-width="0.5" stroke="black" fill="red"/>
  <circle cx="2307.47" cy="1915.58" r="4.00951" stroke-width="0.5" stroke="black" fill="red"/>
   </g>
   <g id="cell69">
  <circle cx="529.574" cy="2636.1" r="6.67717" stroke-width="0.5" stroke="black" fill="red"/>
  <circle cx="529.574" cy="2636.1" r="4.00951" stroke-width="0.5" stroke="black" fill="red"/>
   </g>
   <g id="cell70">
  <circle cx="2646.37" cy="2409.82" r="6.67717" stroke-width="0.5" stroke="black" fill="red"/>
  <circle cx="2646.37" cy="2409.82" r="4.00951" stroke-width="0.5" stroke="black" fill="red"/>
   </g>
   <g id="cell71">
  <circle cx="1421.51" cy="1524.61" r="6.67717" stroke-width="0.5" stroke="black" fill="red"/>
  <circle cx="1421.51" cy="1524.61" r="4.00951" stroke-width="0.5" stroke="black" fill="red"/>
   </g>
   <g id="cell72">
  <circle cx="2641.01" cy="435.314" r="6.67717" stroke-width="0.5" stroke="black" fill="red"/>
  <circle cx="2641.01" cy="435.314" r="4.00951" stroke-width="0.5" stroke="black" fill="red"/>
   </g>
   <g id="cell73">
  <circle cx="1748.05" cy="1382.46" r="6.67717" stroke-width="0.5" stroke="black" fill="red"/>
  <circle cx="1748.05" cy="1382.46" r="4.00951" stroke-width="0.5" stroke="black" fill="red"/>
   </g>
   <g id="cell74">
  <circle cx="2077.57" cy="349.284" r="6.67717" stroke-width="0.5" stroke="black" fill="red"/>
  <circle cx="2077.57" cy="349.284" r="4.00951" stroke-width="0.5" stroke="black" fill="red"/>
   </g>
   <g id="cell75">
  <circle cx="390.551" cy="1359.31" r="6.67717" stroke-width="0.5" stroke="black" fill="red"/>
  <circle cx="390.551" cy="1359.31" r="4.00951" stroke-width="0.5" stroke="black" fill="red"/>
   </g>
   <g id="cell76">
  <circle cx="981.53" cy="2648.76" r="6.67717" stroke-width="0.5" stroke="black" fill="cyan"/>
  <circle cx="981.53" cy="2648.76" r="4.00951" stroke-width="0.5" stroke="black" fill="cyan"/>
   </g>
   <g id="cell77">
  <circle cx="586.007" cy="1160.06" r="6.67717" stroke-width="0.5" stroke="black" fill="red"/>
  <circle cx="586.007" cy="1160.06" r="4.00951" stroke-width="0.5" stroke="black" fill="red"/>
   </g>
   <g id="cell78">
  <circle cx="1009.84" cy="1450.67" r="6.67717" stroke-width="0.5" stroke="black" fill="cyan"/>
  <circle cx="1009.84" cy="1450.67" r="4.00951" stroke-width="0.5" stroke="black" fill="cyan"/>
   </g>
   <g id="cell79">
  <circle cx="585.567" cy="1956.32" r="6.67717" stroke-width="0.5" stroke="black" fill="red"/>
  <circle cx="585.567" cy="1956.32" r="4.00951" stroke-width="0.5" stroke="black" fill="red"/>
   </g>
   <g id="cell80">
  <circle cx="1066.75" cy="2413.23" r="6.67717" stroke-width="0.5" stroke="black" fill="red"/>
  <circle cx="1066.75" cy="2413.23" r="4.00951" stroke-width="0.5" stroke="black" fill="red"/>
   </g>
   <g id="cell81">
  <circle cx="1293.57" cy="2507.29" r="6.67717" stroke-width="0.5" stroke="black" fill="red"/>
  <circle cx="1293.57" cy="2507.29" r="4.00951" stroke-width="0.5" stroke="black" fill="red"/>
   </g>
   <g id="cell82">
  <circle cx="453.457" cy="823.928" r="6.67717" stroke-width="0.5" stroke="black" fill="cyan"/>
  <circle cx="453.457" cy="823.928" r="4.00951" stroke-width="0.5" stroke="black" fill="cyan"/>
   </g>
   <g id="cell83">
  <circle cx="1963.47" cy="1653.21" r="6.67717" stroke-width="0.5" stroke="black" fill="cyan"/>
  <circle cx="1963.47" cy="1653.21" r="4.00951" stroke-width="0.5" stroke="black" fill="cyan"/>
   </g>
   <g id="cell84">
  <circle cx="1656.63" cy="2377.84" r="6.67717" stroke-width="0.5" stroke="black" fill="cyan"/>
  <circle cx="1656.63" cy="2377.84" r="4.00951" stroke-width="0.5" stroke="black" fill="cyan"/>
   </g>
   <g id="cell85">
  <circle cx="935.095" cy="1518.44" r="6.67717" stroke-width="0.5" stroke="black" fill="red"/>
  <circle cx="935.095" cy="1518.44" r="4.00951" stroke-width="0.5" stroke="black" fill="red"/>
   </g>
   <g id="cell86">
  <circle cx="1558.96" cy="2498.45" r="6.67717" stroke-width="0.5" stroke="black" fill="red"/>
  <circle cx="1558.96" cy="2498.45" r="4.00951" stroke-width="0.5" stroke="black" fill="red"/>
   </g>
   <g id="cell87">
  <circle cx="527.387" cy="2507.75" r="6.67717" stroke-width="0.5" stroke="black" fill="red"/>
  <circle cx="527.387" cy="2507.75" r="4.00951" stroke-width="0.5" stroke="black" fill="red"/>
   </g>
   <g id="cell88">
  <circle cx="1684.58" cy="502.218" r="6.67717" stroke-width="0.5" stroke="black" fill="red"/>
  <circle cx="1684.58" cy="502.218" r="4.00951" stroke-width="0.5" stroke="black" fill="red"/>
   </g>
   <g id="cell89">
  <circle cx="2526.72" cy="966.417" r="6.67717" stroke-width="0.5" stroke="black" fill="red"/>
  <circle cx="2526.72" cy="966.417" r="4.00951" stroke-width="0.5" stroke="black" fill="red"/>
   </g>
   <g id="cell90">
  <circle cx="1063.86" cy="325.976" r="6.67717" stroke-width="0.5" stroke="black" fill="red"/>
  <circle cx="1063.86" cy="325.976" r="4.00951" stroke-width="0.5" stroke="black" fill="red"/>
   </g>
   <g id="cell91">
  <circle cx="1901.76" cy="2318.03" r="6.67717" stroke-width="0.5" stroke="black" fill="red"/>
  <circle cx="1901.76" cy="2318.03" r="4.00951" stroke-width="0.5" stroke="black" fill="red"/>
   </g>
   <g id="cell92">
  <circle cx="612.751" cy="1853.65" r="6.67717" stroke-width="0.5" stroke="black" fill="red"/>
  <circle cx="612.751" cy="1853.65" r="4.00951" stroke-width="0.5" stroke="black" fill="red"/>
   </g>
   <g id="cell93">
  <circle cx="2017.53" cy="2313.97" r="6.67717" stroke-width="0.5" stroke="black" fill="red"/>
  <circle cx="2017.53" cy="2313.97" r="4.00951" stroke-width="0.5" stroke="black" fill="red"/>
   </g>
   <g id="cell94">
  <circle cx="991.425" cy="933.632" r="6.67717" stroke-width="0.5" stroke="black" fill="cyan"/>
  <circle cx="991.425" cy="933.632" r="4.00951" stroke-width="0.5" stroke="black" fill="cyan"/>
   </g>
   <g id="cell95">
  <circle cx="737.858" cy="1251.67" r="6.67717" stroke-width="0.5" stroke="black" fill="red"/>
  <circle cx="737.858" cy="1251.67" r="4.00951" stroke-width="0.5" stroke="black" fill="red"/>
   </g>
   <g id="cell96">
  <circle cx="1704.96" cy="1629.17" r="6.67717" stroke-width="0.5" stroke="black" fill="red"/>
  <circle cx="1704.96" cy="1629.17" r="4.00951" stroke-width="0.5" stroke="black" fill="red"/>
   </g>
   <g id="cell97">
  <circle cx="350.062" cy="692.754" r="6.67717" stroke-width="0.5" stroke="black" fill="red"/>
  <circle cx="350.062" cy="692.754" r="4.00951" stroke-width="0.5" stroke="black" fill="red"/>
   </g>
   <g id="cell98">
  <circle cx="2285.87" cy="1187.5" r="6.67717" stroke-width="0.5" stroke="black" fill="cyan"/>
  <circle cx="2285.87" cy="1187.5" r="4.00951" stroke-width="0.5" stroke="black" fill="cyan"/>
   </g>
   <g id="cell99">
  <circle cx="314.795" cy="652.132" r="6.67717" stroke-width="0.5" stroke="black" fill="cyan"/>
  <circle cx="314.795" cy="652.132" r="4.00951" stroke-width="0.5" stroke="black" fill="cyan"/>
   </g>
   <g id="cell100">
  <circle cx="638.202" cy="1595.58" r="6.67717" stroke-width="0.5" stroke="black" fill="red"/>
  <circle cx="638.202" cy="1595.58" r="4.00951" stroke-width="0.5" stroke="black" fill="red"/>
   </g>
   <g id="cell101">
  <circle cx="2522.94" cy="2298.56" r="6.67717" stroke-width="0.5" stroke="black" fill="red"/>
  <circle cx="2522.94" cy="2298.56" r="4.00951" stroke-width="0.5" stroke="black" fill="red"/>
   </g>
   <g id="cell102">
  <circle cx="768.772" cy="2571.64" r="6.67717" stroke-width="0.5" stroke="black" fill="red"/>
  <circle cx="768.772" cy="2571.64" r="4.00951" stroke-width="0.5" stroke="black" fill="red"/>
   </g>
   <g id="cell103">
  <circle cx="972.28" cy="2656.22" r="6.67717" stroke-width="0.5" stroke="black" fill="cyan"/>
  <circle cx="972.28" cy="2656.22" r="4.00951" stroke-width="0.5" stroke="black" fill="cyan"/>
   </g>
   <g id="cell104">
  <circle cx="1940.65" cy="1386.99" r="6.67717" stroke-width="0.5" stroke="black" fill="red"/>
  <circle cx="1940.65" cy="1386.99" r="4.00951" stroke-width="0.5" stroke="black" fill="red"/>
   </g>
   <g id="cell105">
  <circle cx="2675.73" cy="2608.94" r="6.67717" stroke-width="0.5" stroke="black" fill="red"/>
  <circle cx="2675.73" cy="2608.94" r="4.00951" stroke-width="0.5" stroke="black" fill="red"/>
   </g>
   <g id="cell106">
  <circle cx="475.646" cy="1103.26" r="6.67717" stroke-width="0.5" stroke="black" fill="red"/>
  <circle cx="475.646" cy="1103.26" r="4.00951" stroke-width="0.5" stroke="black" fill="red"/>
   </g>
   <g id="cell107">
  <circle cx="553.079" cy="1868.12" r="6.67717" stroke-width="0.5" stroke="black" fill="red"/>
  <circle cx="553.079" cy="1868.12" r="4.00951" stroke-width="0.5" stroke="black" fill="red"/>
   </g>
   <g id="cell108">
  <circle cx="1160.76" cy="1778.37" r="6.67717" stroke-width="0.5" stroke="black" fill="red"/>
  <circle cx="1160.76" cy="1778.37" r="4.00951" stroke-width="0.5" stroke="black" fill="red"/>
   </g>
   <g id="cell109">
  <circle cx="1620.81" cy="1715.38" r="6.67717" stroke-width="0.5" stroke="black" fill="red"/>
  <circle cx="1620.81" cy="1715.38" r="4.00951" stroke-width="0.5" stroke="black" fill="red"/>
   </g>
   <g id="cell110">
  <circle cx="513.478" cy="1848.56" r="6.67717" stroke-width="0.5" stroke="black" fill="red"/>
  <circle cx="513.478" cy="1848.56" r="4.00951" stroke-width="0.5" stroke="black" fill="red"/>
   </g>
   <g id="cell111">
  <circle cx="1676.93" cy="493.119" r="6.67717" stroke-width="0.5" stroke="black" fill="red"/>
  <circle cx="1676.93" cy="493.119" r="4.00951" stroke-width="0.5" stroke="black" fill="red"/>
   </g>
   <g id="cell112">
  <circle cx="351.516" cy="1191.52" r="6.67717" stroke-width="0.5" stroke="black" fill="red"/>
  <circle cx="351.516" cy="1191.52" r="4.00951" stroke-width="0.5" stroke="black" fill="red"/>
   </g>
   <g id="cell113">
  <circle cx="2306.01" cy="2600.2" r="6.67717" stroke-width="0.5" stroke="black" fill="red"/>
  <circle cx="2306.01" cy="2600.2" r="4.00951" stroke-width="0.5" stroke="black" fill="red"/>
   </g>
   <g id="cell114">
  <circle cx="1344.23" cy="2472.51" r="6.67717" stroke-width="0.5" stroke="black" fill="red"/>
  <circle cx="1344.23" cy="2472.51" r="4.00951" stroke-width="0.5" stroke="black" fill="red"/>
   </g>
   <g id="cell115">
  <circle cx="2163.08" cy="643.815" r="6.67717" stroke-width="0.5" stroke="black" fill="red"/>
  <circle cx="2163.08" cy="643.815" r="4.00951" stroke-width="0.5" stroke="black" fill="red"/>
   </g>
   <g id="cell116">
  <circle cx="2379.93" cy="2386.4" r="6.67717" stroke-width="0.5" stroke="black" fill="red"/>
  <circle cx="2379.93" cy="2386.4" r="4.00951" stroke-width="0.5" stroke="black" fill="red"/>
   </g>
   <g id="cell117">
  <circle cx="2538.6" cy="966.774" r="6.67717" stroke-width="0.5" stroke="black" fill="red"/>
  <circle cx="2538.6" cy="966.774" r="4.00951" stroke-width="0.5" stroke="black" fill="red"/>
   </g>
   <g id="cell118">
  <circle cx="1974.02" cy="546.563" r="6.67717" stroke-width="0.5" stroke="black" fill="red"/>
  <circle cx="1974.02" cy="546.563" r="4.00951" stroke-width="0.5" stroke="black" fill="red"/>
   </g>
   <g id="cell119">
  <circle cx="1066.19" cy="314.321" r="6.67717" stroke-width="0.5" stroke="black" fill="red"/>
  <circle cx="1066.19" cy="314.321" r="4.00951" stroke-width="0.5" stroke="black" fill="red"/>
   </g>
   <g id="cell120">
  <circle cx="445.244" cy="2619.28" r="6.67717" stroke-width="0.5" stroke="black" fill="red"/>
  <circle cx="445.244" cy="2619.28" r="4.00951" stroke-width="0.5" stroke="black" fill="red"/>
   </g>
   <g id="cell121">
  <circle cx="2656.24" cy="1433.24" r="6.67717" stroke-width="0.5" stroke="black" fill="red"/>
  <circle cx="2656.24" cy="1433.24" r="4.00951" stroke-width="0.5" stroke="black" fill="red"/>
   </g>
   <g id="cell122">
  <circle cx="594.169" cy="1168.7" r="6.67717" stroke-width="0.5" stroke="black" fill="red"/>
  <circle cx="594.169" cy="1168.7" r="4.00951" stroke-width="0.5" stroke="black" fill="red"/>
   </g>
   <g id="cell123">
  <circle cx="1179.18" cy="1884.1" r="6.67717" stroke-width="0.5" stroke="black" fill="red"/>
  <circle cx="1179.18" cy="1884.1" r="4.00951" stroke-width="0.5" stroke="black" fill="red"/>
   </g>
   <g id="cell124">
  <circle cx="1901.84" cy="2329.92" r="6.67717" stroke-width="0.5" stroke="black" fill="red"/>
  <circle cx="1901.84" cy="2329.92" r="4.00951" stroke-width="0.5" stroke="black" fill="red"/>
   </g>
   <g id="cell125">
  <circle cx="624.551" cy="1852.23" r="6.67717" stroke-width="0.5" stroke="black" fill="red"/>
  <circle cx="624.551" cy="1852.23" r="4.00951" stroke-width="0.5" stroke="black" fill="red"/>
   </g>
   <g id="cell126">
  <circle cx="2028.8" cy="2317.93" r="6.67717" stroke-width="0.5" stroke="black" fill="red"/>
  <circle cx="2028.8" cy="2317.93" r="4.00951" stroke-width="0.5" stroke="black" fill="red"/>
   </g>
   <g id="cell127">
  <circle cx="1012.82" cy="1462.17" r="6.67717" stroke-width="0.5" stroke="black" fill="cyan"/>
  <circle cx="1012.82" cy="1462.17" r="4.00951" stroke-width="0.5" stroke="black" fill="cyan"/>
   </g>
   <g id="cell128">
  <circle cx="2262.31" cy="330.683" r="6.67717" stroke-width="0.5" stroke="black" fill="red"/>
  <circle cx="2262.31" cy="330.683" r="4.00951" stroke-width="0.5" stroke="black" fill="red"/>
   </g>
   <g id="cell129">
  <circle cx="1001.86" cy="939.328" r="6.67717" stroke-width="0.5" stroke="black" fill="cyan"/>
  <circle cx="1001.86" cy="939.328" r="4.00951" stroke-width="0.5" stroke="black" fill="cyan"/>
   </g>
   <g id="cell130">
  <circle cx="532.972" cy="1786.54" r="6.67717" stroke-width="0.5" stroke="black" fill="red"/>
  <circle cx="532.972" cy="1786.54" r="4.00951" stroke-width="0.5" stroke="black" fill="red"/>
   </g>
   <g id="cell131">
  <circle cx="743.821" cy="1261.95" r="6.67717" stroke-width="0.5" stroke="black" fill="red"/>
  <circle cx="743.821" cy="1261.95" r="4.00951" stroke-width="0.5" stroke="black" fill="red"/>
   </g>
   <g id="cell132">
  <circle cx="2318.35" cy="1919.22" r="6.67717" stroke-width="0.5" stroke="black" fill="red"/>
  <circle cx="2318.35" cy="1919.22" r="4.00951" stroke-width="0.5" stroke="black" fill="red"/>
   </g>
   <g id="cell133">
  <circle cx="2219.12" cy="2213.97" r="6.67717" stroke-width="0.5" stroke="black" fill="cyan"/>
  <circle cx="2219.12" cy="2213.97" r="4.00951" stroke-width="0.5" stroke="black" fill="cyan"/>
   </g>
   <g id="cell134">
  <circle cx="533.09" cy="2624.74" r="6.67717" stroke-width="0.5" stroke="black" fill="red"/>
  <circle cx="533.09" cy="2624.74" r="4.00951" stroke-width="0.5" stroke="black" fill="red"/>
   </g>
   <g id="cell135">
  <circle cx="2636.87" cy="2402.69" r="6.67717" stroke-width="0.5" stroke="black" fill="red"/>
  <circle cx="2636.87" cy="2402.69" r="4.00951" stroke-width="0.5" stroke="black" fill="red"/>
   </g>
   <g id="cell136">
  <circle cx="1432.28" cy="1519.59" r="6.67717" stroke-width="0.5" stroke="black" fill="red"/>
  <circle cx="1432.28" cy="1519.59" r="4.00951" stroke-width="0.5" stroke="black" fill="red"/>
   </g>
   <g id="cell137">
  <circle cx="2651.65" cy="430.021" r="6.67717" stroke-width="0.5" stroke="black" fill="red"/>
  <circle cx="2651.65" cy="430.021" r="4.00951" stroke-width="0.5" stroke="black" fill="red"/>
   </g>
   <g id="cell138">
  <circle cx="1400.45" cy="1550.26" r="6.67717" stroke-width="0.5" stroke="black" fill="cyan"/>
  <circle cx="1400.45" cy="1550.26" r="4.00951" stroke-width="0.5" stroke="black" fill="cyan"/>
   </g>
   <g id="cell139">
  <circle cx="1759.89" cy="1383.52" r="6.67717" stroke-width="0.5" stroke="black" fill="red"/>
  <circle cx="1759.89" cy="1383.52" r="4.00951" stroke-width="0.5" stroke="black" fill="red"/>
   </g>
   <g id="cell140">
  <circle cx="2179" cy="1935.31" r="6.67717" stroke-width="0.5" stroke="black" fill="red"/>
  <circle cx="2179" cy="1935.31" r="4.00951" stroke-width="0.5" stroke="black" fill="red"/>
   </g>
   <g id="cell141">
  <circle cx="1907.02" cy="1872.31" r="6.67717" stroke-width="0.5" stroke="black" fill="red"/>
  <circle cx="1907.02" cy="1872.31" r="4.00951" stroke-width="0.5" stroke="black" fill="red"/>
   </g>
   <g id="cell142">
  <circle cx="2066.51" cy="344.935" r="6.67717" stroke-width="0.5" stroke="black" fill="red"/>
  <circle cx="2066.51" cy="344.935" r="4.00951" stroke-width="0.5" stroke="black" fill="red"/>
   </g>
   <g id="cell143">
  <circle cx="795.918" cy="1830.55" r="6.67717" stroke-width="0.5" stroke="black" fill="red"/>
  <circle cx="795.918" cy="1830.55" r="4.00951" stroke-width="0.5" stroke="black" fill="red"/>
   </g>
   <g id="cell144">
  <circle cx="1906.31" cy="702.539" r="6.67717" stroke-width="0.5" stroke="black" fill="red"/>
  <circle cx="1906.31" cy="702.539" r="4.00951" stroke-width="0.5" stroke="black" fill="red"/>
   </g>
   <g id="cell145">
  <circle cx="808.033" cy="1167.25" r="6.67717" stroke-width="0.5" stroke="black" fill="red"/>
  <circle cx="808.033" cy="1167.25" r="4.00951" stroke-width="0.5" stroke="black" fill="red"/>
   </g>
   <g id="cell146">
  <circle cx="601.142" cy="2102.14" r="6.67717" stroke-width="0.5" stroke="black" fill="red"/>
  <circle cx="601.142" cy="2102.14" r="4.00951" stroke-width="0.5" stroke="black" fill="red"/>
   </g>
   <g id="cell147">
  <circle cx="1713.79" cy="1621.22" r="6.67717" stroke-width="0.5" stroke="black" fill="red"/>
  <circle cx="1713.79" cy="1621.22" r="4.00951" stroke-width="0.5" stroke="black" fill="red"/>
   </g>
   <g id="cell148">
  <circle cx="1058.45" cy="1750.62" r="6.67717" stroke-width="0.5" stroke="black" fill="red"/>
  <circle cx="1058.45" cy="1750.62" r="4.00951" stroke-width="0.5" stroke="black" fill="red"/>
   </g>
   <g id="cell149">
  <circle cx="1180.47" cy="1081.22" r="6.67717" stroke-width="0.5" stroke="black" fill="cyan"/>
  <circle cx="1180.47" cy="1081.22" r="4.00951" stroke-width="0.5" stroke="black" fill="cyan"/>
   </g>
   <g id="cell150">
  <circle cx="1673.79" cy="398.357" r="6.67717" stroke-width="0.5" stroke="black" fill="red"/>
  <circle cx="1673.79" cy="398.357" r="4.00951" stroke-width="0.5" stroke="black" fill="red"/>
   </g>
   <g id="cell151">
  <circle cx="1345.76" cy="1826.89" r="6.67717" stroke-width="0.5" stroke="black" fill="red"/>
  <circle cx="1345.76" cy="1826.89" r="4.00951" stroke-width="0.5" stroke="black" fill="red"/>
   </g>
   <g id="cell152">
  <circle cx="344.09" cy="703.029" r="6.67717" stroke-width="0.5" stroke="black" fill="red"/>
  <circle cx="344.09" cy="703.029" r="4.00951" stroke-width="0.5" stroke="black" fill="red"/>
   </g>
   <g id="cell153">
  <circle cx="583.512" cy="1944.62" r="6.67717" stroke-width="0.5" stroke="black" fill="red"/>
  <circle cx="583.512" cy="1944.62" r="4.00951" stroke-width="0.5" stroke="black" fill="red"/>
   </g>
   <g id="cell154">
  <circle cx="2297.75" cy="1187.63" r="6.67717" stroke-width="0.5" stroke="black" fill="cyan"/>
  <circle cx="2297.75" cy="1187.63" r="4.00951" stroke-width="0.5" stroke="black" fill="cyan"/>
   </g>
   <g id="cell155">
  <circle cx="303.12" cy="649.908" r="6.67717" stroke-width="0.5" stroke="black" fill="cyan"/>
  <circle cx="303.12" cy="649.908" r="4.00951" stroke-width="0.5" stroke="black" fill="cyan"/>
   </g>
   <g id="cell156">
  <circle cx="1054.87" cy="2412.95" r="6.67717" stroke-width="0.5" stroke="black" fill="red"/>
  <circle cx="1054.87" cy="2412.95" r="4.00951" stroke-width="0.5" stroke="black" fill="red"/>
   </g>
   <g id="cell157">
  <circle cx="2022.23" cy="2327.69" r="6.67717" stroke-width="0.5" stroke="black" fill="red"/>
  <circle cx="2022.23" cy="2327.69" r="4.00951" stroke-width="0.5" stroke="black" fill="red"/>
   </g>
   <g id="cell158">
  <circle cx="1295.75" cy="2495.61" r="6.67717" stroke-width="0.5" stroke="black" fill="red"/>
  <circle cx="1295.75" cy="2495.61" r="4.00951" stroke-width="0.5" stroke="black" fill="red"/>
   </g>
   <g id="cell159">
  <circle cx="455.102" cy="812.158" r="6.67717" stroke-width="0.5" stroke="black" fill="cyan"/>
  <circle cx="455.102" cy="812.158" r="4.00951" stroke-width="0.5" stroke="black" fill="cyan"/>
   </g>
   <g id="cell160">
  <circle cx="1958.38" cy="1663.95" r="6.67717" stroke-width="0.5" stroke="black" fill="cyan"/>
  <circle cx="1958.38" cy="1663.95" r="4.00951" stroke-width="0.5" stroke="black" fill="cyan"/>
   </g>
   <g id="cell161">
  <circle cx="1667.28" cy="2372.56" r="6.67717" stroke-width="0.5" stroke="black" fill="cyan"/>
  <circle cx="1667.28" cy="2372.56" r="4.00951" stroke-width="0.5" stroke="black" fill="cyan"/>
   </g>
   <g id="cell162">
  <circle cx="1737.61" cy="2360.6" r="6.67717" stroke-width="0.5" stroke="black" fill="red"/>
  <circle cx="1737.61" cy="2360.6" r="4.00951" stroke-width="0.5" stroke="black" fill="red"/>
   </g>
   <g id="cell163">
  <circle cx="941.188" cy="1528.65" r="6.67717" stroke-width="0.5" stroke="black" fill="red"/>
  <circle cx="941.188" cy="1528.65" r="4.00951" stroke-width="0.5" stroke="black" fill="red"/>
   </g>
   <g id="cell164">
  <circle cx="578.104" cy="2023.54" r="6.67717" stroke-width="0.5" stroke="black" fill="red"/>
  <circle cx="578.104" cy="2023.54" r="4.00951" stroke-width="0.5" stroke="black" fill="red"/>
   </g>
   <g id="cell165">
  <circle cx="402.139" cy="1361.95" r="6.67717" stroke-width="0.5" stroke="black" fill="red"/>
  <circle cx="402.139" cy="1361.95" r="4.00951" stroke-width="0.5" stroke="black" fill="red"/>
   </g>
   <g id="cell166">
  <circle cx="1829.87" cy="1702.64" r="6.67717" stroke-width="0.5" stroke="black" fill="red"/>
  <circle cx="1829.87" cy="1702.64" r="4.00951" stroke-width="0.5" stroke="black" fill="red"/>
   </g>
   <g id="cell167">
  <circle cx="689.813" cy="2696.57" r="6.67717" stroke-width="0.5" stroke="black" fill="red"/>
  <circle cx="689.813" cy="2696.57" r="4.00951" stroke-width="0.5" stroke="black" fill="red"/>
   </g>
   <g id="cell168">
  <circle cx="1872.07" cy="1703.34" r="6.67717" stroke-width="0.5" stroke="black" fill="red"/>
  <circle cx="1872.07" cy="1703.34" r="4.00951" stroke-width="0.5" stroke="black" fill="red"/>
   </g>
   <g id="cell169">
  <circle cx="901.965" cy="1288.69" r="6.67717" stroke-width="0.5" stroke="black" fill="red"/>
  <circle cx="901.965" cy="1288.69" r="4.00951" stroke-width="0.5" stroke="black" fill="red"/>
   </g>
   <g id="cell170">
  <circle cx="2563.29" cy="2113.37" r="6.67717" stroke-width="0.5" stroke="black" fill="cyan"/>
  <circle cx="2563.29" cy="2113.37" r="4.00951" stroke-width="0.5" stroke="black" fill="cyan"/>
   </g>
   <g id="cell171">
  <circle cx="1427.42" cy="1438.65" r="6.67717" stroke-width="0.5" stroke="black" fill="red"/>
  <circle cx="1427.42" cy="1438.65" r="4.00951" stroke-width="0.5" stroke="black" fill="red"/>
   </g>
   <g id="cell172">
  <circle cx="894.586" cy="1794.11" r="6.67717" stroke-width="0.5" stroke="black" fill="red"/>
  <circle cx="894.586" cy="1794.11" r="4.00951" stroke-width="0.5" stroke="black" fill="red"/>
   </g>
   <g id="cell173">
  <circle cx="673.57" cy="1108.87" r="6.67717" stroke-width="0.5" stroke="black" fill="red"/>
  <circle cx="673.57" cy="1108.87" r="4.00951" stroke-width="0.5" stroke="black" fill="red"/>
   </g>
   <g id="cell174">
  <circle cx="573.252" cy="1918.99" r="6.67717" stroke-width="0.5" stroke="black" fill="cyan"/>
  <circle cx="573.252" cy="1918.99" r="4.00951" stroke-width="0.5" stroke="black" fill="cyan"/>
   </g>
   <g id="cell175">
  <circle cx="1552.16" cy="562.469" r="6.67717" stroke-width="0.5" stroke="black" fill="red"/>
  <circle cx="1552.16" cy="562.469" r="4.00951" stroke-width="0.5" stroke="black" fill="red"/>
   </g>
   <g id="cell176">
  <circle cx="1867.21" cy="1059.03" r="6.67717" stroke-width="0.5" stroke="black" fill="red"/>
  <circle cx="1867.21" cy="1059.03" r="4.00951" stroke-width="0.5" stroke="black" fill="red"/>
   </g>
   <g id="cell177">
  <circle cx="1286.95" cy="1435.11" r="6.67717" stroke-width="0.5" stroke="black" fill="red"/>
  <circle cx="1286.95" cy="1435.11" r="4.00951" stroke-width="0.5" stroke="black" fill="red"/>
   </g>
   <g id="cell178">
  <circle cx="626.398" cy="2161.6" r="6.67717" stroke-width="0.5" stroke="black" fill="red"/>
  <circle cx="626.398" cy="2161.6" r="4.00951" stroke-width="0.5" stroke="black" fill="red"/>
   </g>
   <g id="cell179">
  <circle cx="1600.99" cy="2328.56" r="6.67717" stroke-width="0.5" stroke="black" fill="red"/>
  <circle cx="1600.99" cy="2328.56" r="4.00951" stroke-width="0.5" stroke="black" fill="red"/>
   </g>
   <g id="cell180">
  <circle cx="927.084" cy="749.881" r="6.67717" stroke-width="0.5" stroke="black" fill="red"/>
  <circle cx="927.084" cy="749.881" r="4.00951" stroke-width="0.5" stroke="black" fill="red"/>
   </g>
   <g id="cell181">
  <circle cx="2154.31" cy="2075.95" r="6.67717" stroke-width="0.5" stroke="black" fill="red"/>
  <circle cx="2154.31" cy="2075.95" r="4.00951" stroke-width="0.5" stroke="black" fill="red"/>
   </g>
   <g id="cell182">
  <circle cx="1403.01" cy="820.585" r="6.67717" stroke-width="0.5" stroke="black" fill="red"/>
  <circle cx="1403.01" cy="820.585" r="4.00951" stroke-width="0.5" stroke="black" fill="red"/>
   </g>
   <g id="cell183">
  <circle cx="1548.47" cy="2504.03" r="6.67717" stroke-width="0.5" stroke="black" fill="red"/>
  <circle cx="1548.47" cy="2504.03" r="4.00951" stroke-width="0.5" stroke="black" fill="red"/>
   </g>
   <g id="cell184">
  <circle cx="1310.59" cy="1802.08" r="6.67717" stroke-width="0.5" stroke="black" fill="red"/>
  <circle cx="1310.59" cy="1802.08" r="4.00951" stroke-width="0.5" stroke="black" fill="red"/>
   </g>
   <g id="cell185">
  <circle cx="1658.22" cy="630.233" r="6.67717" stroke-width="0.5" stroke="black" fill="red"/>
  <circle cx="1658.22" cy="630.233" r="4.00951" stroke-width="0.5" stroke="black" fill="red"/>
   </g>
   <g id="cell186">
  <circle cx="1844.65" cy="1228.73" r="6.67717" stroke-width="0.5" stroke="black" fill="red"/>
  <circle cx="1844.65" cy="1228.73" r="4.00951" stroke-width="0.5" stroke="black" fill="red"/>
   </g>
   <g id="cell187">
  <circle cx="1348.09" cy="1022.65" r="6.67717" stroke-width="0.5" stroke="black" fill="red"/>
  <circle cx="1348.09" cy="1022.65" r="4.00951" stroke-width="0.5" stroke="black" fill="red"/>
   </g>
   <g id="cell188">
  <circle cx="347.045" cy="1071.37" r="6.67717" stroke-width="0.5" stroke="black" fill="red"/>
  <circle cx="347.045" cy="1071.37" r="4.00951" stroke-width="0.5" stroke="black" fill="red"/>
   </g>
   <g id="cell189">
  <circle cx="520.997" cy="2517.77" r="6.67717" stroke-width="0.5" stroke="black" fill="red"/>
  <circle cx="520.997" cy="2517.77" r="4.00951" stroke-width="0.5" stroke="black" fill="red"/>
   </g>
   <g id="cell190">
  <circle cx="2433.82" cy="441.35" r="6.67717" stroke-width="0.5" stroke="black" fill="red"/>
  <circle cx="2433.82" cy="441.35" r="4.00951" stroke-width="0.5" stroke="black" fill="red"/>
   </g>
   <g id="cell191">
  <circle cx="1776.58" cy="653.233" r="6.67717" stroke-width="0.5" stroke="black" fill="red"/>
  <circle cx="1776.58" cy="653.233" r="4.00951" stroke-width="0.5" stroke="black" fill="red"/>
   </g>
   <g id="cell192">
  <circle cx="2617.52" cy="961.251" r="6.67717" stroke-width="0.5" stroke="black" fill="red"/>
  <circle cx="2617.52" cy="961.251" r="4.00951" stroke-width="0.5" stroke="black" fill="red"/>
   </g>
   <g id="cell193">
  <circle cx="1765.53" cy="841.86" r="6.67717" stroke-width="0.5" stroke="black" fill="cyan"/>
  <circle cx="1765.53" cy="841.86" r="4.00951" stroke-width="0.5" stroke="black" fill="cyan"/>
   </g>
   <g id="cell194">
  <circle cx="1228.49" cy="1445.35" r="6.67717" stroke-width="0.5" stroke="black" fill="red"/>
  <circle cx="1228.49" cy="1445.35" r="4.00951" stroke-width="0.5" stroke="black" fill="red"/>
   </g>
   <g id="cell195">
  <circle cx="2200.27" cy="2257.5" r="6.67717" stroke-width="0.5" stroke="black" fill="red"/>
  <circle cx="2200.27" cy="2257.5" r="4.00951" stroke-width="0.5" stroke="black" fill="red"/>
   </g>
   <g id="cell196">
  <circle cx="1785.42" cy="1234.35" r="6.67717" stroke-width="0.5" stroke="black" fill="cyan"/>
  <circle cx="1785.42" cy="1234.35" r="4.00951" stroke-width="0.5" stroke="black" fill="cyan"/>
   </g>
   <g id="cell197">
  <circle cx="1576.79" cy="1455.62" r="6.67717" stroke-width="0.5" stroke="black" fill="red"/>
  <circle cx="1576.79" cy="1455.62" r="4.00951" stroke-width="0.5" stroke="black" fill="red"/>
   </g>
   <g id="cell198">
  <circle cx="2556.77" cy="2467.33" r="6.67717" stroke-width="0.5" stroke="black" fill="red"/>
  <circle cx="2556.77" cy="2467.33" r="4.00951" stroke-width="0.5" stroke="black" fill="red"/>
   </g>
   <g id="cell199">
  <circle cx="1665.79" cy="1250.6" r="6.67717" stroke-width="0.5" stroke="black" fill="red"/>
  <circle cx="1665.79" cy="1250.6" r="4.00951" stroke-width="0.5" stroke="black" fill="red"/>
   </g>
  </g>
 </g>
  <rect x="2725" y="3105" width="200" height="30" stroke-width="6" stroke="rgb(255,255,255)" fill="rgb(0,0,0)"/>
  <text x="2743.75" y="3086.25"
   font-family="Arial" font-size="75" fill="black" >
   200 &#956;m
  </text>
  <text x="75" y="3135"
   font-family="Arial" font-size="56.25" fill="black" >
   0 days, 0 hours, 0 minutes, and 4.6960 seconds
  </text>
  <rect x="0" y="210" width="3000" height="3000" stroke-width="6" stroke="rgb(0,0,0)" fill="none"/>
</svg>
