<?xml version="1.0" encoding="UTF-8" standalone="no"?>
<!-- Created with PhysiCell (http://PhysiCell.MathCancer.org/) -->
<svg 
 xmlns:dc="http://purl.org/dc/elements/1.1/" 
 xmlns:cc="http://creativecommons.org/ns#" 
 xmlns:rdf="http://www.w3.org/1999/02/22-rdf-syntax-ns#" 
 xmlns:svg="http://www.w3.org/2000/svg" 
 xmlns="http://www.w3.org/2000/svg" 
 version="1.1" 
 width="3000" 
 height="3210" 
 id="svg2">
  <rect x="0" y="0" width="3000" height="3210" stroke-width="6" stroke="white" fill="white"/>
  <text x="37.5" y="90"
   font-family="Arial" font-size="75" fill="black" >
   Current time: 0 days, 11 hours, and 0.00 minutes, z = 0.00 &#956;m
  </text>
  <text x="37.5" y="172.5"
   font-family="Arial" font-size="71.25" fill="black" >
   200 agents
  </text>
 <g id="tissue" 
    transform="translate(0,3210) scale(1,-1)">
  <g id="ECM">
  </g>
  <g id="cells">
   <g id="cell0">
  <circle cx="1614.76" cy="1727.68" r="7.90853" stroke-width="0.5" stroke="black" fill="red"/>
  <circle cx="1614.76" cy="1727.68" r="4.79791" stroke-width="0.5" stroke="black" fill="red"/>
   </g>
   <g id="cell1">
  <circle cx="2008.63" cy="2332.61" r="7.90853" stroke-width="0.5" stroke="black" fill="red"/>
  <circle cx="2008.63" cy="2332.61" r="4.79791" stroke-width="0.5" stroke="black" fill="red"/>
   </g>
   <g id="cell2">
  <circle cx="1750.79" cy="2358.36" r="8.41271" stroke-width="0.5" stroke="black" fill="cyan"/>
  <circle cx="1750.79" cy="2358.36" r="5.05167" stroke-width="0.5" stroke="black" fill="cyan"/>
   </g>
   <g id="cell3">
  <circle cx="1611.91" cy="2336.42" r="7.90853" stroke-width="0.5" stroke="black" fill="red"/>
  <circle cx="1611.91" cy="2336.42" r="4.79791" stroke-width="0.5" stroke="black" fill="red"/>
   </g>
   <g id="cell4">
  <circle cx="1320.62" cy="1793.11" r="7.90853" stroke-width="0.5" stroke="black" fill="red"/>
  <circle cx="1320.62" cy="1793.11" r="4.79791" stroke-width="0.5" stroke="black" fill="red"/>
   </g>
   <g id="cell5">
  <circle cx="1853.56" cy="1218.65" r="7.90853" stroke-width="0.5" stroke="black" fill="red"/>
  <circle cx="1853.56" cy="1218.65" r="4.79791" stroke-width="0.5" stroke="black" fill="red"/>
   </g>
   <g id="cell6">
  <circle cx="1351.25" cy="1009.86" r="7.90853" stroke-width="0.5" stroke="black" fill="red"/>
  <circle cx="1351.25" cy="1009.86" r="4.79791" stroke-width="0.5" stroke="black" fill="red"/>
   </g>
   <g id="cell7">
  <circle cx="2444.26" cy="432.851" r="7.90853" stroke-width="0.5" stroke="black" fill="red"/>
  <circle cx="2444.26" cy="432.851" r="4.79791" stroke-width="0.5" stroke="black" fill="red"/>
   </g>
   <g id="cell8">
  <circle cx="2609.95" cy="950.257" r="7.90853" stroke-width="0.5" stroke="black" fill="red"/>
  <circle cx="2609.95" cy="950.257" r="4.79791" stroke-width="0.5" stroke="black" fill="red"/>
   </g>
   <g id="cell9">
  <circle cx="1215.14" cy="1447.05" r="7.90853" stroke-width="0.5" stroke="black" fill="red"/>
  <circle cx="1215.14" cy="1447.05" r="4.79791" stroke-width="0.5" stroke="black" fill="red"/>
   </g>
   <g id="cell10">
  <circle cx="2200.06" cy="2244.04" r="7.90853" stroke-width="0.5" stroke="black" fill="red"/>
  <circle cx="2200.06" cy="2244.04" r="4.79791" stroke-width="0.5" stroke="black" fill="red"/>
   </g>
   <g id="cell11">
  <circle cx="1564.72" cy="1449.66" r="7.90853" stroke-width="0.5" stroke="black" fill="red"/>
  <circle cx="1564.72" cy="1449.66" r="4.79791" stroke-width="0.5" stroke="black" fill="red"/>
   </g>
   <g id="cell12">
  <circle cx="1661.69" cy="1237.52" r="8.41271" stroke-width="0.5" stroke="black" fill="cyan"/>
  <circle cx="1661.69" cy="1237.52" r="5.05167" stroke-width="0.5" stroke="black" fill="cyan"/>
   </g>
   <g id="cell13">
  <circle cx="2520.47" cy="2311.73" r="7.90853" stroke-width="0.5" stroke="black" fill="red"/>
  <circle cx="2520.47" cy="2311.73" r="4.79791" stroke-width="0.5" stroke="black" fill="red"/>
   </g>
   <g id="cell14">
  <circle cx="467.276" cy="1113.79" r="7.90853" stroke-width="0.5" stroke="black" fill="red"/>
  <circle cx="467.276" cy="1113.79" r="4.79791" stroke-width="0.5" stroke="black" fill="red"/>
   </g>
   <g id="cell15">
  <circle cx="506.393" cy="1860" r="7.90853" stroke-width="0.5" stroke="black" fill="red"/>
  <circle cx="506.393" cy="1860" r="4.79791" stroke-width="0.5" stroke="black" fill="red"/>
   </g>
   <g id="cell16">
  <circle cx="346.573" cy="1178.73" r="7.90853" stroke-width="0.5" stroke="black" fill="red"/>
  <circle cx="346.573" cy="1178.73" r="4.79791" stroke-width="0.5" stroke="black" fill="red"/>
   </g>
   <g id="cell17">
  <circle cx="2293.48" cy="2595.29" r="7.90853" stroke-width="0.5" stroke="black" fill="red"/>
  <circle cx="2293.48" cy="2595.29" r="4.79791" stroke-width="0.5" stroke="black" fill="red"/>
   </g>
   <g id="cell18">
  <circle cx="2170.51" cy="632.294" r="7.90853" stroke-width="0.5" stroke="black" fill="red"/>
  <circle cx="2170.51" cy="632.294" r="4.79791" stroke-width="0.5" stroke="black" fill="red"/>
   </g>
   <g id="cell19">
  <circle cx="2393.07" cy="2389.34" r="7.90853" stroke-width="0.5" stroke="black" fill="red"/>
  <circle cx="2393.07" cy="2389.34" r="4.79791" stroke-width="0.5" stroke="black" fill="red"/>
   </g>
   <g id="cell20">
  <circle cx="2643.75" cy="1438.89" r="8.41271" stroke-width="0.5" stroke="black" fill="cyan"/>
  <circle cx="2643.75" cy="1438.89" r="5.05167" stroke-width="0.5" stroke="black" fill="cyan"/>
   </g>
   <g id="cell21">
  <circle cx="2217.27" cy="2227.3" r="7.90853" stroke-width="0.5" stroke="black" fill="cyan"/>
  <circle cx="2217.27" cy="2227.3" r="4.79791" stroke-width="0.5" stroke="black" fill="cyan"/>
   </g>
   <g id="cell22">
  <circle cx="1413.46" cy="1548.22" r="7.90853" stroke-width="0.5" stroke="black" fill="cyan"/>
  <circle cx="1413.46" cy="1548.22" r="4.79791" stroke-width="0.5" stroke="black" fill="cyan"/>
   </g>
   <g id="cell23">
  <circle cx="2169.71" cy="1925.58" r="7.90853" stroke-width="0.5" stroke="black" fill="red"/>
  <circle cx="2169.71" cy="1925.58" r="4.79791" stroke-width="0.5" stroke="black" fill="red"/>
   </g>
   <g id="cell24">
  <circle cx="587.611" cy="2033.42" r="8.41271" stroke-width="0.5" stroke="black" fill="cyan"/>
  <circle cx="587.611" cy="2033.42" r="5.05167" stroke-width="0.5" stroke="black" fill="cyan"/>
   </g>
   <g id="cell25">
  <circle cx="1839.49" cy="1693.26" r="7.90853" stroke-width="0.5" stroke="black" fill="red"/>
  <circle cx="1839.49" cy="1693.26" r="4.79791" stroke-width="0.5" stroke="black" fill="red"/>
   </g>
   <g id="cell26">
  <circle cx="647.686" cy="1586.03" r="7.90853" stroke-width="0.5" stroke="black" fill="red"/>
  <circle cx="647.686" cy="1586.03" r="4.79791" stroke-width="0.5" stroke="black" fill="red"/>
   </g>
   <g id="cell27">
  <circle cx="2569.64" cy="2125.23" r="7.90853" stroke-width="0.5" stroke="black" fill="cyan"/>
  <circle cx="2569.64" cy="2125.23" r="4.79791" stroke-width="0.5" stroke="black" fill="cyan"/>
   </g>
   <g id="cell28">
  <circle cx="1552.61" cy="549.019" r="7.90853" stroke-width="0.5" stroke="black" fill="red"/>
  <circle cx="1552.61" cy="549.019" r="4.79791" stroke-width="0.5" stroke="black" fill="red"/>
   </g>
   <g id="cell29">
  <circle cx="1300.29" cy="1437.59" r="7.90853" stroke-width="0.5" stroke="black" fill="red"/>
  <circle cx="1300.29" cy="1437.59" r="4.79791" stroke-width="0.5" stroke="black" fill="red"/>
   </g>
   <g id="cell30">
  <circle cx="939.812" cy="745.529" r="7.90853" stroke-width="0.5" stroke="black" fill="red"/>
  <circle cx="939.812" cy="745.529" r="4.79791" stroke-width="0.5" stroke="black" fill="red"/>
   </g>
   <g id="cell31">
  <circle cx="2160.85" cy="2063.49" r="8.41271" stroke-width="0.5" stroke="black" fill="cyan"/>
  <circle cx="2160.85" cy="2063.49" r="5.05167" stroke-width="0.5" stroke="black" fill="cyan"/>
   </g>
   <g id="cell32">
  <circle cx="1389.63" cy="819.183" r="7.90853" stroke-width="0.5" stroke="black" fill="red"/>
  <circle cx="1389.63" cy="819.183" r="4.79791" stroke-width="0.5" stroke="black" fill="red"/>
   </g>
   <g id="cell33">
  <circle cx="1667.99" cy="620.97" r="7.90853" stroke-width="0.5" stroke="black" fill="red"/>
  <circle cx="1667.99" cy="620.97" r="4.79791" stroke-width="0.5" stroke="black" fill="red"/>
   </g>
   <g id="cell34">
  <circle cx="343.315" cy="1083.94" r="7.90853" stroke-width="0.5" stroke="black" fill="red"/>
  <circle cx="343.315" cy="1083.94" r="4.79791" stroke-width="0.5" stroke="black" fill="red"/>
   </g>
   <g id="cell35">
  <circle cx="1786.07" cy="663.124" r="7.90853" stroke-width="0.5" stroke="black" fill="red"/>
  <circle cx="1786.07" cy="663.124" r="4.79791" stroke-width="0.5" stroke="black" fill="red"/>
   </g>
   <g id="cell36">
  <circle cx="1770.64" cy="829.756" r="7.90853" stroke-width="0.5" stroke="black" fill="cyan"/>
  <circle cx="1770.64" cy="829.756" r="4.79791" stroke-width="0.5" stroke="black" fill="cyan"/>
   </g>
   <g id="cell37">
  <circle cx="1777.67" cy="1223.36" r="7.90853" stroke-width="0.5" stroke="black" fill="cyan"/>
  <circle cx="1777.67" cy="1223.36" r="4.79791" stroke-width="0.5" stroke="black" fill="cyan"/>
   </g>
   <g id="cell38">
  <circle cx="2570.11" cy="2465.56" r="7.90853" stroke-width="0.5" stroke="black" fill="red"/>
  <circle cx="2570.11" cy="2465.56" r="4.79791" stroke-width="0.5" stroke="black" fill="red"/>
   </g>
   <g id="cell39">
  <circle cx="1933.58" cy="1375.24" r="8.41271" stroke-width="0.5" stroke="black" fill="cyan"/>
  <circle cx="1933.58" cy="1375.24" r="5.05167" stroke-width="0.5" stroke="black" fill="cyan"/>
   </g>
   <g id="cell40">
  <circle cx="1164.54" cy="1765.48" r="8.41271" stroke-width="0.5" stroke="black" fill="cyan"/>
  <circle cx="1164.54" cy="1765.48" r="5.05167" stroke-width="0.5" stroke="black" fill="cyan"/>
   </g>
   <g id="cell41">
  <circle cx="1351.77" cy="2461.36" r="7.90853" stroke-width="0.5" stroke="black" fill="red"/>
  <circle cx="1351.77" cy="2461.36" r="4.79791" stroke-width="0.5" stroke="black" fill="red"/>
   </g>
   <g id="cell42">
  <circle cx="1974.5" cy="533.114" r="7.90853" stroke-width="0.5" stroke="black" fill="red"/>
  <circle cx="1974.5" cy="533.114" r="4.79791" stroke-width="0.5" stroke="black" fill="red"/>
   </g>
   <g id="cell43">
  <circle cx="444.062" cy="2633.18" r="8.41271" stroke-width="0.5" stroke="black" fill="cyan"/>
  <circle cx="444.062" cy="2633.18" r="5.05167" stroke-width="0.5" stroke="black" fill="cyan"/>
   </g>
   <g id="cell44">
  <circle cx="1896.02" cy="1864.56" r="7.90853" stroke-width="0.5" stroke="black" fill="red"/>
  <circle cx="1896.02" cy="1864.56" r="4.79791" stroke-width="0.5" stroke="black" fill="red"/>
   </g>
   <g id="cell45">
  <circle cx="1911.54" cy="714.94" r="7.90853" stroke-width="0.5" stroke="black" fill="red"/>
  <circle cx="1911.54" cy="714.94" r="4.79791" stroke-width="0.5" stroke="black" fill="red"/>
   </g>
   <g id="cell46">
  <circle cx="802.98" cy="1154.78" r="7.90853" stroke-width="0.5" stroke="black" fill="red"/>
  <circle cx="802.98" cy="1154.78" r="4.79791" stroke-width="0.5" stroke="black" fill="red"/>
   </g>
   <g id="cell47">
  <circle cx="614.576" cy="2101.34" r="7.90853" stroke-width="0.5" stroke="black" fill="red"/>
  <circle cx="614.576" cy="2101.34" r="4.79791" stroke-width="0.5" stroke="black" fill="red"/>
   </g>
   <g id="cell48">
  <circle cx="1056.14" cy="1763.88" r="7.90853" stroke-width="0.5" stroke="black" fill="red"/>
  <circle cx="1056.14" cy="1763.88" r="4.79791" stroke-width="0.5" stroke="black" fill="red"/>
   </g>
   <g id="cell49">
  <circle cx="1167.37" cy="1079.31" r="7.90853" stroke-width="0.5" stroke="black" fill="cyan"/>
  <circle cx="1167.37" cy="1079.31" r="4.79791" stroke-width="0.5" stroke="black" fill="cyan"/>
   </g>
   <g id="cell50">
  <circle cx="1664.87" cy="388.058" r="7.90853" stroke-width="0.5" stroke="black" fill="red"/>
  <circle cx="1664.87" cy="388.058" r="4.79791" stroke-width="0.5" stroke="black" fill="red"/>
   </g>
   <g id="cell51">
  <circle cx="1356.92" cy="1819.37" r="7.90853" stroke-width="0.5" stroke="black" fill="red"/>
  <circle cx="1356.92" cy="1819.37" r="4.79791" stroke-width="0.5" stroke="black" fill="red"/>
   </g>
   <g id="cell52">
  <circle cx="2669.84" cy="2596.84" r="7.90853" stroke-width="0.5" stroke="black" fill="red"/>
  <circle cx="2669.84" cy="2596.84" r="4.79791" stroke-width="0.5" stroke="black" fill="red"/>
   </g>
   <g id="cell53">
  <circle cx="539.57" cy="1865.76" r="8.41271" stroke-width="0.5" stroke="black" fill="cyan"/>
  <circle cx="539.57" cy="1865.76" r="5.05167" stroke-width="0.5" stroke="black" fill="cyan"/>
   </g>
   <g id="cell54">
  <circle cx="804.496" cy="1820.35" r="7.90853" stroke-width="0.5" stroke="black" fill="red"/>
  <circle cx="804.496" cy="1820.35" r="4.79791" stroke-width="0.5" stroke="black" fill="red"/>
   </g>
   <g id="cell55">
  <circle cx="685.481" cy="2683.83" r="7.90853" stroke-width="0.5" stroke="black" fill="red"/>
  <circle cx="685.481" cy="2683.83" r="4.79791" stroke-width="0.5" stroke="black" fill="red"/>
   </g>
   <g id="cell56">
  <circle cx="1864.59" cy="1692.15" r="7.90853" stroke-width="0.5" stroke="black" fill="red"/>
  <circle cx="1864.59" cy="1692.15" r="4.79791" stroke-width="0.5" stroke="black" fill="red"/>
   </g>
   <g id="cell57">
  <circle cx="911.948" cy="1298.44" r="8.41271" stroke-width="0.5" stroke="black" fill="cyan"/>
  <circle cx="911.948" cy="1298.44" r="5.05167" stroke-width="0.5" stroke="black" fill="cyan"/>
   </g>
   <g id="cell58">
  <circle cx="1413.75" cy="1439.68" r="7.90853" stroke-width="0.5" stroke="black" fill="red"/>
  <circle cx="1413.75" cy="1439.68" r="4.79791" stroke-width="0.5" stroke="black" fill="red"/>
   </g>
   <g id="cell59">
  <circle cx="881.665" cy="1797.87" r="7.90853" stroke-width="0.5" stroke="black" fill="red"/>
  <circle cx="881.665" cy="1797.87" r="4.79791" stroke-width="0.5" stroke="black" fill="red"/>
   </g>
   <g id="cell60">
  <circle cx="686.479" cy="1112.68" r="7.90853" stroke-width="0.5" stroke="black" fill="red"/>
  <circle cx="686.479" cy="1112.68" r="4.79791" stroke-width="0.5" stroke="black" fill="red"/>
   </g>
   <g id="cell61">
  <circle cx="559.933" cy="1919.65" r="7.90853" stroke-width="0.5" stroke="black" fill="cyan"/>
  <circle cx="559.933" cy="1919.65" r="4.79791" stroke-width="0.5" stroke="black" fill="cyan"/>
   </g>
   <g id="cell62">
  <circle cx="1880.4" cy="1062.76" r="8.41271" stroke-width="0.5" stroke="black" fill="cyan"/>
  <circle cx="1880.4" cy="1062.76" r="5.05167" stroke-width="0.5" stroke="black" fill="cyan"/>
   </g>
   <g id="cell63">
  <circle cx="634.901" cy="2172.03" r="7.90853" stroke-width="0.5" stroke="black" fill="red"/>
  <circle cx="634.901" cy="2172.03" r="4.79791" stroke-width="0.5" stroke="black" fill="red"/>
   </g>
   <g id="cell64">
  <circle cx="773.849" cy="2583.94" r="7.90853" stroke-width="0.5" stroke="black" fill="red"/>
  <circle cx="773.849" cy="2583.94" r="4.79791" stroke-width="0.5" stroke="black" fill="red"/>
   </g>
   <g id="cell65">
  <circle cx="1188.53" cy="1893.78" r="7.90853" stroke-width="0.5" stroke="black" fill="red"/>
  <circle cx="1188.53" cy="1893.78" r="4.79791" stroke-width="0.5" stroke="black" fill="red"/>
   </g>
   <g id="cell66">
  <circle cx="2275.65" cy="333.804" r="7.90853" stroke-width="0.5" stroke="black" fill="red"/>
  <circle cx="2275.65" cy="333.804" r="4.79791" stroke-width="0.5" stroke="black" fill="red"/>
   </g>
   <g id="cell67">
  <circle cx="533.089" cy="1800.25" r="7.90853" stroke-width="0.5" stroke="black" fill="red"/>
  <circle cx="533.089" cy="1800.25" r="4.79791" stroke-width="0.5" stroke="black" fill="red"/>
   </g>
   <g id="cell68">
  <circle cx="2305.55" cy="1914.94" r="8.41271" stroke-width="0.5" stroke="black" fill="cyan"/>
  <circle cx="2305.55" cy="1914.94" r="5.05167" stroke-width="0.5" stroke="black" fill="cyan"/>
   </g>
   <g id="cell69">
  <circle cx="529.036" cy="2637.84" r="7.90853" stroke-width="0.5" stroke="black" fill="red"/>
  <circle cx="529.036" cy="2637.84" r="4.79791" stroke-width="0.5" stroke="black" fill="red"/>
   </g>
   <g id="cell70">
  <circle cx="2647.63" cy="2410.76" r="7.90853" stroke-width="0.5" stroke="black" fill="red"/>
  <circle cx="2647.63" cy="2410.76" r="4.79791" stroke-width="0.5" stroke="black" fill="red"/>
   </g>
   <g id="cell71">
  <circle cx="1420.08" cy="1525.28" r="7.90853" stroke-width="0.5" stroke="black" fill="red"/>
  <circle cx="1420.08" cy="1525.28" r="4.79791" stroke-width="0.5" stroke="black" fill="red"/>
   </g>
   <g id="cell72">
  <circle cx="2639.35" cy="436.141" r="8.41271" stroke-width="0.5" stroke="black" fill="cyan"/>
  <circle cx="2639.35" cy="436.141" r="5.05167" stroke-width="0.5" stroke="black" fill="cyan"/>
   </g>
   <g id="cell73">
  <circle cx="1746.24" cy="1382.3" r="8.41271" stroke-width="0.5" stroke="black" fill="cyan"/>
  <circle cx="1746.24" cy="1382.3" r="5.05167" stroke-width="0.5" stroke="black" fill="cyan"/>
   </g>
   <g id="cell74">
  <circle cx="2079.27" cy="349.95" r="8.41271" stroke-width="0.5" stroke="black" fill="cyan"/>
  <circle cx="2079.27" cy="349.95" r="5.05167" stroke-width="0.5" stroke="black" fill="cyan"/>
   </g>
   <g id="cell75">
  <circle cx="389.013" cy="1358.96" r="7.90853" stroke-width="0.5" stroke="black" fill="red"/>
  <circle cx="389.013" cy="1358.96" r="4.79791" stroke-width="0.5" stroke="black" fill="red"/>
   </g>
   <g id="cell76">
  <circle cx="982.755" cy="2647.77" r="7.90853" stroke-width="0.5" stroke="black" fill="cyan"/>
  <circle cx="982.755" cy="2647.77" r="4.79791" stroke-width="0.5" stroke="black" fill="cyan"/>
   </g>
   <g id="cell77">
  <circle cx="584.927" cy="1158.91" r="7.90853" stroke-width="0.5" stroke="black" fill="red"/>
  <circle cx="584.927" cy="1158.91" r="4.79791" stroke-width="0.5" stroke="black" fill="red"/>
   </g>
   <g id="cell78">
  <circle cx="1009.44" cy="1449.15" r="7.90853" stroke-width="0.5" stroke="black" fill="cyan"/>
  <circle cx="1009.44" cy="1449.15" r="4.79791" stroke-width="0.5" stroke="black" fill="cyan"/>
   </g>
   <g id="cell79">
  <circle cx="585.839" cy="1957.87" r="7.90853" stroke-width="0.5" stroke="black" fill="red"/>
  <circle cx="585.839" cy="1957.87" r="4.79791" stroke-width="0.5" stroke="black" fill="red"/>
   </g>
   <g id="cell80">
  <circle cx="1068.57" cy="2413.27" r="8.41271" stroke-width="0.5" stroke="black" fill="cyan"/>
  <circle cx="1068.57" cy="2413.27" r="5.05167" stroke-width="0.5" stroke="black" fill="cyan"/>
   </g>
   <g id="cell81">
  <circle cx="1293.29" cy="2508.84" r="7.90853" stroke-width="0.5" stroke="black" fill="red"/>
  <circle cx="1293.29" cy="2508.84" r="4.79791" stroke-width="0.5" stroke="black" fill="red"/>
   </g>
   <g id="cell82">
  <circle cx="453.24" cy="825.486" r="7.90853" stroke-width="0.5" stroke="black" fill="cyan"/>
  <circle cx="453.24" cy="825.486" r="4.79791" stroke-width="0.5" stroke="black" fill="cyan"/>
   </g>
   <g id="cell83">
  <circle cx="1964.14" cy="1651.79" r="7.90853" stroke-width="0.5" stroke="black" fill="cyan"/>
  <circle cx="1964.14" cy="1651.79" r="4.79791" stroke-width="0.5" stroke="black" fill="cyan"/>
   </g>
   <g id="cell84">
  <circle cx="1655.22" cy="2378.54" r="7.90853" stroke-width="0.5" stroke="black" fill="cyan"/>
  <circle cx="1655.22" cy="2378.54" r="4.79791" stroke-width="0.5" stroke="black" fill="cyan"/>
   </g>
   <g id="cell85">
  <circle cx="934.288" cy="1517.09" r="7.90853" stroke-width="0.5" stroke="black" fill="red"/>
  <circle cx="934.288" cy="1517.09" r="4.79791" stroke-width="0.5" stroke="black" fill="red"/>
   </g>
   <g id="cell86">
  <circle cx="1560.36" cy="2497.71" r="7.90853" stroke-width="0.5" stroke="black" fill="red"/>
  <circle cx="1560.36" cy="2497.71" r="4.79791" stroke-width="0.5" stroke="black" fill="red"/>
   </g>
   <g id="cell87">
  <circle cx="528.366" cy="2506.22" r="7.90853" stroke-width="0.5" stroke="black" fill="red"/>
  <circle cx="528.366" cy="2506.22" r="4.79791" stroke-width="0.5" stroke="black" fill="red"/>
   </g>
   <g id="cell88">
  <circle cx="1685.59" cy="503.422" r="7.90853" stroke-width="0.5" stroke="black" fill="red"/>
  <circle cx="1685.59" cy="503.422" r="4.79791" stroke-width="0.5" stroke="black" fill="red"/>
   </g>
   <g id="cell89">
  <circle cx="2525.15" cy="966.369" r="7.90853" stroke-width="0.5" stroke="black" fill="red"/>
  <circle cx="2525.15" cy="966.369" r="4.79791" stroke-width="0.5" stroke="black" fill="red"/>
   </g>
   <g id="cell90">
  <circle cx="1063.51" cy="327.762" r="7.90853" stroke-width="0.5" stroke="black" fill="red"/>
  <circle cx="1063.51" cy="327.762" r="4.79791" stroke-width="0.5" stroke="black" fill="red"/>
   </g>
   <g id="cell91">
  <circle cx="1901.75" cy="2316.21" r="7.90853" stroke-width="0.5" stroke="black" fill="red"/>
  <circle cx="1901.75" cy="2316.21" r="4.79791" stroke-width="0.5" stroke="black" fill="red"/>
   </g>
   <g id="cell92">
  <circle cx="610.943" cy="1853.86" r="8.41271" stroke-width="0.5" stroke="black" fill="cyan"/>
  <circle cx="610.943" cy="1853.86" r="5.05167" stroke-width="0.5" stroke="black" fill="cyan"/>
   </g>
   <g id="cell93">
  <circle cx="2016.63" cy="2314.55" r="7.90853" stroke-width="0.5" stroke="black" fill="red"/>
  <circle cx="2016.63" cy="2314.55" r="4.79791" stroke-width="0.5" stroke="black" fill="red"/>
   </g>
   <g id="cell94">
  <circle cx="990.044" cy="932.878" r="7.90853" stroke-width="0.5" stroke="black" fill="cyan"/>
  <circle cx="990.044" cy="932.878" r="4.79791" stroke-width="0.5" stroke="black" fill="cyan"/>
   </g>
   <g id="cell95">
  <circle cx="737.069" cy="1250.3" r="7.90853" stroke-width="0.5" stroke="black" fill="red"/>
  <circle cx="737.069" cy="1250.3" r="4.79791" stroke-width="0.5" stroke="black" fill="red"/>
   </g>
   <g id="cell96">
  <circle cx="1703.8" cy="1630.23" r="7.90853" stroke-width="0.5" stroke="black" fill="red"/>
  <circle cx="1703.8" cy="1630.23" r="4.79791" stroke-width="0.5" stroke="black" fill="red"/>
   </g>
   <g id="cell97">
  <circle cx="350.852" cy="691.394" r="7.90853" stroke-width="0.5" stroke="black" fill="red"/>
  <circle cx="350.852" cy="691.394" r="4.79791" stroke-width="0.5" stroke="black" fill="red"/>
   </g>
   <g id="cell98">
  <circle cx="2284.29" cy="1187.48" r="7.90853" stroke-width="0.5" stroke="black" fill="cyan"/>
  <circle cx="2284.29" cy="1187.48" r="4.79791" stroke-width="0.5" stroke="black" fill="cyan"/>
   </g>
   <g id="cell99">
  <circle cx="316.34" cy="652.426" r="7.90853" stroke-width="0.5" stroke="black" fill="cyan"/>
  <circle cx="316.34" cy="652.426" r="4.79791" stroke-width="0.5" stroke="black" fill="cyan"/>
   </g>
   <g id="cell100">
  <circle cx="637.093" cy="1596.7" r="7.90853" stroke-width="0.5" stroke="black" fill="red"/>
  <circle cx="637.093" cy="1596.7" r="4.79791" stroke-width="0.5" stroke="black" fill="red"/>
   </g>
   <g id="cell101">
  <circle cx="2523.24" cy="2296.95" r="7.90853" stroke-width="0.5" stroke="black" fill="red"/>
  <circle cx="2523.24" cy="2296.95" r="4.79791" stroke-width="0.5" stroke="black" fill="red"/>
   </g>
   <g id="cell102">
  <circle cx="768.118" cy="2570.05" r="7.90853" stroke-width="0.5" stroke="black" fill="red"/>
  <circle cx="768.118" cy="2570.05" r="4.79791" stroke-width="0.5" stroke="black" fill="red"/>
   </g>
   <g id="cell103">
  <circle cx="971.055" cy="2657.2" r="7.90853" stroke-width="0.5" stroke="black" fill="cyan"/>
  <circle cx="971.055" cy="2657.2" r="4.79791" stroke-width="0.5" stroke="black" fill="cyan"/>
   </g>
   <g id="cell104">
  <circle cx="1941.58" cy="1388.55" r="7.90853" stroke-width="0.5" stroke="black" fill="red"/>
  <circle cx="1941.58" cy="1388.55" r="4.79791" stroke-width="0.5" stroke="black" fill="red"/>
   </g>
   <g id="cell105">
  <circle cx="2676.42" cy="2610.36" r="7.90853" stroke-width="0.5" stroke="black" fill="red"/>
  <circle cx="2676.42" cy="2610.36" r="4.79791" stroke-width="0.5" stroke="black" fill="red"/>
   </g>
   <g id="cell106">
  <circle cx="476.624" cy="1102.02" r="7.90853" stroke-width="0.5" stroke="black" fill="red"/>
  <circle cx="476.624" cy="1102.02" r="4.79791" stroke-width="0.5" stroke="black" fill="red"/>
   </g>
   <g id="cell107">
  <circle cx="554.865" cy="1868.44" r="7.90853" stroke-width="0.5" stroke="black" fill="red"/>
  <circle cx="554.865" cy="1868.44" r="4.79791" stroke-width="0.5" stroke="black" fill="red"/>
   </g>
   <g id="cell108">
  <circle cx="1160.17" cy="1780.38" r="7.90853" stroke-width="0.5" stroke="black" fill="red"/>
  <circle cx="1160.17" cy="1780.38" r="4.79791" stroke-width="0.5" stroke="black" fill="red"/>
   </g>
   <g id="cell109">
  <circle cx="1621.62" cy="1713.75" r="8.41271" stroke-width="0.5" stroke="black" fill="cyan"/>
  <circle cx="1621.62" cy="1713.75" r="5.05167" stroke-width="0.5" stroke="black" fill="cyan"/>
   </g>
   <g id="cell110">
  <circle cx="514.305" cy="1847.22" r="7.90853" stroke-width="0.5" stroke="black" fill="red"/>
  <circle cx="514.305" cy="1847.22" r="4.79791" stroke-width="0.5" stroke="black" fill="red"/>
   </g>
   <g id="cell111">
  <circle cx="1675.92" cy="491.915" r="7.90853" stroke-width="0.5" stroke="black" fill="red"/>
  <circle cx="1675.92" cy="491.915" r="4.79791" stroke-width="0.5" stroke="black" fill="red"/>
   </g>
   <g id="cell112">
  <circle cx="352.173" cy="1193.22" r="8.41271" stroke-width="0.5" stroke="black" fill="cyan"/>
  <circle cx="352.173" cy="1193.22" r="5.05167" stroke-width="0.5" stroke="black" fill="cyan"/>
   </g>
   <g id="cell113">
  <circle cx="2307.47" cy="2600.78" r="7.90853" stroke-width="0.5" stroke="black" fill="red"/>
  <circle cx="2307.47" cy="2600.78" r="4.79791" stroke-width="0.5" stroke="black" fill="red"/>
   </g>
   <g id="cell114">
  <circle cx="1343.35" cy="2473.81" r="7.90853" stroke-width="0.5" stroke="black" fill="red"/>
  <circle cx="1343.35" cy="2473.81" r="4.79791" stroke-width="0.5" stroke="black" fill="red"/>
   </g>
   <g id="cell115">
  <circle cx="2162.1" cy="645.346" r="8.41271" stroke-width="0.5" stroke="black" fill="cyan"/>
  <circle cx="2162.1" cy="645.346" r="5.05167" stroke-width="0.5" stroke="black" fill="cyan"/>
   </g>
   <g id="cell116">
  <circle cx="2378.4" cy="2386.05" r="7.90853" stroke-width="0.5" stroke="black" fill="red"/>
  <circle cx="2378.4" cy="2386.05" r="4.79791" stroke-width="0.5" stroke="black" fill="red"/>
   </g>
   <g id="cell117">
  <circle cx="2540.18" cy="966.821" r="7.90853" stroke-width="0.5" stroke="black" fill="red"/>
  <circle cx="2540.18" cy="966.821" r="4.79791" stroke-width="0.5" stroke="black" fill="red"/>
   </g>
   <g id="cell118">
  <circle cx="1973.96" cy="548.135" r="7.90853" stroke-width="0.5" stroke="black" fill="red"/>
  <circle cx="1973.96" cy="548.135" r="4.79791" stroke-width="0.5" stroke="black" fill="red"/>
   </g>
   <g id="cell119">
  <circle cx="1066.54" cy="312.535" r="8.41271" stroke-width="0.5" stroke="black" fill="cyan"/>
  <circle cx="1066.54" cy="312.535" r="5.05167" stroke-width="0.5" stroke="black" fill="cyan"/>
   </g>
   <g id="cell120">
  <circle cx="445.419" cy="2617.21" r="8.41271" stroke-width="0.5" stroke="black" fill="cyan"/>
  <circle cx="445.419" cy="2617.21" r="5.05167" stroke-width="0.5" stroke="black" fill="cyan"/>
   </g>
   <g id="cell121">
  <circle cx="2657.9" cy="1432.49" r="7.90853" stroke-width="0.5" stroke="black" fill="red"/>
  <circle cx="2657.9" cy="1432.49" r="4.79791" stroke-width="0.5" stroke="black" fill="red"/>
   </g>
   <g id="cell122">
  <circle cx="595.249" cy="1169.84" r="7.90853" stroke-width="0.5" stroke="black" fill="red"/>
  <circle cx="595.249" cy="1169.84" r="4.79791" stroke-width="0.5" stroke="black" fill="red"/>
   </g>
   <g id="cell123">
  <circle cx="1178.08" cy="1882.97" r="7.90853" stroke-width="0.5" stroke="black" fill="red"/>
  <circle cx="1178.08" cy="1882.97" r="4.79791" stroke-width="0.5" stroke="black" fill="red"/>
   </g>
   <g id="cell124">
  <circle cx="1901.85" cy="2331.74" r="8.41271" stroke-width="0.5" stroke="black" fill="cyan"/>
  <circle cx="1901.85" cy="2331.74" r="5.05167" stroke-width="0.5" stroke="black" fill="cyan"/>
   </g>
   <g id="cell125">
  <circle cx="626.359" cy="1852.01" r="7.90853" stroke-width="0.5" stroke="black" fill="red"/>
  <circle cx="626.359" cy="1852.01" r="4.79791" stroke-width="0.5" stroke="black" fill="red"/>
   </g>
   <g id="cell126">
  <circle cx="2031.62" cy="2315.93" r="7.90853" stroke-width="0.5" stroke="black" fill="red"/>
  <circle cx="2031.62" cy="2315.93" r="4.79791" stroke-width="0.5" stroke="black" fill="red"/>
   </g>
   <g id="cell127">
  <circle cx="1013.21" cy="1463.7" r="7.90853" stroke-width="0.5" stroke="black" fill="cyan"/>
  <circle cx="1013.21" cy="1463.7" r="4.79791" stroke-width="0.5" stroke="black" fill="cyan"/>
   </g>
   <g id="cell128">
  <circle cx="2260.53" cy="330.268" r="8.41271" stroke-width="0.5" stroke="black" fill="cyan"/>
  <circle cx="2260.53" cy="330.268" r="5.05167" stroke-width="0.5" stroke="black" fill="cyan"/>
   </g>
   <g id="cell129">
  <circle cx="1003.24" cy="940.082" r="7.90853" stroke-width="0.5" stroke="black" fill="cyan"/>
  <circle cx="1003.24" cy="940.082" r="4.79791" stroke-width="0.5" stroke="black" fill="cyan"/>
   </g>
   <g id="cell130">
  <circle cx="532.957" cy="1784.72" r="8.41271" stroke-width="0.5" stroke="black" fill="cyan"/>
  <circle cx="532.957" cy="1784.72" r="5.05167" stroke-width="0.5" stroke="black" fill="cyan"/>
   </g>
   <g id="cell131">
  <circle cx="744.611" cy="1263.31" r="7.90853" stroke-width="0.5" stroke="black" fill="red"/>
  <circle cx="744.611" cy="1263.31" r="4.79791" stroke-width="0.5" stroke="black" fill="red"/>
   </g>
   <g id="cell132">
  <circle cx="2320.28" cy="1919.86" r="7.90853" stroke-width="0.5" stroke="black" fill="red"/>
  <circle cx="2320.28" cy="1919.86" r="4.79791" stroke-width="0.5" stroke="black" fill="red"/>
   </g>
   <g id="cell133">
  <circle cx="2219.34" cy="2212.41" r="7.90853" stroke-width="0.5" stroke="black" fill="cyan"/>
  <circle cx="2219.34" cy="2212.41" r="4.79791" stroke-width="0.5" stroke="black" fill="cyan"/>
   </g>
   <g id="cell134">
  <circle cx="533.629" cy="2623" r="8.41271" stroke-width="0.5" stroke="black" fill="cyan"/>
  <circle cx="533.629" cy="2623" r="5.05167" stroke-width="0.5" stroke="black" fill="cyan"/>
   </g>
   <g id="cell135">
  <circle cx="2635.61" cy="2401.74" r="7.90853" stroke-width="0.5" stroke="black" fill="red"/>
  <circle cx="2635.61" cy="2401.74" r="4.79791" stroke-width="0.5" stroke="black" fill="red"/>
   </g>
   <g id="cell136">
  <circle cx="1433.71" cy="1518.93" r="7.90853" stroke-width="0.5" stroke="black" fill="red"/>
  <circle cx="1433.71" cy="1518.93" r="4.79791" stroke-width="0.5" stroke="black" fill="red"/>
   </g>
   <g id="cell137">
  <circle cx="2653.25" cy="429.226" r="7.90853" stroke-width="0.5" stroke="black" fill="red"/>
  <circle cx="2653.25" cy="429.226" r="4.79791" stroke-width="0.5" stroke="black" fill="red"/>
   </g>
   <g id="cell138">
  <circle cx="1398.61" cy="1550.55" r="7.90853" stroke-width="0.5" stroke="black" fill="cyan"/>
  <circle cx="1398.61" cy="1550.55" r="4.79791" stroke-width="0.5" stroke="black" fill="cyan"/>
   </g>
   <g id="cell139">
  <circle cx="1761.71" cy="1383.69" r="7.90853" stroke-width="0.5" stroke="black" fill="red"/>
  <circle cx="1761.71" cy="1383.69" r="4.79791" stroke-width="0.5" stroke="black" fill="red"/>
   </g>
   <g id="cell140">
  <circle cx="2180.08" cy="1936.45" r="7.90853" stroke-width="0.5" stroke="black" fill="red"/>
  <circle cx="2180.08" cy="1936.45" r="4.79791" stroke-width="0.5" stroke="black" fill="red"/>
   </g>
   <g id="cell141">
  <circle cx="1908.31" cy="1873.22" r="7.90853" stroke-width="0.5" stroke="black" fill="red"/>
  <circle cx="1908.31" cy="1873.22" r="4.79791" stroke-width="0.5" stroke="black" fill="red"/>
   </g>
   <g id="cell142">
  <circle cx="2064.82" cy="344.269" r="7.90853" stroke-width="0.5" stroke="black" fill="red"/>
  <circle cx="2064.82" cy="344.269" r="4.79791" stroke-width="0.5" stroke="black" fill="red"/>
   </g>
   <g id="cell143">
  <circle cx="794.823" cy="1831.85" r="7.90853" stroke-width="0.5" stroke="black" fill="red"/>
  <circle cx="794.823" cy="1831.85" r="4.79791" stroke-width="0.5" stroke="black" fill="red"/>
   </g>
   <g id="cell144">
  <circle cx="1905.7" cy="701.09" r="7.90853" stroke-width="0.5" stroke="black" fill="red"/>
  <circle cx="1905.7" cy="701.09" r="4.79791" stroke-width="0.5" stroke="black" fill="red"/>
   </g>
   <g id="cell145">
  <circle cx="808.624" cy="1168.71" r="7.90853" stroke-width="0.5" stroke="black" fill="red"/>
  <circle cx="808.624" cy="1168.71" r="4.79791" stroke-width="0.5" stroke="black" fill="red"/>
   </g>
   <g id="cell146">
  <circle cx="599.571" cy="2102.23" r="7.90853" stroke-width="0.5" stroke="black" fill="red"/>
  <circle cx="599.571" cy="2102.23" r="4.79791" stroke-width="0.5" stroke="black" fill="red"/>
   </g>
   <g id="cell147">
  <circle cx="1714.96" cy="1620.17" r="7.90853" stroke-width="0.5" stroke="black" fill="red"/>
  <circle cx="1714.96" cy="1620.17" r="4.79791" stroke-width="0.5" stroke="black" fill="red"/>
   </g>
   <g id="cell148">
  <circle cx="1058.73" cy="1749.07" r="7.90853" stroke-width="0.5" stroke="black" fill="red"/>
  <circle cx="1058.73" cy="1749.07" r="4.79791" stroke-width="0.5" stroke="black" fill="red"/>
   </g>
   <g id="cell149">
  <circle cx="1182.24" cy="1081.47" r="7.90853" stroke-width="0.5" stroke="black" fill="cyan"/>
  <circle cx="1182.24" cy="1081.47" r="4.79791" stroke-width="0.5" stroke="black" fill="cyan"/>
   </g>
   <g id="cell150">
  <circle cx="1675.03" cy="399.793" r="8.41271" stroke-width="0.5" stroke="black" fill="cyan"/>
  <circle cx="1675.03" cy="399.793" r="5.05167" stroke-width="0.5" stroke="black" fill="cyan"/>
   </g>
   <g id="cell151">
  <circle cx="1344.46" cy="1827.77" r="7.90853" stroke-width="0.5" stroke="black" fill="red"/>
  <circle cx="1344.46" cy="1827.77" r="4.79791" stroke-width="0.5" stroke="black" fill="red"/>
   </g>
   <g id="cell152">
  <circle cx="343.299" cy="704.389" r="7.90853" stroke-width="0.5" stroke="black" fill="red"/>
  <circle cx="343.299" cy="704.389" r="4.79791" stroke-width="0.5" stroke="black" fill="red"/>
   </g>
   <g id="cell153">
  <circle cx="583.24" cy="1943.07" r="7.90853" stroke-width="0.5" stroke="black" fill="red"/>
  <circle cx="583.24" cy="1943.07" r="4.79791" stroke-width="0.5" stroke="black" fill="red"/>
   </g>
   <g id="cell154">
  <circle cx="2299.32" cy="1187.65" r="7.90853" stroke-width="0.5" stroke="black" fill="cyan"/>
  <circle cx="2299.32" cy="1187.65" r="4.79791" stroke-width="0.5" stroke="black" fill="cyan"/>
   </g>
   <g id="cell155">
  <circle cx="301.575" cy="649.613" r="7.90853" stroke-width="0.5" stroke="black" fill="cyan"/>
  <circle cx="301.575" cy="649.613" r="4.79791" stroke-width="0.5" stroke="black" fill="cyan"/>
   </g>
   <g id="cell156">
  <circle cx="1053.05" cy="2412.9" r="7.90853" stroke-width="0.5" stroke="black" fill="red"/>
  <circle cx="1053.05" cy="2412.9" r="4.79791" stroke-width="0.5" stroke="black" fill="red"/>
   </g>
   <g id="cell157">
  <circle cx="2022.97" cy="2328.2" r="7.90853" stroke-width="0.5" stroke="black" fill="red"/>
  <circle cx="2022.97" cy="2328.2" r="4.79791" stroke-width="0.5" stroke="black" fill="red"/>
   </g>
   <g id="cell158">
  <circle cx="1296.04" cy="2494.06" r="7.90853" stroke-width="0.5" stroke="black" fill="red"/>
  <circle cx="1296.04" cy="2494.06" r="4.79791" stroke-width="0.5" stroke="black" fill="red"/>
   </g>
   <g id="cell159">
  <circle cx="455.319" cy="810.599" r="7.90853" stroke-width="0.5" stroke="black" fill="cyan"/>
  <circle cx="455.319" cy="810.599" r="4.79791" stroke-width="0.5" stroke="black" fill="cyan"/>
   </g>
   <g id="cell160">
  <circle cx="1957.71" cy="1665.37" r="7.90853" stroke-width="0.5" stroke="black" fill="cyan"/>
  <circle cx="1957.71" cy="1665.37" r="4.79791" stroke-width="0.5" stroke="black" fill="cyan"/>
   </g>
   <g id="cell161">
  <circle cx="1668.69" cy="2371.86" r="7.90853" stroke-width="0.5" stroke="black" fill="cyan"/>
  <circle cx="1668.69" cy="2371.86" r="4.79791" stroke-width="0.5" stroke="black" fill="cyan"/>
   </g>
   <g id="cell162">
  <circle cx="1735.48" cy="2360.97" r="7.90853" stroke-width="0.5" stroke="black" fill="red"/>
  <circle cx="1735.48" cy="2360.97" r="4.79791" stroke-width="0.5" stroke="black" fill="red"/>
   </g>
   <g id="cell163">
  <circle cx="941.995" cy="1530" r="7.90853" stroke-width="0.5" stroke="black" fill="red"/>
  <circle cx="941.995" cy="1530" r="4.79791" stroke-width="0.5" stroke="black" fill="red"/>
   </g>
   <g id="cell164">
  <circle cx="576.841" cy="2022.23" r="7.90853" stroke-width="0.5" stroke="black" fill="red"/>
  <circle cx="576.841" cy="2022.23" r="4.79791" stroke-width="0.5" stroke="black" fill="red"/>
   </g>
   <g id="cell165">
  <circle cx="403.67" cy="1362.29" r="7.90853" stroke-width="0.5" stroke="black" fill="red"/>
  <circle cx="403.67" cy="1362.29" r="4.79791" stroke-width="0.5" stroke="black" fill="red"/>
   </g>
   <g id="cell166">
  <circle cx="1828.73" cy="1703.75" r="7.90853" stroke-width="0.5" stroke="black" fill="red"/>
  <circle cx="1828.73" cy="1703.75" r="4.79791" stroke-width="0.5" stroke="black" fill="red"/>
   </g>
   <g id="cell167">
  <circle cx="690.319" cy="2698.06" r="7.90853" stroke-width="0.5" stroke="black" fill="red"/>
  <circle cx="690.319" cy="2698.06" r="4.79791" stroke-width="0.5" stroke="black" fill="red"/>
   </g>
   <g id="cell168">
  <circle cx="1872.94" cy="1704.64" r="7.90853" stroke-width="0.5" stroke="black" fill="red"/>
  <circle cx="1872.94" cy="1704.64" r="4.79791" stroke-width="0.5" stroke="black" fill="red"/>
   </g>
   <g id="cell169">
  <circle cx="900.484" cy="1287.24" r="8.41271" stroke-width="0.5" stroke="black" fill="cyan"/>
  <circle cx="900.484" cy="1287.24" r="5.05167" stroke-width="0.5" stroke="black" fill="cyan"/>
   </g>
   <g id="cell170">
  <circle cx="2562.54" cy="2111.98" r="7.90853" stroke-width="0.5" stroke="black" fill="cyan"/>
  <circle cx="2562.54" cy="2111.98" r="4.79791" stroke-width="0.5" stroke="black" fill="cyan"/>
   </g>
   <g id="cell171">
  <circle cx="1429.23" cy="1438.51" r="8.41271" stroke-width="0.5" stroke="black" fill="cyan"/>
  <circle cx="1429.23" cy="1438.51" r="5.05167" stroke-width="0.5" stroke="black" fill="cyan"/>
   </g>
   <g id="cell172">
  <circle cx="896.097" cy="1793.67" r="7.90853" stroke-width="0.5" stroke="black" fill="red"/>
  <circle cx="896.097" cy="1793.67" r="4.79791" stroke-width="0.5" stroke="black" fill="red"/>
   </g>
   <g id="cell173">
  <circle cx="672.061" cy="1108.43" r="7.90853" stroke-width="0.5" stroke="black" fill="red"/>
  <circle cx="672.061" cy="1108.43" r="4.79791" stroke-width="0.5" stroke="black" fill="red"/>
   </g>
   <g id="cell174">
  <circle cx="574.945" cy="1918.91" r="7.90853" stroke-width="0.5" stroke="black" fill="cyan"/>
  <circle cx="574.945" cy="1918.91" r="4.79791" stroke-width="0.5" stroke="black" fill="cyan"/>
   </g>
   <g id="cell175">
  <circle cx="1552.11" cy="564.042" r="7.90853" stroke-width="0.5" stroke="black" fill="red"/>
  <circle cx="1552.11" cy="564.042" r="4.79791" stroke-width="0.5" stroke="black" fill="red"/>
   </g>
   <g id="cell176">
  <circle cx="1865.46" cy="1058.53" r="7.90853" stroke-width="0.5" stroke="black" fill="red"/>
  <circle cx="1865.46" cy="1058.53" r="4.79791" stroke-width="0.5" stroke="black" fill="red"/>
   </g>
   <g id="cell177">
  <circle cx="1285.03" cy="1434.75" r="8.41271" stroke-width="0.5" stroke="black" fill="cyan"/>
  <circle cx="1285.03" cy="1434.75" r="5.05167" stroke-width="0.5" stroke="black" fill="cyan"/>
   </g>
   <g id="cell178">
  <circle cx="625.404" cy="2160.38" r="7.90853" stroke-width="0.5" stroke="black" fill="red"/>
  <circle cx="625.404" cy="2160.38" r="4.79791" stroke-width="0.5" stroke="black" fill="red"/>
   </g>
   <g id="cell179">
  <circle cx="1599.71" cy="2327.64" r="7.90853" stroke-width="0.5" stroke="black" fill="red"/>
  <circle cx="1599.71" cy="2327.64" r="4.79791" stroke-width="0.5" stroke="black" fill="red"/>
   </g>
   <g id="cell180">
  <circle cx="925.59" cy="750.392" r="7.90853" stroke-width="0.5" stroke="black" fill="red"/>
  <circle cx="925.59" cy="750.392" r="4.79791" stroke-width="0.5" stroke="black" fill="red"/>
   </g>
   <g id="cell181">
  <circle cx="2153.63" cy="2077.24" r="7.90853" stroke-width="0.5" stroke="black" fill="red"/>
  <circle cx="2153.63" cy="2077.24" r="4.79791" stroke-width="0.5" stroke="black" fill="red"/>
   </g>
   <g id="cell182">
  <circle cx="1404.58" cy="820.749" r="7.90853" stroke-width="0.5" stroke="black" fill="red"/>
  <circle cx="1404.58" cy="820.749" r="4.79791" stroke-width="0.5" stroke="black" fill="red"/>
   </g>
   <g id="cell183">
  <circle cx="1547.09" cy="2504.76" r="7.90853" stroke-width="0.5" stroke="black" fill="red"/>
  <circle cx="1547.09" cy="2504.76" r="4.79791" stroke-width="0.5" stroke="black" fill="red"/>
   </g>
   <g id="cell184">
  <circle cx="1309.42" cy="1803.13" r="7.90853" stroke-width="0.5" stroke="black" fill="red"/>
  <circle cx="1309.42" cy="1803.13" r="4.79791" stroke-width="0.5" stroke="black" fill="red"/>
   </g>
   <g id="cell185">
  <circle cx="1657.08" cy="631.316" r="7.90853" stroke-width="0.5" stroke="black" fill="red"/>
  <circle cx="1657.08" cy="631.316" r="4.79791" stroke-width="0.5" stroke="black" fill="red"/>
   </g>
   <g id="cell186">
  <circle cx="1843.61" cy="1229.91" r="7.90853" stroke-width="0.5" stroke="black" fill="red"/>
  <circle cx="1843.61" cy="1229.91" r="4.79791" stroke-width="0.5" stroke="black" fill="red"/>
   </g>
   <g id="cell187">
  <circle cx="1347.65" cy="1024.45" r="7.90853" stroke-width="0.5" stroke="black" fill="red"/>
  <circle cx="1347.65" cy="1024.45" r="4.79791" stroke-width="0.5" stroke="black" fill="red"/>
   </g>
   <g id="cell188">
  <circle cx="347.588" cy="1069.53" r="7.90853" stroke-width="0.5" stroke="black" fill="red"/>
  <circle cx="347.588" cy="1069.53" r="4.79791" stroke-width="0.5" stroke="black" fill="red"/>
   </g>
   <g id="cell189">
  <circle cx="520.018" cy="2519.31" r="8.41271" stroke-width="0.5" stroke="black" fill="cyan"/>
  <circle cx="520.018" cy="2519.31" r="5.05167" stroke-width="0.5" stroke="black" fill="cyan"/>
   </g>
   <g id="cell190">
  <circle cx="2432.6" cy="442.344" r="7.90853" stroke-width="0.5" stroke="black" fill="red"/>
  <circle cx="2432.6" cy="442.344" r="4.79791" stroke-width="0.5" stroke="black" fill="red"/>
   </g>
   <g id="cell191">
  <circle cx="1775.32" cy="651.919" r="8.41271" stroke-width="0.5" stroke="black" fill="cyan"/>
  <circle cx="1775.32" cy="651.919" r="5.05167" stroke-width="0.5" stroke="black" fill="cyan"/>
   </g>
   <g id="cell192">
  <circle cx="2618.48" cy="962.637" r="7.90853" stroke-width="0.5" stroke="black" fill="red"/>
  <circle cx="2618.48" cy="962.637" r="4.79791" stroke-width="0.5" stroke="black" fill="red"/>
   </g>
   <g id="cell193">
  <circle cx="1764.79" cy="843.6" r="7.90853" stroke-width="0.5" stroke="black" fill="cyan"/>
  <circle cx="1764.79" cy="843.6" r="4.79791" stroke-width="0.5" stroke="black" fill="cyan"/>
   </g>
   <g id="cell194">
  <circle cx="1230.05" cy="1445.15" r="7.90853" stroke-width="0.5" stroke="black" fill="red"/>
  <circle cx="1230.05" cy="1445.15" r="4.79791" stroke-width="0.5" stroke="black" fill="red"/>
   </g>
   <g id="cell195">
  <circle cx="2200.29" cy="2259.07" r="7.90853" stroke-width="0.5" stroke="black" fill="red"/>
  <circle cx="2200.29" cy="2259.07" r="4.79791" stroke-width="0.5" stroke="black" fill="red"/>
   </g>
   <g id="cell196">
  <circle cx="1786.33" cy="1235.64" r="7.90853" stroke-width="0.5" stroke="black" fill="cyan"/>
  <circle cx="1786.33" cy="1235.64" r="4.79791" stroke-width="0.5" stroke="black" fill="cyan"/>
   </g>
   <g id="cell197">
  <circle cx="1578.2" cy="1456.31" r="7.90853" stroke-width="0.5" stroke="black" fill="red"/>
  <circle cx="1578.2" cy="1456.31" r="4.79791" stroke-width="0.5" stroke="black" fill="red"/>
   </g>
   <g id="cell198">
  <circle cx="2555.21" cy="2467.53" r="7.90853" stroke-width="0.5" stroke="black" fill="red"/>
  <circle cx="2555.21" cy="2467.53" r="4.79791" stroke-width="0.5" stroke="black" fill="red"/>
   </g>
   <g id="cell199">
  <circle cx="1666.34" cy="1252.34" r="7.90853" stroke-width="0.5" stroke="black" fill="red"/>
  <circle cx="1666.34" cy="1252.34" r="4.79791" stroke-width="0.5" stroke="black" fill="red"/>
   </g>
  </g>
 </g>
  <rect x="2725" y="3105" width="200" height="30" stroke-width="6" stroke="rgb(255,255,255)" fill="rgb(0,0,0)"/>
  <text x="2743.75" y="3086.25"
   font-family="Arial" font-size="75" fill="black" >
   200 &#956;m
  </text>
  <text x="75" y="3135"
   font-family="Arial" font-size="56.25" fill="black" >
   0 days, 0 hours, 0 minutes, and 10.0442 seconds
  </text>
  <rect x="0" y="210" width="3000" height="3000" stroke-width="6" stroke="rgb(0,0,0)" fill="none"/>
</svg>
