<?xml version="1.0" encoding="UTF-8" standalone="no"?>
<!-- Created with PhysiCell (http://PhysiCell.MathCancer.org/) -->
<svg 
 xmlns:dc="http://purl.org/dc/elements/1.1/" 
 xmlns:cc="http://creativecommons.org/ns#" 
 xmlns:rdf="http://www.w3.org/1999/02/22-rdf-syntax-ns#" 
 xmlns:svg="http://www.w3.org/2000/svg" 
 xmlns="http://www.w3.org/2000/svg" 
 version="1.1" 
 width="3000" 
 height="3210" 
 id="svg2">
  <rect x="0" y="0" width="3000" height="3210" stroke-width="6" stroke="white" fill="white"/>
  <text x="37.5" y="90"
   font-family="Arial" font-size="75" fill="black" >
   Current time: 0 days, 8 hours, and 0.00 minutes, z = 0.00 &#956;m
  </text>
  <text x="37.5" y="172.5"
   font-family="Arial" font-size="71.25" fill="black" >
   200 agents
  </text>
 <g id="tissue" 
    transform="translate(0,3210) scale(1,-1)">
  <g id="ECM">
  </g>
  <g id="cells">
   <g id="cell0">
  <circle cx="1614.91" cy="1727.39" r="7.24243" stroke-width="0.5" stroke="black" fill="red"/>
  <circle cx="1614.91" cy="1727.39" r="4.39934" stroke-width="0.5" stroke="black" fill="red"/>
   </g>
   <g id="cell1">
  <circle cx="2009.63" cy="2332.28" r="7.24243" stroke-width="0.5" stroke="black" fill="red"/>
  <circle cx="2009.63" cy="2332.28" r="4.39934" stroke-width="0.5" stroke="black" fill="red"/>
   </g>
   <g id="cell2">
  <circle cx="1750.47" cy="2358.42" r="8.41271" stroke-width="0.5" stroke="black" fill="cyan"/>
  <circle cx="1750.47" cy="2358.42" r="5.05167" stroke-width="0.5" stroke="black" fill="cyan"/>
   </g>
   <g id="cell3">
  <circle cx="1611.38" cy="2336.04" r="7.24243" stroke-width="0.5" stroke="black" fill="red"/>
  <circle cx="1611.38" cy="2336.04" r="4.39934" stroke-width="0.5" stroke="black" fill="red"/>
   </g>
   <g id="cell4">
  <circle cx="1320.14" cy="1793.54" r="7.24243" stroke-width="0.5" stroke="black" fill="red"/>
  <circle cx="1320.14" cy="1793.54" r="4.39934" stroke-width="0.5" stroke="black" fill="red"/>
   </g>
   <g id="cell5">
  <circle cx="1853.14" cy="1219.13" r="7.24243" stroke-width="0.5" stroke="black" fill="red"/>
  <circle cx="1853.14" cy="1219.13" r="4.39934" stroke-width="0.5" stroke="black" fill="red"/>
   </g>
   <g id="cell6">
  <circle cx="1351.1" cy="1010.49" r="7.24243" stroke-width="0.5" stroke="black" fill="red"/>
  <circle cx="1351.1" cy="1010.49" r="4.39934" stroke-width="0.5" stroke="black" fill="red"/>
   </g>
   <g id="cell7">
  <circle cx="2443.76" cy="433.259" r="7.24243" stroke-width="0.5" stroke="black" fill="red"/>
  <circle cx="2443.76" cy="433.259" r="4.39934" stroke-width="0.5" stroke="black" fill="red"/>
   </g>
   <g id="cell8">
  <circle cx="2610.32" cy="950.789" r="7.24243" stroke-width="0.5" stroke="black" fill="red"/>
  <circle cx="2610.32" cy="950.789" r="4.39934" stroke-width="0.5" stroke="black" fill="red"/>
   </g>
   <g id="cell9">
  <circle cx="1215.78" cy="1446.97" r="7.24243" stroke-width="0.5" stroke="black" fill="red"/>
  <circle cx="1215.78" cy="1446.97" r="4.39934" stroke-width="0.5" stroke="black" fill="red"/>
   </g>
   <g id="cell10">
  <circle cx="2200.07" cy="2244.69" r="7.24243" stroke-width="0.5" stroke="black" fill="red"/>
  <circle cx="2200.07" cy="2244.69" r="4.39934" stroke-width="0.5" stroke="black" fill="red"/>
   </g>
   <g id="cell11">
  <circle cx="1565.3" cy="1449.95" r="7.24243" stroke-width="0.5" stroke="black" fill="red"/>
  <circle cx="1565.3" cy="1449.95" r="4.39934" stroke-width="0.5" stroke="black" fill="red"/>
   </g>
   <g id="cell12">
  <circle cx="1661.78" cy="1237.83" r="8.41271" stroke-width="0.5" stroke="black" fill="cyan"/>
  <circle cx="1661.78" cy="1237.83" r="5.05167" stroke-width="0.5" stroke="black" fill="cyan"/>
   </g>
   <g id="cell13">
  <circle cx="2520.59" cy="2311.09" r="7.24243" stroke-width="0.5" stroke="black" fill="red"/>
  <circle cx="2520.59" cy="2311.09" r="4.39934" stroke-width="0.5" stroke="black" fill="red"/>
   </g>
   <g id="cell14">
  <circle cx="467.678" cy="1113.29" r="7.24243" stroke-width="0.5" stroke="black" fill="red"/>
  <circle cx="467.678" cy="1113.29" r="4.39934" stroke-width="0.5" stroke="black" fill="red"/>
   </g>
   <g id="cell15">
  <circle cx="506.733" cy="1859.45" r="7.24243" stroke-width="0.5" stroke="black" fill="red"/>
  <circle cx="506.733" cy="1859.45" r="4.39934" stroke-width="0.5" stroke="black" fill="red"/>
   </g>
   <g id="cell16">
  <circle cx="346.69" cy="1179.04" r="7.24243" stroke-width="0.5" stroke="black" fill="red"/>
  <circle cx="346.69" cy="1179.04" r="4.39934" stroke-width="0.5" stroke="black" fill="red"/>
   </g>
   <g id="cell17">
  <circle cx="2294.08" cy="2595.52" r="7.24243" stroke-width="0.5" stroke="black" fill="red"/>
  <circle cx="2294.08" cy="2595.52" r="4.39934" stroke-width="0.5" stroke="black" fill="red"/>
   </g>
   <g id="cell18">
  <circle cx="2170.33" cy="632.567" r="7.24243" stroke-width="0.5" stroke="black" fill="red"/>
  <circle cx="2170.33" cy="632.567" r="4.39934" stroke-width="0.5" stroke="black" fill="red"/>
   </g>
   <g id="cell19">
  <circle cx="2392.44" cy="2389.2" r="7.24243" stroke-width="0.5" stroke="black" fill="red"/>
  <circle cx="2392.44" cy="2389.2" r="4.39934" stroke-width="0.5" stroke="black" fill="red"/>
   </g>
   <g id="cell20">
  <circle cx="2644.05" cy="1438.75" r="8.41271" stroke-width="0.5" stroke="black" fill="cyan"/>
  <circle cx="2644.05" cy="1438.75" r="5.05167" stroke-width="0.5" stroke="black" fill="cyan"/>
   </g>
   <g id="cell21">
  <circle cx="2217.36" cy="2226.66" r="7.24243" stroke-width="0.5" stroke="black" fill="cyan"/>
  <circle cx="2217.36" cy="2226.66" r="4.39934" stroke-width="0.5" stroke="black" fill="cyan"/>
   </g>
   <g id="cell22">
  <circle cx="1412.82" cy="1548.32" r="7.24243" stroke-width="0.5" stroke="black" fill="cyan"/>
  <circle cx="1412.82" cy="1548.32" r="4.39934" stroke-width="0.5" stroke="black" fill="cyan"/>
   </g>
   <g id="cell23">
  <circle cx="2170.15" cy="1926.04" r="7.24243" stroke-width="0.5" stroke="black" fill="red"/>
  <circle cx="2170.15" cy="1926.04" r="4.39934" stroke-width="0.5" stroke="black" fill="red"/>
   </g>
   <g id="cell24">
  <circle cx="587.386" cy="2033.18" r="8.41271" stroke-width="0.5" stroke="black" fill="cyan"/>
  <circle cx="587.386" cy="2033.18" r="5.05167" stroke-width="0.5" stroke="black" fill="cyan"/>
   </g>
   <g id="cell25">
  <circle cx="1839.03" cy="1693.71" r="7.24243" stroke-width="0.5" stroke="black" fill="red"/>
  <circle cx="1839.03" cy="1693.71" r="4.39934" stroke-width="0.5" stroke="black" fill="red"/>
   </g>
   <g id="cell26">
  <circle cx="647.231" cy="1586.49" r="7.24243" stroke-width="0.5" stroke="black" fill="red"/>
  <circle cx="647.231" cy="1586.49" r="4.39934" stroke-width="0.5" stroke="black" fill="red"/>
   </g>
   <g id="cell27">
  <circle cx="2569.34" cy="2124.66" r="7.24243" stroke-width="0.5" stroke="black" fill="cyan"/>
  <circle cx="2569.34" cy="2124.66" r="4.39934" stroke-width="0.5" stroke="black" fill="cyan"/>
   </g>
   <g id="cell28">
  <circle cx="1552.58" cy="549.664" r="7.24243" stroke-width="0.5" stroke="black" fill="red"/>
  <circle cx="1552.58" cy="549.664" r="4.39934" stroke-width="0.5" stroke="black" fill="red"/>
   </g>
   <g id="cell29">
  <circle cx="1299.97" cy="1437.53" r="7.24243" stroke-width="0.5" stroke="black" fill="red"/>
  <circle cx="1299.97" cy="1437.53" r="4.39934" stroke-width="0.5" stroke="black" fill="red"/>
   </g>
   <g id="cell30">
  <circle cx="939.201" cy="745.738" r="7.24243" stroke-width="0.5" stroke="black" fill="red"/>
  <circle cx="939.201" cy="745.738" r="4.39934" stroke-width="0.5" stroke="black" fill="red"/>
   </g>
   <g id="cell31">
  <circle cx="2160.7" cy="2063.78" r="8.41271" stroke-width="0.5" stroke="black" fill="cyan"/>
  <circle cx="2160.7" cy="2063.78" r="5.05167" stroke-width="0.5" stroke="black" fill="cyan"/>
   </g>
   <g id="cell32">
  <circle cx="1390.27" cy="819.25" r="7.24243" stroke-width="0.5" stroke="black" fill="red"/>
  <circle cx="1390.27" cy="819.25" r="4.39934" stroke-width="0.5" stroke="black" fill="red"/>
   </g>
   <g id="cell33">
  <circle cx="1667.52" cy="621.415" r="7.24243" stroke-width="0.5" stroke="black" fill="red"/>
  <circle cx="1667.52" cy="621.415" r="4.39934" stroke-width="0.5" stroke="black" fill="red"/>
   </g>
   <g id="cell34">
  <circle cx="343.498" cy="1083.32" r="7.24243" stroke-width="0.5" stroke="black" fill="red"/>
  <circle cx="343.498" cy="1083.32" r="4.39934" stroke-width="0.5" stroke="black" fill="red"/>
   </g>
   <g id="cell35">
  <circle cx="1785.85" cy="662.89" r="7.24243" stroke-width="0.5" stroke="black" fill="red"/>
  <circle cx="1785.85" cy="662.89" r="4.39934" stroke-width="0.5" stroke="black" fill="red"/>
   </g>
   <g id="cell36">
  <circle cx="1770.39" cy="830.351" r="7.24243" stroke-width="0.5" stroke="black" fill="cyan"/>
  <circle cx="1770.39" cy="830.351" r="4.39934" stroke-width="0.5" stroke="black" fill="cyan"/>
   </g>
   <g id="cell37">
  <circle cx="1778.04" cy="1223.88" r="7.24243" stroke-width="0.5" stroke="black" fill="cyan"/>
  <circle cx="1778.04" cy="1223.88" r="4.39934" stroke-width="0.5" stroke="black" fill="cyan"/>
   </g>
   <g id="cell38">
  <circle cx="2569.47" cy="2465.64" r="7.24243" stroke-width="0.5" stroke="black" fill="red"/>
  <circle cx="2569.47" cy="2465.64" r="4.39934" stroke-width="0.5" stroke="black" fill="red"/>
   </g>
   <g id="cell39">
  <circle cx="1933.75" cy="1375.52" r="8.41271" stroke-width="0.5" stroke="black" fill="cyan"/>
  <circle cx="1933.75" cy="1375.52" r="5.05167" stroke-width="0.5" stroke="black" fill="cyan"/>
   </g>
   <g id="cell40">
  <circle cx="1164.45" cy="1765.79" r="8.41271" stroke-width="0.5" stroke="black" fill="cyan"/>
  <circle cx="1164.45" cy="1765.79" r="5.05167" stroke-width="0.5" stroke="black" fill="cyan"/>
   </g>
   <g id="cell41">
  <circle cx="1351.4" cy="2461.89" r="7.24243" stroke-width="0.5" stroke="black" fill="red"/>
  <circle cx="1351.4" cy="2461.89" r="4.39934" stroke-width="0.5" stroke="black" fill="red"/>
   </g>
   <g id="cell42">
  <circle cx="1974.48" cy="533.76" r="7.24243" stroke-width="0.5" stroke="black" fill="red"/>
  <circle cx="1974.48" cy="533.76" r="4.39934" stroke-width="0.5" stroke="black" fill="red"/>
   </g>
   <g id="cell43">
  <circle cx="444.062" cy="2633.18" r="8.41271" stroke-width="0.5" stroke="black" fill="cyan"/>
  <circle cx="444.062" cy="2633.18" r="5.05167" stroke-width="0.5" stroke="black" fill="cyan"/>
   </g>
   <g id="cell44">
  <circle cx="1896.55" cy="1864.94" r="7.24243" stroke-width="0.5" stroke="black" fill="red"/>
  <circle cx="1896.55" cy="1864.94" r="4.39934" stroke-width="0.5" stroke="black" fill="red"/>
   </g>
   <g id="cell45">
  <circle cx="1911.29" cy="714.344" r="7.24243" stroke-width="0.5" stroke="black" fill="red"/>
  <circle cx="1911.29" cy="714.344" r="4.39934" stroke-width="0.5" stroke="black" fill="red"/>
   </g>
   <g id="cell46">
  <circle cx="803.222" cy="1155.38" r="7.24243" stroke-width="0.5" stroke="black" fill="red"/>
  <circle cx="803.222" cy="1155.38" r="4.39934" stroke-width="0.5" stroke="black" fill="red"/>
   </g>
   <g id="cell47">
  <circle cx="613.931" cy="2101.38" r="7.24243" stroke-width="0.5" stroke="black" fill="red"/>
  <circle cx="613.931" cy="2101.38" r="4.39934" stroke-width="0.5" stroke="black" fill="red"/>
   </g>
   <g id="cell48">
  <circle cx="1056.25" cy="1763.24" r="7.24243" stroke-width="0.5" stroke="black" fill="red"/>
  <circle cx="1056.25" cy="1763.24" r="4.39934" stroke-width="0.5" stroke="black" fill="red"/>
   </g>
   <g id="cell49">
  <circle cx="1168.01" cy="1079.4" r="7.24243" stroke-width="0.5" stroke="black" fill="cyan"/>
  <circle cx="1168.01" cy="1079.4" r="4.39934" stroke-width="0.5" stroke="black" fill="cyan"/>
   </g>
   <g id="cell50">
  <circle cx="1665.08" cy="388.304" r="7.24243" stroke-width="0.5" stroke="black" fill="red"/>
  <circle cx="1665.08" cy="388.304" r="4.39934" stroke-width="0.5" stroke="black" fill="red"/>
   </g>
   <g id="cell51">
  <circle cx="1356.39" cy="1819.73" r="7.24243" stroke-width="0.5" stroke="black" fill="red"/>
  <circle cx="1356.39" cy="1819.73" r="4.39934" stroke-width="0.5" stroke="black" fill="red"/>
   </g>
   <g id="cell52">
  <circle cx="2670.12" cy="2597.42" r="7.24243" stroke-width="0.5" stroke="black" fill="red"/>
  <circle cx="2670.12" cy="2597.42" r="4.39934" stroke-width="0.5" stroke="black" fill="red"/>
   </g>
   <g id="cell53">
  <circle cx="539.89" cy="1865.82" r="8.41271" stroke-width="0.5" stroke="black" fill="cyan"/>
  <circle cx="539.89" cy="1865.82" r="5.05167" stroke-width="0.5" stroke="black" fill="cyan"/>
   </g>
   <g id="cell54">
  <circle cx="804.08" cy="1820.84" r="7.24243" stroke-width="0.5" stroke="black" fill="red"/>
  <circle cx="804.08" cy="1820.84" r="4.39934" stroke-width="0.5" stroke="black" fill="red"/>
   </g>
   <g id="cell55">
  <circle cx="685.689" cy="2684.44" r="7.24243" stroke-width="0.5" stroke="black" fill="red"/>
  <circle cx="685.689" cy="2684.44" r="4.39934" stroke-width="0.5" stroke="black" fill="red"/>
   </g>
   <g id="cell56">
  <circle cx="1864.95" cy="1692.69" r="7.24243" stroke-width="0.5" stroke="black" fill="red"/>
  <circle cx="1864.95" cy="1692.69" r="4.39934" stroke-width="0.5" stroke="black" fill="red"/>
   </g>
   <g id="cell57">
  <circle cx="911.948" cy="1298.44" r="8.41271" stroke-width="0.5" stroke="black" fill="cyan"/>
  <circle cx="911.948" cy="1298.44" r="5.05167" stroke-width="0.5" stroke="black" fill="cyan"/>
   </g>
   <g id="cell58">
  <circle cx="1414.08" cy="1439.66" r="7.24243" stroke-width="0.5" stroke="black" fill="red"/>
  <circle cx="1414.08" cy="1439.66" r="4.39934" stroke-width="0.5" stroke="black" fill="red"/>
   </g>
   <g id="cell59">
  <circle cx="882.285" cy="1797.69" r="7.24243" stroke-width="0.5" stroke="black" fill="red"/>
  <circle cx="882.285" cy="1797.69" r="4.39934" stroke-width="0.5" stroke="black" fill="red"/>
   </g>
   <g id="cell60">
  <circle cx="685.859" cy="1112.5" r="7.24243" stroke-width="0.5" stroke="black" fill="red"/>
  <circle cx="685.859" cy="1112.5" r="4.39934" stroke-width="0.5" stroke="black" fill="red"/>
   </g>
   <g id="cell61">
  <circle cx="560.578" cy="1919.62" r="7.24243" stroke-width="0.5" stroke="black" fill="cyan"/>
  <circle cx="560.578" cy="1919.62" r="4.39934" stroke-width="0.5" stroke="black" fill="cyan"/>
   </g>
   <g id="cell62">
  <circle cx="1880.08" cy="1062.67" r="8.41271" stroke-width="0.5" stroke="black" fill="cyan"/>
  <circle cx="1880.08" cy="1062.67" r="5.05167" stroke-width="0.5" stroke="black" fill="cyan"/>
   </g>
   <g id="cell63">
  <circle cx="634.492" cy="2171.53" r="7.24243" stroke-width="0.5" stroke="black" fill="red"/>
  <circle cx="634.492" cy="2171.53" r="4.39934" stroke-width="0.5" stroke="black" fill="red"/>
   </g>
   <g id="cell64">
  <circle cx="773.603" cy="2583.35" r="7.24243" stroke-width="0.5" stroke="black" fill="red"/>
  <circle cx="773.603" cy="2583.35" r="4.39934" stroke-width="0.5" stroke="black" fill="red"/>
   </g>
   <g id="cell65">
  <circle cx="1188.08" cy="1893.31" r="7.24243" stroke-width="0.5" stroke="black" fill="red"/>
  <circle cx="1188.08" cy="1893.31" r="4.39934" stroke-width="0.5" stroke="black" fill="red"/>
   </g>
   <g id="cell66">
  <circle cx="2275.34" cy="333.73" r="7.24243" stroke-width="0.5" stroke="black" fill="red"/>
  <circle cx="2275.34" cy="333.73" r="4.39934" stroke-width="0.5" stroke="black" fill="red"/>
   </g>
   <g id="cell67">
  <circle cx="533.087" cy="1799.92" r="7.24243" stroke-width="0.5" stroke="black" fill="red"/>
  <circle cx="533.087" cy="1799.92" r="4.39934" stroke-width="0.5" stroke="black" fill="red"/>
   </g>
   <g id="cell68">
  <circle cx="2305.86" cy="1915.04" r="8.41271" stroke-width="0.5" stroke="black" fill="cyan"/>
  <circle cx="2305.86" cy="1915.04" r="5.05167" stroke-width="0.5" stroke="black" fill="cyan"/>
   </g>
   <g id="cell69">
  <circle cx="529.132" cy="2637.53" r="7.24243" stroke-width="0.5" stroke="black" fill="red"/>
  <circle cx="529.132" cy="2637.53" r="4.39934" stroke-width="0.5" stroke="black" fill="red"/>
   </g>
   <g id="cell70">
  <circle cx="2647.12" cy="2410.37" r="7.24243" stroke-width="0.5" stroke="black" fill="red"/>
  <circle cx="2647.12" cy="2410.37" r="4.39934" stroke-width="0.5" stroke="black" fill="red"/>
   </g>
   <g id="cell71">
  <circle cx="1420.67" cy="1525.01" r="7.24243" stroke-width="0.5" stroke="black" fill="red"/>
  <circle cx="1420.67" cy="1525.01" r="4.39934" stroke-width="0.5" stroke="black" fill="red"/>
   </g>
   <g id="cell72">
  <circle cx="2639.64" cy="435.997" r="8.41271" stroke-width="0.5" stroke="black" fill="cyan"/>
  <circle cx="2639.64" cy="435.997" r="5.05167" stroke-width="0.5" stroke="black" fill="cyan"/>
   </g>
   <g id="cell73">
  <circle cx="1746.56" cy="1382.33" r="8.41271" stroke-width="0.5" stroke="black" fill="cyan"/>
  <circle cx="1746.56" cy="1382.33" r="5.05167" stroke-width="0.5" stroke="black" fill="cyan"/>
   </g>
   <g id="cell74">
  <circle cx="2078.97" cy="349.831" r="8.41271" stroke-width="0.5" stroke="black" fill="cyan"/>
  <circle cx="2078.97" cy="349.831" r="5.05167" stroke-width="0.5" stroke="black" fill="cyan"/>
   </g>
   <g id="cell75">
  <circle cx="389.643" cy="1359.1" r="7.24243" stroke-width="0.5" stroke="black" fill="red"/>
  <circle cx="389.643" cy="1359.1" r="4.39934" stroke-width="0.5" stroke="black" fill="red"/>
   </g>
   <g id="cell76">
  <circle cx="982.252" cy="2648.17" r="7.24243" stroke-width="0.5" stroke="black" fill="cyan"/>
  <circle cx="982.252" cy="2648.17" r="4.39934" stroke-width="0.5" stroke="black" fill="cyan"/>
   </g>
   <g id="cell77">
  <circle cx="585.37" cy="1159.38" r="7.24243" stroke-width="0.5" stroke="black" fill="red"/>
  <circle cx="585.37" cy="1159.38" r="4.39934" stroke-width="0.5" stroke="black" fill="red"/>
   </g>
   <g id="cell78">
  <circle cx="1009.6" cy="1449.77" r="7.24243" stroke-width="0.5" stroke="black" fill="cyan"/>
  <circle cx="1009.6" cy="1449.77" r="4.39934" stroke-width="0.5" stroke="black" fill="cyan"/>
   </g>
   <g id="cell79">
  <circle cx="585.728" cy="1957.24" r="7.24243" stroke-width="0.5" stroke="black" fill="red"/>
  <circle cx="585.728" cy="1957.24" r="4.39934" stroke-width="0.5" stroke="black" fill="red"/>
   </g>
   <g id="cell80">
  <circle cx="1068.24" cy="2413.26" r="8.41271" stroke-width="0.5" stroke="black" fill="cyan"/>
  <circle cx="1068.24" cy="2413.26" r="5.05167" stroke-width="0.5" stroke="black" fill="cyan"/>
   </g>
   <g id="cell81">
  <circle cx="1293.4" cy="2508.2" r="7.24243" stroke-width="0.5" stroke="black" fill="red"/>
  <circle cx="1293.4" cy="2508.2" r="4.39934" stroke-width="0.5" stroke="black" fill="red"/>
   </g>
   <g id="cell82">
  <circle cx="453.329" cy="824.846" r="7.24243" stroke-width="0.5" stroke="black" fill="cyan"/>
  <circle cx="453.329" cy="824.846" r="4.39934" stroke-width="0.5" stroke="black" fill="cyan"/>
   </g>
   <g id="cell83">
  <circle cx="1963.87" cy="1652.37" r="7.24243" stroke-width="0.5" stroke="black" fill="cyan"/>
  <circle cx="1963.87" cy="1652.37" r="4.39934" stroke-width="0.5" stroke="black" fill="cyan"/>
   </g>
   <g id="cell84">
  <circle cx="1655.8" cy="2378.25" r="7.24243" stroke-width="0.5" stroke="black" fill="cyan"/>
  <circle cx="1655.8" cy="2378.25" r="4.39934" stroke-width="0.5" stroke="black" fill="cyan"/>
   </g>
   <g id="cell85">
  <circle cx="934.619" cy="1517.65" r="7.24243" stroke-width="0.5" stroke="black" fill="red"/>
  <circle cx="934.619" cy="1517.65" r="4.39934" stroke-width="0.5" stroke="black" fill="red"/>
   </g>
   <g id="cell86">
  <circle cx="1559.78" cy="2498.02" r="7.24243" stroke-width="0.5" stroke="black" fill="red"/>
  <circle cx="1559.78" cy="2498.02" r="4.39934" stroke-width="0.5" stroke="black" fill="red"/>
   </g>
   <g id="cell87">
  <circle cx="528.191" cy="2506.49" r="7.24243" stroke-width="0.5" stroke="black" fill="red"/>
  <circle cx="528.191" cy="2506.49" r="4.39934" stroke-width="0.5" stroke="black" fill="red"/>
   </g>
   <g id="cell88">
  <circle cx="1685.18" cy="502.927" r="7.24243" stroke-width="0.5" stroke="black" fill="red"/>
  <circle cx="1685.18" cy="502.927" r="4.39934" stroke-width="0.5" stroke="black" fill="red"/>
   </g>
   <g id="cell89">
  <circle cx="2525.8" cy="966.389" r="7.24243" stroke-width="0.5" stroke="black" fill="red"/>
  <circle cx="2525.8" cy="966.389" r="4.39934" stroke-width="0.5" stroke="black" fill="red"/>
   </g>
   <g id="cell90">
  <circle cx="1063.57" cy="327.443" r="7.24243" stroke-width="0.5" stroke="black" fill="red"/>
  <circle cx="1063.57" cy="327.443" r="4.39934" stroke-width="0.5" stroke="black" fill="red"/>
   </g>
   <g id="cell91">
  <circle cx="1901.75" cy="2316.54" r="7.24243" stroke-width="0.5" stroke="black" fill="red"/>
  <circle cx="1901.75" cy="2316.54" r="4.39934" stroke-width="0.5" stroke="black" fill="red"/>
   </g>
   <g id="cell92">
  <circle cx="611.266" cy="1853.82" r="8.41271" stroke-width="0.5" stroke="black" fill="cyan"/>
  <circle cx="611.266" cy="1853.82" r="5.05167" stroke-width="0.5" stroke="black" fill="cyan"/>
   </g>
   <g id="cell93">
  <circle cx="2017.07" cy="2314.77" r="7.24243" stroke-width="0.5" stroke="black" fill="red"/>
  <circle cx="2017.07" cy="2314.77" r="4.39934" stroke-width="0.5" stroke="black" fill="red"/>
   </g>
   <g id="cell94">
  <circle cx="990.611" cy="933.188" r="7.24243" stroke-width="0.5" stroke="black" fill="cyan"/>
  <circle cx="990.611" cy="933.188" r="4.39934" stroke-width="0.5" stroke="black" fill="cyan"/>
   </g>
   <g id="cell95">
  <circle cx="737.393" cy="1250.86" r="7.24243" stroke-width="0.5" stroke="black" fill="red"/>
  <circle cx="737.393" cy="1250.86" r="4.39934" stroke-width="0.5" stroke="black" fill="red"/>
   </g>
   <g id="cell96">
  <circle cx="1704.28" cy="1629.79" r="7.24243" stroke-width="0.5" stroke="black" fill="red"/>
  <circle cx="1704.28" cy="1629.79" r="4.39934" stroke-width="0.5" stroke="black" fill="red"/>
   </g>
   <g id="cell97">
  <circle cx="350.528" cy="691.953" r="7.24243" stroke-width="0.5" stroke="black" fill="red"/>
  <circle cx="350.528" cy="691.953" r="4.39934" stroke-width="0.5" stroke="black" fill="red"/>
   </g>
   <g id="cell98">
  <circle cx="2284.94" cy="1187.49" r="7.24243" stroke-width="0.5" stroke="black" fill="cyan"/>
  <circle cx="2284.94" cy="1187.49" r="4.39934" stroke-width="0.5" stroke="black" fill="cyan"/>
   </g>
   <g id="cell99">
  <circle cx="315.706" cy="652.305" r="7.24243" stroke-width="0.5" stroke="black" fill="cyan"/>
  <circle cx="315.706" cy="652.305" r="4.39934" stroke-width="0.5" stroke="black" fill="cyan"/>
   </g>
   <g id="cell100">
  <circle cx="637.548" cy="1596.24" r="7.24243" stroke-width="0.5" stroke="black" fill="red"/>
  <circle cx="637.548" cy="1596.24" r="4.39934" stroke-width="0.5" stroke="black" fill="red"/>
   </g>
   <g id="cell101">
  <circle cx="2523.12" cy="2297.59" r="7.24243" stroke-width="0.5" stroke="black" fill="red"/>
  <circle cx="2523.12" cy="2297.59" r="4.39934" stroke-width="0.5" stroke="black" fill="red"/>
   </g>
   <g id="cell102">
  <circle cx="768.364" cy="2570.65" r="7.24243" stroke-width="0.5" stroke="black" fill="red"/>
  <circle cx="768.364" cy="2570.65" r="4.39934" stroke-width="0.5" stroke="black" fill="red"/>
   </g>
   <g id="cell103">
  <circle cx="971.558" cy="2656.8" r="7.24243" stroke-width="0.5" stroke="black" fill="cyan"/>
  <circle cx="971.558" cy="2656.8" r="4.39934" stroke-width="0.5" stroke="black" fill="cyan"/>
   </g>
   <g id="cell104">
  <circle cx="1941.42" cy="1388.27" r="7.24243" stroke-width="0.5" stroke="black" fill="red"/>
  <circle cx="1941.42" cy="1388.27" r="4.39934" stroke-width="0.5" stroke="black" fill="red"/>
   </g>
   <g id="cell105">
  <circle cx="2676.13" cy="2609.77" r="7.24243" stroke-width="0.5" stroke="black" fill="red"/>
  <circle cx="2676.13" cy="2609.77" r="4.39934" stroke-width="0.5" stroke="black" fill="red"/>
   </g>
   <g id="cell106">
  <circle cx="476.223" cy="1102.53" r="7.24243" stroke-width="0.5" stroke="black" fill="red"/>
  <circle cx="476.223" cy="1102.53" r="4.39934" stroke-width="0.5" stroke="black" fill="red"/>
   </g>
   <g id="cell107">
  <circle cx="554.545" cy="1868.38" r="7.24243" stroke-width="0.5" stroke="black" fill="red"/>
  <circle cx="554.545" cy="1868.38" r="4.39934" stroke-width="0.5" stroke="black" fill="red"/>
   </g>
   <g id="cell108">
  <circle cx="1160.27" cy="1780.07" r="7.24243" stroke-width="0.5" stroke="black" fill="red"/>
  <circle cx="1160.27" cy="1780.07" r="4.39934" stroke-width="0.5" stroke="black" fill="red"/>
   </g>
   <g id="cell109">
  <circle cx="1621.47" cy="1714.04" r="8.41271" stroke-width="0.5" stroke="black" fill="cyan"/>
  <circle cx="1621.47" cy="1714.04" r="5.05167" stroke-width="0.5" stroke="black" fill="cyan"/>
   </g>
   <g id="cell110">
  <circle cx="513.966" cy="1847.77" r="7.24243" stroke-width="0.5" stroke="black" fill="red"/>
  <circle cx="513.966" cy="1847.77" r="4.39934" stroke-width="0.5" stroke="black" fill="red"/>
   </g>
   <g id="cell111">
  <circle cx="1676.34" cy="492.41" r="7.24243" stroke-width="0.5" stroke="black" fill="red"/>
  <circle cx="1676.34" cy="492.41" r="4.39934" stroke-width="0.5" stroke="black" fill="red"/>
   </g>
   <g id="cell112">
  <circle cx="352.056" cy="1192.91" r="8.41271" stroke-width="0.5" stroke="black" fill="cyan"/>
  <circle cx="352.056" cy="1192.91" r="5.05167" stroke-width="0.5" stroke="black" fill="cyan"/>
   </g>
   <g id="cell113">
  <circle cx="2306.87" cy="2600.54" r="7.24243" stroke-width="0.5" stroke="black" fill="red"/>
  <circle cx="2306.87" cy="2600.54" r="4.39934" stroke-width="0.5" stroke="black" fill="red"/>
   </g>
   <g id="cell114">
  <circle cx="1343.72" cy="2473.28" r="7.24243" stroke-width="0.5" stroke="black" fill="red"/>
  <circle cx="1343.72" cy="2473.28" r="4.39934" stroke-width="0.5" stroke="black" fill="red"/>
   </g>
   <g id="cell115">
  <circle cx="2162.27" cy="645.073" r="8.41271" stroke-width="0.5" stroke="black" fill="cyan"/>
  <circle cx="2162.27" cy="645.073" r="5.05167" stroke-width="0.5" stroke="black" fill="cyan"/>
   </g>
   <g id="cell116">
  <circle cx="2379.03" cy="2386.19" r="7.24243" stroke-width="0.5" stroke="black" fill="red"/>
  <circle cx="2379.03" cy="2386.19" r="4.39934" stroke-width="0.5" stroke="black" fill="red"/>
   </g>
   <g id="cell117">
  <circle cx="2539.53" cy="966.802" r="7.24243" stroke-width="0.5" stroke="black" fill="red"/>
  <circle cx="2539.53" cy="966.802" r="4.39934" stroke-width="0.5" stroke="black" fill="red"/>
   </g>
   <g id="cell118">
  <circle cx="1973.98" cy="547.489" r="7.24243" stroke-width="0.5" stroke="black" fill="red"/>
  <circle cx="1973.98" cy="547.489" r="4.39934" stroke-width="0.5" stroke="black" fill="red"/>
   </g>
   <g id="cell119">
  <circle cx="1066.48" cy="312.853" r="8.41271" stroke-width="0.5" stroke="black" fill="cyan"/>
  <circle cx="1066.48" cy="312.853" r="5.05167" stroke-width="0.5" stroke="black" fill="cyan"/>
   </g>
   <g id="cell120">
  <circle cx="445.419" cy="2617.21" r="8.41271" stroke-width="0.5" stroke="black" fill="cyan"/>
  <circle cx="445.419" cy="2617.21" r="5.05167" stroke-width="0.5" stroke="black" fill="cyan"/>
   </g>
   <g id="cell121">
  <circle cx="2657.61" cy="1432.63" r="7.24243" stroke-width="0.5" stroke="black" fill="red"/>
  <circle cx="2657.61" cy="1432.63" r="4.39934" stroke-width="0.5" stroke="black" fill="red"/>
   </g>
   <g id="cell122">
  <circle cx="594.805" cy="1169.37" r="7.24243" stroke-width="0.5" stroke="black" fill="red"/>
  <circle cx="594.805" cy="1169.37" r="4.39934" stroke-width="0.5" stroke="black" fill="red"/>
   </g>
   <g id="cell123">
  <circle cx="1178.53" cy="1883.43" r="7.24243" stroke-width="0.5" stroke="black" fill="red"/>
  <circle cx="1178.53" cy="1883.43" r="4.39934" stroke-width="0.5" stroke="black" fill="red"/>
   </g>
   <g id="cell124">
  <circle cx="1901.85" cy="2331.41" r="8.41271" stroke-width="0.5" stroke="black" fill="cyan"/>
  <circle cx="1901.85" cy="2331.41" r="5.05167" stroke-width="0.5" stroke="black" fill="cyan"/>
   </g>
   <g id="cell125">
  <circle cx="626.037" cy="1852.05" r="7.24243" stroke-width="0.5" stroke="black" fill="red"/>
  <circle cx="626.037" cy="1852.05" r="4.39934" stroke-width="0.5" stroke="black" fill="red"/>
   </g>
   <g id="cell126">
  <circle cx="2030.68" cy="2316.66" r="7.24243" stroke-width="0.5" stroke="black" fill="red"/>
  <circle cx="2030.68" cy="2316.66" r="4.39934" stroke-width="0.5" stroke="black" fill="red"/>
   </g>
   <g id="cell127">
  <circle cx="1013.05" cy="1463.07" r="7.24243" stroke-width="0.5" stroke="black" fill="cyan"/>
  <circle cx="1013.05" cy="1463.07" r="4.39934" stroke-width="0.5" stroke="black" fill="cyan"/>
   </g>
   <g id="cell128">
  <circle cx="2260.85" cy="330.342" r="8.41271" stroke-width="0.5" stroke="black" fill="cyan"/>
  <circle cx="2260.85" cy="330.342" r="5.05167" stroke-width="0.5" stroke="black" fill="cyan"/>
   </g>
   <g id="cell129">
  <circle cx="1002.67" cy="939.772" r="7.24243" stroke-width="0.5" stroke="black" fill="cyan"/>
  <circle cx="1002.67" cy="939.772" r="4.39934" stroke-width="0.5" stroke="black" fill="cyan"/>
   </g>
   <g id="cell130">
  <circle cx="532.959" cy="1785.04" r="8.41271" stroke-width="0.5" stroke="black" fill="cyan"/>
  <circle cx="532.959" cy="1785.04" r="5.05167" stroke-width="0.5" stroke="black" fill="cyan"/>
   </g>
   <g id="cell131">
  <circle cx="744.287" cy="1262.75" r="7.24243" stroke-width="0.5" stroke="black" fill="red"/>
  <circle cx="744.287" cy="1262.75" r="4.39934" stroke-width="0.5" stroke="black" fill="red"/>
   </g>
   <g id="cell132">
  <circle cx="2319.97" cy="1919.76" r="7.24243" stroke-width="0.5" stroke="black" fill="red"/>
  <circle cx="2319.97" cy="1919.76" r="4.39934" stroke-width="0.5" stroke="black" fill="red"/>
   </g>
   <g id="cell133">
  <circle cx="2219.25" cy="2213.05" r="7.24243" stroke-width="0.5" stroke="black" fill="cyan"/>
  <circle cx="2219.25" cy="2213.05" r="4.39934" stroke-width="0.5" stroke="black" fill="cyan"/>
   </g>
   <g id="cell134">
  <circle cx="533.533" cy="2623.31" r="8.41271" stroke-width="0.5" stroke="black" fill="cyan"/>
  <circle cx="533.533" cy="2623.31" r="5.05167" stroke-width="0.5" stroke="black" fill="cyan"/>
   </g>
   <g id="cell135">
  <circle cx="2636.12" cy="2402.13" r="7.24243" stroke-width="0.5" stroke="black" fill="red"/>
  <circle cx="2636.12" cy="2402.13" r="4.39934" stroke-width="0.5" stroke="black" fill="red"/>
   </g>
   <g id="cell136">
  <circle cx="1433.12" cy="1519.2" r="7.24243" stroke-width="0.5" stroke="black" fill="red"/>
  <circle cx="1433.12" cy="1519.2" r="4.39934" stroke-width="0.5" stroke="black" fill="red"/>
   </g>
   <g id="cell137">
  <circle cx="2652.96" cy="429.371" r="7.24243" stroke-width="0.5" stroke="black" fill="red"/>
  <circle cx="2652.96" cy="429.371" r="4.39934" stroke-width="0.5" stroke="black" fill="red"/>
   </g>
   <g id="cell138">
  <circle cx="1399.24" cy="1550.45" r="7.24243" stroke-width="0.5" stroke="black" fill="cyan"/>
  <circle cx="1399.24" cy="1550.45" r="4.39934" stroke-width="0.5" stroke="black" fill="cyan"/>
   </g>
   <g id="cell139">
  <circle cx="1761.38" cy="1383.66" r="7.24243" stroke-width="0.5" stroke="black" fill="red"/>
  <circle cx="1761.38" cy="1383.66" r="4.39934" stroke-width="0.5" stroke="black" fill="red"/>
   </g>
   <g id="cell140">
  <circle cx="2179.64" cy="1935.98" r="7.24243" stroke-width="0.5" stroke="black" fill="red"/>
  <circle cx="2179.64" cy="1935.98" r="4.39934" stroke-width="0.5" stroke="black" fill="red"/>
   </g>
   <g id="cell141">
  <circle cx="1907.78" cy="1872.85" r="7.24243" stroke-width="0.5" stroke="black" fill="red"/>
  <circle cx="1907.78" cy="1872.85" r="4.39934" stroke-width="0.5" stroke="black" fill="red"/>
   </g>
   <g id="cell142">
  <circle cx="2065.12" cy="344.388" r="7.24243" stroke-width="0.5" stroke="black" fill="red"/>
  <circle cx="2065.12" cy="344.388" r="4.39934" stroke-width="0.5" stroke="black" fill="red"/>
   </g>
   <g id="cell143">
  <circle cx="795.239" cy="1831.36" r="7.24243" stroke-width="0.5" stroke="black" fill="red"/>
  <circle cx="795.239" cy="1831.36" r="4.39934" stroke-width="0.5" stroke="black" fill="red"/>
   </g>
   <g id="cell144">
  <circle cx="1905.95" cy="701.685" r="7.24243" stroke-width="0.5" stroke="black" fill="red"/>
  <circle cx="1905.95" cy="701.685" r="4.39934" stroke-width="0.5" stroke="black" fill="red"/>
   </g>
   <g id="cell145">
  <circle cx="808.381" cy="1168.11" r="7.24243" stroke-width="0.5" stroke="black" fill="red"/>
  <circle cx="808.381" cy="1168.11" r="4.39934" stroke-width="0.5" stroke="black" fill="red"/>
   </g>
   <g id="cell146">
  <circle cx="600.217" cy="2102.19" r="7.24243" stroke-width="0.5" stroke="black" fill="red"/>
  <circle cx="600.217" cy="2102.19" r="4.39934" stroke-width="0.5" stroke="black" fill="red"/>
   </g>
   <g id="cell147">
  <circle cx="1714.48" cy="1620.6" r="7.24243" stroke-width="0.5" stroke="black" fill="red"/>
  <circle cx="1714.48" cy="1620.6" r="4.39934" stroke-width="0.5" stroke="black" fill="red"/>
   </g>
   <g id="cell148">
  <circle cx="1058.61" cy="1749.71" r="7.24243" stroke-width="0.5" stroke="black" fill="red"/>
  <circle cx="1058.61" cy="1749.71" r="4.39934" stroke-width="0.5" stroke="black" fill="red"/>
   </g>
   <g id="cell149">
  <circle cx="1181.6" cy="1081.38" r="7.24243" stroke-width="0.5" stroke="black" fill="cyan"/>
  <circle cx="1181.6" cy="1081.38" r="4.39934" stroke-width="0.5" stroke="black" fill="cyan"/>
   </g>
   <g id="cell150">
  <circle cx="1674.82" cy="399.548" r="8.41271" stroke-width="0.5" stroke="black" fill="cyan"/>
  <circle cx="1674.82" cy="399.548" r="5.05167" stroke-width="0.5" stroke="black" fill="cyan"/>
   </g>
   <g id="cell151">
  <circle cx="1344.99" cy="1827.41" r="7.24243" stroke-width="0.5" stroke="black" fill="red"/>
  <circle cx="1344.99" cy="1827.41" r="4.39934" stroke-width="0.5" stroke="black" fill="red"/>
   </g>
   <g id="cell152">
  <circle cx="343.624" cy="703.831" r="7.24243" stroke-width="0.5" stroke="black" fill="red"/>
  <circle cx="343.624" cy="703.831" r="4.39934" stroke-width="0.5" stroke="black" fill="red"/>
   </g>
   <g id="cell153">
  <circle cx="583.352" cy="1943.7" r="7.24243" stroke-width="0.5" stroke="black" fill="red"/>
  <circle cx="583.352" cy="1943.7" r="4.39934" stroke-width="0.5" stroke="black" fill="red"/>
   </g>
   <g id="cell154">
  <circle cx="2298.68" cy="1187.64" r="7.24243" stroke-width="0.5" stroke="black" fill="cyan"/>
  <circle cx="2298.68" cy="1187.64" r="4.39934" stroke-width="0.5" stroke="black" fill="cyan"/>
   </g>
   <g id="cell155">
  <circle cx="302.21" cy="649.734" r="7.24243" stroke-width="0.5" stroke="black" fill="cyan"/>
  <circle cx="302.21" cy="649.734" r="4.39934" stroke-width="0.5" stroke="black" fill="cyan"/>
   </g>
   <g id="cell156">
  <circle cx="1053.37" cy="2412.91" r="7.24243" stroke-width="0.5" stroke="black" fill="red"/>
  <circle cx="1053.37" cy="2412.91" r="4.39934" stroke-width="0.5" stroke="black" fill="red"/>
   </g>
   <g id="cell157">
  <circle cx="2022.47" cy="2327.58" r="7.24243" stroke-width="0.5" stroke="black" fill="red"/>
  <circle cx="2022.47" cy="2327.58" r="4.39934" stroke-width="0.5" stroke="black" fill="red"/>
   </g>
   <g id="cell158">
  <circle cx="1295.92" cy="2494.7" r="7.24243" stroke-width="0.5" stroke="black" fill="red"/>
  <circle cx="1295.92" cy="2494.7" r="4.39934" stroke-width="0.5" stroke="black" fill="red"/>
   </g>
   <g id="cell159">
  <circle cx="455.23" cy="811.239" r="7.24243" stroke-width="0.5" stroke="black" fill="cyan"/>
  <circle cx="455.23" cy="811.239" r="4.39934" stroke-width="0.5" stroke="black" fill="cyan"/>
   </g>
   <g id="cell160">
  <circle cx="1957.99" cy="1664.79" r="7.24243" stroke-width="0.5" stroke="black" fill="cyan"/>
  <circle cx="1957.99" cy="1664.79" r="4.39934" stroke-width="0.5" stroke="black" fill="cyan"/>
   </g>
   <g id="cell161">
  <circle cx="1668.11" cy="2372.15" r="7.24243" stroke-width="0.5" stroke="black" fill="cyan"/>
  <circle cx="1668.11" cy="2372.15" r="4.39934" stroke-width="0.5" stroke="black" fill="cyan"/>
   </g>
   <g id="cell162">
  <circle cx="1735.8" cy="2360.91" r="7.24243" stroke-width="0.5" stroke="black" fill="red"/>
  <circle cx="1735.8" cy="2360.91" r="4.39934" stroke-width="0.5" stroke="black" fill="red"/>
   </g>
   <g id="cell163">
  <circle cx="941.663" cy="1529.44" r="7.24243" stroke-width="0.5" stroke="black" fill="red"/>
  <circle cx="941.663" cy="1529.44" r="4.39934" stroke-width="0.5" stroke="black" fill="red"/>
   </g>
   <g id="cell164">
  <circle cx="577.067" cy="2022.47" r="7.24243" stroke-width="0.5" stroke="black" fill="red"/>
  <circle cx="577.067" cy="2022.47" r="4.39934" stroke-width="0.5" stroke="black" fill="red"/>
   </g>
   <g id="cell165">
  <circle cx="403.04" cy="1362.15" r="7.24243" stroke-width="0.5" stroke="black" fill="red"/>
  <circle cx="403.04" cy="1362.15" r="4.39934" stroke-width="0.5" stroke="black" fill="red"/>
   </g>
   <g id="cell166">
  <circle cx="1829.19" cy="1703.3" r="7.24243" stroke-width="0.5" stroke="black" fill="red"/>
  <circle cx="1829.19" cy="1703.3" r="4.39934" stroke-width="0.5" stroke="black" fill="red"/>
   </g>
   <g id="cell167">
  <circle cx="690.111" cy="2697.45" r="7.24243" stroke-width="0.5" stroke="black" fill="red"/>
  <circle cx="690.111" cy="2697.45" r="4.39934" stroke-width="0.5" stroke="black" fill="red"/>
   </g>
   <g id="cell168">
  <circle cx="1872.59" cy="1704.11" r="7.24243" stroke-width="0.5" stroke="black" fill="red"/>
  <circle cx="1872.59" cy="1704.11" r="4.39934" stroke-width="0.5" stroke="black" fill="red"/>
   </g>
   <g id="cell169">
  <circle cx="900.484" cy="1287.24" r="8.41271" stroke-width="0.5" stroke="black" fill="cyan"/>
  <circle cx="900.484" cy="1287.24" r="5.05167" stroke-width="0.5" stroke="black" fill="cyan"/>
   </g>
   <g id="cell170">
  <circle cx="2562.85" cy="2112.55" r="7.24243" stroke-width="0.5" stroke="black" fill="cyan"/>
  <circle cx="2562.85" cy="2112.55" r="4.39934" stroke-width="0.5" stroke="black" fill="cyan"/>
   </g>
   <g id="cell171">
  <circle cx="1428.91" cy="1438.54" r="8.41271" stroke-width="0.5" stroke="black" fill="cyan"/>
  <circle cx="1428.91" cy="1438.54" r="5.05167" stroke-width="0.5" stroke="black" fill="cyan"/>
   </g>
   <g id="cell172">
  <circle cx="895.477" cy="1793.85" r="7.24243" stroke-width="0.5" stroke="black" fill="red"/>
  <circle cx="895.477" cy="1793.85" r="4.39934" stroke-width="0.5" stroke="black" fill="red"/>
   </g>
   <g id="cell173">
  <circle cx="672.681" cy="1108.61" r="7.24243" stroke-width="0.5" stroke="black" fill="red"/>
  <circle cx="672.681" cy="1108.61" r="4.39934" stroke-width="0.5" stroke="black" fill="red"/>
   </g>
   <g id="cell174">
  <circle cx="574.3" cy="1918.94" r="7.24243" stroke-width="0.5" stroke="black" fill="cyan"/>
  <circle cx="574.3" cy="1918.94" r="4.39934" stroke-width="0.5" stroke="black" fill="cyan"/>
   </g>
   <g id="cell175">
  <circle cx="1552.13" cy="563.396" r="7.24243" stroke-width="0.5" stroke="black" fill="red"/>
  <circle cx="1552.13" cy="563.396" r="4.39934" stroke-width="0.5" stroke="black" fill="red"/>
   </g>
   <g id="cell176">
  <circle cx="1865.77" cy="1058.62" r="7.24243" stroke-width="0.5" stroke="black" fill="red"/>
  <circle cx="1865.77" cy="1058.62" r="4.39934" stroke-width="0.5" stroke="black" fill="red"/>
   </g>
   <g id="cell177">
  <circle cx="1285.35" cy="1434.81" r="8.41271" stroke-width="0.5" stroke="black" fill="cyan"/>
  <circle cx="1285.35" cy="1434.81" r="5.05167" stroke-width="0.5" stroke="black" fill="cyan"/>
   </g>
   <g id="cell178">
  <circle cx="625.812" cy="2160.88" r="7.24243" stroke-width="0.5" stroke="black" fill="red"/>
  <circle cx="625.812" cy="2160.88" r="4.39934" stroke-width="0.5" stroke="black" fill="red"/>
   </g>
   <g id="cell179">
  <circle cx="1600.23" cy="2328.02" r="7.24243" stroke-width="0.5" stroke="black" fill="red"/>
  <circle cx="1600.23" cy="2328.02" r="4.39934" stroke-width="0.5" stroke="black" fill="red"/>
   </g>
   <g id="cell180">
  <circle cx="926.201" cy="750.183" r="7.24243" stroke-width="0.5" stroke="black" fill="red"/>
  <circle cx="926.201" cy="750.183" r="4.39934" stroke-width="0.5" stroke="black" fill="red"/>
   </g>
   <g id="cell181">
  <circle cx="2153.78" cy="2076.95" r="7.24243" stroke-width="0.5" stroke="black" fill="red"/>
  <circle cx="2153.78" cy="2076.95" r="4.39934" stroke-width="0.5" stroke="black" fill="red"/>
   </g>
   <g id="cell182">
  <circle cx="1403.93" cy="820.681" r="7.24243" stroke-width="0.5" stroke="black" fill="red"/>
  <circle cx="1403.93" cy="820.681" r="4.39934" stroke-width="0.5" stroke="black" fill="red"/>
   </g>
   <g id="cell183">
  <circle cx="1547.65" cy="2504.46" r="7.24243" stroke-width="0.5" stroke="black" fill="red"/>
  <circle cx="1547.65" cy="2504.46" r="4.39934" stroke-width="0.5" stroke="black" fill="red"/>
   </g>
   <g id="cell184">
  <circle cx="1309.9" cy="1802.7" r="7.24243" stroke-width="0.5" stroke="black" fill="red"/>
  <circle cx="1309.9" cy="1802.7" r="4.39934" stroke-width="0.5" stroke="black" fill="red"/>
   </g>
   <g id="cell185">
  <circle cx="1657.55" cy="630.871" r="7.24243" stroke-width="0.5" stroke="black" fill="red"/>
  <circle cx="1657.55" cy="630.871" r="4.39934" stroke-width="0.5" stroke="black" fill="red"/>
   </g>
   <g id="cell186">
  <circle cx="1844.04" cy="1229.43" r="7.24243" stroke-width="0.5" stroke="black" fill="red"/>
  <circle cx="1844.04" cy="1229.43" r="4.39934" stroke-width="0.5" stroke="black" fill="red"/>
   </g>
   <g id="cell187">
  <circle cx="1347.8" cy="1023.83" r="7.24243" stroke-width="0.5" stroke="black" fill="red"/>
  <circle cx="1347.8" cy="1023.83" r="4.39934" stroke-width="0.5" stroke="black" fill="red"/>
   </g>
   <g id="cell188">
  <circle cx="347.404" cy="1070.15" r="7.24243" stroke-width="0.5" stroke="black" fill="red"/>
  <circle cx="347.404" cy="1070.15" r="4.39934" stroke-width="0.5" stroke="black" fill="red"/>
   </g>
   <g id="cell189">
  <circle cx="520.192" cy="2519.03" r="8.41271" stroke-width="0.5" stroke="black" fill="cyan"/>
  <circle cx="520.192" cy="2519.03" r="5.05167" stroke-width="0.5" stroke="black" fill="cyan"/>
   </g>
   <g id="cell190">
  <circle cx="2433.1" cy="441.936" r="7.24243" stroke-width="0.5" stroke="black" fill="red"/>
  <circle cx="2433.1" cy="441.936" r="4.39934" stroke-width="0.5" stroke="black" fill="red"/>
   </g>
   <g id="cell191">
  <circle cx="1775.55" cy="652.153" r="8.41271" stroke-width="0.5" stroke="black" fill="cyan"/>
  <circle cx="1775.55" cy="652.153" r="5.05167" stroke-width="0.5" stroke="black" fill="cyan"/>
   </g>
   <g id="cell192">
  <circle cx="2618.11" cy="962.105" r="7.24243" stroke-width="0.5" stroke="black" fill="red"/>
  <circle cx="2618.11" cy="962.105" r="4.39934" stroke-width="0.5" stroke="black" fill="red"/>
   </g>
   <g id="cell193">
  <circle cx="1765.04" cy="843.005" r="7.24243" stroke-width="0.5" stroke="black" fill="cyan"/>
  <circle cx="1765.04" cy="843.005" r="4.39934" stroke-width="0.5" stroke="black" fill="cyan"/>
   </g>
   <g id="cell194">
  <circle cx="1229.41" cy="1445.23" r="7.24243" stroke-width="0.5" stroke="black" fill="red"/>
  <circle cx="1229.41" cy="1445.23" r="4.39934" stroke-width="0.5" stroke="black" fill="red"/>
   </g>
   <g id="cell195">
  <circle cx="2200.28" cy="2258.43" r="7.24243" stroke-width="0.5" stroke="black" fill="red"/>
  <circle cx="2200.28" cy="2258.43" r="4.39934" stroke-width="0.5" stroke="black" fill="red"/>
   </g>
   <g id="cell196">
  <circle cx="1785.96" cy="1235.11" r="7.24243" stroke-width="0.5" stroke="black" fill="cyan"/>
  <circle cx="1785.96" cy="1235.11" r="4.39934" stroke-width="0.5" stroke="black" fill="cyan"/>
   </g>
   <g id="cell197">
  <circle cx="1577.62" cy="1456.03" r="7.24243" stroke-width="0.5" stroke="black" fill="red"/>
  <circle cx="1577.62" cy="1456.03" r="4.39934" stroke-width="0.5" stroke="black" fill="red"/>
   </g>
   <g id="cell198">
  <circle cx="2555.85" cy="2467.45" r="7.24243" stroke-width="0.5" stroke="black" fill="red"/>
  <circle cx="2555.85" cy="2467.45" r="4.39934" stroke-width="0.5" stroke="black" fill="red"/>
   </g>
   <g id="cell199">
  <circle cx="1666.24" cy="1252.03" r="7.24243" stroke-width="0.5" stroke="black" fill="red"/>
  <circle cx="1666.24" cy="1252.03" r="4.39934" stroke-width="0.5" stroke="black" fill="red"/>
   </g>
  </g>
 </g>
  <rect x="2725" y="3105" width="200" height="30" stroke-width="6" stroke="rgb(255,255,255)" fill="rgb(0,0,0)"/>
  <text x="2743.75" y="3086.25"
   font-family="Arial" font-size="75" fill="black" >
   200 &#956;m
  </text>
  <text x="75" y="3135"
   font-family="Arial" font-size="56.25" fill="black" >
   0 days, 0 hours, 0 minutes, and 6.8597 seconds
  </text>
  <rect x="0" y="210" width="3000" height="3000" stroke-width="6" stroke="rgb(0,0,0)" fill="none"/>
</svg>
