<?xml version="1.0" encoding="UTF-8" standalone="no"?>
<!-- Created with PhysiCell (http://PhysiCell.MathCancer.org/) -->
<svg 
 xmlns:dc="http://purl.org/dc/elements/1.1/" 
 xmlns:cc="http://creativecommons.org/ns#" 
 xmlns:rdf="http://www.w3.org/1999/02/22-rdf-syntax-ns#" 
 xmlns:svg="http://www.w3.org/2000/svg" 
 xmlns="http://www.w3.org/2000/svg" 
 version="1.1" 
 width="3000" 
 height="3210" 
 id="svg2">
  <rect x="0" y="0" width="3000" height="3210" stroke-width="6" stroke="white" fill="white"/>
  <text x="37.5" y="90"
   font-family="Arial" font-size="75" fill="black" >
   Current time: 0 days, 9 hours, and 0.00 minutes, z = 0.00 &#956;m
  </text>
  <text x="37.5" y="172.5"
   font-family="Arial" font-size="71.25" fill="black" >
   200 agents
  </text>
 <g id="tissue" 
    transform="translate(0,3210) scale(1,-1)">
  <g id="ECM">
  </g>
  <g id="cells">
   <g id="cell0">
  <circle cx="1614.85" cy="1727.51" r="7.51976" stroke-width="0.5" stroke="black" fill="red"/>
  <circle cx="1614.85" cy="1727.51" r="4.57072" stroke-width="0.5" stroke="black" fill="red"/>
   </g>
   <g id="cell1">
  <circle cx="2009.19" cy="2332.43" r="7.51976" stroke-width="0.5" stroke="black" fill="red"/>
  <circle cx="2009.19" cy="2332.43" r="4.57072" stroke-width="0.5" stroke="black" fill="red"/>
   </g>
   <g id="cell2">
  <circle cx="1750.6" cy="2358.39" r="8.41271" stroke-width="0.5" stroke="black" fill="cyan"/>
  <circle cx="1750.6" cy="2358.39" r="5.05167" stroke-width="0.5" stroke="black" fill="cyan"/>
   </g>
   <g id="cell3">
  <circle cx="1611.6" cy="2336.2" r="7.51976" stroke-width="0.5" stroke="black" fill="red"/>
  <circle cx="1611.6" cy="2336.2" r="4.57072" stroke-width="0.5" stroke="black" fill="red"/>
   </g>
   <g id="cell4">
  <circle cx="1320.34" cy="1793.36" r="7.51976" stroke-width="0.5" stroke="black" fill="red"/>
  <circle cx="1320.34" cy="1793.36" r="4.57072" stroke-width="0.5" stroke="black" fill="red"/>
   </g>
   <g id="cell5">
  <circle cx="1853.31" cy="1218.93" r="7.51976" stroke-width="0.5" stroke="black" fill="red"/>
  <circle cx="1853.31" cy="1218.93" r="4.57072" stroke-width="0.5" stroke="black" fill="red"/>
   </g>
   <g id="cell6">
  <circle cx="1351.16" cy="1010.23" r="7.51976" stroke-width="0.5" stroke="black" fill="red"/>
  <circle cx="1351.16" cy="1010.23" r="4.57072" stroke-width="0.5" stroke="black" fill="red"/>
   </g>
   <g id="cell7">
  <circle cx="2443.96" cy="433.09" r="7.51976" stroke-width="0.5" stroke="black" fill="red"/>
  <circle cx="2443.96" cy="433.09" r="4.57072" stroke-width="0.5" stroke="black" fill="red"/>
   </g>
   <g id="cell8">
  <circle cx="2610.17" cy="950.569" r="7.51976" stroke-width="0.5" stroke="black" fill="red"/>
  <circle cx="2610.17" cy="950.569" r="4.57072" stroke-width="0.5" stroke="black" fill="red"/>
   </g>
   <g id="cell9">
  <circle cx="1215.51" cy="1447" r="7.51976" stroke-width="0.5" stroke="black" fill="red"/>
  <circle cx="1215.51" cy="1447" r="4.57072" stroke-width="0.5" stroke="black" fill="red"/>
   </g>
   <g id="cell10">
  <circle cx="2200.07" cy="2244.42" r="7.51976" stroke-width="0.5" stroke="black" fill="red"/>
  <circle cx="2200.07" cy="2244.42" r="4.57072" stroke-width="0.5" stroke="black" fill="red"/>
   </g>
   <g id="cell11">
  <circle cx="1565.06" cy="1449.83" r="7.51976" stroke-width="0.5" stroke="black" fill="red"/>
  <circle cx="1565.06" cy="1449.83" r="4.57072" stroke-width="0.5" stroke="black" fill="red"/>
   </g>
   <g id="cell12">
  <circle cx="1661.74" cy="1237.7" r="8.41271" stroke-width="0.5" stroke="black" fill="cyan"/>
  <circle cx="1661.74" cy="1237.7" r="5.05167" stroke-width="0.5" stroke="black" fill="cyan"/>
   </g>
   <g id="cell13">
  <circle cx="2520.54" cy="2311.35" r="7.51976" stroke-width="0.5" stroke="black" fill="red"/>
  <circle cx="2520.54" cy="2311.35" r="4.57072" stroke-width="0.5" stroke="black" fill="red"/>
   </g>
   <g id="cell14">
  <circle cx="467.511" cy="1113.5" r="7.51976" stroke-width="0.5" stroke="black" fill="red"/>
  <circle cx="467.511" cy="1113.5" r="4.57072" stroke-width="0.5" stroke="black" fill="red"/>
   </g>
   <g id="cell15">
  <circle cx="506.592" cy="1859.68" r="7.51976" stroke-width="0.5" stroke="black" fill="red"/>
  <circle cx="506.592" cy="1859.68" r="4.57072" stroke-width="0.5" stroke="black" fill="red"/>
   </g>
   <g id="cell16">
  <circle cx="346.641" cy="1178.91" r="7.51976" stroke-width="0.5" stroke="black" fill="red"/>
  <circle cx="346.641" cy="1178.91" r="4.57072" stroke-width="0.5" stroke="black" fill="red"/>
   </g>
   <g id="cell17">
  <circle cx="2293.83" cy="2595.42" r="7.51976" stroke-width="0.5" stroke="black" fill="red"/>
  <circle cx="2293.83" cy="2595.42" r="4.57072" stroke-width="0.5" stroke="black" fill="red"/>
   </g>
   <g id="cell18">
  <circle cx="2170.4" cy="632.454" r="7.51976" stroke-width="0.5" stroke="black" fill="red"/>
  <circle cx="2170.4" cy="632.454" r="4.57072" stroke-width="0.5" stroke="black" fill="red"/>
   </g>
   <g id="cell19">
  <circle cx="2392.7" cy="2389.25" r="7.51976" stroke-width="0.5" stroke="black" fill="red"/>
  <circle cx="2392.7" cy="2389.25" r="4.57072" stroke-width="0.5" stroke="black" fill="red"/>
   </g>
   <g id="cell20">
  <circle cx="2643.93" cy="1438.81" r="8.41271" stroke-width="0.5" stroke="black" fill="cyan"/>
  <circle cx="2643.93" cy="1438.81" r="5.05167" stroke-width="0.5" stroke="black" fill="cyan"/>
   </g>
   <g id="cell21">
  <circle cx="2217.32" cy="2226.92" r="7.51976" stroke-width="0.5" stroke="black" fill="cyan"/>
  <circle cx="2217.32" cy="2226.92" r="4.57072" stroke-width="0.5" stroke="black" fill="cyan"/>
   </g>
   <g id="cell22">
  <circle cx="1413.08" cy="1548.28" r="7.51976" stroke-width="0.5" stroke="black" fill="cyan"/>
  <circle cx="1413.08" cy="1548.28" r="4.57072" stroke-width="0.5" stroke="black" fill="cyan"/>
   </g>
   <g id="cell23">
  <circle cx="2169.97" cy="1925.85" r="7.51976" stroke-width="0.5" stroke="black" fill="red"/>
  <circle cx="2169.97" cy="1925.85" r="4.57072" stroke-width="0.5" stroke="black" fill="red"/>
   </g>
   <g id="cell24">
  <circle cx="587.479" cy="2033.28" r="8.41271" stroke-width="0.5" stroke="black" fill="cyan"/>
  <circle cx="587.479" cy="2033.28" r="5.05167" stroke-width="0.5" stroke="black" fill="cyan"/>
   </g>
   <g id="cell25">
  <circle cx="1839.22" cy="1693.52" r="7.51976" stroke-width="0.5" stroke="black" fill="red"/>
  <circle cx="1839.22" cy="1693.52" r="4.57072" stroke-width="0.5" stroke="black" fill="red"/>
   </g>
   <g id="cell26">
  <circle cx="647.419" cy="1586.3" r="7.51976" stroke-width="0.5" stroke="black" fill="red"/>
  <circle cx="647.419" cy="1586.3" r="4.57072" stroke-width="0.5" stroke="black" fill="red"/>
   </g>
   <g id="cell27">
  <circle cx="2569.47" cy="2124.89" r="7.51976" stroke-width="0.5" stroke="black" fill="cyan"/>
  <circle cx="2569.47" cy="2124.89" r="4.57072" stroke-width="0.5" stroke="black" fill="cyan"/>
   </g>
   <g id="cell28">
  <circle cx="1552.59" cy="549.397" r="7.51976" stroke-width="0.5" stroke="black" fill="red"/>
  <circle cx="1552.59" cy="549.397" r="4.57072" stroke-width="0.5" stroke="black" fill="red"/>
   </g>
   <g id="cell29">
  <circle cx="1300.11" cy="1437.55" r="7.51976" stroke-width="0.5" stroke="black" fill="red"/>
  <circle cx="1300.11" cy="1437.55" r="4.57072" stroke-width="0.5" stroke="black" fill="red"/>
   </g>
   <g id="cell30">
  <circle cx="939.454" cy="745.652" r="7.51976" stroke-width="0.5" stroke="black" fill="red"/>
  <circle cx="939.454" cy="745.652" r="4.57072" stroke-width="0.5" stroke="black" fill="red"/>
   </g>
   <g id="cell31">
  <circle cx="2160.76" cy="2063.66" r="8.41271" stroke-width="0.5" stroke="black" fill="cyan"/>
  <circle cx="2160.76" cy="2063.66" r="5.05167" stroke-width="0.5" stroke="black" fill="cyan"/>
   </g>
   <g id="cell32">
  <circle cx="1390" cy="819.223" r="7.51976" stroke-width="0.5" stroke="black" fill="red"/>
  <circle cx="1390" cy="819.223" r="4.57072" stroke-width="0.5" stroke="black" fill="red"/>
   </g>
   <g id="cell33">
  <circle cx="1667.71" cy="621.231" r="7.51976" stroke-width="0.5" stroke="black" fill="red"/>
  <circle cx="1667.71" cy="621.231" r="4.57072" stroke-width="0.5" stroke="black" fill="red"/>
   </g>
   <g id="cell34">
  <circle cx="343.422" cy="1083.58" r="7.51976" stroke-width="0.5" stroke="black" fill="red"/>
  <circle cx="343.422" cy="1083.58" r="4.57072" stroke-width="0.5" stroke="black" fill="red"/>
   </g>
   <g id="cell35">
  <circle cx="1785.94" cy="662.986" r="7.51976" stroke-width="0.5" stroke="black" fill="red"/>
  <circle cx="1785.94" cy="662.986" r="4.57072" stroke-width="0.5" stroke="black" fill="red"/>
   </g>
   <g id="cell36">
  <circle cx="1770.5" cy="830.105" r="7.51976" stroke-width="0.5" stroke="black" fill="cyan"/>
  <circle cx="1770.5" cy="830.105" r="4.57072" stroke-width="0.5" stroke="black" fill="cyan"/>
   </g>
   <g id="cell37">
  <circle cx="1777.88" cy="1223.67" r="7.51976" stroke-width="0.5" stroke="black" fill="cyan"/>
  <circle cx="1777.88" cy="1223.67" r="4.57072" stroke-width="0.5" stroke="black" fill="cyan"/>
   </g>
   <g id="cell38">
  <circle cx="2569.74" cy="2465.61" r="7.51976" stroke-width="0.5" stroke="black" fill="red"/>
  <circle cx="2569.74" cy="2465.61" r="4.57072" stroke-width="0.5" stroke="black" fill="red"/>
   </g>
   <g id="cell39">
  <circle cx="1933.68" cy="1375.41" r="8.41271" stroke-width="0.5" stroke="black" fill="cyan"/>
  <circle cx="1933.68" cy="1375.41" r="5.05167" stroke-width="0.5" stroke="black" fill="cyan"/>
   </g>
   <g id="cell40">
  <circle cx="1164.48" cy="1765.67" r="8.41271" stroke-width="0.5" stroke="black" fill="cyan"/>
  <circle cx="1164.48" cy="1765.67" r="5.05167" stroke-width="0.5" stroke="black" fill="cyan"/>
   </g>
   <g id="cell41">
  <circle cx="1351.55" cy="2461.67" r="7.51976" stroke-width="0.5" stroke="black" fill="red"/>
  <circle cx="1351.55" cy="2461.67" r="4.57072" stroke-width="0.5" stroke="black" fill="red"/>
   </g>
   <g id="cell42">
  <circle cx="1974.49" cy="533.493" r="7.51976" stroke-width="0.5" stroke="black" fill="red"/>
  <circle cx="1974.49" cy="533.493" r="4.57072" stroke-width="0.5" stroke="black" fill="red"/>
   </g>
   <g id="cell43">
  <circle cx="444.062" cy="2633.18" r="8.41271" stroke-width="0.5" stroke="black" fill="cyan"/>
  <circle cx="444.062" cy="2633.18" r="5.05167" stroke-width="0.5" stroke="black" fill="cyan"/>
   </g>
   <g id="cell44">
  <circle cx="1896.33" cy="1864.78" r="7.51976" stroke-width="0.5" stroke="black" fill="red"/>
  <circle cx="1896.33" cy="1864.78" r="4.57072" stroke-width="0.5" stroke="black" fill="red"/>
   </g>
   <g id="cell45">
  <circle cx="1911.39" cy="714.591" r="7.51976" stroke-width="0.5" stroke="black" fill="red"/>
  <circle cx="1911.39" cy="714.591" r="4.57072" stroke-width="0.5" stroke="black" fill="red"/>
   </g>
   <g id="cell46">
  <circle cx="803.122" cy="1155.13" r="7.51976" stroke-width="0.5" stroke="black" fill="red"/>
  <circle cx="803.122" cy="1155.13" r="4.57072" stroke-width="0.5" stroke="black" fill="red"/>
   </g>
   <g id="cell47">
  <circle cx="614.198" cy="2101.36" r="7.51976" stroke-width="0.5" stroke="black" fill="red"/>
  <circle cx="614.198" cy="2101.36" r="4.57072" stroke-width="0.5" stroke="black" fill="red"/>
   </g>
   <g id="cell48">
  <circle cx="1056.21" cy="1763.51" r="7.51976" stroke-width="0.5" stroke="black" fill="red"/>
  <circle cx="1056.21" cy="1763.51" r="4.57072" stroke-width="0.5" stroke="black" fill="red"/>
   </g>
   <g id="cell49">
  <circle cx="1167.74" cy="1079.36" r="7.51976" stroke-width="0.5" stroke="black" fill="cyan"/>
  <circle cx="1167.74" cy="1079.36" r="4.57072" stroke-width="0.5" stroke="black" fill="cyan"/>
   </g>
   <g id="cell50">
  <circle cx="1664.99" cy="388.202" r="7.51976" stroke-width="0.5" stroke="black" fill="red"/>
  <circle cx="1664.99" cy="388.202" r="4.57072" stroke-width="0.5" stroke="black" fill="red"/>
   </g>
   <g id="cell51">
  <circle cx="1356.61" cy="1819.59" r="7.51976" stroke-width="0.5" stroke="black" fill="red"/>
  <circle cx="1356.61" cy="1819.59" r="4.57072" stroke-width="0.5" stroke="black" fill="red"/>
   </g>
   <g id="cell52">
  <circle cx="2670.01" cy="2597.19" r="7.51976" stroke-width="0.5" stroke="black" fill="red"/>
  <circle cx="2670.01" cy="2597.19" r="4.57072" stroke-width="0.5" stroke="black" fill="red"/>
   </g>
   <g id="cell53">
  <circle cx="539.758" cy="1865.8" r="8.41271" stroke-width="0.5" stroke="black" fill="cyan"/>
  <circle cx="539.758" cy="1865.8" r="5.05167" stroke-width="0.5" stroke="black" fill="cyan"/>
   </g>
   <g id="cell54">
  <circle cx="804.252" cy="1820.64" r="7.51976" stroke-width="0.5" stroke="black" fill="red"/>
  <circle cx="804.252" cy="1820.64" r="4.57072" stroke-width="0.5" stroke="black" fill="red"/>
   </g>
   <g id="cell55">
  <circle cx="685.603" cy="2684.19" r="7.51976" stroke-width="0.5" stroke="black" fill="red"/>
  <circle cx="685.603" cy="2684.19" r="4.57072" stroke-width="0.5" stroke="black" fill="red"/>
   </g>
   <g id="cell56">
  <circle cx="1864.8" cy="1692.46" r="7.51976" stroke-width="0.5" stroke="black" fill="red"/>
  <circle cx="1864.8" cy="1692.46" r="4.57072" stroke-width="0.5" stroke="black" fill="red"/>
   </g>
   <g id="cell57">
  <circle cx="911.948" cy="1298.44" r="8.41271" stroke-width="0.5" stroke="black" fill="cyan"/>
  <circle cx="911.948" cy="1298.44" r="5.05167" stroke-width="0.5" stroke="black" fill="cyan"/>
   </g>
   <g id="cell58">
  <circle cx="1413.94" cy="1439.67" r="7.51976" stroke-width="0.5" stroke="black" fill="red"/>
  <circle cx="1413.94" cy="1439.67" r="4.57072" stroke-width="0.5" stroke="black" fill="red"/>
   </g>
   <g id="cell59">
  <circle cx="882.029" cy="1797.76" r="7.51976" stroke-width="0.5" stroke="black" fill="red"/>
  <circle cx="882.029" cy="1797.76" r="4.57072" stroke-width="0.5" stroke="black" fill="red"/>
   </g>
   <g id="cell60">
  <circle cx="686.115" cy="1112.57" r="7.51976" stroke-width="0.5" stroke="black" fill="red"/>
  <circle cx="686.115" cy="1112.57" r="4.57072" stroke-width="0.5" stroke="black" fill="red"/>
   </g>
   <g id="cell61">
  <circle cx="560.311" cy="1919.63" r="7.51976" stroke-width="0.5" stroke="black" fill="cyan"/>
  <circle cx="560.311" cy="1919.63" r="4.57072" stroke-width="0.5" stroke="black" fill="cyan"/>
   </g>
   <g id="cell62">
  <circle cx="1880.21" cy="1062.7" r="8.41271" stroke-width="0.5" stroke="black" fill="cyan"/>
  <circle cx="1880.21" cy="1062.7" r="5.05167" stroke-width="0.5" stroke="black" fill="cyan"/>
   </g>
   <g id="cell63">
  <circle cx="634.661" cy="2171.74" r="7.51976" stroke-width="0.5" stroke="black" fill="red"/>
  <circle cx="634.661" cy="2171.74" r="4.57072" stroke-width="0.5" stroke="black" fill="red"/>
   </g>
   <g id="cell64">
  <circle cx="773.705" cy="2583.59" r="7.51976" stroke-width="0.5" stroke="black" fill="red"/>
  <circle cx="773.705" cy="2583.59" r="4.57072" stroke-width="0.5" stroke="black" fill="red"/>
   </g>
   <g id="cell65">
  <circle cx="1188.26" cy="1893.51" r="7.51976" stroke-width="0.5" stroke="black" fill="red"/>
  <circle cx="1188.26" cy="1893.51" r="4.57072" stroke-width="0.5" stroke="black" fill="red"/>
   </g>
   <g id="cell66">
  <circle cx="2275.47" cy="333.761" r="7.51976" stroke-width="0.5" stroke="black" fill="red"/>
  <circle cx="2275.47" cy="333.761" r="4.57072" stroke-width="0.5" stroke="black" fill="red"/>
   </g>
   <g id="cell67">
  <circle cx="533.088" cy="1800.06" r="7.51976" stroke-width="0.5" stroke="black" fill="red"/>
  <circle cx="533.088" cy="1800.06" r="4.57072" stroke-width="0.5" stroke="black" fill="red"/>
   </g>
   <g id="cell68">
  <circle cx="2305.73" cy="1915" r="8.41271" stroke-width="0.5" stroke="black" fill="cyan"/>
  <circle cx="2305.73" cy="1915" r="5.05167" stroke-width="0.5" stroke="black" fill="cyan"/>
   </g>
   <g id="cell69">
  <circle cx="529.092" cy="2637.65" r="7.51976" stroke-width="0.5" stroke="black" fill="red"/>
  <circle cx="529.092" cy="2637.65" r="4.57072" stroke-width="0.5" stroke="black" fill="red"/>
   </g>
   <g id="cell70">
  <circle cx="2647.33" cy="2410.53" r="7.51976" stroke-width="0.5" stroke="black" fill="red"/>
  <circle cx="2647.33" cy="2410.53" r="4.57072" stroke-width="0.5" stroke="black" fill="red"/>
   </g>
   <g id="cell71">
  <circle cx="1420.43" cy="1525.12" r="7.51976" stroke-width="0.5" stroke="black" fill="red"/>
  <circle cx="1420.43" cy="1525.12" r="4.57072" stroke-width="0.5" stroke="black" fill="red"/>
   </g>
   <g id="cell72">
  <circle cx="2639.52" cy="436.056" r="8.41271" stroke-width="0.5" stroke="black" fill="cyan"/>
  <circle cx="2639.52" cy="436.056" r="5.05167" stroke-width="0.5" stroke="black" fill="cyan"/>
   </g>
   <g id="cell73">
  <circle cx="1746.43" cy="1382.31" r="8.41271" stroke-width="0.5" stroke="black" fill="cyan"/>
  <circle cx="1746.43" cy="1382.31" r="5.05167" stroke-width="0.5" stroke="black" fill="cyan"/>
   </g>
   <g id="cell74">
  <circle cx="2079.09" cy="349.88" r="8.41271" stroke-width="0.5" stroke="black" fill="cyan"/>
  <circle cx="2079.09" cy="349.88" r="5.05167" stroke-width="0.5" stroke="black" fill="cyan"/>
   </g>
   <g id="cell75">
  <circle cx="389.383" cy="1359.04" r="7.51976" stroke-width="0.5" stroke="black" fill="red"/>
  <circle cx="389.383" cy="1359.04" r="4.57072" stroke-width="0.5" stroke="black" fill="red"/>
   </g>
   <g id="cell76">
  <circle cx="982.46" cy="2648.01" r="7.51976" stroke-width="0.5" stroke="black" fill="cyan"/>
  <circle cx="982.46" cy="2648.01" r="4.57072" stroke-width="0.5" stroke="black" fill="cyan"/>
   </g>
   <g id="cell77">
  <circle cx="585.187" cy="1159.19" r="7.51976" stroke-width="0.5" stroke="black" fill="red"/>
  <circle cx="585.187" cy="1159.19" r="4.57072" stroke-width="0.5" stroke="black" fill="red"/>
   </g>
   <g id="cell78">
  <circle cx="1009.54" cy="1449.51" r="7.51976" stroke-width="0.5" stroke="black" fill="cyan"/>
  <circle cx="1009.54" cy="1449.51" r="4.57072" stroke-width="0.5" stroke="black" fill="cyan"/>
   </g>
   <g id="cell79">
  <circle cx="585.774" cy="1957.5" r="7.51976" stroke-width="0.5" stroke="black" fill="red"/>
  <circle cx="585.774" cy="1957.5" r="4.57072" stroke-width="0.5" stroke="black" fill="red"/>
   </g>
   <g id="cell80">
  <circle cx="1068.38" cy="2413.26" r="8.41271" stroke-width="0.5" stroke="black" fill="cyan"/>
  <circle cx="1068.38" cy="2413.26" r="5.05167" stroke-width="0.5" stroke="black" fill="cyan"/>
   </g>
   <g id="cell81">
  <circle cx="1293.35" cy="2508.47" r="7.51976" stroke-width="0.5" stroke="black" fill="red"/>
  <circle cx="1293.35" cy="2508.47" r="4.57072" stroke-width="0.5" stroke="black" fill="red"/>
   </g>
   <g id="cell82">
  <circle cx="453.292" cy="825.11" r="7.51976" stroke-width="0.5" stroke="black" fill="cyan"/>
  <circle cx="453.292" cy="825.11" r="4.57072" stroke-width="0.5" stroke="black" fill="cyan"/>
   </g>
   <g id="cell83">
  <circle cx="1963.98" cy="1652.13" r="7.51976" stroke-width="0.5" stroke="black" fill="cyan"/>
  <circle cx="1963.98" cy="1652.13" r="4.57072" stroke-width="0.5" stroke="black" fill="cyan"/>
   </g>
   <g id="cell84">
  <circle cx="1655.56" cy="2378.37" r="7.51976" stroke-width="0.5" stroke="black" fill="cyan"/>
  <circle cx="1655.56" cy="2378.37" r="4.57072" stroke-width="0.5" stroke="black" fill="cyan"/>
   </g>
   <g id="cell85">
  <circle cx="934.482" cy="1517.42" r="7.51976" stroke-width="0.5" stroke="black" fill="red"/>
  <circle cx="934.482" cy="1517.42" r="4.57072" stroke-width="0.5" stroke="black" fill="red"/>
   </g>
   <g id="cell86">
  <circle cx="1560.02" cy="2497.89" r="7.51976" stroke-width="0.5" stroke="black" fill="red"/>
  <circle cx="1560.02" cy="2497.89" r="4.57072" stroke-width="0.5" stroke="black" fill="red"/>
   </g>
   <g id="cell87">
  <circle cx="528.264" cy="2506.38" r="7.51976" stroke-width="0.5" stroke="black" fill="red"/>
  <circle cx="528.264" cy="2506.38" r="4.57072" stroke-width="0.5" stroke="black" fill="red"/>
   </g>
   <g id="cell88">
  <circle cx="1685.35" cy="503.132" r="7.51976" stroke-width="0.5" stroke="black" fill="red"/>
  <circle cx="1685.35" cy="503.132" r="4.57072" stroke-width="0.5" stroke="black" fill="red"/>
   </g>
   <g id="cell89">
  <circle cx="2525.53" cy="966.381" r="7.51976" stroke-width="0.5" stroke="black" fill="red"/>
  <circle cx="2525.53" cy="966.381" r="4.57072" stroke-width="0.5" stroke="black" fill="red"/>
   </g>
   <g id="cell90">
  <circle cx="1063.55" cy="327.575" r="7.51976" stroke-width="0.5" stroke="black" fill="red"/>
  <circle cx="1063.55" cy="327.575" r="4.57072" stroke-width="0.5" stroke="black" fill="red"/>
   </g>
   <g id="cell91">
  <circle cx="1901.75" cy="2316.4" r="7.51976" stroke-width="0.5" stroke="black" fill="red"/>
  <circle cx="1901.75" cy="2316.4" r="4.57072" stroke-width="0.5" stroke="black" fill="red"/>
   </g>
   <g id="cell92">
  <circle cx="611.133" cy="1853.84" r="8.41271" stroke-width="0.5" stroke="black" fill="cyan"/>
  <circle cx="611.133" cy="1853.84" r="5.05167" stroke-width="0.5" stroke="black" fill="cyan"/>
   </g>
   <g id="cell93">
  <circle cx="2016.89" cy="2314.71" r="7.51976" stroke-width="0.5" stroke="black" fill="red"/>
  <circle cx="2016.89" cy="2314.71" r="4.57072" stroke-width="0.5" stroke="black" fill="red"/>
   </g>
   <g id="cell94">
  <circle cx="990.376" cy="933.06" r="7.51976" stroke-width="0.5" stroke="black" fill="cyan"/>
  <circle cx="990.376" cy="933.06" r="4.57072" stroke-width="0.5" stroke="black" fill="cyan"/>
   </g>
   <g id="cell95">
  <circle cx="737.259" cy="1250.63" r="7.51976" stroke-width="0.5" stroke="black" fill="red"/>
  <circle cx="737.259" cy="1250.63" r="4.57072" stroke-width="0.5" stroke="black" fill="red"/>
   </g>
   <g id="cell96">
  <circle cx="1704.08" cy="1629.97" r="7.51976" stroke-width="0.5" stroke="black" fill="red"/>
  <circle cx="1704.08" cy="1629.97" r="4.57072" stroke-width="0.5" stroke="black" fill="red"/>
   </g>
   <g id="cell97">
  <circle cx="350.662" cy="691.722" r="7.51976" stroke-width="0.5" stroke="black" fill="red"/>
  <circle cx="350.662" cy="691.722" r="4.57072" stroke-width="0.5" stroke="black" fill="red"/>
   </g>
   <g id="cell98">
  <circle cx="2284.67" cy="1187.49" r="7.51976" stroke-width="0.5" stroke="black" fill="cyan"/>
  <circle cx="2284.67" cy="1187.49" r="4.57072" stroke-width="0.5" stroke="black" fill="cyan"/>
   </g>
   <g id="cell99">
  <circle cx="315.968" cy="652.355" r="7.51976" stroke-width="0.5" stroke="black" fill="cyan"/>
  <circle cx="315.968" cy="652.355" r="4.57072" stroke-width="0.5" stroke="black" fill="cyan"/>
   </g>
   <g id="cell100">
  <circle cx="637.36" cy="1596.43" r="7.51976" stroke-width="0.5" stroke="black" fill="red"/>
  <circle cx="637.36" cy="1596.43" r="4.57072" stroke-width="0.5" stroke="black" fill="red"/>
   </g>
   <g id="cell101">
  <circle cx="2523.17" cy="2297.32" r="7.51976" stroke-width="0.5" stroke="black" fill="red"/>
  <circle cx="2523.17" cy="2297.32" r="4.57072" stroke-width="0.5" stroke="black" fill="red"/>
   </g>
   <g id="cell102">
  <circle cx="768.262" cy="2570.4" r="7.51976" stroke-width="0.5" stroke="black" fill="red"/>
  <circle cx="768.262" cy="2570.4" r="4.57072" stroke-width="0.5" stroke="black" fill="red"/>
   </g>
   <g id="cell103">
  <circle cx="971.35" cy="2656.97" r="7.51976" stroke-width="0.5" stroke="black" fill="cyan"/>
  <circle cx="971.35" cy="2656.97" r="4.57072" stroke-width="0.5" stroke="black" fill="cyan"/>
   </g>
   <g id="cell104">
  <circle cx="1941.49" cy="1388.39" r="7.51976" stroke-width="0.5" stroke="black" fill="red"/>
  <circle cx="1941.49" cy="1388.39" r="4.57072" stroke-width="0.5" stroke="black" fill="red"/>
   </g>
   <g id="cell105">
  <circle cx="2676.25" cy="2610.01" r="7.51976" stroke-width="0.5" stroke="black" fill="red"/>
  <circle cx="2676.25" cy="2610.01" r="4.57072" stroke-width="0.5" stroke="black" fill="red"/>
   </g>
   <g id="cell106">
  <circle cx="476.389" cy="1102.32" r="7.51976" stroke-width="0.5" stroke="black" fill="red"/>
  <circle cx="476.389" cy="1102.32" r="4.57072" stroke-width="0.5" stroke="black" fill="red"/>
   </g>
   <g id="cell107">
  <circle cx="554.678" cy="1868.4" r="7.51976" stroke-width="0.5" stroke="black" fill="red"/>
  <circle cx="554.678" cy="1868.4" r="4.57072" stroke-width="0.5" stroke="black" fill="red"/>
   </g>
   <g id="cell108">
  <circle cx="1160.23" cy="1780.2" r="7.51976" stroke-width="0.5" stroke="black" fill="red"/>
  <circle cx="1160.23" cy="1780.2" r="4.57072" stroke-width="0.5" stroke="black" fill="red"/>
   </g>
   <g id="cell109">
  <circle cx="1621.53" cy="1713.92" r="8.41271" stroke-width="0.5" stroke="black" fill="cyan"/>
  <circle cx="1621.53" cy="1713.92" r="5.05167" stroke-width="0.5" stroke="black" fill="cyan"/>
   </g>
   <g id="cell110">
  <circle cx="514.106" cy="1847.54" r="7.51976" stroke-width="0.5" stroke="black" fill="red"/>
  <circle cx="514.106" cy="1847.54" r="4.57072" stroke-width="0.5" stroke="black" fill="red"/>
   </g>
   <g id="cell111">
  <circle cx="1676.17" cy="492.205" r="7.51976" stroke-width="0.5" stroke="black" fill="red"/>
  <circle cx="1676.17" cy="492.205" r="4.57072" stroke-width="0.5" stroke="black" fill="red"/>
   </g>
   <g id="cell112">
  <circle cx="352.104" cy="1193.04" r="8.41271" stroke-width="0.5" stroke="black" fill="cyan"/>
  <circle cx="352.104" cy="1193.04" r="5.05167" stroke-width="0.5" stroke="black" fill="cyan"/>
   </g>
   <g id="cell113">
  <circle cx="2307.12" cy="2600.64" r="7.51976" stroke-width="0.5" stroke="black" fill="red"/>
  <circle cx="2307.12" cy="2600.64" r="4.57072" stroke-width="0.5" stroke="black" fill="red"/>
   </g>
   <g id="cell114">
  <circle cx="1343.57" cy="2473.5" r="7.51976" stroke-width="0.5" stroke="black" fill="red"/>
  <circle cx="1343.57" cy="2473.5" r="4.57072" stroke-width="0.5" stroke="black" fill="red"/>
   </g>
   <g id="cell115">
  <circle cx="2162.2" cy="645.186" r="8.41271" stroke-width="0.5" stroke="black" fill="cyan"/>
  <circle cx="2162.2" cy="645.186" r="5.05167" stroke-width="0.5" stroke="black" fill="cyan"/>
   </g>
   <g id="cell116">
  <circle cx="2378.77" cy="2386.14" r="7.51976" stroke-width="0.5" stroke="black" fill="red"/>
  <circle cx="2378.77" cy="2386.14" r="4.57072" stroke-width="0.5" stroke="black" fill="red"/>
   </g>
   <g id="cell117">
  <circle cx="2539.8" cy="966.81" r="7.51976" stroke-width="0.5" stroke="black" fill="red"/>
  <circle cx="2539.8" cy="966.81" r="4.57072" stroke-width="0.5" stroke="black" fill="red"/>
   </g>
   <g id="cell118">
  <circle cx="1973.97" cy="547.756" r="7.51976" stroke-width="0.5" stroke="black" fill="red"/>
  <circle cx="1973.97" cy="547.756" r="4.57072" stroke-width="0.5" stroke="black" fill="red"/>
   </g>
   <g id="cell119">
  <circle cx="1066.5" cy="312.721" r="8.41271" stroke-width="0.5" stroke="black" fill="cyan"/>
  <circle cx="1066.5" cy="312.721" r="5.05167" stroke-width="0.5" stroke="black" fill="cyan"/>
   </g>
   <g id="cell120">
  <circle cx="445.419" cy="2617.21" r="8.41271" stroke-width="0.5" stroke="black" fill="cyan"/>
  <circle cx="445.419" cy="2617.21" r="5.05167" stroke-width="0.5" stroke="black" fill="cyan"/>
   </g>
   <g id="cell121">
  <circle cx="2657.73" cy="1432.57" r="7.51976" stroke-width="0.5" stroke="black" fill="red"/>
  <circle cx="2657.73" cy="1432.57" r="4.57072" stroke-width="0.5" stroke="black" fill="red"/>
   </g>
   <g id="cell122">
  <circle cx="594.989" cy="1169.56" r="7.51976" stroke-width="0.5" stroke="black" fill="red"/>
  <circle cx="594.989" cy="1169.56" r="4.57072" stroke-width="0.5" stroke="black" fill="red"/>
   </g>
   <g id="cell123">
  <circle cx="1178.35" cy="1883.24" r="7.51976" stroke-width="0.5" stroke="black" fill="red"/>
  <circle cx="1178.35" cy="1883.24" r="4.57072" stroke-width="0.5" stroke="black" fill="red"/>
   </g>
   <g id="cell124">
  <circle cx="1901.85" cy="2331.55" r="8.41271" stroke-width="0.5" stroke="black" fill="cyan"/>
  <circle cx="1901.85" cy="2331.55" r="5.05167" stroke-width="0.5" stroke="black" fill="cyan"/>
   </g>
   <g id="cell125">
  <circle cx="626.17" cy="1852.04" r="7.51976" stroke-width="0.5" stroke="black" fill="red"/>
  <circle cx="626.17" cy="1852.04" r="4.57072" stroke-width="0.5" stroke="black" fill="red"/>
   </g>
   <g id="cell126">
  <circle cx="2031.1" cy="2316.34" r="7.51976" stroke-width="0.5" stroke="black" fill="red"/>
  <circle cx="2031.1" cy="2316.34" r="4.57072" stroke-width="0.5" stroke="black" fill="red"/>
   </g>
   <g id="cell127">
  <circle cx="1013.12" cy="1463.33" r="7.51976" stroke-width="0.5" stroke="black" fill="cyan"/>
  <circle cx="1013.12" cy="1463.33" r="4.57072" stroke-width="0.5" stroke="black" fill="cyan"/>
   </g>
   <g id="cell128">
  <circle cx="2260.72" cy="330.311" r="8.41271" stroke-width="0.5" stroke="black" fill="cyan"/>
  <circle cx="2260.72" cy="330.311" r="5.05167" stroke-width="0.5" stroke="black" fill="cyan"/>
   </g>
   <g id="cell129">
  <circle cx="1002.9" cy="939.901" r="7.51976" stroke-width="0.5" stroke="black" fill="cyan"/>
  <circle cx="1002.9" cy="939.901" r="4.57072" stroke-width="0.5" stroke="black" fill="cyan"/>
   </g>
   <g id="cell130">
  <circle cx="532.958" cy="1784.91" r="8.41271" stroke-width="0.5" stroke="black" fill="cyan"/>
  <circle cx="532.958" cy="1784.91" r="5.05167" stroke-width="0.5" stroke="black" fill="cyan"/>
   </g>
   <g id="cell131">
  <circle cx="744.421" cy="1262.98" r="7.51976" stroke-width="0.5" stroke="black" fill="red"/>
  <circle cx="744.421" cy="1262.98" r="4.57072" stroke-width="0.5" stroke="black" fill="red"/>
   </g>
   <g id="cell132">
  <circle cx="2320.1" cy="1919.8" r="7.51976" stroke-width="0.5" stroke="black" fill="red"/>
  <circle cx="2320.1" cy="1919.8" r="4.57072" stroke-width="0.5" stroke="black" fill="red"/>
   </g>
   <g id="cell133">
  <circle cx="2219.28" cy="2212.79" r="7.51976" stroke-width="0.5" stroke="black" fill="cyan"/>
  <circle cx="2219.28" cy="2212.79" r="4.57072" stroke-width="0.5" stroke="black" fill="cyan"/>
   </g>
   <g id="cell134">
  <circle cx="533.573" cy="2623.19" r="8.41271" stroke-width="0.5" stroke="black" fill="cyan"/>
  <circle cx="533.573" cy="2623.19" r="5.05167" stroke-width="0.5" stroke="black" fill="cyan"/>
   </g>
   <g id="cell135">
  <circle cx="2635.91" cy="2401.97" r="7.51976" stroke-width="0.5" stroke="black" fill="red"/>
  <circle cx="2635.91" cy="2401.97" r="4.57072" stroke-width="0.5" stroke="black" fill="red"/>
   </g>
   <g id="cell136">
  <circle cx="1433.36" cy="1519.09" r="7.51976" stroke-width="0.5" stroke="black" fill="red"/>
  <circle cx="1433.36" cy="1519.09" r="4.57072" stroke-width="0.5" stroke="black" fill="red"/>
   </g>
   <g id="cell137">
  <circle cx="2653.08" cy="429.311" r="7.51976" stroke-width="0.5" stroke="black" fill="red"/>
  <circle cx="2653.08" cy="429.311" r="4.57072" stroke-width="0.5" stroke="black" fill="red"/>
   </g>
   <g id="cell138">
  <circle cx="1398.98" cy="1550.49" r="7.51976" stroke-width="0.5" stroke="black" fill="cyan"/>
  <circle cx="1398.98" cy="1550.49" r="4.57072" stroke-width="0.5" stroke="black" fill="cyan"/>
   </g>
   <g id="cell139">
  <circle cx="1761.52" cy="1383.67" r="7.51976" stroke-width="0.5" stroke="black" fill="red"/>
  <circle cx="1761.52" cy="1383.67" r="4.57072" stroke-width="0.5" stroke="black" fill="red"/>
   </g>
   <g id="cell140">
  <circle cx="2179.82" cy="1936.18" r="7.51976" stroke-width="0.5" stroke="black" fill="red"/>
  <circle cx="2179.82" cy="1936.18" r="4.57072" stroke-width="0.5" stroke="black" fill="red"/>
   </g>
   <g id="cell141">
  <circle cx="1908" cy="1873" r="7.51976" stroke-width="0.5" stroke="black" fill="red"/>
  <circle cx="1908" cy="1873" r="4.57072" stroke-width="0.5" stroke="black" fill="red"/>
   </g>
   <g id="cell142">
  <circle cx="2065" cy="344.339" r="7.51976" stroke-width="0.5" stroke="black" fill="red"/>
  <circle cx="2065" cy="344.339" r="4.57072" stroke-width="0.5" stroke="black" fill="red"/>
   </g>
   <g id="cell143">
  <circle cx="795.067" cy="1831.56" r="7.51976" stroke-width="0.5" stroke="black" fill="red"/>
  <circle cx="795.067" cy="1831.56" r="4.57072" stroke-width="0.5" stroke="black" fill="red"/>
   </g>
   <g id="cell144">
  <circle cx="1905.84" cy="701.439" r="7.51976" stroke-width="0.5" stroke="black" fill="red"/>
  <circle cx="1905.84" cy="701.439" r="4.57072" stroke-width="0.5" stroke="black" fill="red"/>
   </g>
   <g id="cell145">
  <circle cx="808.481" cy="1168.36" r="7.51976" stroke-width="0.5" stroke="black" fill="red"/>
  <circle cx="808.481" cy="1168.36" r="4.57072" stroke-width="0.5" stroke="black" fill="red"/>
   </g>
   <g id="cell146">
  <circle cx="599.95" cy="2102.21" r="7.51976" stroke-width="0.5" stroke="black" fill="red"/>
  <circle cx="599.95" cy="2102.21" r="4.57072" stroke-width="0.5" stroke="black" fill="red"/>
   </g>
   <g id="cell147">
  <circle cx="1714.68" cy="1620.42" r="7.51976" stroke-width="0.5" stroke="black" fill="red"/>
  <circle cx="1714.68" cy="1620.42" r="4.57072" stroke-width="0.5" stroke="black" fill="red"/>
   </g>
   <g id="cell148">
  <circle cx="1058.66" cy="1749.45" r="7.51976" stroke-width="0.5" stroke="black" fill="red"/>
  <circle cx="1058.66" cy="1749.45" r="4.57072" stroke-width="0.5" stroke="black" fill="red"/>
   </g>
   <g id="cell149">
  <circle cx="1181.87" cy="1081.42" r="7.51976" stroke-width="0.5" stroke="black" fill="cyan"/>
  <circle cx="1181.87" cy="1081.42" r="4.57072" stroke-width="0.5" stroke="black" fill="cyan"/>
   </g>
   <g id="cell150">
  <circle cx="1674.91" cy="399.649" r="8.41271" stroke-width="0.5" stroke="black" fill="cyan"/>
  <circle cx="1674.91" cy="399.649" r="5.05167" stroke-width="0.5" stroke="black" fill="cyan"/>
   </g>
   <g id="cell151">
  <circle cx="1344.77" cy="1827.56" r="7.51976" stroke-width="0.5" stroke="black" fill="red"/>
  <circle cx="1344.77" cy="1827.56" r="4.57072" stroke-width="0.5" stroke="black" fill="red"/>
   </g>
   <g id="cell152">
  <circle cx="343.489" cy="704.062" r="7.51976" stroke-width="0.5" stroke="black" fill="red"/>
  <circle cx="343.489" cy="704.062" r="4.57072" stroke-width="0.5" stroke="black" fill="red"/>
   </g>
   <g id="cell153">
  <circle cx="583.305" cy="1943.44" r="7.51976" stroke-width="0.5" stroke="black" fill="red"/>
  <circle cx="583.305" cy="1943.44" r="4.57072" stroke-width="0.5" stroke="black" fill="red"/>
   </g>
   <g id="cell154">
  <circle cx="2298.95" cy="1187.64" r="7.51976" stroke-width="0.5" stroke="black" fill="cyan"/>
  <circle cx="2298.95" cy="1187.64" r="4.57072" stroke-width="0.5" stroke="black" fill="cyan"/>
   </g>
   <g id="cell155">
  <circle cx="301.947" cy="649.684" r="7.51976" stroke-width="0.5" stroke="black" fill="cyan"/>
  <circle cx="301.947" cy="649.684" r="4.57072" stroke-width="0.5" stroke="black" fill="cyan"/>
   </g>
   <g id="cell156">
  <circle cx="1053.24" cy="2412.91" r="7.51976" stroke-width="0.5" stroke="black" fill="red"/>
  <circle cx="1053.24" cy="2412.91" r="4.57072" stroke-width="0.5" stroke="black" fill="red"/>
   </g>
   <g id="cell157">
  <circle cx="2022.66" cy="2327.81" r="7.51976" stroke-width="0.5" stroke="black" fill="red"/>
  <circle cx="2022.66" cy="2327.81" r="4.57072" stroke-width="0.5" stroke="black" fill="red"/>
   </g>
   <g id="cell158">
  <circle cx="1295.97" cy="2494.44" r="7.51976" stroke-width="0.5" stroke="black" fill="red"/>
  <circle cx="1295.97" cy="2494.44" r="4.57072" stroke-width="0.5" stroke="black" fill="red"/>
   </g>
   <g id="cell159">
  <circle cx="455.267" cy="810.975" r="7.51976" stroke-width="0.5" stroke="black" fill="cyan"/>
  <circle cx="455.267" cy="810.975" r="4.57072" stroke-width="0.5" stroke="black" fill="cyan"/>
   </g>
   <g id="cell160">
  <circle cx="1957.87" cy="1665.03" r="7.51976" stroke-width="0.5" stroke="black" fill="cyan"/>
  <circle cx="1957.87" cy="1665.03" r="4.57072" stroke-width="0.5" stroke="black" fill="cyan"/>
   </g>
   <g id="cell161">
  <circle cx="1668.35" cy="2372.03" r="7.51976" stroke-width="0.5" stroke="black" fill="cyan"/>
  <circle cx="1668.35" cy="2372.03" r="4.57072" stroke-width="0.5" stroke="black" fill="cyan"/>
   </g>
   <g id="cell162">
  <circle cx="1735.67" cy="2360.93" r="7.51976" stroke-width="0.5" stroke="black" fill="red"/>
  <circle cx="1735.67" cy="2360.93" r="4.57072" stroke-width="0.5" stroke="black" fill="red"/>
   </g>
   <g id="cell163">
  <circle cx="941.8" cy="1529.67" r="7.51976" stroke-width="0.5" stroke="black" fill="red"/>
  <circle cx="941.8" cy="1529.67" r="4.57072" stroke-width="0.5" stroke="black" fill="red"/>
   </g>
   <g id="cell164">
  <circle cx="576.973" cy="2022.37" r="7.51976" stroke-width="0.5" stroke="black" fill="red"/>
  <circle cx="576.973" cy="2022.37" r="4.57072" stroke-width="0.5" stroke="black" fill="red"/>
   </g>
   <g id="cell165">
  <circle cx="403.3" cy="1362.21" r="7.51976" stroke-width="0.5" stroke="black" fill="red"/>
  <circle cx="403.3" cy="1362.21" r="4.57072" stroke-width="0.5" stroke="black" fill="red"/>
   </g>
   <g id="cell166">
  <circle cx="1829" cy="1703.49" r="7.51976" stroke-width="0.5" stroke="black" fill="red"/>
  <circle cx="1829" cy="1703.49" r="4.57072" stroke-width="0.5" stroke="black" fill="red"/>
   </g>
   <g id="cell167">
  <circle cx="690.197" cy="2697.7" r="7.51976" stroke-width="0.5" stroke="black" fill="red"/>
  <circle cx="690.197" cy="2697.7" r="4.57072" stroke-width="0.5" stroke="black" fill="red"/>
   </g>
   <g id="cell168">
  <circle cx="1872.73" cy="1704.33" r="7.51976" stroke-width="0.5" stroke="black" fill="red"/>
  <circle cx="1872.73" cy="1704.33" r="4.57072" stroke-width="0.5" stroke="black" fill="red"/>
   </g>
   <g id="cell169">
  <circle cx="900.484" cy="1287.24" r="8.41271" stroke-width="0.5" stroke="black" fill="cyan"/>
  <circle cx="900.484" cy="1287.24" r="5.05167" stroke-width="0.5" stroke="black" fill="cyan"/>
   </g>
   <g id="cell170">
  <circle cx="2562.72" cy="2112.31" r="7.51976" stroke-width="0.5" stroke="black" fill="cyan"/>
  <circle cx="2562.72" cy="2112.31" r="4.57072" stroke-width="0.5" stroke="black" fill="cyan"/>
   </g>
   <g id="cell171">
  <circle cx="1429.04" cy="1438.53" r="8.41271" stroke-width="0.5" stroke="black" fill="cyan"/>
  <circle cx="1429.04" cy="1438.53" r="5.05167" stroke-width="0.5" stroke="black" fill="cyan"/>
   </g>
   <g id="cell172">
  <circle cx="895.733" cy="1793.77" r="7.51976" stroke-width="0.5" stroke="black" fill="red"/>
  <circle cx="895.733" cy="1793.77" r="4.57072" stroke-width="0.5" stroke="black" fill="red"/>
   </g>
   <g id="cell173">
  <circle cx="672.425" cy="1108.53" r="7.51976" stroke-width="0.5" stroke="black" fill="red"/>
  <circle cx="672.425" cy="1108.53" r="4.57072" stroke-width="0.5" stroke="black" fill="red"/>
   </g>
   <g id="cell174">
  <circle cx="574.567" cy="1918.93" r="7.51976" stroke-width="0.5" stroke="black" fill="cyan"/>
  <circle cx="574.567" cy="1918.93" r="4.57072" stroke-width="0.5" stroke="black" fill="cyan"/>
   </g>
   <g id="cell175">
  <circle cx="1552.12" cy="563.663" r="7.51976" stroke-width="0.5" stroke="black" fill="red"/>
  <circle cx="1552.12" cy="563.663" r="4.57072" stroke-width="0.5" stroke="black" fill="red"/>
   </g>
   <g id="cell176">
  <circle cx="1865.64" cy="1058.58" r="7.51976" stroke-width="0.5" stroke="black" fill="red"/>
  <circle cx="1865.64" cy="1058.58" r="4.57072" stroke-width="0.5" stroke="black" fill="red"/>
   </g>
   <g id="cell177">
  <circle cx="1285.21" cy="1434.79" r="8.41271" stroke-width="0.5" stroke="black" fill="cyan"/>
  <circle cx="1285.21" cy="1434.79" r="5.05167" stroke-width="0.5" stroke="black" fill="cyan"/>
   </g>
   <g id="cell178">
  <circle cx="625.643" cy="2160.67" r="7.51976" stroke-width="0.5" stroke="black" fill="red"/>
  <circle cx="625.643" cy="2160.67" r="4.57072" stroke-width="0.5" stroke="black" fill="red"/>
   </g>
   <g id="cell179">
  <circle cx="1600.02" cy="2327.86" r="7.51976" stroke-width="0.5" stroke="black" fill="red"/>
  <circle cx="1600.02" cy="2327.86" r="4.57072" stroke-width="0.5" stroke="black" fill="red"/>
   </g>
   <g id="cell180">
  <circle cx="925.948" cy="750.27" r="7.51976" stroke-width="0.5" stroke="black" fill="red"/>
  <circle cx="925.948" cy="750.27" r="4.57072" stroke-width="0.5" stroke="black" fill="red"/>
   </g>
   <g id="cell181">
  <circle cx="2153.72" cy="2077.07" r="7.51976" stroke-width="0.5" stroke="black" fill="red"/>
  <circle cx="2153.72" cy="2077.07" r="4.57072" stroke-width="0.5" stroke="black" fill="red"/>
   </g>
   <g id="cell182">
  <circle cx="1404.2" cy="820.709" r="7.51976" stroke-width="0.5" stroke="black" fill="red"/>
  <circle cx="1404.2" cy="820.709" r="4.57072" stroke-width="0.5" stroke="black" fill="red"/>
   </g>
   <g id="cell183">
  <circle cx="1547.43" cy="2504.58" r="7.51976" stroke-width="0.5" stroke="black" fill="red"/>
  <circle cx="1547.43" cy="2504.58" r="4.57072" stroke-width="0.5" stroke="black" fill="red"/>
   </g>
   <g id="cell184">
  <circle cx="1309.7" cy="1802.88" r="7.51976" stroke-width="0.5" stroke="black" fill="red"/>
  <circle cx="1309.7" cy="1802.88" r="4.57072" stroke-width="0.5" stroke="black" fill="red"/>
   </g>
   <g id="cell185">
  <circle cx="1657.36" cy="631.055" r="7.51976" stroke-width="0.5" stroke="black" fill="red"/>
  <circle cx="1657.36" cy="631.055" r="4.57072" stroke-width="0.5" stroke="black" fill="red"/>
   </g>
   <g id="cell186">
  <circle cx="1843.86" cy="1229.63" r="7.51976" stroke-width="0.5" stroke="black" fill="red"/>
  <circle cx="1843.86" cy="1229.63" r="4.57072" stroke-width="0.5" stroke="black" fill="red"/>
   </g>
   <g id="cell187">
  <circle cx="1347.74" cy="1024.09" r="7.51976" stroke-width="0.5" stroke="black" fill="red"/>
  <circle cx="1347.74" cy="1024.09" r="4.57072" stroke-width="0.5" stroke="black" fill="red"/>
   </g>
   <g id="cell188">
  <circle cx="347.48" cy="1069.9" r="7.51976" stroke-width="0.5" stroke="black" fill="red"/>
  <circle cx="347.48" cy="1069.9" r="4.57072" stroke-width="0.5" stroke="black" fill="red"/>
   </g>
   <g id="cell189">
  <circle cx="520.12" cy="2519.15" r="8.41271" stroke-width="0.5" stroke="black" fill="cyan"/>
  <circle cx="520.12" cy="2519.15" r="5.05167" stroke-width="0.5" stroke="black" fill="cyan"/>
   </g>
   <g id="cell190">
  <circle cx="2432.9" cy="442.105" r="7.51976" stroke-width="0.5" stroke="black" fill="red"/>
  <circle cx="2432.9" cy="442.105" r="4.57072" stroke-width="0.5" stroke="black" fill="red"/>
   </g>
   <g id="cell191">
  <circle cx="1775.45" cy="652.056" r="8.41271" stroke-width="0.5" stroke="black" fill="cyan"/>
  <circle cx="1775.45" cy="652.056" r="5.05167" stroke-width="0.5" stroke="black" fill="cyan"/>
   </g>
   <g id="cell192">
  <circle cx="2618.26" cy="962.325" r="7.51976" stroke-width="0.5" stroke="black" fill="red"/>
  <circle cx="2618.26" cy="962.325" r="4.57072" stroke-width="0.5" stroke="black" fill="red"/>
   </g>
   <g id="cell193">
  <circle cx="1764.94" cy="843.251" r="7.51976" stroke-width="0.5" stroke="black" fill="cyan"/>
  <circle cx="1764.94" cy="843.251" r="4.57072" stroke-width="0.5" stroke="black" fill="cyan"/>
   </g>
   <g id="cell194">
  <circle cx="1229.67" cy="1445.2" r="7.51976" stroke-width="0.5" stroke="black" fill="red"/>
  <circle cx="1229.67" cy="1445.2" r="4.57072" stroke-width="0.5" stroke="black" fill="red"/>
   </g>
   <g id="cell195">
  <circle cx="2200.28" cy="2258.69" r="7.51976" stroke-width="0.5" stroke="black" fill="red"/>
  <circle cx="2200.28" cy="2258.69" r="4.57072" stroke-width="0.5" stroke="black" fill="red"/>
   </g>
   <g id="cell196">
  <circle cx="1786.11" cy="1235.33" r="7.51976" stroke-width="0.5" stroke="black" fill="cyan"/>
  <circle cx="1786.11" cy="1235.33" r="4.57072" stroke-width="0.5" stroke="black" fill="cyan"/>
   </g>
   <g id="cell197">
  <circle cx="1577.86" cy="1456.14" r="7.51976" stroke-width="0.5" stroke="black" fill="red"/>
  <circle cx="1577.86" cy="1456.14" r="4.57072" stroke-width="0.5" stroke="black" fill="red"/>
   </g>
   <g id="cell198">
  <circle cx="2555.59" cy="2467.48" r="7.51976" stroke-width="0.5" stroke="black" fill="red"/>
  <circle cx="2555.59" cy="2467.48" r="4.57072" stroke-width="0.5" stroke="black" fill="red"/>
   </g>
   <g id="cell199">
  <circle cx="1666.28" cy="1252.15" r="7.51976" stroke-width="0.5" stroke="black" fill="red"/>
  <circle cx="1666.28" cy="1252.15" r="4.57072" stroke-width="0.5" stroke="black" fill="red"/>
   </g>
  </g>
 </g>
  <rect x="2725" y="3105" width="200" height="30" stroke-width="6" stroke="rgb(255,255,255)" fill="rgb(0,0,0)"/>
  <text x="2743.75" y="3086.25"
   font-family="Arial" font-size="75" fill="black" >
   200 &#956;m
  </text>
  <text x="75" y="3135"
   font-family="Arial" font-size="56.25" fill="black" >
   0 days, 0 hours, 0 minutes, and 7.9437 seconds
  </text>
  <rect x="0" y="210" width="3000" height="3000" stroke-width="6" stroke="rgb(0,0,0)" fill="none"/>
</svg>
