<?xml version="1.0" encoding="UTF-8" standalone="no"?>
<!-- Created with PhysiCell (http://PhysiCell.MathCancer.org/) -->
<svg 
 xmlns:dc="http://purl.org/dc/elements/1.1/" 
 xmlns:cc="http://creativecommons.org/ns#" 
 xmlns:rdf="http://www.w3.org/1999/02/22-rdf-syntax-ns#" 
 xmlns:svg="http://www.w3.org/2000/svg" 
 xmlns="http://www.w3.org/2000/svg" 
 version="1.1" 
 width="3000" 
 height="3210" 
 id="svg2">
  <rect x="0" y="0" width="3000" height="3210" stroke-width="6" stroke="white" fill="white"/>
  <text x="37.5" y="90"
   font-family="Arial" font-size="75" fill="black" >
   Current time: 0 days, 10 hours, and 0.00 minutes, z = 0.00 &#956;m
  </text>
  <text x="37.5" y="172.5"
   font-family="Arial" font-size="71.25" fill="black" >
   200 agents
  </text>
 <g id="tissue" 
    transform="translate(0,3210) scale(1,-1)">
  <g id="ECM">
  </g>
  <g id="cells">
   <g id="cell0">
  <circle cx="1614.8" cy="1727.61" r="7.7401" stroke-width="0.5" stroke="black" fill="red"/>
  <circle cx="1614.8" cy="1727.61" r="4.70142" stroke-width="0.5" stroke="black" fill="red"/>
   </g>
   <g id="cell1">
  <circle cx="2008.87" cy="2332.54" r="7.7401" stroke-width="0.5" stroke="black" fill="red"/>
  <circle cx="2008.87" cy="2332.54" r="4.70142" stroke-width="0.5" stroke="black" fill="red"/>
   </g>
   <g id="cell2">
  <circle cx="1750.71" cy="2358.38" r="8.41271" stroke-width="0.5" stroke="black" fill="cyan"/>
  <circle cx="1750.71" cy="2358.38" r="5.05167" stroke-width="0.5" stroke="black" fill="cyan"/>
   </g>
   <g id="cell3">
  <circle cx="1611.78" cy="2336.32" r="7.7401" stroke-width="0.5" stroke="black" fill="red"/>
  <circle cx="1611.78" cy="2336.32" r="4.70142" stroke-width="0.5" stroke="black" fill="red"/>
   </g>
   <g id="cell4">
  <circle cx="1320.5" cy="1793.22" r="7.7401" stroke-width="0.5" stroke="black" fill="red"/>
  <circle cx="1320.5" cy="1793.22" r="4.70142" stroke-width="0.5" stroke="black" fill="red"/>
   </g>
   <g id="cell5">
  <circle cx="1853.45" cy="1218.77" r="7.7401" stroke-width="0.5" stroke="black" fill="red"/>
  <circle cx="1853.45" cy="1218.77" r="4.70142" stroke-width="0.5" stroke="black" fill="red"/>
   </g>
   <g id="cell6">
  <circle cx="1351.21" cy="1010.02" r="7.7401" stroke-width="0.5" stroke="black" fill="red"/>
  <circle cx="1351.21" cy="1010.02" r="4.70142" stroke-width="0.5" stroke="black" fill="red"/>
   </g>
   <g id="cell7">
  <circle cx="2444.13" cy="432.955" r="7.7401" stroke-width="0.5" stroke="black" fill="red"/>
  <circle cx="2444.13" cy="432.955" r="4.70142" stroke-width="0.5" stroke="black" fill="red"/>
   </g>
   <g id="cell8">
  <circle cx="2610.05" cy="950.392" r="7.7401" stroke-width="0.5" stroke="black" fill="red"/>
  <circle cx="2610.05" cy="950.392" r="4.70142" stroke-width="0.5" stroke="black" fill="red"/>
   </g>
   <g id="cell9">
  <circle cx="1215.3" cy="1447.03" r="7.7401" stroke-width="0.5" stroke="black" fill="red"/>
  <circle cx="1215.3" cy="1447.03" r="4.70142" stroke-width="0.5" stroke="black" fill="red"/>
   </g>
   <g id="cell10">
  <circle cx="2200.06" cy="2244.21" r="7.7401" stroke-width="0.5" stroke="black" fill="red"/>
  <circle cx="2200.06" cy="2244.21" r="4.70142" stroke-width="0.5" stroke="black" fill="red"/>
   </g>
   <g id="cell11">
  <circle cx="1564.87" cy="1449.73" r="7.7401" stroke-width="0.5" stroke="black" fill="red"/>
  <circle cx="1564.87" cy="1449.73" r="4.70142" stroke-width="0.5" stroke="black" fill="red"/>
   </g>
   <g id="cell12">
  <circle cx="1661.71" cy="1237.6" r="8.41271" stroke-width="0.5" stroke="black" fill="cyan"/>
  <circle cx="1661.71" cy="1237.6" r="5.05167" stroke-width="0.5" stroke="black" fill="cyan"/>
   </g>
   <g id="cell13">
  <circle cx="2520.5" cy="2311.56" r="7.7401" stroke-width="0.5" stroke="black" fill="red"/>
  <circle cx="2520.5" cy="2311.56" r="4.70142" stroke-width="0.5" stroke="black" fill="red"/>
   </g>
   <g id="cell14">
  <circle cx="467.378" cy="1113.66" r="7.7401" stroke-width="0.5" stroke="black" fill="red"/>
  <circle cx="467.378" cy="1113.66" r="4.70142" stroke-width="0.5" stroke="black" fill="red"/>
   </g>
   <g id="cell15">
  <circle cx="506.479" cy="1859.86" r="7.7401" stroke-width="0.5" stroke="black" fill="red"/>
  <circle cx="506.479" cy="1859.86" r="4.70142" stroke-width="0.5" stroke="black" fill="red"/>
   </g>
   <g id="cell16">
  <circle cx="346.603" cy="1178.81" r="7.7401" stroke-width="0.5" stroke="black" fill="red"/>
  <circle cx="346.603" cy="1178.81" r="4.70142" stroke-width="0.5" stroke="black" fill="red"/>
   </g>
   <g id="cell17">
  <circle cx="2293.64" cy="2595.35" r="7.7401" stroke-width="0.5" stroke="black" fill="red"/>
  <circle cx="2293.64" cy="2595.35" r="4.70142" stroke-width="0.5" stroke="black" fill="red"/>
   </g>
   <g id="cell18">
  <circle cx="2170.46" cy="632.364" r="7.7401" stroke-width="0.5" stroke="black" fill="red"/>
  <circle cx="2170.46" cy="632.364" r="4.70142" stroke-width="0.5" stroke="black" fill="red"/>
   </g>
   <g id="cell19">
  <circle cx="2392.91" cy="2389.3" r="7.7401" stroke-width="0.5" stroke="black" fill="red"/>
  <circle cx="2392.91" cy="2389.3" r="4.70142" stroke-width="0.5" stroke="black" fill="red"/>
   </g>
   <g id="cell20">
  <circle cx="2643.83" cy="1438.85" r="8.41271" stroke-width="0.5" stroke="black" fill="cyan"/>
  <circle cx="2643.83" cy="1438.85" r="5.05167" stroke-width="0.5" stroke="black" fill="cyan"/>
   </g>
   <g id="cell21">
  <circle cx="2217.29" cy="2227.14" r="7.7401" stroke-width="0.5" stroke="black" fill="cyan"/>
  <circle cx="2217.29" cy="2227.14" r="4.70142" stroke-width="0.5" stroke="black" fill="cyan"/>
   </g>
   <g id="cell22">
  <circle cx="1413.29" cy="1548.25" r="7.7401" stroke-width="0.5" stroke="black" fill="cyan"/>
  <circle cx="1413.29" cy="1548.25" r="4.70142" stroke-width="0.5" stroke="black" fill="cyan"/>
   </g>
   <g id="cell23">
  <circle cx="2169.82" cy="1925.69" r="7.7401" stroke-width="0.5" stroke="black" fill="red"/>
  <circle cx="2169.82" cy="1925.69" r="4.70142" stroke-width="0.5" stroke="black" fill="red"/>
   </g>
   <g id="cell24">
  <circle cx="587.554" cy="2033.36" r="8.41271" stroke-width="0.5" stroke="black" fill="cyan"/>
  <circle cx="587.554" cy="2033.36" r="5.05167" stroke-width="0.5" stroke="black" fill="cyan"/>
   </g>
   <g id="cell25">
  <circle cx="1839.37" cy="1693.37" r="7.7401" stroke-width="0.5" stroke="black" fill="red"/>
  <circle cx="1839.37" cy="1693.37" r="4.70142" stroke-width="0.5" stroke="black" fill="red"/>
   </g>
   <g id="cell26">
  <circle cx="647.57" cy="1586.15" r="7.7401" stroke-width="0.5" stroke="black" fill="red"/>
  <circle cx="647.57" cy="1586.15" r="4.70142" stroke-width="0.5" stroke="black" fill="red"/>
   </g>
   <g id="cell27">
  <circle cx="2569.57" cy="2125.08" r="7.7401" stroke-width="0.5" stroke="black" fill="cyan"/>
  <circle cx="2569.57" cy="2125.08" r="4.70142" stroke-width="0.5" stroke="black" fill="cyan"/>
   </g>
   <g id="cell28">
  <circle cx="1552.6" cy="549.183" r="7.7401" stroke-width="0.5" stroke="black" fill="red"/>
  <circle cx="1552.6" cy="549.183" r="4.70142" stroke-width="0.5" stroke="black" fill="red"/>
   </g>
   <g id="cell29">
  <circle cx="1300.21" cy="1437.57" r="7.7401" stroke-width="0.5" stroke="black" fill="red"/>
  <circle cx="1300.21" cy="1437.57" r="4.70142" stroke-width="0.5" stroke="black" fill="red"/>
   </g>
   <g id="cell30">
  <circle cx="939.657" cy="745.583" r="7.7401" stroke-width="0.5" stroke="black" fill="red"/>
  <circle cx="939.657" cy="745.583" r="4.70142" stroke-width="0.5" stroke="black" fill="red"/>
   </g>
   <g id="cell31">
  <circle cx="2160.81" cy="2063.56" r="8.41271" stroke-width="0.5" stroke="black" fill="cyan"/>
  <circle cx="2160.81" cy="2063.56" r="5.05167" stroke-width="0.5" stroke="black" fill="cyan"/>
   </g>
   <g id="cell32">
  <circle cx="1389.79" cy="819.2" r="7.7401" stroke-width="0.5" stroke="black" fill="red"/>
  <circle cx="1389.79" cy="819.2" r="4.70142" stroke-width="0.5" stroke="black" fill="red"/>
   </g>
   <g id="cell33">
  <circle cx="1667.87" cy="621.084" r="7.7401" stroke-width="0.5" stroke="black" fill="red"/>
  <circle cx="1667.87" cy="621.084" r="4.70142" stroke-width="0.5" stroke="black" fill="red"/>
   </g>
   <g id="cell34">
  <circle cx="343.361" cy="1083.79" r="7.7401" stroke-width="0.5" stroke="black" fill="red"/>
  <circle cx="343.361" cy="1083.79" r="4.70142" stroke-width="0.5" stroke="black" fill="red"/>
   </g>
   <g id="cell35">
  <circle cx="1786.01" cy="663.064" r="7.7401" stroke-width="0.5" stroke="black" fill="red"/>
  <circle cx="1786.01" cy="663.064" r="4.70142" stroke-width="0.5" stroke="black" fill="red"/>
   </g>
   <g id="cell36">
  <circle cx="1770.58" cy="829.907" r="7.7401" stroke-width="0.5" stroke="black" fill="cyan"/>
  <circle cx="1770.58" cy="829.907" r="4.70142" stroke-width="0.5" stroke="black" fill="cyan"/>
   </g>
   <g id="cell37">
  <circle cx="1777.76" cy="1223.49" r="7.7401" stroke-width="0.5" stroke="black" fill="cyan"/>
  <circle cx="1777.76" cy="1223.49" r="4.70142" stroke-width="0.5" stroke="black" fill="cyan"/>
   </g>
   <g id="cell38">
  <circle cx="2569.95" cy="2465.58" r="7.7401" stroke-width="0.5" stroke="black" fill="red"/>
  <circle cx="2569.95" cy="2465.58" r="4.70142" stroke-width="0.5" stroke="black" fill="red"/>
   </g>
   <g id="cell39">
  <circle cx="1933.62" cy="1375.32" r="8.41271" stroke-width="0.5" stroke="black" fill="cyan"/>
  <circle cx="1933.62" cy="1375.32" r="5.05167" stroke-width="0.5" stroke="black" fill="cyan"/>
   </g>
   <g id="cell40">
  <circle cx="1164.51" cy="1765.56" r="8.41271" stroke-width="0.5" stroke="black" fill="cyan"/>
  <circle cx="1164.51" cy="1765.56" r="5.05167" stroke-width="0.5" stroke="black" fill="cyan"/>
   </g>
   <g id="cell41">
  <circle cx="1351.67" cy="2461.5" r="7.7401" stroke-width="0.5" stroke="black" fill="red"/>
  <circle cx="1351.67" cy="2461.5" r="4.70142" stroke-width="0.5" stroke="black" fill="red"/>
   </g>
   <g id="cell42">
  <circle cx="1974.49" cy="533.278" r="7.7401" stroke-width="0.5" stroke="black" fill="red"/>
  <circle cx="1974.49" cy="533.278" r="4.70142" stroke-width="0.5" stroke="black" fill="red"/>
   </g>
   <g id="cell43">
  <circle cx="444.062" cy="2633.18" r="8.41271" stroke-width="0.5" stroke="black" fill="cyan"/>
  <circle cx="444.062" cy="2633.18" r="5.05167" stroke-width="0.5" stroke="black" fill="cyan"/>
   </g>
   <g id="cell44">
  <circle cx="1896.15" cy="1864.66" r="7.7401" stroke-width="0.5" stroke="black" fill="red"/>
  <circle cx="1896.15" cy="1864.66" r="4.70142" stroke-width="0.5" stroke="black" fill="red"/>
   </g>
   <g id="cell45">
  <circle cx="1911.47" cy="714.788" r="7.7401" stroke-width="0.5" stroke="black" fill="red"/>
  <circle cx="1911.47" cy="714.788" r="4.70142" stroke-width="0.5" stroke="black" fill="red"/>
   </g>
   <g id="cell46">
  <circle cx="803.042" cy="1154.93" r="7.7401" stroke-width="0.5" stroke="black" fill="red"/>
  <circle cx="803.042" cy="1154.93" r="4.70142" stroke-width="0.5" stroke="black" fill="red"/>
   </g>
   <g id="cell47">
  <circle cx="614.412" cy="2101.35" r="7.7401" stroke-width="0.5" stroke="black" fill="red"/>
  <circle cx="614.412" cy="2101.35" r="4.70142" stroke-width="0.5" stroke="black" fill="red"/>
   </g>
   <g id="cell48">
  <circle cx="1056.17" cy="1763.72" r="7.7401" stroke-width="0.5" stroke="black" fill="red"/>
  <circle cx="1056.17" cy="1763.72" r="4.70142" stroke-width="0.5" stroke="black" fill="red"/>
   </g>
   <g id="cell49">
  <circle cx="1167.53" cy="1079.33" r="7.7401" stroke-width="0.5" stroke="black" fill="cyan"/>
  <circle cx="1167.53" cy="1079.33" r="4.70142" stroke-width="0.5" stroke="black" fill="cyan"/>
   </g>
   <g id="cell50">
  <circle cx="1664.92" cy="388.121" r="7.7401" stroke-width="0.5" stroke="black" fill="red"/>
  <circle cx="1664.92" cy="388.121" r="4.70142" stroke-width="0.5" stroke="black" fill="red"/>
   </g>
   <g id="cell51">
  <circle cx="1356.79" cy="1819.47" r="7.7401" stroke-width="0.5" stroke="black" fill="red"/>
  <circle cx="1356.79" cy="1819.47" r="4.70142" stroke-width="0.5" stroke="black" fill="red"/>
   </g>
   <g id="cell52">
  <circle cx="2669.91" cy="2596.99" r="7.7401" stroke-width="0.5" stroke="black" fill="red"/>
  <circle cx="2669.91" cy="2596.99" r="4.70142" stroke-width="0.5" stroke="black" fill="red"/>
   </g>
   <g id="cell53">
  <circle cx="539.652" cy="1865.78" r="8.41271" stroke-width="0.5" stroke="black" fill="cyan"/>
  <circle cx="539.652" cy="1865.78" r="5.05167" stroke-width="0.5" stroke="black" fill="cyan"/>
   </g>
   <g id="cell54">
  <circle cx="804.39" cy="1820.47" r="7.7401" stroke-width="0.5" stroke="black" fill="red"/>
  <circle cx="804.39" cy="1820.47" r="4.70142" stroke-width="0.5" stroke="black" fill="red"/>
   </g>
   <g id="cell55">
  <circle cx="685.534" cy="2683.99" r="7.7401" stroke-width="0.5" stroke="black" fill="red"/>
  <circle cx="685.534" cy="2683.99" r="4.70142" stroke-width="0.5" stroke="black" fill="red"/>
   </g>
   <g id="cell56">
  <circle cx="1864.68" cy="1692.29" r="7.7401" stroke-width="0.5" stroke="black" fill="red"/>
  <circle cx="1864.68" cy="1692.29" r="4.70142" stroke-width="0.5" stroke="black" fill="red"/>
   </g>
   <g id="cell57">
  <circle cx="911.948" cy="1298.44" r="8.41271" stroke-width="0.5" stroke="black" fill="cyan"/>
  <circle cx="911.948" cy="1298.44" r="5.05167" stroke-width="0.5" stroke="black" fill="cyan"/>
   </g>
   <g id="cell58">
  <circle cx="1413.83" cy="1439.67" r="7.7401" stroke-width="0.5" stroke="black" fill="red"/>
  <circle cx="1413.83" cy="1439.67" r="4.70142" stroke-width="0.5" stroke="black" fill="red"/>
   </g>
   <g id="cell59">
  <circle cx="881.823" cy="1797.82" r="7.7401" stroke-width="0.5" stroke="black" fill="red"/>
  <circle cx="881.823" cy="1797.82" r="4.70142" stroke-width="0.5" stroke="black" fill="red"/>
   </g>
   <g id="cell60">
  <circle cx="686.321" cy="1112.63" r="7.7401" stroke-width="0.5" stroke="black" fill="red"/>
  <circle cx="686.321" cy="1112.63" r="4.70142" stroke-width="0.5" stroke="black" fill="red"/>
   </g>
   <g id="cell61">
  <circle cx="560.097" cy="1919.64" r="7.7401" stroke-width="0.5" stroke="black" fill="cyan"/>
  <circle cx="560.097" cy="1919.64" r="4.70142" stroke-width="0.5" stroke="black" fill="cyan"/>
   </g>
   <g id="cell62">
  <circle cx="1880.32" cy="1062.73" r="8.41271" stroke-width="0.5" stroke="black" fill="cyan"/>
  <circle cx="1880.32" cy="1062.73" r="5.05167" stroke-width="0.5" stroke="black" fill="cyan"/>
   </g>
   <g id="cell63">
  <circle cx="634.797" cy="2171.9" r="7.7401" stroke-width="0.5" stroke="black" fill="red"/>
  <circle cx="634.797" cy="2171.9" r="4.70142" stroke-width="0.5" stroke="black" fill="red"/>
   </g>
   <g id="cell64">
  <circle cx="773.787" cy="2583.79" r="7.7401" stroke-width="0.5" stroke="black" fill="red"/>
  <circle cx="773.787" cy="2583.79" r="4.70142" stroke-width="0.5" stroke="black" fill="red"/>
   </g>
   <g id="cell65">
  <circle cx="1188.41" cy="1893.66" r="7.7401" stroke-width="0.5" stroke="black" fill="red"/>
  <circle cx="1188.41" cy="1893.66" r="4.70142" stroke-width="0.5" stroke="black" fill="red"/>
   </g>
   <g id="cell66">
  <circle cx="2275.57" cy="333.785" r="7.7401" stroke-width="0.5" stroke="black" fill="red"/>
  <circle cx="2275.57" cy="333.785" r="4.70142" stroke-width="0.5" stroke="black" fill="red"/>
   </g>
   <g id="cell67">
  <circle cx="533.089" cy="1800.16" r="7.7401" stroke-width="0.5" stroke="black" fill="red"/>
  <circle cx="533.089" cy="1800.16" r="4.70142" stroke-width="0.5" stroke="black" fill="red"/>
   </g>
   <g id="cell68">
  <circle cx="2305.63" cy="1914.97" r="8.41271" stroke-width="0.5" stroke="black" fill="cyan"/>
  <circle cx="2305.63" cy="1914.97" r="5.05167" stroke-width="0.5" stroke="black" fill="cyan"/>
   </g>
   <g id="cell69">
  <circle cx="529.06" cy="2637.76" r="7.7401" stroke-width="0.5" stroke="black" fill="red"/>
  <circle cx="529.06" cy="2637.76" r="4.70142" stroke-width="0.5" stroke="black" fill="red"/>
   </g>
   <g id="cell70">
  <circle cx="2647.5" cy="2410.66" r="7.7401" stroke-width="0.5" stroke="black" fill="red"/>
  <circle cx="2647.5" cy="2410.66" r="4.70142" stroke-width="0.5" stroke="black" fill="red"/>
   </g>
   <g id="cell71">
  <circle cx="1420.23" cy="1525.21" r="7.7401" stroke-width="0.5" stroke="black" fill="red"/>
  <circle cx="1420.23" cy="1525.21" r="4.70142" stroke-width="0.5" stroke="black" fill="red"/>
   </g>
   <g id="cell72">
  <circle cx="2639.42" cy="436.104" r="8.41271" stroke-width="0.5" stroke="black" fill="cyan"/>
  <circle cx="2639.42" cy="436.104" r="5.05167" stroke-width="0.5" stroke="black" fill="cyan"/>
   </g>
   <g id="cell73">
  <circle cx="1746.32" cy="1382.31" r="8.41271" stroke-width="0.5" stroke="black" fill="cyan"/>
  <circle cx="1746.32" cy="1382.31" r="5.05167" stroke-width="0.5" stroke="black" fill="cyan"/>
   </g>
   <g id="cell74">
  <circle cx="2079.19" cy="349.92" r="8.41271" stroke-width="0.5" stroke="black" fill="cyan"/>
  <circle cx="2079.19" cy="349.92" r="5.05167" stroke-width="0.5" stroke="black" fill="cyan"/>
   </g>
   <g id="cell75">
  <circle cx="389.174" cy="1359" r="7.7401" stroke-width="0.5" stroke="black" fill="red"/>
  <circle cx="389.174" cy="1359" r="4.70142" stroke-width="0.5" stroke="black" fill="red"/>
   </g>
   <g id="cell76">
  <circle cx="982.627" cy="2647.87" r="7.7401" stroke-width="0.5" stroke="black" fill="cyan"/>
  <circle cx="982.627" cy="2647.87" r="4.70142" stroke-width="0.5" stroke="black" fill="cyan"/>
   </g>
   <g id="cell77">
  <circle cx="585.04" cy="1159.03" r="7.7401" stroke-width="0.5" stroke="black" fill="red"/>
  <circle cx="585.04" cy="1159.03" r="4.70142" stroke-width="0.5" stroke="black" fill="red"/>
   </g>
   <g id="cell78">
  <circle cx="1009.48" cy="1449.31" r="7.7401" stroke-width="0.5" stroke="black" fill="cyan"/>
  <circle cx="1009.48" cy="1449.31" r="4.70142" stroke-width="0.5" stroke="black" fill="cyan"/>
   </g>
   <g id="cell79">
  <circle cx="585.811" cy="1957.71" r="7.7401" stroke-width="0.5" stroke="black" fill="red"/>
  <circle cx="585.811" cy="1957.71" r="4.70142" stroke-width="0.5" stroke="black" fill="red"/>
   </g>
   <g id="cell80">
  <circle cx="1068.49" cy="2413.27" r="8.41271" stroke-width="0.5" stroke="black" fill="cyan"/>
  <circle cx="1068.49" cy="2413.27" r="5.05167" stroke-width="0.5" stroke="black" fill="cyan"/>
   </g>
   <g id="cell81">
  <circle cx="1293.32" cy="2508.68" r="7.7401" stroke-width="0.5" stroke="black" fill="red"/>
  <circle cx="1293.32" cy="2508.68" r="4.70142" stroke-width="0.5" stroke="black" fill="red"/>
   </g>
   <g id="cell82">
  <circle cx="453.263" cy="825.323" r="7.7401" stroke-width="0.5" stroke="black" fill="cyan"/>
  <circle cx="453.263" cy="825.323" r="4.70142" stroke-width="0.5" stroke="black" fill="cyan"/>
   </g>
   <g id="cell83">
  <circle cx="1964.07" cy="1651.94" r="7.7401" stroke-width="0.5" stroke="black" fill="cyan"/>
  <circle cx="1964.07" cy="1651.94" r="4.70142" stroke-width="0.5" stroke="black" fill="cyan"/>
   </g>
   <g id="cell84">
  <circle cx="1655.37" cy="2378.47" r="7.7401" stroke-width="0.5" stroke="black" fill="cyan"/>
  <circle cx="1655.37" cy="2378.47" r="4.70142" stroke-width="0.5" stroke="black" fill="cyan"/>
   </g>
   <g id="cell85">
  <circle cx="934.372" cy="1517.23" r="7.7401" stroke-width="0.5" stroke="black" fill="red"/>
  <circle cx="934.372" cy="1517.23" r="4.70142" stroke-width="0.5" stroke="black" fill="red"/>
   </g>
   <g id="cell86">
  <circle cx="1560.22" cy="2497.78" r="7.7401" stroke-width="0.5" stroke="black" fill="red"/>
  <circle cx="1560.22" cy="2497.78" r="4.70142" stroke-width="0.5" stroke="black" fill="red"/>
   </g>
   <g id="cell87">
  <circle cx="528.322" cy="2506.29" r="7.7401" stroke-width="0.5" stroke="black" fill="red"/>
  <circle cx="528.322" cy="2506.29" r="4.70142" stroke-width="0.5" stroke="black" fill="red"/>
   </g>
   <g id="cell88">
  <circle cx="1685.49" cy="503.296" r="7.7401" stroke-width="0.5" stroke="black" fill="red"/>
  <circle cx="1685.49" cy="503.296" r="4.70142" stroke-width="0.5" stroke="black" fill="red"/>
   </g>
   <g id="cell89">
  <circle cx="2525.32" cy="966.374" r="7.7401" stroke-width="0.5" stroke="black" fill="red"/>
  <circle cx="2525.32" cy="966.374" r="4.70142" stroke-width="0.5" stroke="black" fill="red"/>
   </g>
   <g id="cell90">
  <circle cx="1063.52" cy="327.681" r="7.7401" stroke-width="0.5" stroke="black" fill="red"/>
  <circle cx="1063.52" cy="327.681" r="4.70142" stroke-width="0.5" stroke="black" fill="red"/>
   </g>
   <g id="cell91">
  <circle cx="1901.75" cy="2316.29" r="7.7401" stroke-width="0.5" stroke="black" fill="red"/>
  <circle cx="1901.75" cy="2316.29" r="4.70142" stroke-width="0.5" stroke="black" fill="red"/>
   </g>
   <g id="cell92">
  <circle cx="611.026" cy="1853.85" r="8.41271" stroke-width="0.5" stroke="black" fill="cyan"/>
  <circle cx="611.026" cy="1853.85" r="5.05167" stroke-width="0.5" stroke="black" fill="cyan"/>
   </g>
   <g id="cell93">
  <circle cx="2016.74" cy="2314.62" r="7.7401" stroke-width="0.5" stroke="black" fill="red"/>
  <circle cx="2016.74" cy="2314.62" r="4.70142" stroke-width="0.5" stroke="black" fill="red"/>
   </g>
   <g id="cell94">
  <circle cx="990.188" cy="932.957" r="7.7401" stroke-width="0.5" stroke="black" fill="cyan"/>
  <circle cx="990.188" cy="932.957" r="4.70142" stroke-width="0.5" stroke="black" fill="cyan"/>
   </g>
   <g id="cell95">
  <circle cx="737.152" cy="1250.45" r="7.7401" stroke-width="0.5" stroke="black" fill="red"/>
  <circle cx="737.152" cy="1250.45" r="4.70142" stroke-width="0.5" stroke="black" fill="red"/>
   </g>
   <g id="cell96">
  <circle cx="1703.92" cy="1630.12" r="7.7401" stroke-width="0.5" stroke="black" fill="red"/>
  <circle cx="1703.92" cy="1630.12" r="4.70142" stroke-width="0.5" stroke="black" fill="red"/>
   </g>
   <g id="cell97">
  <circle cx="350.769" cy="691.536" r="7.7401" stroke-width="0.5" stroke="black" fill="red"/>
  <circle cx="350.769" cy="691.536" r="4.70142" stroke-width="0.5" stroke="black" fill="red"/>
   </g>
   <g id="cell98">
  <circle cx="2284.46" cy="1187.48" r="7.7401" stroke-width="0.5" stroke="black" fill="cyan"/>
  <circle cx="2284.46" cy="1187.48" r="4.70142" stroke-width="0.5" stroke="black" fill="cyan"/>
   </g>
   <g id="cell99">
  <circle cx="316.178" cy="652.396" r="7.7401" stroke-width="0.5" stroke="black" fill="cyan"/>
  <circle cx="316.178" cy="652.396" r="4.70142" stroke-width="0.5" stroke="black" fill="cyan"/>
   </g>
   <g id="cell100">
  <circle cx="637.209" cy="1596.58" r="7.7401" stroke-width="0.5" stroke="black" fill="red"/>
  <circle cx="637.209" cy="1596.58" r="4.70142" stroke-width="0.5" stroke="black" fill="red"/>
   </g>
   <g id="cell101">
  <circle cx="2523.21" cy="2297.11" r="7.7401" stroke-width="0.5" stroke="black" fill="red"/>
  <circle cx="2523.21" cy="2297.11" r="4.70142" stroke-width="0.5" stroke="black" fill="red"/>
   </g>
   <g id="cell102">
  <circle cx="768.181" cy="2570.2" r="7.7401" stroke-width="0.5" stroke="black" fill="red"/>
  <circle cx="768.181" cy="2570.2" r="4.70142" stroke-width="0.5" stroke="black" fill="red"/>
   </g>
   <g id="cell103">
  <circle cx="971.183" cy="2657.1" r="7.7401" stroke-width="0.5" stroke="black" fill="cyan"/>
  <circle cx="971.183" cy="2657.1" r="4.70142" stroke-width="0.5" stroke="black" fill="cyan"/>
   </g>
   <g id="cell104">
  <circle cx="1941.54" cy="1388.48" r="7.7401" stroke-width="0.5" stroke="black" fill="red"/>
  <circle cx="1941.54" cy="1388.48" r="4.70142" stroke-width="0.5" stroke="black" fill="red"/>
   </g>
   <g id="cell105">
  <circle cx="2676.35" cy="2610.21" r="7.7401" stroke-width="0.5" stroke="black" fill="red"/>
  <circle cx="2676.35" cy="2610.21" r="4.70142" stroke-width="0.5" stroke="black" fill="red"/>
   </g>
   <g id="cell106">
  <circle cx="476.522" cy="1102.15" r="7.7401" stroke-width="0.5" stroke="black" fill="red"/>
  <circle cx="476.522" cy="1102.15" r="4.70142" stroke-width="0.5" stroke="black" fill="red"/>
   </g>
   <g id="cell107">
  <circle cx="554.784" cy="1868.42" r="7.7401" stroke-width="0.5" stroke="black" fill="red"/>
  <circle cx="554.784" cy="1868.42" r="4.70142" stroke-width="0.5" stroke="black" fill="red"/>
   </g>
   <g id="cell108">
  <circle cx="1160.2" cy="1780.3" r="7.7401" stroke-width="0.5" stroke="black" fill="red"/>
  <circle cx="1160.2" cy="1780.3" r="4.70142" stroke-width="0.5" stroke="black" fill="red"/>
   </g>
   <g id="cell109">
  <circle cx="1621.58" cy="1713.82" r="8.41271" stroke-width="0.5" stroke="black" fill="cyan"/>
  <circle cx="1621.58" cy="1713.82" r="5.05167" stroke-width="0.5" stroke="black" fill="cyan"/>
   </g>
   <g id="cell110">
  <circle cx="514.219" cy="1847.36" r="7.7401" stroke-width="0.5" stroke="black" fill="red"/>
  <circle cx="514.219" cy="1847.36" r="4.70142" stroke-width="0.5" stroke="black" fill="red"/>
   </g>
   <g id="cell111">
  <circle cx="1676.03" cy="492.041" r="7.7401" stroke-width="0.5" stroke="black" fill="red"/>
  <circle cx="1676.03" cy="492.041" r="4.70142" stroke-width="0.5" stroke="black" fill="red"/>
   </g>
   <g id="cell112">
  <circle cx="352.143" cy="1193.14" r="8.41271" stroke-width="0.5" stroke="black" fill="cyan"/>
  <circle cx="352.143" cy="1193.14" r="5.05167" stroke-width="0.5" stroke="black" fill="cyan"/>
   </g>
   <g id="cell113">
  <circle cx="2307.32" cy="2600.72" r="7.7401" stroke-width="0.5" stroke="black" fill="red"/>
  <circle cx="2307.32" cy="2600.72" r="4.70142" stroke-width="0.5" stroke="black" fill="red"/>
   </g>
   <g id="cell114">
  <circle cx="1343.45" cy="2473.68" r="7.7401" stroke-width="0.5" stroke="black" fill="red"/>
  <circle cx="1343.45" cy="2473.68" r="4.70142" stroke-width="0.5" stroke="black" fill="red"/>
   </g>
   <g id="cell115">
  <circle cx="2162.14" cy="645.277" r="8.41271" stroke-width="0.5" stroke="black" fill="cyan"/>
  <circle cx="2162.14" cy="645.277" r="5.05167" stroke-width="0.5" stroke="black" fill="cyan"/>
   </g>
   <g id="cell116">
  <circle cx="2378.56" cy="2386.09" r="7.7401" stroke-width="0.5" stroke="black" fill="red"/>
  <circle cx="2378.56" cy="2386.09" r="4.70142" stroke-width="0.5" stroke="black" fill="red"/>
   </g>
   <g id="cell117">
  <circle cx="2540.01" cy="966.816" r="7.7401" stroke-width="0.5" stroke="black" fill="red"/>
  <circle cx="2540.01" cy="966.816" r="4.70142" stroke-width="0.5" stroke="black" fill="red"/>
   </g>
   <g id="cell118">
  <circle cx="1973.97" cy="547.971" r="7.7401" stroke-width="0.5" stroke="black" fill="red"/>
  <circle cx="1973.97" cy="547.971" r="4.70142" stroke-width="0.5" stroke="black" fill="red"/>
   </g>
   <g id="cell119">
  <circle cx="1066.53" cy="312.616" r="8.41271" stroke-width="0.5" stroke="black" fill="cyan"/>
  <circle cx="1066.53" cy="312.616" r="5.05167" stroke-width="0.5" stroke="black" fill="cyan"/>
   </g>
   <g id="cell120">
  <circle cx="445.419" cy="2617.21" r="8.41271" stroke-width="0.5" stroke="black" fill="cyan"/>
  <circle cx="445.419" cy="2617.21" r="5.05167" stroke-width="0.5" stroke="black" fill="cyan"/>
   </g>
   <g id="cell121">
  <circle cx="2657.83" cy="1432.53" r="7.7401" stroke-width="0.5" stroke="black" fill="red"/>
  <circle cx="2657.83" cy="1432.53" r="4.70142" stroke-width="0.5" stroke="black" fill="red"/>
   </g>
   <g id="cell122">
  <circle cx="595.136" cy="1169.72" r="7.7401" stroke-width="0.5" stroke="black" fill="red"/>
  <circle cx="595.136" cy="1169.72" r="4.70142" stroke-width="0.5" stroke="black" fill="red"/>
   </g>
   <g id="cell123">
  <circle cx="1178.2" cy="1883.08" r="7.7401" stroke-width="0.5" stroke="black" fill="red"/>
  <circle cx="1178.2" cy="1883.08" r="4.70142" stroke-width="0.5" stroke="black" fill="red"/>
   </g>
   <g id="cell124">
  <circle cx="1901.85" cy="2331.65" r="8.41271" stroke-width="0.5" stroke="black" fill="cyan"/>
  <circle cx="1901.85" cy="2331.65" r="5.05167" stroke-width="0.5" stroke="black" fill="cyan"/>
   </g>
   <g id="cell125">
  <circle cx="626.277" cy="1852.02" r="7.7401" stroke-width="0.5" stroke="black" fill="red"/>
  <circle cx="626.277" cy="1852.02" r="4.70142" stroke-width="0.5" stroke="black" fill="red"/>
   </g>
   <g id="cell126">
  <circle cx="2031.39" cy="2316.11" r="7.7401" stroke-width="0.5" stroke="black" fill="red"/>
  <circle cx="2031.39" cy="2316.11" r="4.70142" stroke-width="0.5" stroke="black" fill="red"/>
   </g>
   <g id="cell127">
  <circle cx="1013.17" cy="1463.54" r="7.7401" stroke-width="0.5" stroke="black" fill="cyan"/>
  <circle cx="1013.17" cy="1463.54" r="4.70142" stroke-width="0.5" stroke="black" fill="cyan"/>
   </g>
   <g id="cell128">
  <circle cx="2260.61" cy="330.287" r="8.41271" stroke-width="0.5" stroke="black" fill="cyan"/>
  <circle cx="2260.61" cy="330.287" r="5.05167" stroke-width="0.5" stroke="black" fill="cyan"/>
   </g>
   <g id="cell129">
  <circle cx="1003.09" cy="940.003" r="7.7401" stroke-width="0.5" stroke="black" fill="cyan"/>
  <circle cx="1003.09" cy="940.003" r="4.70142" stroke-width="0.5" stroke="black" fill="cyan"/>
   </g>
   <g id="cell130">
  <circle cx="532.957" cy="1784.8" r="8.41271" stroke-width="0.5" stroke="black" fill="cyan"/>
  <circle cx="532.957" cy="1784.8" r="5.05167" stroke-width="0.5" stroke="black" fill="cyan"/>
   </g>
   <g id="cell131">
  <circle cx="744.528" cy="1263.16" r="7.7401" stroke-width="0.5" stroke="black" fill="red"/>
  <circle cx="744.528" cy="1263.16" r="4.70142" stroke-width="0.5" stroke="black" fill="red"/>
   </g>
   <g id="cell132">
  <circle cx="2320.2" cy="1919.83" r="7.7401" stroke-width="0.5" stroke="black" fill="red"/>
  <circle cx="2320.2" cy="1919.83" r="4.70142" stroke-width="0.5" stroke="black" fill="red"/>
   </g>
   <g id="cell133">
  <circle cx="2219.31" cy="2212.57" r="7.7401" stroke-width="0.5" stroke="black" fill="cyan"/>
  <circle cx="2219.31" cy="2212.57" r="4.70142" stroke-width="0.5" stroke="black" fill="cyan"/>
   </g>
   <g id="cell134">
  <circle cx="533.605" cy="2623.08" r="8.41271" stroke-width="0.5" stroke="black" fill="cyan"/>
  <circle cx="533.605" cy="2623.08" r="5.05167" stroke-width="0.5" stroke="black" fill="cyan"/>
   </g>
   <g id="cell135">
  <circle cx="2635.74" cy="2401.84" r="7.7401" stroke-width="0.5" stroke="black" fill="red"/>
  <circle cx="2635.74" cy="2401.84" r="4.70142" stroke-width="0.5" stroke="black" fill="red"/>
   </g>
   <g id="cell136">
  <circle cx="1433.56" cy="1519" r="7.7401" stroke-width="0.5" stroke="black" fill="red"/>
  <circle cx="1433.56" cy="1519" r="4.70142" stroke-width="0.5" stroke="black" fill="red"/>
   </g>
   <g id="cell137">
  <circle cx="2653.18" cy="429.263" r="7.7401" stroke-width="0.5" stroke="black" fill="red"/>
  <circle cx="2653.18" cy="429.263" r="4.70142" stroke-width="0.5" stroke="black" fill="red"/>
   </g>
   <g id="cell138">
  <circle cx="1398.77" cy="1550.52" r="7.7401" stroke-width="0.5" stroke="black" fill="cyan"/>
  <circle cx="1398.77" cy="1550.52" r="4.70142" stroke-width="0.5" stroke="black" fill="cyan"/>
   </g>
   <g id="cell139">
  <circle cx="1761.62" cy="1383.68" r="7.7401" stroke-width="0.5" stroke="black" fill="red"/>
  <circle cx="1761.62" cy="1383.68" r="4.70142" stroke-width="0.5" stroke="black" fill="red"/>
   </g>
   <g id="cell140">
  <circle cx="2179.97" cy="1936.33" r="7.7401" stroke-width="0.5" stroke="black" fill="red"/>
  <circle cx="2179.97" cy="1936.33" r="4.70142" stroke-width="0.5" stroke="black" fill="red"/>
   </g>
   <g id="cell141">
  <circle cx="1908.17" cy="1873.12" r="7.7401" stroke-width="0.5" stroke="black" fill="red"/>
  <circle cx="1908.17" cy="1873.12" r="4.70142" stroke-width="0.5" stroke="black" fill="red"/>
   </g>
   <g id="cell142">
  <circle cx="2064.89" cy="344.299" r="7.7401" stroke-width="0.5" stroke="black" fill="red"/>
  <circle cx="2064.89" cy="344.299" r="4.70142" stroke-width="0.5" stroke="black" fill="red"/>
   </g>
   <g id="cell143">
  <circle cx="794.929" cy="1831.72" r="7.7401" stroke-width="0.5" stroke="black" fill="red"/>
  <circle cx="794.929" cy="1831.72" r="4.70142" stroke-width="0.5" stroke="black" fill="red"/>
   </g>
   <g id="cell144">
  <circle cx="1905.76" cy="701.242" r="7.7401" stroke-width="0.5" stroke="black" fill="red"/>
  <circle cx="1905.76" cy="701.242" r="4.70142" stroke-width="0.5" stroke="black" fill="red"/>
   </g>
   <g id="cell145">
  <circle cx="808.562" cy="1168.56" r="7.7401" stroke-width="0.5" stroke="black" fill="red"/>
  <circle cx="808.562" cy="1168.56" r="4.70142" stroke-width="0.5" stroke="black" fill="red"/>
   </g>
   <g id="cell146">
  <circle cx="599.736" cy="2102.22" r="7.7401" stroke-width="0.5" stroke="black" fill="red"/>
  <circle cx="599.736" cy="2102.22" r="4.70142" stroke-width="0.5" stroke="black" fill="red"/>
   </g>
   <g id="cell147">
  <circle cx="1714.84" cy="1620.28" r="7.7401" stroke-width="0.5" stroke="black" fill="red"/>
  <circle cx="1714.84" cy="1620.28" r="4.70142" stroke-width="0.5" stroke="black" fill="red"/>
   </g>
   <g id="cell148">
  <circle cx="1058.7" cy="1749.23" r="7.7401" stroke-width="0.5" stroke="black" fill="red"/>
  <circle cx="1058.7" cy="1749.23" r="4.70142" stroke-width="0.5" stroke="black" fill="red"/>
   </g>
   <g id="cell149">
  <circle cx="1182.08" cy="1081.45" r="7.7401" stroke-width="0.5" stroke="black" fill="cyan"/>
  <circle cx="1182.08" cy="1081.45" r="4.70142" stroke-width="0.5" stroke="black" fill="cyan"/>
   </g>
   <g id="cell150">
  <circle cx="1674.98" cy="399.731" r="8.41271" stroke-width="0.5" stroke="black" fill="cyan"/>
  <circle cx="1674.98" cy="399.731" r="5.05167" stroke-width="0.5" stroke="black" fill="cyan"/>
   </g>
   <g id="cell151">
  <circle cx="1344.6" cy="1827.68" r="7.7401" stroke-width="0.5" stroke="black" fill="red"/>
  <circle cx="1344.6" cy="1827.68" r="4.70142" stroke-width="0.5" stroke="black" fill="red"/>
   </g>
   <g id="cell152">
  <circle cx="343.382" cy="704.247" r="7.7401" stroke-width="0.5" stroke="black" fill="red"/>
  <circle cx="343.382" cy="704.247" r="4.70142" stroke-width="0.5" stroke="black" fill="red"/>
   </g>
   <g id="cell153">
  <circle cx="583.268" cy="1943.23" r="7.7401" stroke-width="0.5" stroke="black" fill="red"/>
  <circle cx="583.268" cy="1943.23" r="4.70142" stroke-width="0.5" stroke="black" fill="red"/>
   </g>
   <g id="cell154">
  <circle cx="2299.16" cy="1187.65" r="7.7401" stroke-width="0.5" stroke="black" fill="cyan"/>
  <circle cx="2299.16" cy="1187.65" r="4.70142" stroke-width="0.5" stroke="black" fill="cyan"/>
   </g>
   <g id="cell155">
  <circle cx="301.737" cy="649.644" r="7.7401" stroke-width="0.5" stroke="black" fill="cyan"/>
  <circle cx="301.737" cy="649.644" r="4.70142" stroke-width="0.5" stroke="black" fill="cyan"/>
   </g>
   <g id="cell156">
  <circle cx="1053.13" cy="2412.91" r="7.7401" stroke-width="0.5" stroke="black" fill="red"/>
  <circle cx="1053.13" cy="2412.91" r="4.70142" stroke-width="0.5" stroke="black" fill="red"/>
   </g>
   <g id="cell157">
  <circle cx="2022.84" cy="2328.03" r="7.7401" stroke-width="0.5" stroke="black" fill="red"/>
  <circle cx="2022.84" cy="2328.03" r="4.70142" stroke-width="0.5" stroke="black" fill="red"/>
   </g>
   <g id="cell158">
  <circle cx="1296.01" cy="2494.23" r="7.7401" stroke-width="0.5" stroke="black" fill="red"/>
  <circle cx="1296.01" cy="2494.23" r="4.70142" stroke-width="0.5" stroke="black" fill="red"/>
   </g>
   <g id="cell159">
  <circle cx="455.297" cy="810.762" r="7.7401" stroke-width="0.5" stroke="black" fill="cyan"/>
  <circle cx="455.297" cy="810.762" r="4.70142" stroke-width="0.5" stroke="black" fill="cyan"/>
   </g>
   <g id="cell160">
  <circle cx="1957.78" cy="1665.22" r="7.7401" stroke-width="0.5" stroke="black" fill="cyan"/>
  <circle cx="1957.78" cy="1665.22" r="4.70142" stroke-width="0.5" stroke="black" fill="cyan"/>
   </g>
   <g id="cell161">
  <circle cx="1668.54" cy="2371.94" r="7.7401" stroke-width="0.5" stroke="black" fill="cyan"/>
  <circle cx="1668.54" cy="2371.94" r="4.70142" stroke-width="0.5" stroke="black" fill="cyan"/>
   </g>
   <g id="cell162">
  <circle cx="1735.56" cy="2360.95" r="7.7401" stroke-width="0.5" stroke="black" fill="red"/>
  <circle cx="1735.56" cy="2360.95" r="4.70142" stroke-width="0.5" stroke="black" fill="red"/>
   </g>
   <g id="cell163">
  <circle cx="941.91" cy="1529.86" r="7.7401" stroke-width="0.5" stroke="black" fill="red"/>
  <circle cx="941.91" cy="1529.86" r="4.70142" stroke-width="0.5" stroke="black" fill="red"/>
   </g>
   <g id="cell164">
  <circle cx="576.899" cy="2022.29" r="7.7401" stroke-width="0.5" stroke="black" fill="red"/>
  <circle cx="576.899" cy="2022.29" r="4.70142" stroke-width="0.5" stroke="black" fill="red"/>
   </g>
   <g id="cell165">
  <circle cx="403.509" cy="1362.26" r="7.7401" stroke-width="0.5" stroke="black" fill="red"/>
  <circle cx="403.509" cy="1362.26" r="4.70142" stroke-width="0.5" stroke="black" fill="red"/>
   </g>
   <g id="cell166">
  <circle cx="1828.85" cy="1703.64" r="7.7401" stroke-width="0.5" stroke="black" fill="red"/>
  <circle cx="1828.85" cy="1703.64" r="4.70142" stroke-width="0.5" stroke="black" fill="red"/>
   </g>
   <g id="cell167">
  <circle cx="690.266" cy="2697.91" r="7.7401" stroke-width="0.5" stroke="black" fill="red"/>
  <circle cx="690.266" cy="2697.91" r="4.70142" stroke-width="0.5" stroke="black" fill="red"/>
   </g>
   <g id="cell168">
  <circle cx="1872.85" cy="1704.51" r="7.7401" stroke-width="0.5" stroke="black" fill="red"/>
  <circle cx="1872.85" cy="1704.51" r="4.70142" stroke-width="0.5" stroke="black" fill="red"/>
   </g>
   <g id="cell169">
  <circle cx="900.484" cy="1287.24" r="8.41271" stroke-width="0.5" stroke="black" fill="cyan"/>
  <circle cx="900.484" cy="1287.24" r="5.05167" stroke-width="0.5" stroke="black" fill="cyan"/>
   </g>
   <g id="cell170">
  <circle cx="2562.62" cy="2112.13" r="7.7401" stroke-width="0.5" stroke="black" fill="cyan"/>
  <circle cx="2562.62" cy="2112.13" r="4.70142" stroke-width="0.5" stroke="black" fill="cyan"/>
   </g>
   <g id="cell171">
  <circle cx="1429.15" cy="1438.52" r="8.41271" stroke-width="0.5" stroke="black" fill="cyan"/>
  <circle cx="1429.15" cy="1438.52" r="5.05167" stroke-width="0.5" stroke="black" fill="cyan"/>
   </g>
   <g id="cell172">
  <circle cx="895.939" cy="1793.71" r="7.7401" stroke-width="0.5" stroke="black" fill="red"/>
  <circle cx="895.939" cy="1793.71" r="4.70142" stroke-width="0.5" stroke="black" fill="red"/>
   </g>
   <g id="cell173">
  <circle cx="672.219" cy="1108.47" r="7.7401" stroke-width="0.5" stroke="black" fill="red"/>
  <circle cx="672.219" cy="1108.47" r="4.70142" stroke-width="0.5" stroke="black" fill="red"/>
   </g>
   <g id="cell174">
  <circle cx="574.781" cy="1918.92" r="7.7401" stroke-width="0.5" stroke="black" fill="cyan"/>
  <circle cx="574.781" cy="1918.92" r="4.70142" stroke-width="0.5" stroke="black" fill="cyan"/>
   </g>
   <g id="cell175">
  <circle cx="1552.12" cy="563.877" r="7.7401" stroke-width="0.5" stroke="black" fill="red"/>
  <circle cx="1552.12" cy="563.877" r="4.70142" stroke-width="0.5" stroke="black" fill="red"/>
   </g>
   <g id="cell176">
  <circle cx="1865.54" cy="1058.55" r="7.7401" stroke-width="0.5" stroke="black" fill="red"/>
  <circle cx="1865.54" cy="1058.55" r="4.70142" stroke-width="0.5" stroke="black" fill="red"/>
   </g>
   <g id="cell177">
  <circle cx="1285.11" cy="1434.77" r="8.41271" stroke-width="0.5" stroke="black" fill="cyan"/>
  <circle cx="1285.11" cy="1434.77" r="5.05167" stroke-width="0.5" stroke="black" fill="cyan"/>
   </g>
   <g id="cell178">
  <circle cx="625.508" cy="2160.51" r="7.7401" stroke-width="0.5" stroke="black" fill="red"/>
  <circle cx="625.508" cy="2160.51" r="4.70142" stroke-width="0.5" stroke="black" fill="red"/>
   </g>
   <g id="cell179">
  <circle cx="1599.84" cy="2327.73" r="7.7401" stroke-width="0.5" stroke="black" fill="red"/>
  <circle cx="1599.84" cy="2327.73" r="4.70142" stroke-width="0.5" stroke="black" fill="red"/>
   </g>
   <g id="cell180">
  <circle cx="925.746" cy="750.339" r="7.7401" stroke-width="0.5" stroke="black" fill="red"/>
  <circle cx="925.746" cy="750.339" r="4.70142" stroke-width="0.5" stroke="black" fill="red"/>
   </g>
   <g id="cell181">
  <circle cx="2153.67" cy="2077.16" r="7.7401" stroke-width="0.5" stroke="black" fill="red"/>
  <circle cx="2153.67" cy="2077.16" r="4.70142" stroke-width="0.5" stroke="black" fill="red"/>
   </g>
   <g id="cell182">
  <circle cx="1404.41" cy="820.732" r="7.7401" stroke-width="0.5" stroke="black" fill="red"/>
  <circle cx="1404.41" cy="820.732" r="4.70142" stroke-width="0.5" stroke="black" fill="red"/>
   </g>
   <g id="cell183">
  <circle cx="1547.24" cy="2504.68" r="7.7401" stroke-width="0.5" stroke="black" fill="red"/>
  <circle cx="1547.24" cy="2504.68" r="4.70142" stroke-width="0.5" stroke="black" fill="red"/>
   </g>
   <g id="cell184">
  <circle cx="1309.54" cy="1803.02" r="7.7401" stroke-width="0.5" stroke="black" fill="red"/>
  <circle cx="1309.54" cy="1803.02" r="4.70142" stroke-width="0.5" stroke="black" fill="red"/>
   </g>
   <g id="cell185">
  <circle cx="1657.2" cy="631.203" r="7.7401" stroke-width="0.5" stroke="black" fill="red"/>
  <circle cx="1657.2" cy="631.203" r="4.70142" stroke-width="0.5" stroke="black" fill="red"/>
   </g>
   <g id="cell186">
  <circle cx="1843.72" cy="1229.79" r="7.7401" stroke-width="0.5" stroke="black" fill="red"/>
  <circle cx="1843.72" cy="1229.79" r="4.70142" stroke-width="0.5" stroke="black" fill="red"/>
   </g>
   <g id="cell187">
  <circle cx="1347.68" cy="1024.29" r="7.7401" stroke-width="0.5" stroke="black" fill="red"/>
  <circle cx="1347.68" cy="1024.29" r="4.70142" stroke-width="0.5" stroke="black" fill="red"/>
   </g>
   <g id="cell188">
  <circle cx="347.541" cy="1069.69" r="7.7401" stroke-width="0.5" stroke="black" fill="red"/>
  <circle cx="347.541" cy="1069.69" r="4.70142" stroke-width="0.5" stroke="black" fill="red"/>
   </g>
   <g id="cell189">
  <circle cx="520.062" cy="2519.24" r="8.41271" stroke-width="0.5" stroke="black" fill="cyan"/>
  <circle cx="520.062" cy="2519.24" r="5.05167" stroke-width="0.5" stroke="black" fill="cyan"/>
   </g>
   <g id="cell190">
  <circle cx="2432.73" cy="442.24" r="7.7401" stroke-width="0.5" stroke="black" fill="red"/>
  <circle cx="2432.73" cy="442.24" r="4.70142" stroke-width="0.5" stroke="black" fill="red"/>
   </g>
   <g id="cell191">
  <circle cx="1775.38" cy="651.979" r="8.41271" stroke-width="0.5" stroke="black" fill="cyan"/>
  <circle cx="1775.38" cy="651.979" r="5.05167" stroke-width="0.5" stroke="black" fill="cyan"/>
   </g>
   <g id="cell192">
  <circle cx="2618.39" cy="962.501" r="7.7401" stroke-width="0.5" stroke="black" fill="red"/>
  <circle cx="2618.39" cy="962.501" r="4.70142" stroke-width="0.5" stroke="black" fill="red"/>
   </g>
   <g id="cell193">
  <circle cx="1764.85" cy="843.449" r="7.7401" stroke-width="0.5" stroke="black" fill="cyan"/>
  <circle cx="1764.85" cy="843.449" r="4.70142" stroke-width="0.5" stroke="black" fill="cyan"/>
   </g>
   <g id="cell194">
  <circle cx="1229.89" cy="1445.17" r="7.7401" stroke-width="0.5" stroke="black" fill="red"/>
  <circle cx="1229.89" cy="1445.17" r="4.70142" stroke-width="0.5" stroke="black" fill="red"/>
   </g>
   <g id="cell195">
  <circle cx="2200.29" cy="2258.91" r="7.7401" stroke-width="0.5" stroke="black" fill="red"/>
  <circle cx="2200.29" cy="2258.91" r="4.70142" stroke-width="0.5" stroke="black" fill="red"/>
   </g>
   <g id="cell196">
  <circle cx="1786.24" cy="1235.5" r="7.7401" stroke-width="0.5" stroke="black" fill="cyan"/>
  <circle cx="1786.24" cy="1235.5" r="4.70142" stroke-width="0.5" stroke="black" fill="cyan"/>
   </g>
   <g id="cell197">
  <circle cx="1578.05" cy="1456.24" r="7.7401" stroke-width="0.5" stroke="black" fill="red"/>
  <circle cx="1578.05" cy="1456.24" r="4.70142" stroke-width="0.5" stroke="black" fill="red"/>
   </g>
   <g id="cell198">
  <circle cx="2555.38" cy="2467.51" r="7.7401" stroke-width="0.5" stroke="black" fill="red"/>
  <circle cx="2555.38" cy="2467.51" r="4.70142" stroke-width="0.5" stroke="black" fill="red"/>
   </g>
   <g id="cell199">
  <circle cx="1666.31" cy="1252.26" r="7.7401" stroke-width="0.5" stroke="black" fill="red"/>
  <circle cx="1666.31" cy="1252.26" r="4.70142" stroke-width="0.5" stroke="black" fill="red"/>
   </g>
  </g>
 </g>
  <rect x="2725" y="3105" width="200" height="30" stroke-width="6" stroke="rgb(255,255,255)" fill="rgb(0,0,0)"/>
  <text x="2743.75" y="3086.25"
   font-family="Arial" font-size="75" fill="black" >
   200 &#956;m
  </text>
  <text x="75" y="3135"
   font-family="Arial" font-size="56.25" fill="black" >
   0 days, 0 hours, 0 minutes, and 9.0430 seconds
  </text>
  <rect x="0" y="210" width="3000" height="3000" stroke-width="6" stroke="rgb(0,0,0)" fill="none"/>
</svg>
