<?xml version="1.0" encoding="UTF-8" standalone="no"?>
<!-- Created with PhysiCell (http://PhysiCell.MathCancer.org/) -->
<svg 
 xmlns:dc="http://purl.org/dc/elements/1.1/" 
 xmlns:cc="http://creativecommons.org/ns#" 
 xmlns:rdf="http://www.w3.org/1999/02/22-rdf-syntax-ns#" 
 xmlns:svg="http://www.w3.org/2000/svg" 
 xmlns="http://www.w3.org/2000/svg" 
 version="1.1" 
 width="3000" 
 height="3210" 
 id="svg2">
  <rect x="0" y="0" width="3000" height="3210" stroke-width="6" stroke="white" fill="white"/>
  <text x="37.5" y="90"
   font-family="Arial" font-size="75" fill="black" >
   Current time: 0 days, 0 hours, and 0.00 minutes, z = 0.00 &#956;m
  </text>
  <text x="37.5" y="172.5"
   font-family="Arial" font-size="71.25" fill="black" >
   100 agents
  </text>
 <g id="tissue" 
    transform="translate(0,3210) scale(1,-1)">
  <g id="ECM">
  </g>
  <g id="cells">
   <g id="cell0">
  <circle cx="1617.15" cy="1722.83" r="8.41271" stroke-width="0.5" stroke="black" fill="red"/>
  <circle cx="1617.15" cy="1722.83" r="5.05167" stroke-width="0.5" stroke="black" fill="red"/>
   </g>
   <g id="cell1">
  <circle cx="2016.45" cy="2326.24" r="8.41271" stroke-width="0.5" stroke="black" fill="red"/>
  <circle cx="2016.45" cy="2326.24" r="5.05167" stroke-width="0.5" stroke="black" fill="red"/>
   </g>
   <g id="cell2">
  <circle cx="1746.63" cy="2359.07" r="8.41271" stroke-width="0.5" stroke="black" fill="red"/>
  <circle cx="1746.63" cy="2359.07" r="5.05167" stroke-width="0.5" stroke="black" fill="red"/>
   </g>
   <g id="cell3">
  <circle cx="1607.72" cy="2333.4" r="8.41271" stroke-width="0.5" stroke="black" fill="red"/>
  <circle cx="1607.72" cy="2333.4" r="5.05167" stroke-width="0.5" stroke="black" fill="red"/>
   </g>
   <g id="cell4">
  <circle cx="1316.77" cy="1796.55" r="8.41271" stroke-width="0.5" stroke="black" fill="red"/>
  <circle cx="1316.77" cy="1796.55" r="5.05167" stroke-width="0.5" stroke="black" fill="red"/>
   </g>
   <g id="cell5">
  <circle cx="1850.15" cy="1222.52" r="8.41271" stroke-width="0.5" stroke="black" fill="red"/>
  <circle cx="1850.15" cy="1222.52" r="5.05167" stroke-width="0.5" stroke="black" fill="red"/>
   </g>
   <g id="cell6">
  <circle cx="1350.21" cy="1014.08" r="8.41271" stroke-width="0.5" stroke="black" fill="red"/>
  <circle cx="1350.21" cy="1014.08" r="5.05167" stroke-width="0.5" stroke="black" fill="red"/>
   </g>
   <g id="cell7">
  <circle cx="2440.26" cy="436.111" r="8.41271" stroke-width="0.5" stroke="black" fill="red"/>
  <circle cx="2440.26" cy="436.111" r="5.05167" stroke-width="0.5" stroke="black" fill="red"/>
   </g>
   <g id="cell8">
  <circle cx="2612.79" cy="954.375" r="8.41271" stroke-width="0.5" stroke="black" fill="red"/>
  <circle cx="2612.79" cy="954.375" r="5.05167" stroke-width="0.5" stroke="black" fill="red"/>
   </g>
   <g id="cell9">
  <circle cx="1220.26" cy="1446.4" r="8.41271" stroke-width="0.5" stroke="black" fill="red"/>
  <circle cx="1220.26" cy="1446.4" r="5.05167" stroke-width="0.5" stroke="black" fill="red"/>
   </g>
   <g id="cell10">
  <circle cx="2200.14" cy="2249.2" r="8.41271" stroke-width="0.5" stroke="black" fill="red"/>
  <circle cx="2200.14" cy="2249.2" r="5.05167" stroke-width="0.5" stroke="black" fill="red"/>
   </g>
   <g id="cell11">
  <circle cx="1569.35" cy="1451.95" r="8.41271" stroke-width="0.5" stroke="black" fill="red"/>
  <circle cx="1569.35" cy="1451.95" r="5.05167" stroke-width="0.5" stroke="black" fill="red"/>
   </g>
   <g id="cell12">
  <circle cx="1663.31" cy="1242.68" r="8.41271" stroke-width="0.5" stroke="black" fill="red"/>
  <circle cx="1663.31" cy="1242.68" r="5.05167" stroke-width="0.5" stroke="black" fill="red"/>
   </g>
   <g id="cell13">
  <circle cx="2521.43" cy="2306.59" r="8.41271" stroke-width="0.5" stroke="black" fill="red"/>
  <circle cx="2521.43" cy="2306.59" r="5.05167" stroke-width="0.5" stroke="black" fill="red"/>
   </g>
   <g id="cell14">
  <circle cx="470.487" cy="1109.75" r="8.41271" stroke-width="0.5" stroke="black" fill="red"/>
  <circle cx="470.487" cy="1109.75" r="5.05167" stroke-width="0.5" stroke="black" fill="red"/>
   </g>
   <g id="cell15">
  <circle cx="509.11" cy="1855.61" r="8.41271" stroke-width="0.5" stroke="black" fill="red"/>
  <circle cx="509.11" cy="1855.61" r="5.05167" stroke-width="0.5" stroke="black" fill="red"/>
   </g>
   <g id="cell16">
  <circle cx="348.524" cy="1183.78" r="8.41271" stroke-width="0.5" stroke="black" fill="red"/>
  <circle cx="348.524" cy="1183.78" r="5.05167" stroke-width="0.5" stroke="black" fill="red"/>
   </g>
   <g id="cell17">
  <circle cx="2298.29" cy="2597.17" r="8.41271" stroke-width="0.5" stroke="black" fill="red"/>
  <circle cx="2298.29" cy="2597.17" r="5.05167" stroke-width="0.5" stroke="black" fill="red"/>
   </g>
   <g id="cell18">
  <circle cx="2167.58" cy="636.842" r="8.41271" stroke-width="0.5" stroke="black" fill="red"/>
  <circle cx="2167.58" cy="636.842" r="5.05167" stroke-width="0.5" stroke="black" fill="red"/>
   </g>
   <g id="cell19">
  <circle cx="2388.03" cy="2388.21" r="8.41271" stroke-width="0.5" stroke="black" fill="red"/>
  <circle cx="2388.03" cy="2388.21" r="5.05167" stroke-width="0.5" stroke="black" fill="red"/>
   </g>
   <g id="cell20">
  <circle cx="2648.68" cy="1436.66" r="8.41271" stroke-width="0.5" stroke="black" fill="red"/>
  <circle cx="2648.68" cy="1436.66" r="5.05167" stroke-width="0.5" stroke="black" fill="red"/>
   </g>
   <g id="cell21">
  <circle cx="2217.98" cy="2222.19" r="8.41271" stroke-width="0.5" stroke="black" fill="red"/>
  <circle cx="2217.98" cy="2222.19" r="5.05167" stroke-width="0.5" stroke="black" fill="red"/>
   </g>
   <g id="cell22">
  <circle cx="1407.55" cy="1549.15" r="8.41271" stroke-width="0.5" stroke="black" fill="red"/>
  <circle cx="1407.55" cy="1549.15" r="5.05167" stroke-width="0.5" stroke="black" fill="red"/>
   </g>
   <g id="cell23">
  <circle cx="2173.27" cy="1929.31" r="8.41271" stroke-width="0.5" stroke="black" fill="red"/>
  <circle cx="2173.27" cy="1929.31" r="5.05167" stroke-width="0.5" stroke="black" fill="red"/>
   </g>
   <g id="cell24">
  <circle cx="583.859" cy="2029.52" r="8.41271" stroke-width="0.5" stroke="black" fill="red"/>
  <circle cx="583.859" cy="2029.52" r="5.05167" stroke-width="0.5" stroke="black" fill="red"/>
   </g>
   <g id="cell25">
  <circle cx="1835.81" cy="1696.85" r="8.41271" stroke-width="0.5" stroke="black" fill="red"/>
  <circle cx="1835.81" cy="1696.85" r="5.05167" stroke-width="0.5" stroke="black" fill="red"/>
   </g>
   <g id="cell26">
  <circle cx="644.048" cy="1589.7" r="8.41271" stroke-width="0.5" stroke="black" fill="red"/>
  <circle cx="644.048" cy="1589.7" r="5.05167" stroke-width="0.5" stroke="black" fill="red"/>
   </g>
   <g id="cell27">
  <circle cx="2567.21" cy="2120.68" r="8.41271" stroke-width="0.5" stroke="black" fill="red"/>
  <circle cx="2567.21" cy="2120.68" r="5.05167" stroke-width="0.5" stroke="black" fill="red"/>
   </g>
   <g id="cell28">
  <circle cx="1552.44" cy="554.178" r="8.41271" stroke-width="0.5" stroke="black" fill="red"/>
  <circle cx="1552.44" cy="554.178" r="5.05167" stroke-width="0.5" stroke="black" fill="red"/>
   </g>
   <g id="cell29">
  <circle cx="1295.19" cy="1436.64" r="8.41271" stroke-width="0.5" stroke="black" fill="red"/>
  <circle cx="1295.19" cy="1436.64" r="5.05167" stroke-width="0.5" stroke="black" fill="red"/>
   </g>
   <g id="cell30">
  <circle cx="934.933" cy="747.198" r="8.41271" stroke-width="0.5" stroke="black" fill="red"/>
  <circle cx="934.933" cy="747.198" r="5.05167" stroke-width="0.5" stroke="black" fill="red"/>
   </g>
   <g id="cell31">
  <circle cx="2158.16" cy="2068.6" r="8.41271" stroke-width="0.5" stroke="black" fill="red"/>
  <circle cx="2158.16" cy="2068.6" r="5.05167" stroke-width="0.5" stroke="black" fill="red"/>
   </g>
   <g id="cell32">
  <circle cx="1394.76" cy="819.721" r="8.41271" stroke-width="0.5" stroke="black" fill="red"/>
  <circle cx="1394.76" cy="819.721" r="5.05167" stroke-width="0.5" stroke="black" fill="red"/>
   </g>
   <g id="cell33">
  <circle cx="1664.24" cy="624.524" r="8.41271" stroke-width="0.5" stroke="black" fill="red"/>
  <circle cx="1664.24" cy="624.524" r="5.05167" stroke-width="0.5" stroke="black" fill="red"/>
   </g>
   <g id="cell34">
  <circle cx="345.096" cy="1077.94" r="8.41271" stroke-width="0.5" stroke="black" fill="red"/>
  <circle cx="345.096" cy="1077.94" r="5.05167" stroke-width="0.5" stroke="black" fill="red"/>
   </g>
   <g id="cell35">
  <circle cx="1782.33" cy="659.22" r="8.41271" stroke-width="0.5" stroke="black" fill="red"/>
  <circle cx="1782.33" cy="659.22" r="5.05167" stroke-width="0.5" stroke="black" fill="red"/>
   </g>
   <g id="cell36">
  <circle cx="1769.03" cy="833.571" r="8.41271" stroke-width="0.5" stroke="black" fill="red"/>
  <circle cx="1769.03" cy="833.571" r="5.05167" stroke-width="0.5" stroke="black" fill="red"/>
   </g>
   <g id="cell37">
  <circle cx="1780.64" cy="1227.57" r="8.41271" stroke-width="0.5" stroke="black" fill="red"/>
  <circle cx="1780.64" cy="1227.57" r="5.05167" stroke-width="0.5" stroke="black" fill="red"/>
   </g>
   <g id="cell38">
  <circle cx="2565" cy="2466.24" r="8.41271" stroke-width="0.5" stroke="black" fill="red"/>
  <circle cx="2565" cy="2466.24" r="5.05167" stroke-width="0.5" stroke="black" fill="red"/>
   </g>
   <g id="cell39">
  <circle cx="1936.37" cy="1379.88" r="8.41271" stroke-width="0.5" stroke="black" fill="red"/>
  <circle cx="1936.37" cy="1379.88" r="5.05167" stroke-width="0.5" stroke="black" fill="red"/>
   </g>
   <g id="cell40">
  <circle cx="1162.82" cy="1771.35" r="8.41271" stroke-width="0.5" stroke="black" fill="red"/>
  <circle cx="1162.82" cy="1771.35" r="5.05167" stroke-width="0.5" stroke="black" fill="red"/>
   </g>
   <g id="cell41">
  <circle cx="1348.88" cy="2465.64" r="8.41271" stroke-width="0.5" stroke="black" fill="red"/>
  <circle cx="1348.88" cy="2465.64" r="5.05167" stroke-width="0.5" stroke="black" fill="red"/>
   </g>
   <g id="cell42">
  <circle cx="1974.31" cy="538.273" r="8.41271" stroke-width="0.5" stroke="black" fill="red"/>
  <circle cx="1974.31" cy="538.273" r="5.05167" stroke-width="0.5" stroke="black" fill="red"/>
   </g>
   <g id="cell43">
  <circle cx="444.541" cy="2627.54" r="8.41271" stroke-width="0.5" stroke="black" fill="red"/>
  <circle cx="444.541" cy="2627.54" r="5.05167" stroke-width="0.5" stroke="black" fill="red"/>
   </g>
   <g id="cell44">
  <circle cx="1900.24" cy="1867.54" r="8.41271" stroke-width="0.5" stroke="black" fill="red"/>
  <circle cx="1900.24" cy="1867.54" r="5.05167" stroke-width="0.5" stroke="black" fill="red"/>
   </g>
   <g id="cell45">
  <circle cx="1909.53" cy="710.183" r="8.41271" stroke-width="0.5" stroke="black" fill="red"/>
  <circle cx="1909.53" cy="710.183" r="5.05167" stroke-width="0.5" stroke="black" fill="red"/>
   </g>
   <g id="cell46">
  <circle cx="804.918" cy="1159.57" r="8.41271" stroke-width="0.5" stroke="black" fill="red"/>
  <circle cx="804.918" cy="1159.57" r="5.05167" stroke-width="0.5" stroke="black" fill="red"/>
   </g>
   <g id="cell47">
  <circle cx="609.423" cy="2101.65" r="8.41271" stroke-width="0.5" stroke="black" fill="red"/>
  <circle cx="609.423" cy="2101.65" r="5.05167" stroke-width="0.5" stroke="black" fill="red"/>
   </g>
   <g id="cell48">
  <circle cx="1057.03" cy="1758.79" r="8.41271" stroke-width="0.5" stroke="black" fill="red"/>
  <circle cx="1057.03" cy="1758.79" r="5.05167" stroke-width="0.5" stroke="black" fill="red"/>
   </g>
   <g id="cell49">
  <circle cx="1172.91" cy="1080.11" r="8.41271" stroke-width="0.5" stroke="black" fill="red"/>
  <circle cx="1172.91" cy="1080.11" r="5.05167" stroke-width="0.5" stroke="black" fill="red"/>
   </g>
   <g id="cell50">
  <circle cx="1668.47" cy="392.221" r="8.41271" stroke-width="0.5" stroke="black" fill="red"/>
  <circle cx="1668.47" cy="392.221" r="5.05167" stroke-width="0.5" stroke="black" fill="red"/>
   </g>
   <g id="cell51">
  <circle cx="1352.64" cy="1822.26" r="8.41271" stroke-width="0.5" stroke="black" fill="red"/>
  <circle cx="1352.64" cy="1822.26" r="5.05167" stroke-width="0.5" stroke="black" fill="red"/>
   </g>
   <g id="cell52">
  <circle cx="2672.1" cy="2601.48" r="8.41271" stroke-width="0.5" stroke="black" fill="red"/>
  <circle cx="2672.1" cy="2601.48" r="5.05167" stroke-width="0.5" stroke="black" fill="red"/>
   </g>
   <g id="cell53">
  <circle cx="544.908" cy="1866.7" r="8.41271" stroke-width="0.5" stroke="black" fill="red"/>
  <circle cx="544.908" cy="1866.7" r="5.05167" stroke-width="0.5" stroke="black" fill="red"/>
   </g>
   <g id="cell54">
  <circle cx="801.304" cy="1824.14" r="8.41271" stroke-width="0.5" stroke="black" fill="red"/>
  <circle cx="801.304" cy="1824.14" r="5.05167" stroke-width="0.5" stroke="black" fill="red"/>
   </g>
   <g id="cell55">
  <circle cx="687.143" cy="2688.72" r="8.41271" stroke-width="0.5" stroke="black" fill="red"/>
  <circle cx="687.143" cy="2688.72" r="5.05167" stroke-width="0.5" stroke="black" fill="red"/>
   </g>
   <g id="cell56">
  <circle cx="1867.46" cy="1696.44" r="8.41271" stroke-width="0.5" stroke="black" fill="red"/>
  <circle cx="1867.46" cy="1696.44" r="5.05167" stroke-width="0.5" stroke="black" fill="red"/>
   </g>
   <g id="cell57">
  <circle cx="907.9" cy="1294.48" r="8.41271" stroke-width="0.5" stroke="black" fill="red"/>
  <circle cx="907.9" cy="1294.48" r="5.05167" stroke-width="0.5" stroke="black" fill="red"/>
   </g>
   <g id="cell58">
  <circle cx="1419.15" cy="1439.27" r="8.41271" stroke-width="0.5" stroke="black" fill="red"/>
  <circle cx="1419.15" cy="1439.27" r="5.05167" stroke-width="0.5" stroke="black" fill="red"/>
   </g>
   <g id="cell59">
  <circle cx="886.621" cy="1796.42" r="8.41271" stroke-width="0.5" stroke="black" fill="red"/>
  <circle cx="886.621" cy="1796.42" r="5.05167" stroke-width="0.5" stroke="black" fill="red"/>
   </g>
   <g id="cell60">
  <circle cx="681.527" cy="1111.22" r="8.41271" stroke-width="0.5" stroke="black" fill="red"/>
  <circle cx="681.527" cy="1111.22" r="5.05167" stroke-width="0.5" stroke="black" fill="red"/>
   </g>
   <g id="cell61">
  <circle cx="564.9" cy="1919.41" r="8.41271" stroke-width="0.5" stroke="black" fill="red"/>
  <circle cx="564.9" cy="1919.41" r="5.05167" stroke-width="0.5" stroke="black" fill="red"/>
   </g>
   <g id="cell62">
  <circle cx="1875.19" cy="1061.28" r="8.41271" stroke-width="0.5" stroke="black" fill="red"/>
  <circle cx="1875.19" cy="1061.28" r="5.05167" stroke-width="0.5" stroke="black" fill="red"/>
   </g>
   <g id="cell63">
  <circle cx="631.639" cy="2168.03" r="8.41271" stroke-width="0.5" stroke="black" fill="red"/>
  <circle cx="631.639" cy="2168.03" r="5.05167" stroke-width="0.5" stroke="black" fill="red"/>
   </g>
   <g id="cell64">
  <circle cx="771.798" cy="2578.97" r="8.41271" stroke-width="0.5" stroke="black" fill="red"/>
  <circle cx="771.798" cy="2578.97" r="5.05167" stroke-width="0.5" stroke="black" fill="red"/>
   </g>
   <g id="cell65">
  <circle cx="1184.94" cy="1890.06" r="8.41271" stroke-width="0.5" stroke="black" fill="red"/>
  <circle cx="1184.94" cy="1890.06" r="5.05167" stroke-width="0.5" stroke="black" fill="red"/>
   </g>
   <g id="cell66">
  <circle cx="2270.38" cy="332.572" r="8.41271" stroke-width="0.5" stroke="black" fill="red"/>
  <circle cx="2270.38" cy="332.572" r="5.05167" stroke-width="0.5" stroke="black" fill="red"/>
   </g>
   <g id="cell67">
  <circle cx="533.043" cy="1794.83" r="8.41271" stroke-width="0.5" stroke="black" fill="red"/>
  <circle cx="533.043" cy="1794.83" r="5.05167" stroke-width="0.5" stroke="black" fill="red"/>
   </g>
   <g id="cell68">
  <circle cx="2311.07" cy="1916.78" r="8.41271" stroke-width="0.5" stroke="black" fill="red"/>
  <circle cx="2311.07" cy="1916.78" r="5.05167" stroke-width="0.5" stroke="black" fill="red"/>
   </g>
   <g id="cell69">
  <circle cx="530.636" cy="2632.67" r="8.41271" stroke-width="0.5" stroke="black" fill="red"/>
  <circle cx="530.636" cy="2632.67" r="5.05167" stroke-width="0.5" stroke="black" fill="red"/>
   </g>
   <g id="cell70">
  <circle cx="2643.5" cy="2407.66" r="8.41271" stroke-width="0.5" stroke="black" fill="red"/>
  <circle cx="2643.5" cy="2407.66" r="5.05167" stroke-width="0.5" stroke="black" fill="red"/>
   </g>
   <g id="cell71">
  <circle cx="1424.76" cy="1523.1" r="8.41271" stroke-width="0.5" stroke="black" fill="red"/>
  <circle cx="1424.76" cy="1523.1" r="5.05167" stroke-width="0.5" stroke="black" fill="red"/>
   </g>
   <g id="cell72">
  <circle cx="2644.23" cy="433.715" r="8.41271" stroke-width="0.5" stroke="black" fill="red"/>
  <circle cx="2644.23" cy="433.715" r="5.05167" stroke-width="0.5" stroke="black" fill="red"/>
   </g>
   <g id="cell73">
  <circle cx="1751.63" cy="1382.78" r="8.41271" stroke-width="0.5" stroke="black" fill="red"/>
  <circle cx="1751.63" cy="1382.78" r="5.05167" stroke-width="0.5" stroke="black" fill="red"/>
   </g>
   <g id="cell74">
  <circle cx="2074.23" cy="347.97" r="8.41271" stroke-width="0.5" stroke="black" fill="red"/>
  <circle cx="2074.23" cy="347.97" r="5.05167" stroke-width="0.5" stroke="black" fill="red"/>
   </g>
   <g id="cell75">
  <circle cx="394.051" cy="1360.11" r="8.41271" stroke-width="0.5" stroke="black" fill="red"/>
  <circle cx="394.051" cy="1360.11" r="5.05167" stroke-width="0.5" stroke="black" fill="red"/>
   </g>
   <g id="cell76">
  <circle cx="978.737" cy="2651.01" r="8.41271" stroke-width="0.5" stroke="black" fill="red"/>
  <circle cx="978.737" cy="2651.01" r="5.05167" stroke-width="0.5" stroke="black" fill="red"/>
   </g>
   <g id="cell77">
  <circle cx="588.472" cy="1162.67" r="8.41271" stroke-width="0.5" stroke="black" fill="red"/>
  <circle cx="588.472" cy="1162.67" r="5.05167" stroke-width="0.5" stroke="black" fill="red"/>
   </g>
   <g id="cell78">
  <circle cx="1010.74" cy="1454.14" r="8.41271" stroke-width="0.5" stroke="black" fill="red"/>
  <circle cx="1010.74" cy="1454.14" r="5.05167" stroke-width="0.5" stroke="black" fill="red"/>
   </g>
   <g id="cell79">
  <circle cx="584.947" cy="1952.79" r="8.41271" stroke-width="0.5" stroke="black" fill="red"/>
  <circle cx="584.947" cy="1952.79" r="5.05167" stroke-width="0.5" stroke="black" fill="red"/>
   </g>
   <g id="cell80">
  <circle cx="1063.16" cy="2413.14" r="8.41271" stroke-width="0.5" stroke="black" fill="red"/>
  <circle cx="1063.16" cy="2413.14" r="5.05167" stroke-width="0.5" stroke="black" fill="red"/>
   </g>
   <g id="cell81">
  <circle cx="1294.23" cy="2503.77" r="8.41271" stroke-width="0.5" stroke="black" fill="red"/>
  <circle cx="1294.23" cy="2503.77" r="5.05167" stroke-width="0.5" stroke="black" fill="red"/>
   </g>
   <g id="cell82">
  <circle cx="453.954" cy="820.373" r="8.41271" stroke-width="0.5" stroke="black" fill="red"/>
  <circle cx="453.954" cy="820.373" r="5.05167" stroke-width="0.5" stroke="black" fill="red"/>
   </g>
   <g id="cell83">
  <circle cx="1961.93" cy="1656.45" r="8.41271" stroke-width="0.5" stroke="black" fill="red"/>
  <circle cx="1961.93" cy="1656.45" r="5.05167" stroke-width="0.5" stroke="black" fill="red"/>
   </g>
   <g id="cell84">
  <circle cx="1659.84" cy="2376.25" r="8.41271" stroke-width="0.5" stroke="black" fill="red"/>
  <circle cx="1659.84" cy="2376.25" r="5.05167" stroke-width="0.5" stroke="black" fill="red"/>
   </g>
   <g id="cell85">
  <circle cx="936.935" cy="1521.53" r="8.41271" stroke-width="0.5" stroke="black" fill="red"/>
  <circle cx="936.935" cy="1521.53" r="5.05167" stroke-width="0.5" stroke="black" fill="red"/>
   </g>
   <g id="cell86">
  <circle cx="1555.8" cy="2500.14" r="8.41271" stroke-width="0.5" stroke="black" fill="red"/>
  <circle cx="1555.8" cy="2500.14" r="5.05167" stroke-width="0.5" stroke="black" fill="red"/>
   </g>
   <g id="cell87">
  <circle cx="525.457" cy="2510.78" r="8.41271" stroke-width="0.5" stroke="black" fill="red"/>
  <circle cx="525.457" cy="2510.78" r="5.05167" stroke-width="0.5" stroke="black" fill="red"/>
   </g>
   <g id="cell88">
  <circle cx="1682.27" cy="499.47" r="8.41271" stroke-width="0.5" stroke="black" fill="red"/>
  <circle cx="1682.27" cy="499.47" r="5.05167" stroke-width="0.5" stroke="black" fill="red"/>
   </g>
   <g id="cell89">
  <circle cx="2530.31" cy="966.525" r="8.41271" stroke-width="0.5" stroke="black" fill="red"/>
  <circle cx="2530.31" cy="966.525" r="5.05167" stroke-width="0.5" stroke="black" fill="red"/>
   </g>
   <g id="cell90">
  <circle cx="1064.57" cy="322.456" r="8.41271" stroke-width="0.5" stroke="black" fill="red"/>
  <circle cx="1064.57" cy="322.456" r="5.05167" stroke-width="0.5" stroke="black" fill="red"/>
   </g>
   <g id="cell91">
  <circle cx="1901.78" cy="2321.62" r="8.41271" stroke-width="0.5" stroke="black" fill="red"/>
  <circle cx="1901.78" cy="2321.62" r="5.05167" stroke-width="0.5" stroke="black" fill="red"/>
   </g>
   <g id="cell92">
  <circle cx="616.315" cy="1853.22" r="8.41271" stroke-width="0.5" stroke="black" fill="red"/>
  <circle cx="616.315" cy="1853.22" r="5.05167" stroke-width="0.5" stroke="black" fill="red"/>
   </g>
   <g id="cell93">
  <circle cx="2019.19" cy="2319.33" r="8.41271" stroke-width="0.5" stroke="black" fill="red"/>
  <circle cx="2019.19" cy="2319.33" r="5.05167" stroke-width="0.5" stroke="black" fill="red"/>
   </g>
   <g id="cell94">
  <circle cx="994.575" cy="935.352" r="8.41271" stroke-width="0.5" stroke="black" fill="red"/>
  <circle cx="994.575" cy="935.352" r="5.05167" stroke-width="0.5" stroke="black" fill="red"/>
   </g>
   <g id="cell95">
  <circle cx="739.659" cy="1254.77" r="8.41271" stroke-width="0.5" stroke="black" fill="red"/>
  <circle cx="739.659" cy="1254.77" r="5.05167" stroke-width="0.5" stroke="black" fill="red"/>
   </g>
   <g id="cell96">
  <circle cx="1707.63" cy="1626.77" r="8.41271" stroke-width="0.5" stroke="black" fill="red"/>
  <circle cx="1707.63" cy="1626.77" r="5.05167" stroke-width="0.5" stroke="black" fill="red"/>
   </g>
   <g id="cell97">
  <circle cx="348.258" cy="695.857" r="8.41271" stroke-width="0.5" stroke="black" fill="red"/>
  <circle cx="348.258" cy="695.857" r="5.05167" stroke-width="0.5" stroke="black" fill="red"/>
   </g>
   <g id="cell98">
  <circle cx="2289.46" cy="1187.54" r="8.41271" stroke-width="0.5" stroke="black" fill="red"/>
  <circle cx="2289.46" cy="1187.54" r="5.05167" stroke-width="0.5" stroke="black" fill="red"/>
   </g>
   <g id="cell99">
  <circle cx="311.269" cy="651.46" r="8.41271" stroke-width="0.5" stroke="black" fill="red"/>
  <circle cx="311.269" cy="651.46" r="5.05167" stroke-width="0.5" stroke="black" fill="red"/>
   </g>
  </g>
 </g>
  <rect x="2725" y="3105" width="200" height="30" stroke-width="6" stroke="rgb(255,255,255)" fill="rgb(0,0,0)"/>
  <text x="2743.75" y="3086.25"
   font-family="Arial" font-size="75" fill="black" >
   200 &#956;m
  </text>
  <text x="75" y="3135"
   font-family="Arial" font-size="56.25" fill="black" >
   0 days, 0 hours, 0 minutes, and 0.0722 seconds
  </text>
  <rect x="0" y="210" width="3000" height="3000" stroke-width="6" stroke="rgb(0,0,0)" fill="none"/>
</svg>
