<?xml version="1.0" encoding="UTF-8" standalone="no"?>
<!-- Created with PhysiCell (http://PhysiCell.MathCancer.org/) -->
<svg 
 xmlns:dc="http://purl.org/dc/elements/1.1/" 
 xmlns:cc="http://creativecommons.org/ns#" 
 xmlns:rdf="http://www.w3.org/1999/02/22-rdf-syntax-ns#" 
 xmlns:svg="http://www.w3.org/2000/svg" 
 xmlns="http://www.w3.org/2000/svg" 
 version="1.1" 
 width="3000" 
 height="3210" 
 id="svg2">
  <rect x="0" y="0" width="3000" height="3210" stroke-width="6" stroke="white" fill="white"/>
  <text x="37.5" y="90"
   font-family="Arial" font-size="75" fill="black" >
   Current time: 0 days, 4 hours, and 0.00 minutes, z = 0.00 &#956;m
  </text>
  <text x="37.5" y="172.5"
   font-family="Arial" font-size="71.25" fill="black" >
   203 agents
  </text>
 <g id="tissue" 
    transform="translate(0,3210) scale(1,-1)">
  <g id="ECM">
  </g>
  <g id="cells">
   <g id="cell0">
  <circle cx="1617.15" cy="1722.83" r="8.41271" stroke-width="0.5" stroke="black" fill="red"/>
  <circle cx="1617.15" cy="1722.83" r="5.05167" stroke-width="0.5" stroke="black" fill="red"/>
   </g>
   <g id="cell1">
  <circle cx="2014.88" cy="2330.23" r="8.41271" stroke-width="0.5" stroke="black" fill="red"/>
  <circle cx="2014.88" cy="2330.23" r="5.05167" stroke-width="0.5" stroke="black" fill="red"/>
   </g>
   <g id="cell2">
  <circle cx="1746.63" cy="2359.07" r="8.41271" stroke-width="0.5" stroke="black" fill="red"/>
  <circle cx="1746.63" cy="2359.07" r="5.05167" stroke-width="0.5" stroke="black" fill="red"/>
   </g>
   <g id="cell3">
  <circle cx="1609.37" cy="2330.42" r="6.71158" stroke-width="0.5" stroke="black" fill="red"/>
  <circle cx="1609.37" cy="2330.42" r="4.03435" stroke-width="0.5" stroke="black" fill="red"/>
   </g>
   <g id="cell4">
  <circle cx="1312.17" cy="1799.85" r="8.41271" stroke-width="0.5" stroke="black" fill="cyan"/>
  <circle cx="1312.17" cy="1799.85" r="5.05167" stroke-width="0.5" stroke="black" fill="cyan"/>
   </g>
   <g id="cell5">
  <circle cx="1850.15" cy="1222.52" r="8.41271" stroke-width="0.5" stroke="black" fill="red"/>
  <circle cx="1850.15" cy="1222.52" r="5.05167" stroke-width="0.5" stroke="black" fill="red"/>
   </g>
   <g id="cell6">
  <circle cx="1350.21" cy="1014.08" r="8.41271" stroke-width="0.5" stroke="black" fill="red"/>
  <circle cx="1350.21" cy="1014.08" r="5.05167" stroke-width="0.5" stroke="black" fill="red"/>
   </g>
   <g id="cell7">
  <circle cx="2439.08" cy="442.048" r="6.13674" stroke-width="0.5" stroke="black" fill="red"/>
  <circle cx="2439.08" cy="442.048" r="3.73237" stroke-width="0.5" stroke="black" fill="red"/>
   </g>
   <g id="cell8">
  <circle cx="2612.79" cy="954.375" r="8.41271" stroke-width="0.5" stroke="black" fill="red"/>
  <circle cx="2612.79" cy="954.375" r="5.05167" stroke-width="0.5" stroke="black" fill="red"/>
   </g>
   <g id="cell9">
  <circle cx="1226.95" cy="1447.39" r="6.45859" stroke-width="0.5" stroke="black" fill="red"/>
  <circle cx="1226.95" cy="1447.39" r="3.9518" stroke-width="0.5" stroke="black" fill="red"/>
   </g>
   <g id="cell10">
  <circle cx="2198.04" cy="2253.45" r="7.46878" stroke-width="0.5" stroke="black" fill="red"/>
  <circle cx="2198.04" cy="2253.45" r="4.53982" stroke-width="0.5" stroke="black" fill="red"/>
   </g>
   <g id="cell11">
  <circle cx="1569.35" cy="1451.95" r="8.41271" stroke-width="0.5" stroke="black" fill="red"/>
  <circle cx="1569.35" cy="1451.95" r="5.05167" stroke-width="0.5" stroke="black" fill="red"/>
   </g>
   <g id="cell12">
  <circle cx="1666.39" cy="1240.35" r="6.69288" stroke-width="0.5" stroke="black" fill="cyan"/>
  <circle cx="1666.39" cy="1240.35" r="4.02051" stroke-width="0.5" stroke="black" fill="cyan"/>
   </g>
   <g id="cell13">
  <circle cx="2521.93" cy="2302.04" r="7.30216" stroke-width="0.5" stroke="black" fill="red"/>
  <circle cx="2521.93" cy="2302.04" r="4.43696" stroke-width="0.5" stroke="black" fill="red"/>
   </g>
   <g id="cell14">
  <circle cx="470.487" cy="1109.75" r="8.41271" stroke-width="0.5" stroke="black" fill="red"/>
  <circle cx="470.487" cy="1109.75" r="5.05167" stroke-width="0.5" stroke="black" fill="red"/>
   </g>
   <g id="cell15">
  <circle cx="506.937" cy="1866.58" r="6.79956" stroke-width="0.5" stroke="black" fill="red"/>
  <circle cx="506.937" cy="1866.58" r="4.17071" stroke-width="0.5" stroke="black" fill="red"/>
   </g>
   <g id="cell16">
  <circle cx="348.524" cy="1183.78" r="8.41271" stroke-width="0.5" stroke="black" fill="red"/>
  <circle cx="348.524" cy="1183.78" r="5.05167" stroke-width="0.5" stroke="black" fill="red"/>
   </g>
   <g id="cell17">
  <circle cx="2297.74" cy="2598.44" r="4.44" stroke-width="0.5" stroke="black" fill="red"/>
  <circle cx="2297.74" cy="2598.44" r="2.75012" stroke-width="0.5" stroke="black" fill="red"/>
   </g>
   <g id="cell18">
  <circle cx="2164.27" cy="633.387" r="7.51976" stroke-width="0.5" stroke="black" fill="red"/>
  <circle cx="2164.27" cy="633.387" r="4.57072" stroke-width="0.5" stroke="black" fill="red"/>
   </g>
   <g id="cell19">
  <circle cx="2391.94" cy="2386.13" r="7.1497" stroke-width="0.5" stroke="black" fill="red"/>
  <circle cx="2391.94" cy="2386.13" r="4.34001" stroke-width="0.5" stroke="black" fill="red"/>
   </g>
   <g id="cell20">
  <circle cx="2645.63" cy="1440.18" r="7.38797" stroke-width="0.5" stroke="black" fill="cyan"/>
  <circle cx="2645.63" cy="1440.18" r="4.49029" stroke-width="0.5" stroke="black" fill="cyan"/>
   </g>
   <g id="cell21">
  <circle cx="2215.11" cy="2217.31" r="7.63698" stroke-width="0.5" stroke="black" fill="red"/>
  <circle cx="2215.11" cy="2217.31" r="4.64085" stroke-width="0.5" stroke="black" fill="red"/>
   </g>
   <g id="cell22">
  <circle cx="1407.55" cy="1549.15" r="8.41271" stroke-width="0.5" stroke="black" fill="cyan"/>
  <circle cx="1407.55" cy="1549.15" r="5.05167" stroke-width="0.5" stroke="black" fill="cyan"/>
   </g>
   <g id="cell23">
  <circle cx="2173.27" cy="1929.31" r="8.41271" stroke-width="0.5" stroke="black" fill="red"/>
  <circle cx="2173.27" cy="1929.31" r="5.05167" stroke-width="0.5" stroke="black" fill="red"/>
   </g>
   <g id="cell24">
  <circle cx="580.546" cy="2026.81" r="6.99069" stroke-width="0.5" stroke="black" fill="red"/>
  <circle cx="580.546" cy="2026.81" r="4.23498" stroke-width="0.5" stroke="black" fill="red"/>
   </g>
   <g id="cell25">
  <circle cx="1831.48" cy="1699.37" r="8.41271" stroke-width="0.5" stroke="black" fill="cyan"/>
  <circle cx="1831.48" cy="1699.37" r="5.05167" stroke-width="0.5" stroke="black" fill="cyan"/>
   </g>
   <g id="cell26">
  <circle cx="648.299" cy="1578.09" r="6.70107" stroke-width="0.5" stroke="black" fill="red"/>
  <circle cx="648.299" cy="1578.09" r="4.10813" stroke-width="0.5" stroke="black" fill="red"/>
   </g>
   <g id="cell27">
  <circle cx="2572.49" cy="2121.19" r="8.41271" stroke-width="0.5" stroke="black" fill="cyan"/>
  <circle cx="2572.49" cy="2121.19" r="5.05167" stroke-width="0.5" stroke="black" fill="cyan"/>
   </g>
   <g id="cell28">
  <circle cx="1552.44" cy="554.178" r="8.41271" stroke-width="0.5" stroke="black" fill="red"/>
  <circle cx="1552.44" cy="554.178" r="5.05167" stroke-width="0.5" stroke="black" fill="red"/>
   </g>
   <g id="cell29">
  <circle cx="1295.19" cy="1436.64" r="8.41271" stroke-width="0.5" stroke="black" fill="red"/>
  <circle cx="1295.19" cy="1436.64" r="5.05167" stroke-width="0.5" stroke="black" fill="red"/>
   </g>
   <g id="cell30">
  <circle cx="934.933" cy="747.198" r="8.41271" stroke-width="0.5" stroke="black" fill="red"/>
  <circle cx="934.933" cy="747.198" r="5.05167" stroke-width="0.5" stroke="black" fill="red"/>
   </g>
   <g id="cell31">
  <circle cx="2158.16" cy="2068.6" r="8.41271" stroke-width="0.5" stroke="black" fill="red"/>
  <circle cx="2158.16" cy="2068.6" r="5.05167" stroke-width="0.5" stroke="black" fill="red"/>
   </g>
   <g id="cell32">
  <circle cx="1391.04" cy="817.735" r="6.92764" stroke-width="0.5" stroke="black" fill="cyan"/>
  <circle cx="1391.04" cy="817.735" r="4.1918" stroke-width="0.5" stroke="black" fill="cyan"/>
   </g>
   <g id="cell33">
  <circle cx="1660.42" cy="633.115" r="5.28303" stroke-width="0.5" stroke="black" fill="red"/>
  <circle cx="1660.42" cy="633.115" r="3.25276" stroke-width="0.5" stroke="black" fill="red"/>
   </g>
   <g id="cell34">
  <circle cx="345.096" cy="1077.94" r="8.41271" stroke-width="0.5" stroke="black" fill="red"/>
  <circle cx="345.096" cy="1077.94" r="5.05167" stroke-width="0.5" stroke="black" fill="red"/>
   </g>
   <g id="cell35">
  <circle cx="1782.2" cy="653.512" r="6.99069" stroke-width="0.5" stroke="black" fill="red"/>
  <circle cx="1782.2" cy="653.512" r="4.23498" stroke-width="0.5" stroke="black" fill="red"/>
   </g>
   <g id="cell36">
  <circle cx="1772.85" cy="835.475" r="6.95901" stroke-width="0.5" stroke="black" fill="red"/>
  <circle cx="1772.85" cy="835.475" r="4.21341" stroke-width="0.5" stroke="black" fill="red"/>
   </g>
   <g id="cell37">
  <circle cx="1777.33" cy="1224.72" r="7.08639" stroke-width="0.5" stroke="black" fill="red"/>
  <circle cx="1777.33" cy="1224.72" r="4.29876" stroke-width="0.5" stroke="black" fill="red"/>
   </g>
   <g id="cell38">
  <circle cx="2565" cy="2466.24" r="8.41271" stroke-width="0.5" stroke="black" fill="red"/>
  <circle cx="2565" cy="2466.24" r="5.05167" stroke-width="0.5" stroke="black" fill="red"/>
   </g>
   <g id="cell39">
  <circle cx="1936.37" cy="1379.88" r="8.41271" stroke-width="0.5" stroke="black" fill="red"/>
  <circle cx="1936.37" cy="1379.88" r="5.05167" stroke-width="0.5" stroke="black" fill="red"/>
   </g>
   <g id="cell40">
  <circle cx="1162.82" cy="1771.35" r="8.41271" stroke-width="0.5" stroke="black" fill="cyan"/>
  <circle cx="1162.82" cy="1771.35" r="5.05167" stroke-width="0.5" stroke="black" fill="cyan"/>
   </g>
   <g id="cell41">
  <circle cx="1348.88" cy="2465.64" r="8.41271" stroke-width="0.5" stroke="black" fill="red"/>
  <circle cx="1348.88" cy="2465.64" r="5.05167" stroke-width="0.5" stroke="black" fill="red"/>
   </g>
   <g id="cell42">
  <circle cx="1974.31" cy="538.273" r="8.41271" stroke-width="0.5" stroke="black" fill="red"/>
  <circle cx="1974.31" cy="538.273" r="5.05167" stroke-width="0.5" stroke="black" fill="red"/>
   </g>
   <g id="cell43">
  <circle cx="444.541" cy="2627.54" r="8.41271" stroke-width="0.5" stroke="black" fill="red"/>
  <circle cx="444.541" cy="2627.54" r="5.05167" stroke-width="0.5" stroke="black" fill="red"/>
   </g>
   <g id="cell44">
  <circle cx="1904.99" cy="1871.11" r="7.70049" stroke-width="0.5" stroke="black" fill="red"/>
  <circle cx="1904.99" cy="1871.11" r="4.67828" stroke-width="0.5" stroke="black" fill="red"/>
   </g>
   <g id="cell45">
  <circle cx="1913.54" cy="710.006" r="7.02257" stroke-width="0.5" stroke="black" fill="red"/>
  <circle cx="1913.54" cy="710.006" r="4.25644" stroke-width="0.5" stroke="black" fill="red"/>
   </g>
   <g id="cell46">
  <circle cx="804.918" cy="1159.57" r="8.41271" stroke-width="0.5" stroke="black" fill="red"/>
  <circle cx="804.918" cy="1159.57" r="5.05167" stroke-width="0.5" stroke="black" fill="red"/>
   </g>
   <g id="cell47">
  <circle cx="603.752" cy="2090.9" r="7.12567" stroke-width="0.5" stroke="black" fill="cyan"/>
  <circle cx="603.752" cy="2090.9" r="4.36671" stroke-width="0.5" stroke="black" fill="cyan"/>
   </g>
   <g id="cell48">
  <circle cx="1053.26" cy="1756.06" r="7.38797" stroke-width="0.5" stroke="black" fill="red"/>
  <circle cx="1053.26" cy="1756.06" r="4.49029" stroke-width="0.5" stroke="black" fill="red"/>
   </g>
   <g id="cell49">
  <circle cx="1177" cy="1077.51" r="7.59183" stroke-width="0.5" stroke="black" fill="red"/>
  <circle cx="1177" cy="1077.51" r="4.61399" stroke-width="0.5" stroke="black" fill="red"/>
   </g>
   <g id="cell50">
  <circle cx="1668.47" cy="392.221" r="8.41271" stroke-width="0.5" stroke="black" fill="red"/>
  <circle cx="1668.47" cy="392.221" r="5.05167" stroke-width="0.5" stroke="black" fill="red"/>
   </g>
   <g id="cell51">
  <circle cx="1352.64" cy="1822.26" r="8.41271" stroke-width="0.5" stroke="black" fill="red"/>
  <circle cx="1352.64" cy="1822.26" r="5.05167" stroke-width="0.5" stroke="black" fill="red"/>
   </g>
   <g id="cell52">
  <circle cx="2666.69" cy="2599.68" r="7.41548" stroke-width="0.5" stroke="black" fill="red"/>
  <circle cx="2666.69" cy="2599.68" r="4.50723" stroke-width="0.5" stroke="black" fill="red"/>
   </g>
   <g id="cell53">
  <circle cx="544.908" cy="1866.7" r="8.41271" stroke-width="0.5" stroke="black" fill="red"/>
  <circle cx="544.908" cy="1866.7" r="5.05167" stroke-width="0.5" stroke="black" fill="red"/>
   </g>
   <g id="cell54">
  <circle cx="801.304" cy="1824.14" r="8.41271" stroke-width="0.5" stroke="black" fill="cyan"/>
  <circle cx="801.304" cy="1824.14" r="5.05167" stroke-width="0.5" stroke="black" fill="cyan"/>
   </g>
   <g id="cell55">
  <circle cx="687.143" cy="2688.72" r="8.41271" stroke-width="0.5" stroke="black" fill="red"/>
  <circle cx="687.143" cy="2688.72" r="5.05167" stroke-width="0.5" stroke="black" fill="red"/>
   </g>
   <g id="cell56">
  <circle cx="1867.46" cy="1696.44" r="8.41271" stroke-width="0.5" stroke="black" fill="red"/>
  <circle cx="1867.46" cy="1696.44" r="5.05167" stroke-width="0.5" stroke="black" fill="red"/>
   </g>
   <g id="cell57">
  <circle cx="904.928" cy="1296.37" r="8.41271" stroke-width="0.5" stroke="black" fill="cyan"/>
  <circle cx="904.928" cy="1296.37" r="5.05167" stroke-width="0.5" stroke="black" fill="cyan"/>
   </g>
   <g id="cell58">
  <circle cx="1423.49" cy="1438.56" r="7.11815" stroke-width="0.5" stroke="black" fill="cyan"/>
  <circle cx="1423.49" cy="1438.56" r="4.31954" stroke-width="0.5" stroke="black" fill="cyan"/>
   </g>
   <g id="cell59">
  <circle cx="888.08" cy="1801" r="7.46878" stroke-width="0.5" stroke="black" fill="red"/>
  <circle cx="888.08" cy="1801" r="4.53982" stroke-width="0.5" stroke="black" fill="red"/>
   </g>
   <g id="cell60">
  <circle cx="681.527" cy="1111.22" r="8.41271" stroke-width="0.5" stroke="black" fill="red"/>
  <circle cx="681.527" cy="1111.22" r="5.05167" stroke-width="0.5" stroke="black" fill="red"/>
   </g>
   <g id="cell61">
  <circle cx="562.004" cy="1916.02" r="7.18097" stroke-width="0.5" stroke="black" fill="red"/>
  <circle cx="562.004" cy="1916.02" r="4.36015" stroke-width="0.5" stroke="black" fill="red"/>
   </g>
   <g id="cell62">
  <circle cx="1869.21" cy="1060.36" r="8.41271" stroke-width="0.5" stroke="black" fill="cyan"/>
  <circle cx="1869.21" cy="1060.36" r="5.05167" stroke-width="0.5" stroke="black" fill="cyan"/>
   </g>
   <g id="cell63">
  <circle cx="640.414" cy="2167.76" r="5.6728" stroke-width="0.5" stroke="black" fill="red"/>
  <circle cx="640.414" cy="2167.76" r="3.44585" stroke-width="0.5" stroke="black" fill="red"/>
   </g>
   <g id="cell64">
  <circle cx="775.952" cy="2580.5" r="7.1497" stroke-width="0.5" stroke="black" fill="red"/>
  <circle cx="775.952" cy="2580.5" r="4.34001" stroke-width="0.5" stroke="black" fill="red"/>
   </g>
   <g id="cell65">
  <circle cx="1179.18" cy="1899.05" r="6.61918" stroke-width="0.5" stroke="black" fill="red"/>
  <circle cx="1179.18" cy="1899.05" r="4.06123" stroke-width="0.5" stroke="black" fill="red"/>
   </g>
   <g id="cell66">
  <circle cx="2276.18" cy="332.508" r="5.10594" stroke-width="0.5" stroke="black" fill="cyan"/>
  <circle cx="2276.18" cy="332.508" r="3.12717" stroke-width="0.5" stroke="black" fill="cyan"/>
   </g>
   <g id="cell67">
  <circle cx="533.043" cy="1794.83" r="8.41271" stroke-width="0.5" stroke="black" fill="red"/>
  <circle cx="533.043" cy="1794.83" r="5.05167" stroke-width="0.5" stroke="black" fill="red"/>
   </g>
   <g id="cell68">
  <circle cx="2309.24" cy="1911.6" r="6.22244" stroke-width="0.5" stroke="black" fill="red"/>
  <circle cx="2309.24" cy="1911.6" r="3.81549" stroke-width="0.5" stroke="black" fill="red"/>
   </g>
   <g id="cell69">
  <circle cx="527.351" cy="2627.44" r="8.41271" stroke-width="0.5" stroke="black" fill="cyan"/>
  <circle cx="527.351" cy="2627.44" r="5.05167" stroke-width="0.5" stroke="black" fill="cyan"/>
   </g>
   <g id="cell70">
  <circle cx="2640.87" cy="2412.29" r="7.21189" stroke-width="0.5" stroke="black" fill="red"/>
  <circle cx="2640.87" cy="2412.29" r="4.37993" stroke-width="0.5" stroke="black" fill="red"/>
   </g>
   <g id="cell71">
  <circle cx="1429.45" cy="1520.99" r="8.41271" stroke-width="0.5" stroke="black" fill="cyan"/>
  <circle cx="1429.45" cy="1520.99" r="5.05167" stroke-width="0.5" stroke="black" fill="cyan"/>
   </g>
   <g id="cell72">
  <circle cx="2644.23" cy="433.715" r="8.41271" stroke-width="0.5" stroke="black" fill="red"/>
  <circle cx="2644.23" cy="433.715" r="5.05167" stroke-width="0.5" stroke="black" fill="red"/>
   </g>
   <g id="cell73">
  <circle cx="1751.63" cy="1382.78" r="8.41271" stroke-width="0.5" stroke="black" fill="red"/>
  <circle cx="1751.63" cy="1382.78" r="5.05167" stroke-width="0.5" stroke="black" fill="red"/>
   </g>
   <g id="cell74">
  <circle cx="2074.23" cy="347.97" r="8.41271" stroke-width="0.5" stroke="black" fill="cyan"/>
  <circle cx="2074.23" cy="347.97" r="5.05167" stroke-width="0.5" stroke="black" fill="cyan"/>
   </g>
   <g id="cell75">
  <circle cx="394.051" cy="1360.11" r="8.41271" stroke-width="0.5" stroke="black" fill="red"/>
  <circle cx="394.051" cy="1360.11" r="5.05167" stroke-width="0.5" stroke="black" fill="red"/>
   </g>
   <g id="cell76">
  <circle cx="978.737" cy="2651.01" r="8.41271" stroke-width="0.5" stroke="black" fill="red"/>
  <circle cx="978.737" cy="2651.01" r="5.05167" stroke-width="0.5" stroke="black" fill="red"/>
   </g>
   <g id="cell77">
  <circle cx="586.673" cy="1150.9" r="5.10246" stroke-width="0.5" stroke="black" fill="red"/>
  <circle cx="586.673" cy="1150.9" r="3.14597" stroke-width="0.5" stroke="black" fill="red"/>
   </g>
   <g id="cell78">
  <circle cx="1006" cy="1454.5" r="7.49456" stroke-width="0.5" stroke="black" fill="cyan"/>
  <circle cx="1006" cy="1454.5" r="4.55548" stroke-width="0.5" stroke="black" fill="cyan"/>
   </g>
   <g id="cell79">
  <circle cx="584.947" cy="1952.79" r="8.41271" stroke-width="0.5" stroke="black" fill="red"/>
  <circle cx="584.947" cy="1952.79" r="5.05167" stroke-width="0.5" stroke="black" fill="red"/>
   </g>
   <g id="cell80">
  <circle cx="1068.36" cy="2411.59" r="7.24243" stroke-width="0.5" stroke="black" fill="red"/>
  <circle cx="1068.36" cy="2411.59" r="4.39934" stroke-width="0.5" stroke="black" fill="red"/>
   </g>
   <g id="cell81">
  <circle cx="1288.17" cy="2507.59" r="8.41271" stroke-width="0.5" stroke="black" fill="cyan"/>
  <circle cx="1288.17" cy="2507.59" r="5.05167" stroke-width="0.5" stroke="black" fill="cyan"/>
   </g>
   <g id="cell82">
  <circle cx="456.487" cy="816.11" r="7.70049" stroke-width="0.5" stroke="black" fill="cyan"/>
  <circle cx="456.487" cy="816.11" r="4.67828" stroke-width="0.5" stroke="black" fill="cyan"/>
   </g>
   <g id="cell83">
  <circle cx="1969.86" cy="1655.9" r="6.78181" stroke-width="0.5" stroke="black" fill="cyan"/>
  <circle cx="1969.86" cy="1655.9" r="4.08714" stroke-width="0.5" stroke="black" fill="cyan"/>
   </g>
   <g id="cell84">
  <circle cx="1659.84" cy="2376.25" r="8.41271" stroke-width="0.5" stroke="black" fill="red"/>
  <circle cx="1659.84" cy="2376.25" r="5.05167" stroke-width="0.5" stroke="black" fill="red"/>
   </g>
   <g id="cell85">
  <circle cx="941.092" cy="1519.75" r="8.41271" stroke-width="0.5" stroke="black" fill="cyan"/>
  <circle cx="941.092" cy="1519.75" r="5.05167" stroke-width="0.5" stroke="black" fill="cyan"/>
   </g>
   <g id="cell86">
  <circle cx="1555.8" cy="2500.14" r="8.41271" stroke-width="0.5" stroke="black" fill="red"/>
  <circle cx="1555.8" cy="2500.14" r="5.05167" stroke-width="0.5" stroke="black" fill="red"/>
   </g>
   <g id="cell87">
  <circle cx="525.457" cy="2510.78" r="8.41271" stroke-width="0.5" stroke="black" fill="red"/>
  <circle cx="525.457" cy="2510.78" r="5.05167" stroke-width="0.5" stroke="black" fill="red"/>
   </g>
   <g id="cell88">
  <circle cx="1682.27" cy="499.47" r="8.41271" stroke-width="0.5" stroke="black" fill="cyan"/>
  <circle cx="1682.27" cy="499.47" r="5.05167" stroke-width="0.5" stroke="black" fill="cyan"/>
   </g>
   <g id="cell89">
  <circle cx="2530.31" cy="966.525" r="8.41271" stroke-width="0.5" stroke="black" fill="red"/>
  <circle cx="2530.31" cy="966.525" r="5.05167" stroke-width="0.5" stroke="black" fill="red"/>
   </g>
   <g id="cell90">
  <circle cx="1069" cy="324.488" r="6.80881" stroke-width="0.5" stroke="black" fill="red"/>
  <circle cx="1069" cy="324.488" r="4.10709" stroke-width="0.5" stroke="black" fill="red"/>
   </g>
   <g id="cell91">
  <circle cx="1899.87" cy="2325.48" r="7.02257" stroke-width="0.5" stroke="black" fill="red"/>
  <circle cx="1899.87" cy="2325.48" r="4.25644" stroke-width="0.5" stroke="black" fill="red"/>
   </g>
   <g id="cell92">
  <circle cx="616.315" cy="1853.22" r="8.41271" stroke-width="0.5" stroke="black" fill="red"/>
  <circle cx="616.315" cy="1853.22" r="5.05167" stroke-width="0.5" stroke="black" fill="red"/>
   </g>
   <g id="cell93">
  <circle cx="2020.76" cy="2315.33" r="8.41271" stroke-width="0.5" stroke="black" fill="cyan"/>
  <circle cx="2020.76" cy="2315.33" r="5.05167" stroke-width="0.5" stroke="black" fill="cyan"/>
   </g>
   <g id="cell94">
  <circle cx="994.575" cy="935.352" r="8.41271" stroke-width="0.5" stroke="black" fill="cyan"/>
  <circle cx="994.575" cy="935.352" r="5.05167" stroke-width="0.5" stroke="black" fill="cyan"/>
   </g>
   <g id="cell95">
  <circle cx="735.919" cy="1257.79" r="7.54436" stroke-width="0.5" stroke="black" fill="red"/>
  <circle cx="735.919" cy="1257.79" r="4.58555" stroke-width="0.5" stroke="black" fill="red"/>
   </g>
   <g id="cell96">
  <circle cx="1709.95" cy="1623.07" r="7.08639" stroke-width="0.5" stroke="black" fill="cyan"/>
  <circle cx="1709.95" cy="1623.07" r="4.29876" stroke-width="0.5" stroke="black" fill="cyan"/>
   </g>
   <g id="cell97">
  <circle cx="348.638" cy="698.372" r="6.67717" stroke-width="0.5" stroke="black" fill="red"/>
  <circle cx="348.638" cy="698.372" r="4.00951" stroke-width="0.5" stroke="black" fill="red"/>
   </g>
   <g id="cell98">
  <circle cx="2291.74" cy="1191.57" r="7.3599" stroke-width="0.5" stroke="black" fill="cyan"/>
  <circle cx="2291.74" cy="1191.57" r="4.47294" stroke-width="0.5" stroke="black" fill="cyan"/>
   </g>
   <g id="cell99">
  <circle cx="314.372" cy="649.302" r="6.71158" stroke-width="0.5" stroke="black" fill="cyan"/>
  <circle cx="314.372" cy="649.302" r="4.03435" stroke-width="0.5" stroke="black" fill="cyan"/>
   </g>
   <g id="cell100">
  <circle cx="1212.27" cy="1450.31" r="7.72056" stroke-width="0.5" stroke="black" fill="red"/>
  <circle cx="1212.27" cy="1450.31" r="4.69003" stroke-width="0.5" stroke="black" fill="red"/>
   </g>
   <g id="cell101">
  <circle cx="607.046" cy="2108.66" r="7.72056" stroke-width="0.5" stroke="black" fill="cyan"/>
  <circle cx="607.046" cy="2108.66" r="4.69003" stroke-width="0.5" stroke="black" fill="cyan"/>
   </g>
   <g id="cell102">
  <circle cx="449.017" cy="828.682" r="7.70049" stroke-width="0.5" stroke="black" fill="cyan"/>
  <circle cx="449.017" cy="828.682" r="4.67828" stroke-width="0.5" stroke="black" fill="cyan"/>
   </g>
   <g id="cell103">
  <circle cx="638.057" cy="1603.41" r="6.22096" stroke-width="0.5" stroke="black" fill="cyan"/>
  <circle cx="638.057" cy="1603.41" r="3.80318" stroke-width="0.5" stroke="black" fill="cyan"/>
   </g>
   <g id="cell104">
  <circle cx="2557.24" cy="2119.72" r="7.70049" stroke-width="0.5" stroke="black" fill="red"/>
  <circle cx="2557.24" cy="2119.72" r="4.67828" stroke-width="0.5" stroke="black" fill="red"/>
   </g>
   <g id="cell105">
  <circle cx="1890.56" cy="1865.93" r="8.41271" stroke-width="0.5" stroke="black" fill="cyan"/>
  <circle cx="1890.56" cy="1865.93" r="5.05167" stroke-width="0.5" stroke="black" fill="cyan"/>
   </g>
   <g id="cell106">
  <circle cx="2448.31" cy="431.447" r="7.67987" stroke-width="0.5" stroke="black" fill="red"/>
  <circle cx="2448.31" cy="431.447" r="4.66617" stroke-width="0.5" stroke="black" fill="red"/>
   </g>
   <g id="cell107">
  <circle cx="498.305" cy="1841.44" r="6.51148" stroke-width="0.5" stroke="black" fill="red"/>
  <circle cx="498.305" cy="1841.44" r="3.9901" stroke-width="0.5" stroke="black" fill="red"/>
   </g>
   <g id="cell108">
  <circle cx="2222.47" cy="2229.81" r="7.63698" stroke-width="0.5" stroke="black" fill="red"/>
  <circle cx="2222.47" cy="2229.81" r="4.64085" stroke-width="0.5" stroke="black" fill="red"/>
   </g>
   <g id="cell109">
  <circle cx="2265.78" cy="336.678" r="6.73053" stroke-width="0.5" stroke="black" fill="cyan"/>
  <circle cx="2265.78" cy="336.678" r="4.12812" stroke-width="0.5" stroke="black" fill="cyan"/>
   </g>
   <g id="cell110">
  <circle cx="1164.84" cy="1085.24" r="7.59183" stroke-width="0.5" stroke="black" fill="red"/>
  <circle cx="1164.84" cy="1085.24" r="4.61399" stroke-width="0.5" stroke="black" fill="red"/>
   </g>
   <g id="cell111">
  <circle cx="658.975" cy="1599.22" r="6.29521" stroke-width="0.5" stroke="black" fill="cyan"/>
  <circle cx="658.975" cy="1599.22" r="3.85304" stroke-width="0.5" stroke="black" fill="cyan"/>
   </g>
   <g id="cell112">
  <circle cx="1421.79" cy="1532.9" r="6.75639" stroke-width="0.5" stroke="black" fill="cyan"/>
  <circle cx="1421.79" cy="1532.9" r="4.06813" stroke-width="0.5" stroke="black" fill="cyan"/>
   </g>
   <g id="cell113">
  <circle cx="620.457" cy="2108.02" r="6.40768" stroke-width="0.5" stroke="black" fill="cyan"/>
  <circle cx="620.457" cy="2108.02" r="3.95431" stroke-width="0.5" stroke="black" fill="cyan"/>
   </g>
   <g id="cell114">
  <circle cx="747.061" cy="1248.79" r="7.54436" stroke-width="0.5" stroke="black" fill="red"/>
  <circle cx="747.061" cy="1248.79" r="4.58555" stroke-width="0.5" stroke="black" fill="red"/>
   </g>
   <g id="cell115">
  <circle cx="2174.14" cy="643.696" r="7.51976" stroke-width="0.5" stroke="black" fill="red"/>
  <circle cx="2174.14" cy="643.696" r="4.57072" stroke-width="0.5" stroke="black" fill="red"/>
   </g>
   <g id="cell116">
  <circle cx="1181.71" cy="1875.67" r="7.51976" stroke-width="0.5" stroke="black" fill="red"/>
  <circle cx="1181.71" cy="1875.67" r="4.57072" stroke-width="0.5" stroke="black" fill="red"/>
   </g>
   <g id="cell117">
  <circle cx="1020.19" cy="1453.44" r="7.49456" stroke-width="0.5" stroke="black" fill="cyan"/>
  <circle cx="1020.19" cy="1453.44" r="4.55548" stroke-width="0.5" stroke="black" fill="cyan"/>
   </g>
   <g id="cell118">
  <circle cx="1670.86" cy="612.132" r="7.46878" stroke-width="0.5" stroke="black" fill="red"/>
  <circle cx="1670.86" cy="612.132" r="4.53982" stroke-width="0.5" stroke="black" fill="red"/>
   </g>
   <g id="cell119">
  <circle cx="883.775" cy="1787.5" r="7.46878" stroke-width="0.5" stroke="black" fill="red"/>
  <circle cx="883.775" cy="1787.5" r="4.53982" stroke-width="0.5" stroke="black" fill="red"/>
   </g>
   <g id="cell120">
  <circle cx="2204.32" cy="2240.74" r="7.46878" stroke-width="0.5" stroke="black" fill="red"/>
  <circle cx="2204.32" cy="2240.74" r="4.53982" stroke-width="0.5" stroke="black" fill="red"/>
   </g>
   <g id="cell121">
  <circle cx="2680.04" cy="2604.12" r="7.41548" stroke-width="0.5" stroke="black" fill="red"/>
  <circle cx="2680.04" cy="2604.12" r="4.50723" stroke-width="0.5" stroke="black" fill="red"/>
   </g>
   <g id="cell122">
  <circle cx="1882.74" cy="1060.85" r="5.98709" stroke-width="0.5" stroke="black" fill="red"/>
  <circle cx="1882.74" cy="1060.85" r="3.64933" stroke-width="0.5" stroke="black" fill="red"/>
   </g>
   <g id="cell123">
  <circle cx="1064.61" cy="1764.29" r="7.38797" stroke-width="0.5" stroke="black" fill="red"/>
  <circle cx="1064.61" cy="1764.29" r="4.49029" stroke-width="0.5" stroke="black" fill="red"/>
   </g>
   <g id="cell124">
  <circle cx="2654.82" cy="1429.59" r="7.38797" stroke-width="0.5" stroke="black" fill="cyan"/>
  <circle cx="2654.82" cy="1429.59" r="4.49029" stroke-width="0.5" stroke="black" fill="cyan"/>
   </g>
   <g id="cell125">
  <circle cx="919.643" cy="1296.91" r="7.38797" stroke-width="0.5" stroke="black" fill="red"/>
  <circle cx="919.643" cy="1296.91" r="4.49029" stroke-width="0.5" stroke="black" fill="red"/>
   </g>
   <g id="cell126">
  <circle cx="2284.85" cy="1179.42" r="7.3599" stroke-width="0.5" stroke="black" fill="cyan"/>
  <circle cx="2284.85" cy="1179.42" r="4.47294" stroke-width="0.5" stroke="black" fill="cyan"/>
   </g>
   <g id="cell127">
  <circle cx="1325.2" cy="1790.52" r="8.41271" stroke-width="0.5" stroke="black" fill="cyan"/>
  <circle cx="1325.2" cy="1790.52" r="5.05167" stroke-width="0.5" stroke="black" fill="cyan"/>
   </g>
   <g id="cell128">
  <circle cx="1950.12" cy="1655.27" r="6.02703" stroke-width="0.5" stroke="black" fill="red"/>
  <circle cx="1950.12" cy="1655.27" r="3.68287" stroke-width="0.5" stroke="black" fill="red"/>
   </g>
   <g id="cell129">
  <circle cx="1300.54" cy="2501.94" r="6.00548" stroke-width="0.5" stroke="black" fill="red"/>
  <circle cx="1300.54" cy="2501.94" r="3.66957" stroke-width="0.5" stroke="black" fill="red"/>
   </g>
   <g id="cell130">
  <circle cx="1895.88" cy="1852.46" r="6.83971" stroke-width="0.5" stroke="black" fill="red"/>
  <circle cx="1895.88" cy="1852.46" r="4.19414" stroke-width="0.5" stroke="black" fill="red"/>
   </g>
   <g id="cell131">
  <circle cx="2520.42" cy="2315.81" r="7.30216" stroke-width="0.5" stroke="black" fill="red"/>
  <circle cx="2520.42" cy="2315.81" r="4.43696" stroke-width="0.5" stroke="black" fill="red"/>
   </g>
   <g id="cell132">
  <circle cx="521.842" cy="1858.59" r="8.41271" stroke-width="0.5" stroke="black" fill="cyan"/>
  <circle cx="521.842" cy="1858.59" r="5.05167" stroke-width="0.5" stroke="black" fill="cyan"/>
   </g>
   <g id="cell133">
  <circle cx="2254.19" cy="336.611" r="5.54403" stroke-width="0.5" stroke="black" fill="cyan"/>
  <circle cx="2254.19" cy="336.611" r="3.41476" stroke-width="0.5" stroke="black" fill="cyan"/>
   </g>
   <g id="cell134">
  <circle cx="614.617" cy="2097.49" r="6.40768" stroke-width="0.5" stroke="black" fill="cyan"/>
  <circle cx="614.617" cy="2097.49" r="3.95431" stroke-width="0.5" stroke="black" fill="cyan"/>
   </g>
   <g id="cell135">
  <circle cx="1053.26" cy="2420.63" r="6.95901" stroke-width="0.5" stroke="black" fill="cyan"/>
  <circle cx="1053.26" cy="2420.63" r="4.21341" stroke-width="0.5" stroke="black" fill="cyan"/>
   </g>
   <g id="cell136">
  <circle cx="2287.46" cy="2593.09" r="5.79951" stroke-width="0.5" stroke="black" fill="red"/>
  <circle cx="2287.46" cy="2593.09" r="3.52974" stroke-width="0.5" stroke="black" fill="red"/>
   </g>
   <g id="cell137">
  <circle cx="2304.76" cy="1921.98" r="5.77077" stroke-width="0.5" stroke="black" fill="red"/>
  <circle cx="2304.76" cy="1921.98" r="3.50903" stroke-width="0.5" stroke="black" fill="red"/>
   </g>
   <g id="cell138">
  <circle cx="2644.16" cy="2397.86" r="8.41271" stroke-width="0.5" stroke="black" fill="cyan"/>
  <circle cx="2644.16" cy="2397.86" r="5.05167" stroke-width="0.5" stroke="black" fill="cyan"/>
   </g>
   <g id="cell139">
  <circle cx="1193.02" cy="1895.67" r="8.41271" stroke-width="0.5" stroke="black" fill="cyan"/>
  <circle cx="1193.02" cy="1895.67" r="5.05167" stroke-width="0.5" stroke="black" fill="cyan"/>
   </g>
   <g id="cell140">
  <circle cx="570.854" cy="1926.37" r="7.18097" stroke-width="0.5" stroke="black" fill="red"/>
  <circle cx="570.854" cy="1926.37" r="4.36015" stroke-width="0.5" stroke="black" fill="red"/>
   </g>
   <g id="cell141">
  <circle cx="630.32" cy="1591.88" r="6.69288" stroke-width="0.5" stroke="black" fill="cyan"/>
  <circle cx="630.32" cy="1591.88" r="4.02051" stroke-width="0.5" stroke="black" fill="cyan"/>
   </g>
   <g id="cell142">
  <circle cx="927.468" cy="1525.57" r="7.18097" stroke-width="0.5" stroke="black" fill="red"/>
  <circle cx="927.468" cy="1525.57" r="4.36015" stroke-width="0.5" stroke="black" fill="red"/>
   </g>
   <g id="cell143">
  <circle cx="2379.96" cy="2392.5" r="7.1497" stroke-width="0.5" stroke="black" fill="red"/>
  <circle cx="2379.96" cy="2392.5" r="4.34001" stroke-width="0.5" stroke="black" fill="red"/>
   </g>
   <g id="cell144">
  <circle cx="763.228" cy="2575.81" r="7.1497" stroke-width="0.5" stroke="black" fill="red"/>
  <circle cx="763.228" cy="2575.81" r="4.34001" stroke-width="0.5" stroke="black" fill="red"/>
   </g>
   <g id="cell145">
  <circle cx="1410.16" cy="1440.75" r="7.11815" stroke-width="0.5" stroke="black" fill="cyan"/>
  <circle cx="1410.16" cy="1440.75" r="4.31954" stroke-width="0.5" stroke="black" fill="cyan"/>
   </g>
   <g id="cell146">
  <circle cx="2314.97" cy="2603.32" r="5.63188" stroke-width="0.5" stroke="black" fill="red"/>
  <circle cx="2314.97" cy="2603.32" r="3.48292" stroke-width="0.5" stroke="black" fill="red"/>
   </g>
   <g id="cell147">
  <circle cx="1844.21" cy="1691.96" r="7.08639" stroke-width="0.5" stroke="black" fill="red"/>
  <circle cx="1844.21" cy="1691.96" r="4.29876" stroke-width="0.5" stroke="black" fill="red"/>
   </g>
   <g id="cell148">
  <circle cx="1702.82" cy="1634.46" r="7.08639" stroke-width="0.5" stroke="black" fill="cyan"/>
  <circle cx="1702.82" cy="1634.46" r="4.29876" stroke-width="0.5" stroke="black" fill="cyan"/>
   </g>
   <g id="cell149">
  <circle cx="1654.67" cy="624.446" r="5.71451" stroke-width="0.5" stroke="black" fill="red"/>
  <circle cx="1654.67" cy="624.446" r="3.53237" stroke-width="0.5" stroke="black" fill="red"/>
   </g>
   <g id="cell150">
  <circle cx="621.026" cy="2162.62" r="7.08639" stroke-width="0.5" stroke="black" fill="red"/>
  <circle cx="621.026" cy="2162.62" r="4.29876" stroke-width="0.5" stroke="black" fill="red"/>
   </g>
   <g id="cell151">
  <circle cx="583.133" cy="1171.01" r="7.08639" stroke-width="0.5" stroke="black" fill="red"/>
  <circle cx="583.133" cy="1171.01" r="4.29876" stroke-width="0.5" stroke="black" fill="red"/>
   </g>
   <g id="cell152">
  <circle cx="1787.52" cy="1233.5" r="7.08639" stroke-width="0.5" stroke="black" fill="red"/>
  <circle cx="1787.52" cy="1233.5" r="4.29876" stroke-width="0.5" stroke="black" fill="red"/>
   </g>
   <g id="cell153">
  <circle cx="514.346" cy="1841.33" r="5.47472" stroke-width="0.5" stroke="black" fill="red"/>
  <circle cx="514.346" cy="1841.33" r="3.37533" stroke-width="0.5" stroke="black" fill="red"/>
   </g>
   <g id="cell154">
  <circle cx="2319.86" cy="1916.68" r="6.22244" stroke-width="0.5" stroke="black" fill="red"/>
  <circle cx="2319.86" cy="1916.68" r="3.81549" stroke-width="0.5" stroke="black" fill="red"/>
   </g>
   <g id="cell155">
  <circle cx="527.453" cy="2642.14" r="7.0545" stroke-width="0.5" stroke="black" fill="red"/>
  <circle cx="527.453" cy="2642.14" r="4.27772" stroke-width="0.5" stroke="black" fill="red"/>
   </g>
   <g id="cell156">
  <circle cx="2304.58" cy="2604.76" r="5.63188" stroke-width="0.5" stroke="black" fill="red"/>
  <circle cx="2304.58" cy="2604.76" r="3.48292" stroke-width="0.5" stroke="black" fill="red"/>
   </g>
   <g id="cell157">
  <circle cx="1665.29" cy="623.231" r="5.71451" stroke-width="0.5" stroke="black" fill="red"/>
  <circle cx="1665.29" cy="623.231" r="3.53237" stroke-width="0.5" stroke="black" fill="red"/>
   </g>
   <g id="cell158">
  <circle cx="1899.3" cy="706.526" r="8.41271" stroke-width="0.5" stroke="black" fill="cyan"/>
  <circle cx="1899.3" cy="706.526" r="5.05167" stroke-width="0.5" stroke="black" fill="cyan"/>
   </g>
   <g id="cell159">
  <circle cx="1905.79" cy="2313.55" r="7.02257" stroke-width="0.5" stroke="black" fill="red"/>
  <circle cx="1905.79" cy="2313.55" r="4.25644" stroke-width="0.5" stroke="black" fill="red"/>
   </g>
   <g id="cell160">
  <circle cx="1192.37" cy="1882.29" r="5.78531" stroke-width="0.5" stroke="black" fill="red"/>
  <circle cx="1192.37" cy="1882.29" r="3.57515" stroke-width="0.5" stroke="black" fill="red"/>
   </g>
   <g id="cell161">
  <circle cx="590.816" cy="2035.2" r="6.99069" stroke-width="0.5" stroke="black" fill="red"/>
  <circle cx="590.816" cy="2035.2" r="4.23498" stroke-width="0.5" stroke="black" fill="red"/>
   </g>
   <g id="cell162">
  <circle cx="597.78" cy="1168.66" r="8.41271" stroke-width="0.5" stroke="black" fill="cyan"/>
  <circle cx="597.78" cy="1168.66" r="5.05167" stroke-width="0.5" stroke="black" fill="cyan"/>
   </g>
   <g id="cell163">
  <circle cx="1787.39" cy="669.595" r="5.94512" stroke-width="0.5" stroke="black" fill="red"/>
  <circle cx="1787.39" cy="669.595" r="3.63734" stroke-width="0.5" stroke="black" fill="red"/>
   </g>
   <g id="cell164">
  <circle cx="1055.49" cy="2407.61" r="6.95901" stroke-width="0.5" stroke="black" fill="cyan"/>
  <circle cx="1055.49" cy="2407.61" r="4.21341" stroke-width="0.5" stroke="black" fill="cyan"/>
   </g>
   <g id="cell165">
  <circle cx="2269.22" cy="324.552" r="6.39897" stroke-width="0.5" stroke="black" fill="cyan"/>
  <circle cx="2269.22" cy="324.552" r="3.91701" stroke-width="0.5" stroke="black" fill="cyan"/>
   </g>
   <g id="cell166">
  <circle cx="1903.57" cy="719.459" r="5.96717" stroke-width="0.5" stroke="black" fill="red"/>
  <circle cx="1903.57" cy="719.459" r="3.65171" stroke-width="0.5" stroke="black" fill="red"/>
   </g>
   <g id="cell167">
  <circle cx="1761.04" cy="829.593" r="6.95901" stroke-width="0.5" stroke="black" fill="red"/>
  <circle cx="1761.04" cy="829.593" r="4.21341" stroke-width="0.5" stroke="black" fill="red"/>
   </g>
   <g id="cell168">
  <circle cx="1218.6" cy="1438.48" r="6.45859" stroke-width="0.5" stroke="black" fill="red"/>
  <circle cx="1218.6" cy="1438.48" r="3.9518" stroke-width="0.5" stroke="black" fill="red"/>
   </g>
   <g id="cell169">
  <circle cx="1777.26" cy="664.719" r="5.94512" stroke-width="0.5" stroke="black" fill="red"/>
  <circle cx="1777.26" cy="664.719" r="3.63734" stroke-width="0.5" stroke="black" fill="red"/>
   </g>
   <g id="cell170">
  <circle cx="652.479" cy="1590" r="5.13576" stroke-width="0.5" stroke="black" fill="cyan"/>
  <circle cx="652.479" cy="1590" r="3.15447" stroke-width="0.5" stroke="black" fill="cyan"/>
   </g>
   <g id="cell171">
  <circle cx="1402.64" cy="823.921" r="6.92764" stroke-width="0.5" stroke="black" fill="cyan"/>
  <circle cx="1402.64" cy="823.921" r="4.1918" stroke-width="0.5" stroke="black" fill="cyan"/>
   </g>
   <g id="cell172">
  <circle cx="2304.75" cy="2587.49" r="5.42919" stroke-width="0.5" stroke="black" fill="red"/>
  <circle cx="2304.75" cy="2587.49" r="3.35452" stroke-width="0.5" stroke="black" fill="red"/>
   </g>
   <g id="cell173">
  <circle cx="507.203" cy="1852.3" r="8.41271" stroke-width="0.5" stroke="black" fill="cyan"/>
  <circle cx="507.203" cy="1852.3" r="5.05167" stroke-width="0.5" stroke="black" fill="cyan"/>
   </g>
   <g id="cell174">
  <circle cx="650.87" cy="1608.07" r="6.22096" stroke-width="0.5" stroke="black" fill="cyan"/>
  <circle cx="650.87" cy="1608.07" r="3.80318" stroke-width="0.5" stroke="black" fill="cyan"/>
   </g>
   <g id="cell175">
  <circle cx="1958.34" cy="1647.36" r="6.02703" stroke-width="0.5" stroke="black" fill="red"/>
  <circle cx="1958.34" cy="1647.36" r="3.68287" stroke-width="0.5" stroke="black" fill="red"/>
   </g>
   <g id="cell176">
  <circle cx="540.513" cy="2630.46" r="5.82306" stroke-width="0.5" stroke="black" fill="red"/>
  <circle cx="540.513" cy="2630.46" r="3.5541" stroke-width="0.5" stroke="black" fill="red"/>
   </g>
   <g id="cell177">
  <circle cx="1308.04" cy="2490.59" r="8.41271" stroke-width="0.5" stroke="black" fill="cyan"/>
  <circle cx="1308.04" cy="2490.59" r="5.05167" stroke-width="0.5" stroke="black" fill="cyan"/>
   </g>
   <g id="cell178">
  <circle cx="588.18" cy="1160.39" r="5.10246" stroke-width="0.5" stroke="black" fill="red"/>
  <circle cx="588.18" cy="1160.39" r="3.14597" stroke-width="0.5" stroke="black" fill="red"/>
   </g>
   <g id="cell179">
  <circle cx="2250.07" cy="327.002" r="5.54403" stroke-width="0.5" stroke="black" fill="cyan"/>
  <circle cx="2250.07" cy="327.002" r="3.41476" stroke-width="0.5" stroke="black" fill="cyan"/>
   </g>
   <g id="cell180">
  <circle cx="1055.86" cy="318.462" r="8.41271" stroke-width="0.5" stroke="black" fill="cyan"/>
  <circle cx="1055.86" cy="318.462" r="5.05167" stroke-width="0.5" stroke="black" fill="cyan"/>
   </g>
   <g id="cell181">
  <circle cx="1959.3" cy="1663.21" r="6.78181" stroke-width="0.5" stroke="black" fill="cyan"/>
  <circle cx="1959.3" cy="1663.21" r="4.08714" stroke-width="0.5" stroke="black" fill="cyan"/>
   </g>
   <g id="cell182">
  <circle cx="1670.34" cy="632.2" r="5.28303" stroke-width="0.5" stroke="black" fill="red"/>
  <circle cx="1670.34" cy="632.2" r="3.25276" stroke-width="0.5" stroke="black" fill="red"/>
   </g>
   <g id="cell183">
  <circle cx="2656.82" cy="2402.48" r="5.83115" stroke-width="0.5" stroke="black" fill="red"/>
  <circle cx="2656.82" cy="2402.48" r="3.55246" stroke-width="0.5" stroke="black" fill="red"/>
   </g>
   <g id="cell184">
  <circle cx="899.311" cy="1285.09" r="4.84436" stroke-width="0.5" stroke="black" fill="red"/>
  <circle cx="899.311" cy="1285.09" r="2.96251" stroke-width="0.5" stroke="black" fill="red"/>
   </g>
   <g id="cell185">
  <circle cx="1891.68" cy="1067.68" r="5.98709" stroke-width="0.5" stroke="black" fill="red"/>
  <circle cx="1891.68" cy="1067.68" r="3.64933" stroke-width="0.5" stroke="black" fill="red"/>
   </g>
   <g id="cell186">
  <circle cx="647.275" cy="1598.08" r="5.13576" stroke-width="0.5" stroke="black" fill="cyan"/>
  <circle cx="647.275" cy="1598.08" r="3.15447" stroke-width="0.5" stroke="black" fill="cyan"/>
   </g>
   <g id="cell187">
  <circle cx="1430.21" cy="1542.38" r="6.75639" stroke-width="0.5" stroke="black" fill="cyan"/>
  <circle cx="1430.21" cy="1542.38" r="4.06813" stroke-width="0.5" stroke="black" fill="cyan"/>
   </g>
   <g id="cell188">
  <circle cx="893.318" cy="1292.08" r="4.84436" stroke-width="0.5" stroke="black" fill="red"/>
  <circle cx="893.318" cy="1292.08" r="2.96251" stroke-width="0.5" stroke="black" fill="red"/>
   </g>
   <g id="cell189">
  <circle cx="1418.48" cy="1509.74" r="8.41271" stroke-width="0.5" stroke="black" fill="cyan"/>
  <circle cx="1418.48" cy="1509.74" r="5.05167" stroke-width="0.5" stroke="black" fill="cyan"/>
   </g>
   <g id="cell190">
  <circle cx="2278.41" cy="2595.82" r="4.63598" stroke-width="0.5" stroke="black" fill="red"/>
  <circle cx="2278.41" cy="2595.82" r="2.82396" stroke-width="0.5" stroke="black" fill="red"/>
   </g>
   <g id="cell191">
  <circle cx="2296.24" cy="2590.34" r="4.44" stroke-width="0.5" stroke="black" fill="red"/>
  <circle cx="2296.24" cy="2590.34" r="2.75012" stroke-width="0.5" stroke="black" fill="red"/>
   </g>
   <g id="cell192">
  <circle cx="629.164" cy="2174.46" r="8.41271" stroke-width="0.5" stroke="black" fill="cyan"/>
  <circle cx="629.164" cy="2174.46" r="5.05167" stroke-width="0.5" stroke="black" fill="cyan"/>
   </g>
   <g id="cell193">
  <circle cx="1603.27" cy="2341.45" r="6.71158" stroke-width="0.5" stroke="black" fill="red"/>
  <circle cx="1603.27" cy="2341.45" r="4.03435" stroke-width="0.5" stroke="black" fill="red"/>
   </g>
   <g id="cell194">
  <circle cx="2312.81" cy="1929.27" r="5.77077" stroke-width="0.5" stroke="black" fill="red"/>
  <circle cx="2312.81" cy="1929.27" r="3.50903" stroke-width="0.5" stroke="black" fill="red"/>
   </g>
   <g id="cell195">
  <circle cx="303.171" cy="653.615" r="5.32699" stroke-width="0.5" stroke="black" fill="cyan"/>
  <circle cx="303.171" cy="653.615" r="3.20206" stroke-width="0.5" stroke="black" fill="cyan"/>
   </g>
   <g id="cell196">
  <circle cx="2430.55" cy="431.533" r="8.41271" stroke-width="0.5" stroke="black" fill="cyan"/>
  <circle cx="2430.55" cy="431.533" r="5.05167" stroke-width="0.5" stroke="black" fill="cyan"/>
   </g>
   <g id="cell197">
  <circle cx="2284.45" cy="336.948" r="5.10594" stroke-width="0.5" stroke="black" fill="cyan"/>
  <circle cx="2284.45" cy="336.948" r="3.12717" stroke-width="0.5" stroke="black" fill="cyan"/>
   </g>
   <g id="cell198">
  <circle cx="641.755" cy="1588.32" r="6.69288" stroke-width="0.5" stroke="black" fill="cyan"/>
  <circle cx="641.755" cy="1588.32" r="4.02051" stroke-width="0.5" stroke="black" fill="cyan"/>
   </g>
   <g id="cell199">
  <circle cx="1656.47" cy="1247.86" r="6.69288" stroke-width="0.5" stroke="black" fill="cyan"/>
  <circle cx="1656.47" cy="1247.86" r="4.02051" stroke-width="0.5" stroke="black" fill="cyan"/>
   </g>
   <g id="cell200">
  <circle cx="2277.25" cy="2604.34" r="4.63598" stroke-width="0.5" stroke="black" fill="red"/>
  <circle cx="2277.25" cy="2604.34" r="2.82396" stroke-width="0.5" stroke="black" fill="red"/>
   </g>
   <g id="cell201">
  <circle cx="306.825" cy="662.55" r="5.32699" stroke-width="0.5" stroke="black" fill="cyan"/>
  <circle cx="306.825" cy="662.55" r="3.20206" stroke-width="0.5" stroke="black" fill="cyan"/>
   </g>
   <g id="cell202">
  <circle cx="346.946" cy="687.18" r="6.67717" stroke-width="0.5" stroke="black" fill="red"/>
  <circle cx="346.946" cy="687.18" r="4.00951" stroke-width="0.5" stroke="black" fill="red"/>
   </g>
  </g>
 </g>
  <rect x="2725" y="3105" width="200" height="30" stroke-width="6" stroke="rgb(255,255,255)" fill="rgb(0,0,0)"/>
  <text x="2743.75" y="3086.25"
   font-family="Arial" font-size="75" fill="black" >
   200 &#956;m
  </text>
  <text x="75" y="3135"
   font-family="Arial" font-size="56.25" fill="black" >
   0 days, 0 hours, 0 minutes, and 3.0795 seconds
  </text>
  <rect x="0" y="210" width="3000" height="3000" stroke-width="6" stroke="rgb(0,0,0)" fill="none"/>
</svg>
