<?xml version="1.0" encoding="UTF-8" standalone="no"?>
<!-- Created with PhysiCell (http://PhysiCell.MathCancer.org/) -->
<svg 
 xmlns:dc="http://purl.org/dc/elements/1.1/" 
 xmlns:cc="http://creativecommons.org/ns#" 
 xmlns:rdf="http://www.w3.org/1999/02/22-rdf-syntax-ns#" 
 xmlns:svg="http://www.w3.org/2000/svg" 
 xmlns="http://www.w3.org/2000/svg" 
 version="1.1" 
 width="3000" 
 height="3210" 
 id="svg2">
  <rect x="0" y="0" width="3000" height="3210" stroke-width="6" stroke="white" fill="white"/>
  <text x="37.5" y="90"
   font-family="Arial" font-size="75" fill="black" >
   Current time: 0 days, 3 hours, and 0.00 minutes, z = 0.00 &#956;m
  </text>
  <text x="37.5" y="172.5"
   font-family="Arial" font-size="71.25" fill="black" >
   173 agents
  </text>
 <g id="tissue" 
    transform="translate(0,3210) scale(1,-1)">
  <g id="ECM">
  </g>
  <g id="cells">
   <g id="cell0">
  <circle cx="1617.15" cy="1722.83" r="8.41271" stroke-width="0.5" stroke="black" fill="red"/>
  <circle cx="1617.15" cy="1722.83" r="5.05167" stroke-width="0.5" stroke="black" fill="red"/>
   </g>
   <g id="cell1">
  <circle cx="2014.88" cy="2330.23" r="8.41271" stroke-width="0.5" stroke="black" fill="red"/>
  <circle cx="2014.88" cy="2330.23" r="5.05167" stroke-width="0.5" stroke="black" fill="red"/>
   </g>
   <g id="cell2">
  <circle cx="1746.63" cy="2359.07" r="8.41271" stroke-width="0.5" stroke="black" fill="red"/>
  <circle cx="1746.63" cy="2359.07" r="5.05167" stroke-width="0.5" stroke="black" fill="red"/>
   </g>
   <g id="cell3">
  <circle cx="1607.72" cy="2333.4" r="8.41271" stroke-width="0.5" stroke="black" fill="red"/>
  <circle cx="1607.72" cy="2333.4" r="5.05167" stroke-width="0.5" stroke="black" fill="red"/>
   </g>
   <g id="cell4">
  <circle cx="1312.17" cy="1799.85" r="8.41271" stroke-width="0.5" stroke="black" fill="cyan"/>
  <circle cx="1312.17" cy="1799.85" r="5.05167" stroke-width="0.5" stroke="black" fill="cyan"/>
   </g>
   <g id="cell5">
  <circle cx="1850.15" cy="1222.52" r="8.41271" stroke-width="0.5" stroke="black" fill="red"/>
  <circle cx="1850.15" cy="1222.52" r="5.05167" stroke-width="0.5" stroke="black" fill="red"/>
   </g>
   <g id="cell6">
  <circle cx="1350.21" cy="1014.08" r="8.41271" stroke-width="0.5" stroke="black" fill="red"/>
  <circle cx="1350.21" cy="1014.08" r="5.05167" stroke-width="0.5" stroke="black" fill="red"/>
   </g>
   <g id="cell7">
  <circle cx="2436.19" cy="438.48" r="7.44242" stroke-width="0.5" stroke="black" fill="red"/>
  <circle cx="2436.19" cy="438.48" r="4.52373" stroke-width="0.5" stroke="black" fill="red"/>
   </g>
   <g id="cell8">
  <circle cx="2612.79" cy="954.375" r="8.41271" stroke-width="0.5" stroke="black" fill="red"/>
  <circle cx="2612.79" cy="954.375" r="5.05167" stroke-width="0.5" stroke="black" fill="red"/>
   </g>
   <g id="cell9">
  <circle cx="1226.86" cy="1446.86" r="5.96821" stroke-width="0.5" stroke="black" fill="red"/>
  <circle cx="1226.86" cy="1446.86" r="3.6292" stroke-width="0.5" stroke="black" fill="red"/>
   </g>
   <g id="cell10">
  <circle cx="2198.17" cy="2253.2" r="7.18097" stroke-width="0.5" stroke="black" fill="red"/>
  <circle cx="2198.17" cy="2253.2" r="4.36015" stroke-width="0.5" stroke="black" fill="red"/>
   </g>
   <g id="cell11">
  <circle cx="1569.35" cy="1451.95" r="8.41271" stroke-width="0.5" stroke="black" fill="red"/>
  <circle cx="1569.35" cy="1451.95" r="5.05167" stroke-width="0.5" stroke="black" fill="red"/>
   </g>
   <g id="cell12">
  <circle cx="1663.31" cy="1242.68" r="8.41271" stroke-width="0.5" stroke="black" fill="cyan"/>
  <circle cx="1663.31" cy="1242.68" r="5.05167" stroke-width="0.5" stroke="black" fill="cyan"/>
   </g>
   <g id="cell13">
  <circle cx="2521.9" cy="2302.34" r="6.99069" stroke-width="0.5" stroke="black" fill="red"/>
  <circle cx="2521.9" cy="2302.34" r="4.23498" stroke-width="0.5" stroke="black" fill="red"/>
   </g>
   <g id="cell14">
  <circle cx="470.487" cy="1109.75" r="8.41271" stroke-width="0.5" stroke="black" fill="red"/>
  <circle cx="470.487" cy="1109.75" r="5.05167" stroke-width="0.5" stroke="black" fill="red"/>
   </g>
   <g id="cell15">
  <circle cx="506.911" cy="1863.42" r="6.26209" stroke-width="0.5" stroke="black" fill="red"/>
  <circle cx="506.911" cy="1863.42" r="3.83744" stroke-width="0.5" stroke="black" fill="red"/>
   </g>
   <g id="cell16">
  <circle cx="348.524" cy="1183.78" r="8.41271" stroke-width="0.5" stroke="black" fill="red"/>
  <circle cx="348.524" cy="1183.78" r="5.05167" stroke-width="0.5" stroke="black" fill="red"/>
   </g>
   <g id="cell17">
  <circle cx="2298.12" cy="2596.38" r="4.49777" stroke-width="0.5" stroke="black" fill="red"/>
  <circle cx="2298.12" cy="2596.38" r="2.73721" stroke-width="0.5" stroke="black" fill="red"/>
   </g>
   <g id="cell18">
  <circle cx="2164.45" cy="633.58" r="7.24243" stroke-width="0.5" stroke="black" fill="red"/>
  <circle cx="2164.45" cy="633.58" r="4.39934" stroke-width="0.5" stroke="black" fill="red"/>
   </g>
   <g id="cell19">
  <circle cx="2391.68" cy="2386.27" r="6.83713" stroke-width="0.5" stroke="black" fill="red"/>
  <circle cx="2391.68" cy="2386.27" r="4.12773" stroke-width="0.5" stroke="black" fill="red"/>
   </g>
   <g id="cell20">
  <circle cx="2645.82" cy="1439.96" r="7.08639" stroke-width="0.5" stroke="black" fill="cyan"/>
  <circle cx="2645.82" cy="1439.96" r="4.29876" stroke-width="0.5" stroke="black" fill="cyan"/>
   </g>
   <g id="cell21">
  <circle cx="2215.23" cy="2217.52" r="7.38797" stroke-width="0.5" stroke="black" fill="red"/>
  <circle cx="2215.23" cy="2217.52" r="4.49029" stroke-width="0.5" stroke="black" fill="red"/>
   </g>
   <g id="cell22">
  <circle cx="1407.55" cy="1549.15" r="8.41271" stroke-width="0.5" stroke="black" fill="cyan"/>
  <circle cx="1407.55" cy="1549.15" r="5.05167" stroke-width="0.5" stroke="black" fill="cyan"/>
   </g>
   <g id="cell23">
  <circle cx="2173.27" cy="1929.31" r="8.41271" stroke-width="0.5" stroke="black" fill="red"/>
  <circle cx="2173.27" cy="1929.31" r="5.05167" stroke-width="0.5" stroke="black" fill="red"/>
   </g>
   <g id="cell24">
  <circle cx="580.786" cy="2027.01" r="6.71158" stroke-width="0.5" stroke="black" fill="red"/>
  <circle cx="580.786" cy="2027.01" r="4.03435" stroke-width="0.5" stroke="black" fill="red"/>
   </g>
   <g id="cell25">
  <circle cx="1831.61" cy="1699.29" r="8.41271" stroke-width="0.5" stroke="black" fill="cyan"/>
  <circle cx="1831.61" cy="1699.29" r="5.05167" stroke-width="0.5" stroke="black" fill="cyan"/>
   </g>
   <g id="cell26">
  <circle cx="646.249" cy="1581.38" r="6.16544" stroke-width="0.5" stroke="black" fill="red"/>
  <circle cx="646.249" cy="1581.38" r="3.76991" stroke-width="0.5" stroke="black" fill="red"/>
   </g>
   <g id="cell27">
  <circle cx="2572.38" cy="2121.18" r="8.41271" stroke-width="0.5" stroke="black" fill="cyan"/>
  <circle cx="2572.38" cy="2121.18" r="5.05167" stroke-width="0.5" stroke="black" fill="cyan"/>
   </g>
   <g id="cell28">
  <circle cx="1552.44" cy="554.178" r="8.41271" stroke-width="0.5" stroke="black" fill="red"/>
  <circle cx="1552.44" cy="554.178" r="5.05167" stroke-width="0.5" stroke="black" fill="red"/>
   </g>
   <g id="cell29">
  <circle cx="1295.19" cy="1436.64" r="8.41271" stroke-width="0.5" stroke="black" fill="red"/>
  <circle cx="1295.19" cy="1436.64" r="5.05167" stroke-width="0.5" stroke="black" fill="red"/>
   </g>
   <g id="cell30">
  <circle cx="934.933" cy="747.198" r="8.41271" stroke-width="0.5" stroke="black" fill="red"/>
  <circle cx="934.933" cy="747.198" r="5.05167" stroke-width="0.5" stroke="black" fill="red"/>
   </g>
   <g id="cell31">
  <circle cx="2158.16" cy="2068.6" r="8.41271" stroke-width="0.5" stroke="black" fill="red"/>
  <circle cx="2158.16" cy="2068.6" r="5.05167" stroke-width="0.5" stroke="black" fill="red"/>
   </g>
   <g id="cell32">
  <circle cx="1391.59" cy="818.032" r="6.67717" stroke-width="0.5" stroke="black" fill="cyan"/>
  <circle cx="1391.59" cy="818.032" r="4.00951" stroke-width="0.5" stroke="black" fill="cyan"/>
   </g>
   <g id="cell33">
  <circle cx="1663.74" cy="632.662" r="5.84183" stroke-width="0.5" stroke="black" fill="red"/>
  <circle cx="1663.74" cy="632.662" r="3.56188" stroke-width="0.5" stroke="black" fill="red"/>
   </g>
   <g id="cell34">
  <circle cx="345.096" cy="1077.94" r="8.41271" stroke-width="0.5" stroke="black" fill="red"/>
  <circle cx="345.096" cy="1077.94" r="5.05167" stroke-width="0.5" stroke="black" fill="red"/>
   </g>
   <g id="cell35">
  <circle cx="1782" cy="654.001" r="6.71158" stroke-width="0.5" stroke="black" fill="red"/>
  <circle cx="1782" cy="654.001" r="4.03435" stroke-width="0.5" stroke="black" fill="red"/>
   </g>
   <g id="cell36">
  <circle cx="1772.51" cy="835.305" r="6.69288" stroke-width="0.5" stroke="black" fill="red"/>
  <circle cx="1772.51" cy="835.305" r="4.02051" stroke-width="0.5" stroke="black" fill="red"/>
   </g>
   <g id="cell37">
  <circle cx="1777.55" cy="1224.91" r="6.78181" stroke-width="0.5" stroke="black" fill="red"/>
  <circle cx="1777.55" cy="1224.91" r="4.08714" stroke-width="0.5" stroke="black" fill="red"/>
   </g>
   <g id="cell38">
  <circle cx="2565" cy="2466.24" r="8.41271" stroke-width="0.5" stroke="black" fill="red"/>
  <circle cx="2565" cy="2466.24" r="5.05167" stroke-width="0.5" stroke="black" fill="red"/>
   </g>
   <g id="cell39">
  <circle cx="1936.37" cy="1379.88" r="8.41271" stroke-width="0.5" stroke="black" fill="red"/>
  <circle cx="1936.37" cy="1379.88" r="5.05167" stroke-width="0.5" stroke="black" fill="red"/>
   </g>
   <g id="cell40">
  <circle cx="1162.82" cy="1771.35" r="8.41271" stroke-width="0.5" stroke="black" fill="cyan"/>
  <circle cx="1162.82" cy="1771.35" r="5.05167" stroke-width="0.5" stroke="black" fill="cyan"/>
   </g>
   <g id="cell41">
  <circle cx="1348.88" cy="2465.64" r="8.41271" stroke-width="0.5" stroke="black" fill="red"/>
  <circle cx="1348.88" cy="2465.64" r="5.05167" stroke-width="0.5" stroke="black" fill="red"/>
   </g>
   <g id="cell42">
  <circle cx="1974.31" cy="538.273" r="8.41271" stroke-width="0.5" stroke="black" fill="red"/>
  <circle cx="1974.31" cy="538.273" r="5.05167" stroke-width="0.5" stroke="black" fill="red"/>
   </g>
   <g id="cell43">
  <circle cx="444.541" cy="2627.54" r="8.41271" stroke-width="0.5" stroke="black" fill="red"/>
  <circle cx="444.541" cy="2627.54" r="5.05167" stroke-width="0.5" stroke="black" fill="red"/>
   </g>
   <g id="cell44">
  <circle cx="1904.88" cy="1871.07" r="7.46878" stroke-width="0.5" stroke="black" fill="red"/>
  <circle cx="1904.88" cy="1871.07" r="4.53982" stroke-width="0.5" stroke="black" fill="red"/>
   </g>
   <g id="cell45">
  <circle cx="1913.58" cy="709.762" r="6.73287" stroke-width="0.5" stroke="black" fill="red"/>
  <circle cx="1913.58" cy="709.762" r="4.05039" stroke-width="0.5" stroke="black" fill="red"/>
   </g>
   <g id="cell46">
  <circle cx="804.918" cy="1159.57" r="8.41271" stroke-width="0.5" stroke="black" fill="red"/>
  <circle cx="804.918" cy="1159.57" r="5.05167" stroke-width="0.5" stroke="black" fill="red"/>
   </g>
   <g id="cell47">
  <circle cx="604.707" cy="2091.48" r="6.67509" stroke-width="0.5" stroke="black" fill="cyan"/>
  <circle cx="604.707" cy="2091.48" r="4.09621" stroke-width="0.5" stroke="black" fill="cyan"/>
   </g>
   <g id="cell48">
  <circle cx="1053.49" cy="1756.23" r="7.08639" stroke-width="0.5" stroke="black" fill="red"/>
  <circle cx="1053.49" cy="1756.23" r="4.29876" stroke-width="0.5" stroke="black" fill="red"/>
   </g>
   <g id="cell49">
  <circle cx="1176.79" cy="1077.65" r="7.33129" stroke-width="0.5" stroke="black" fill="red"/>
  <circle cx="1176.79" cy="1077.65" r="4.45516" stroke-width="0.5" stroke="black" fill="red"/>
   </g>
   <g id="cell50">
  <circle cx="1668.47" cy="392.221" r="8.41271" stroke-width="0.5" stroke="black" fill="red"/>
  <circle cx="1668.47" cy="392.221" r="5.05167" stroke-width="0.5" stroke="black" fill="red"/>
   </g>
   <g id="cell51">
  <circle cx="1352.64" cy="1822.26" r="8.41271" stroke-width="0.5" stroke="black" fill="red"/>
  <circle cx="1352.64" cy="1822.26" r="5.05167" stroke-width="0.5" stroke="black" fill="red"/>
   </g>
   <g id="cell52">
  <circle cx="2666.96" cy="2599.77" r="7.11815" stroke-width="0.5" stroke="black" fill="red"/>
  <circle cx="2666.96" cy="2599.77" r="4.31954" stroke-width="0.5" stroke="black" fill="red"/>
   </g>
   <g id="cell53">
  <circle cx="544.908" cy="1866.7" r="8.41271" stroke-width="0.5" stroke="black" fill="red"/>
  <circle cx="544.908" cy="1866.7" r="5.05167" stroke-width="0.5" stroke="black" fill="red"/>
   </g>
   <g id="cell54">
  <circle cx="801.304" cy="1824.14" r="8.41271" stroke-width="0.5" stroke="black" fill="cyan"/>
  <circle cx="801.304" cy="1824.14" r="5.05167" stroke-width="0.5" stroke="black" fill="cyan"/>
   </g>
   <g id="cell55">
  <circle cx="687.143" cy="2688.72" r="8.41271" stroke-width="0.5" stroke="black" fill="red"/>
  <circle cx="687.143" cy="2688.72" r="5.05167" stroke-width="0.5" stroke="black" fill="red"/>
   </g>
   <g id="cell56">
  <circle cx="1867.46" cy="1696.44" r="8.41271" stroke-width="0.5" stroke="black" fill="red"/>
  <circle cx="1867.46" cy="1696.44" r="5.05167" stroke-width="0.5" stroke="black" fill="red"/>
   </g>
   <g id="cell57">
  <circle cx="903.66" cy="1293.43" r="7.08639" stroke-width="0.5" stroke="black" fill="red"/>
  <circle cx="903.66" cy="1293.43" r="4.29876" stroke-width="0.5" stroke="black" fill="red"/>
   </g>
   <g id="cell58">
  <circle cx="1423.2" cy="1438.61" r="6.80881" stroke-width="0.5" stroke="black" fill="cyan"/>
  <circle cx="1423.2" cy="1438.61" r="4.10709" stroke-width="0.5" stroke="black" fill="cyan"/>
   </g>
   <g id="cell59">
  <circle cx="887.996" cy="1800.74" r="7.18097" stroke-width="0.5" stroke="black" fill="red"/>
  <circle cx="887.996" cy="1800.74" r="4.36015" stroke-width="0.5" stroke="black" fill="red"/>
   </g>
   <g id="cell60">
  <circle cx="681.527" cy="1111.22" r="8.41271" stroke-width="0.5" stroke="black" fill="red"/>
  <circle cx="681.527" cy="1111.22" r="5.05167" stroke-width="0.5" stroke="black" fill="red"/>
   </g>
   <g id="cell61">
  <circle cx="562.196" cy="1916.24" r="6.86652" stroke-width="0.5" stroke="black" fill="red"/>
  <circle cx="562.196" cy="1916.24" r="4.14883" stroke-width="0.5" stroke="black" fill="red"/>
   </g>
   <g id="cell62">
  <circle cx="1870.24" cy="1060.43" r="8.41271" stroke-width="0.5" stroke="black" fill="cyan"/>
  <circle cx="1870.24" cy="1060.43" r="5.05167" stroke-width="0.5" stroke="black" fill="cyan"/>
   </g>
   <g id="cell63">
  <circle cx="635.478" cy="2169.41" r="6.78181" stroke-width="0.5" stroke="black" fill="red"/>
  <circle cx="635.478" cy="2169.41" r="4.08714" stroke-width="0.5" stroke="black" fill="red"/>
   </g>
   <g id="cell64">
  <circle cx="775.677" cy="2580.4" r="6.83713" stroke-width="0.5" stroke="black" fill="red"/>
  <circle cx="775.677" cy="2580.4" r="4.12773" stroke-width="0.5" stroke="black" fill="red"/>
   </g>
   <g id="cell65">
  <circle cx="1179.61" cy="1898.93" r="6.03945" stroke-width="0.5" stroke="black" fill="red"/>
  <circle cx="1179.61" cy="1898.93" r="3.69516" stroke-width="0.5" stroke="black" fill="red"/>
   </g>
   <g id="cell66">
  <circle cx="2278.4" cy="333.048" r="5.88418" stroke-width="0.5" stroke="black" fill="cyan"/>
  <circle cx="2278.4" cy="333.048" r="3.57785" stroke-width="0.5" stroke="black" fill="cyan"/>
   </g>
   <g id="cell67">
  <circle cx="533.043" cy="1794.83" r="8.41271" stroke-width="0.5" stroke="black" fill="red"/>
  <circle cx="533.043" cy="1794.83" r="5.05167" stroke-width="0.5" stroke="black" fill="red"/>
   </g>
   <g id="cell68">
  <circle cx="2309.76" cy="1912.06" r="5.59073" stroke-width="0.5" stroke="black" fill="red"/>
  <circle cx="2309.76" cy="1912.06" r="3.39409" stroke-width="0.5" stroke="black" fill="red"/>
   </g>
   <g id="cell69">
  <circle cx="531.927" cy="2629.16" r="6.75639" stroke-width="0.5" stroke="black" fill="red"/>
  <circle cx="531.927" cy="2629.16" r="4.06813" stroke-width="0.5" stroke="black" fill="red"/>
   </g>
   <g id="cell70">
  <circle cx="2641.22" cy="2411.18" r="6.89675" stroke-width="0.5" stroke="black" fill="red"/>
  <circle cx="2641.22" cy="2411.18" r="4.17024" stroke-width="0.5" stroke="black" fill="red"/>
   </g>
   <g id="cell71">
  <circle cx="1424.5" cy="1519.03" r="7.27253" stroke-width="0.5" stroke="black" fill="red"/>
  <circle cx="1424.5" cy="1519.03" r="4.41835" stroke-width="0.5" stroke="black" fill="red"/>
   </g>
   <g id="cell72">
  <circle cx="2644.23" cy="433.715" r="8.41271" stroke-width="0.5" stroke="black" fill="red"/>
  <circle cx="2644.23" cy="433.715" r="5.05167" stroke-width="0.5" stroke="black" fill="red"/>
   </g>
   <g id="cell73">
  <circle cx="1751.63" cy="1382.78" r="8.41271" stroke-width="0.5" stroke="black" fill="red"/>
  <circle cx="1751.63" cy="1382.78" r="5.05167" stroke-width="0.5" stroke="black" fill="red"/>
   </g>
   <g id="cell74">
  <circle cx="2074.23" cy="347.97" r="8.41271" stroke-width="0.5" stroke="black" fill="cyan"/>
  <circle cx="2074.23" cy="347.97" r="5.05167" stroke-width="0.5" stroke="black" fill="cyan"/>
   </g>
   <g id="cell75">
  <circle cx="394.051" cy="1360.11" r="8.41271" stroke-width="0.5" stroke="black" fill="red"/>
  <circle cx="394.051" cy="1360.11" r="5.05167" stroke-width="0.5" stroke="black" fill="red"/>
   </g>
   <g id="cell76">
  <circle cx="978.737" cy="2651.01" r="8.41271" stroke-width="0.5" stroke="black" fill="red"/>
  <circle cx="978.737" cy="2651.01" r="5.05167" stroke-width="0.5" stroke="black" fill="red"/>
   </g>
   <g id="cell77">
  <circle cx="588.19" cy="1155.34" r="5.43543" stroke-width="0.5" stroke="black" fill="red"/>
  <circle cx="588.19" cy="1155.34" r="3.2816" stroke-width="0.5" stroke="black" fill="red"/>
   </g>
   <g id="cell78">
  <circle cx="1006.26" cy="1454.48" r="7.21189" stroke-width="0.5" stroke="black" fill="cyan"/>
  <circle cx="1006.26" cy="1454.48" r="4.37993" stroke-width="0.5" stroke="black" fill="cyan"/>
   </g>
   <g id="cell79">
  <circle cx="584.947" cy="1952.79" r="8.41271" stroke-width="0.5" stroke="black" fill="red"/>
  <circle cx="584.947" cy="1952.79" r="5.05167" stroke-width="0.5" stroke="black" fill="red"/>
   </g>
   <g id="cell80">
  <circle cx="1068.07" cy="2411.5" r="6.92764" stroke-width="0.5" stroke="black" fill="red"/>
  <circle cx="1068.07" cy="2411.5" r="4.1918" stroke-width="0.5" stroke="black" fill="red"/>
   </g>
   <g id="cell81">
  <circle cx="1290.13" cy="2506.57" r="8.41271" stroke-width="0.5" stroke="black" fill="cyan"/>
  <circle cx="1290.13" cy="2506.57" r="5.05167" stroke-width="0.5" stroke="black" fill="cyan"/>
   </g>
   <g id="cell82">
  <circle cx="456.372" cy="816.303" r="7.46878" stroke-width="0.5" stroke="black" fill="cyan"/>
  <circle cx="456.372" cy="816.303" r="4.53982" stroke-width="0.5" stroke="black" fill="cyan"/>
   </g>
   <g id="cell83">
  <circle cx="1966.56" cy="1658.3" r="8.41271" stroke-width="0.5" stroke="black" fill="cyan"/>
  <circle cx="1966.56" cy="1658.3" r="5.05167" stroke-width="0.5" stroke="black" fill="cyan"/>
   </g>
   <g id="cell84">
  <circle cx="1659.84" cy="2376.25" r="8.41271" stroke-width="0.5" stroke="black" fill="red"/>
  <circle cx="1659.84" cy="2376.25" r="5.05167" stroke-width="0.5" stroke="black" fill="red"/>
   </g>
   <g id="cell85">
  <circle cx="940.954" cy="1519.81" r="8.41271" stroke-width="0.5" stroke="black" fill="cyan"/>
  <circle cx="940.954" cy="1519.81" r="5.05167" stroke-width="0.5" stroke="black" fill="cyan"/>
   </g>
   <g id="cell86">
  <circle cx="1555.8" cy="2500.14" r="8.41271" stroke-width="0.5" stroke="black" fill="red"/>
  <circle cx="1555.8" cy="2500.14" r="5.05167" stroke-width="0.5" stroke="black" fill="red"/>
   </g>
   <g id="cell87">
  <circle cx="525.457" cy="2510.78" r="8.41271" stroke-width="0.5" stroke="black" fill="red"/>
  <circle cx="525.457" cy="2510.78" r="5.05167" stroke-width="0.5" stroke="black" fill="red"/>
   </g>
   <g id="cell88">
  <circle cx="1682.27" cy="499.47" r="8.41271" stroke-width="0.5" stroke="black" fill="cyan"/>
  <circle cx="1682.27" cy="499.47" r="5.05167" stroke-width="0.5" stroke="black" fill="cyan"/>
   </g>
   <g id="cell89">
  <circle cx="2530.31" cy="966.525" r="8.41271" stroke-width="0.5" stroke="black" fill="red"/>
  <circle cx="2530.31" cy="966.525" r="5.05167" stroke-width="0.5" stroke="black" fill="red"/>
   </g>
   <g id="cell90">
  <circle cx="1064.57" cy="322.456" r="8.41271" stroke-width="0.5" stroke="black" fill="red"/>
  <circle cx="1064.57" cy="322.456" r="5.05167" stroke-width="0.5" stroke="black" fill="red"/>
   </g>
   <g id="cell91">
  <circle cx="1900" cy="2325.22" r="6.73287" stroke-width="0.5" stroke="black" fill="red"/>
  <circle cx="1900" cy="2325.22" r="4.05039" stroke-width="0.5" stroke="black" fill="red"/>
   </g>
   <g id="cell92">
  <circle cx="616.315" cy="1853.22" r="8.41271" stroke-width="0.5" stroke="black" fill="red"/>
  <circle cx="616.315" cy="1853.22" r="5.05167" stroke-width="0.5" stroke="black" fill="red"/>
   </g>
   <g id="cell93">
  <circle cx="2020.76" cy="2315.33" r="8.41271" stroke-width="0.5" stroke="black" fill="cyan"/>
  <circle cx="2020.76" cy="2315.33" r="5.05167" stroke-width="0.5" stroke="black" fill="cyan"/>
   </g>
   <g id="cell94">
  <circle cx="994.575" cy="935.352" r="8.41271" stroke-width="0.5" stroke="black" fill="cyan"/>
  <circle cx="994.575" cy="935.352" r="5.05167" stroke-width="0.5" stroke="black" fill="cyan"/>
   </g>
   <g id="cell95">
  <circle cx="736.123" cy="1257.63" r="7.27253" stroke-width="0.5" stroke="black" fill="red"/>
  <circle cx="736.123" cy="1257.63" r="4.41835" stroke-width="0.5" stroke="black" fill="red"/>
   </g>
   <g id="cell96">
  <circle cx="1709.8" cy="1623.31" r="6.78181" stroke-width="0.5" stroke="black" fill="cyan"/>
  <circle cx="1709.8" cy="1623.31" r="4.08714" stroke-width="0.5" stroke="black" fill="cyan"/>
   </g>
   <g id="cell97">
  <circle cx="348.258" cy="695.857" r="8.41271" stroke-width="0.5" stroke="black" fill="red"/>
  <circle cx="348.258" cy="695.857" r="5.05167" stroke-width="0.5" stroke="black" fill="red"/>
   </g>
   <g id="cell98">
  <circle cx="2291.6" cy="1191.31" r="7.0545" stroke-width="0.5" stroke="black" fill="cyan"/>
  <circle cx="2291.6" cy="1191.31" r="4.27772" stroke-width="0.5" stroke="black" fill="cyan"/>
   </g>
   <g id="cell99">
  <circle cx="311.269" cy="651.46" r="8.41271" stroke-width="0.5" stroke="black" fill="cyan"/>
  <circle cx="311.269" cy="651.46" r="5.05167" stroke-width="0.5" stroke="black" fill="cyan"/>
   </g>
   <g id="cell100">
  <circle cx="1211.89" cy="1450.4" r="7.49456" stroke-width="0.5" stroke="black" fill="red"/>
  <circle cx="1211.89" cy="1450.4" r="4.55548" stroke-width="0.5" stroke="black" fill="red"/>
   </g>
   <g id="cell101">
  <circle cx="607.148" cy="2109.12" r="7.49456" stroke-width="0.5" stroke="black" fill="cyan"/>
  <circle cx="607.148" cy="2109.12" r="4.55548" stroke-width="0.5" stroke="black" fill="cyan"/>
   </g>
   <g id="cell102">
  <circle cx="449.132" cy="828.489" r="7.46878" stroke-width="0.5" stroke="black" fill="cyan"/>
  <circle cx="449.132" cy="828.489" r="4.53982" stroke-width="0.5" stroke="black" fill="cyan"/>
   </g>
   <g id="cell103">
  <circle cx="642.412" cy="1603.16" r="7.27253" stroke-width="0.5" stroke="black" fill="cyan"/>
  <circle cx="642.412" cy="1603.16" r="4.41835" stroke-width="0.5" stroke="black" fill="cyan"/>
   </g>
   <g id="cell104">
  <circle cx="2557.35" cy="2119.73" r="7.46878" stroke-width="0.5" stroke="black" fill="red"/>
  <circle cx="2557.35" cy="2119.73" r="4.53982" stroke-width="0.5" stroke="black" fill="red"/>
   </g>
   <g id="cell105">
  <circle cx="1890.76" cy="1865.73" r="8.41271" stroke-width="0.5" stroke="black" fill="cyan"/>
  <circle cx="1890.76" cy="1865.73" r="5.05167" stroke-width="0.5" stroke="black" fill="cyan"/>
   </g>
   <g id="cell106">
  <circle cx="2448.39" cy="431.374" r="7.44242" stroke-width="0.5" stroke="black" fill="red"/>
  <circle cx="2448.39" cy="431.374" r="4.52373" stroke-width="0.5" stroke="black" fill="red"/>
   </g>
   <g id="cell107">
  <circle cx="500.612" cy="1844.04" r="5.96599" stroke-width="0.5" stroke="black" fill="red"/>
  <circle cx="500.612" cy="1844.04" r="3.63642" stroke-width="0.5" stroke="black" fill="red"/>
   </g>
   <g id="cell108">
  <circle cx="2222.35" cy="2229.6" r="7.38797" stroke-width="0.5" stroke="black" fill="red"/>
  <circle cx="2222.35" cy="2229.6" r="4.49029" stroke-width="0.5" stroke="black" fill="red"/>
   </g>
   <g id="cell109">
  <circle cx="2264.79" cy="336.341" r="6.18323" stroke-width="0.5" stroke="black" fill="cyan"/>
  <circle cx="2264.79" cy="336.341" r="3.78566" stroke-width="0.5" stroke="black" fill="cyan"/>
   </g>
   <g id="cell110">
  <circle cx="1165.05" cy="1085.1" r="7.33129" stroke-width="0.5" stroke="black" fill="red"/>
  <circle cx="1165.05" cy="1085.1" r="4.45516" stroke-width="0.5" stroke="black" fill="red"/>
   </g>
   <g id="cell111">
  <circle cx="659.453" cy="1598.83" r="5.77221" stroke-width="0.5" stroke="black" fill="cyan"/>
  <circle cx="659.453" cy="1598.83" r="3.50685" stroke-width="0.5" stroke="black" fill="cyan"/>
   </g>
   <g id="cell112">
  <circle cx="1425.46" cy="1533.9" r="8.41271" stroke-width="0.5" stroke="black" fill="cyan"/>
  <circle cx="1425.46" cy="1533.9" r="5.05167" stroke-width="0.5" stroke="black" fill="cyan"/>
   </g>
   <g id="cell113">
  <circle cx="619.431" cy="2106.97" r="5.68242" stroke-width="0.5" stroke="black" fill="cyan"/>
  <circle cx="619.431" cy="2106.97" r="3.50888" stroke-width="0.5" stroke="black" fill="cyan"/>
   </g>
   <g id="cell114">
  <circle cx="746.857" cy="1248.96" r="7.27253" stroke-width="0.5" stroke="black" fill="red"/>
  <circle cx="746.857" cy="1248.96" r="4.41835" stroke-width="0.5" stroke="black" fill="red"/>
   </g>
   <g id="cell115">
  <circle cx="2173.95" cy="643.503" r="7.24243" stroke-width="0.5" stroke="black" fill="red"/>
  <circle cx="2173.95" cy="643.503" r="4.39934" stroke-width="0.5" stroke="black" fill="red"/>
   </g>
   <g id="cell116">
  <circle cx="1182.43" cy="1876.14" r="7.24243" stroke-width="0.5" stroke="black" fill="red"/>
  <circle cx="1182.43" cy="1876.14" r="4.39934" stroke-width="0.5" stroke="black" fill="red"/>
   </g>
   <g id="cell117">
  <circle cx="1019.9" cy="1453.46" r="7.21189" stroke-width="0.5" stroke="black" fill="cyan"/>
  <circle cx="1019.9" cy="1453.46" r="4.37993" stroke-width="0.5" stroke="black" fill="cyan"/>
   </g>
   <g id="cell118">
  <circle cx="1670.3" cy="613.151" r="7.18097" stroke-width="0.5" stroke="black" fill="red"/>
  <circle cx="1670.3" cy="613.151" r="4.36015" stroke-width="0.5" stroke="black" fill="red"/>
   </g>
   <g id="cell119">
  <circle cx="883.859" cy="1787.76" r="7.18097" stroke-width="0.5" stroke="black" fill="red"/>
  <circle cx="883.859" cy="1787.76" r="4.36015" stroke-width="0.5" stroke="black" fill="red"/>
   </g>
   <g id="cell120">
  <circle cx="2204.2" cy="2240.99" r="7.18097" stroke-width="0.5" stroke="black" fill="red"/>
  <circle cx="2204.2" cy="2240.99" r="4.36015" stroke-width="0.5" stroke="black" fill="red"/>
   </g>
   <g id="cell121">
  <circle cx="2679.77" cy="2604.03" r="7.11815" stroke-width="0.5" stroke="black" fill="red"/>
  <circle cx="2679.77" cy="2604.03" r="4.31954" stroke-width="0.5" stroke="black" fill="red"/>
   </g>
   <g id="cell122">
  <circle cx="1884.78" cy="1062.93" r="7.11815" stroke-width="0.5" stroke="black" fill="red"/>
  <circle cx="1884.78" cy="1062.93" r="4.31954" stroke-width="0.5" stroke="black" fill="red"/>
   </g>
   <g id="cell123">
  <circle cx="1064.37" cy="1764.12" r="7.08639" stroke-width="0.5" stroke="black" fill="red"/>
  <circle cx="1064.37" cy="1764.12" r="4.29876" stroke-width="0.5" stroke="black" fill="red"/>
   </g>
   <g id="cell124">
  <circle cx="2654.63" cy="1429.8" r="7.08639" stroke-width="0.5" stroke="black" fill="cyan"/>
  <circle cx="2654.63" cy="1429.8" r="4.29876" stroke-width="0.5" stroke="black" fill="cyan"/>
   </g>
   <g id="cell125">
  <circle cx="916.708" cy="1296.67" r="7.08639" stroke-width="0.5" stroke="black" fill="red"/>
  <circle cx="916.708" cy="1296.67" r="4.29876" stroke-width="0.5" stroke="black" fill="red"/>
   </g>
   <g id="cell126">
  <circle cx="2285" cy="1179.67" r="7.0545" stroke-width="0.5" stroke="black" fill="cyan"/>
  <circle cx="2285" cy="1179.67" r="4.27772" stroke-width="0.5" stroke="black" fill="cyan"/>
   </g>
   <g id="cell127">
  <circle cx="1325.2" cy="1790.52" r="8.41271" stroke-width="0.5" stroke="black" fill="cyan"/>
  <circle cx="1325.2" cy="1790.52" r="5.05167" stroke-width="0.5" stroke="black" fill="cyan"/>
   </g>
   <g id="cell128">
  <circle cx="1952.94" cy="1652.86" r="7.02257" stroke-width="0.5" stroke="black" fill="red"/>
  <circle cx="1952.94" cy="1652.86" r="4.25644" stroke-width="0.5" stroke="black" fill="red"/>
   </g>
   <g id="cell129">
  <circle cx="1302.21" cy="2498.3" r="6.99069" stroke-width="0.5" stroke="black" fill="red"/>
  <circle cx="1302.21" cy="2498.3" r="4.23498" stroke-width="0.5" stroke="black" fill="red"/>
   </g>
   <g id="cell130">
  <circle cx="1895.78" cy="1852.69" r="6.31844" stroke-width="0.5" stroke="black" fill="red"/>
  <circle cx="1895.78" cy="1852.69" r="3.87148" stroke-width="0.5" stroke="black" fill="red"/>
   </g>
   <g id="cell131">
  <circle cx="2520.46" cy="2315.52" r="6.99069" stroke-width="0.5" stroke="black" fill="red"/>
  <circle cx="2520.46" cy="2315.52" r="4.23498" stroke-width="0.5" stroke="black" fill="red"/>
   </g>
   <g id="cell132">
  <circle cx="519.429" cy="1857.23" r="8.41271" stroke-width="0.5" stroke="black" fill="cyan"/>
  <circle cx="519.429" cy="1857.23" r="5.05167" stroke-width="0.5" stroke="black" fill="cyan"/>
   </g>
   <g id="cell133">
  <circle cx="2253.42" cy="333.508" r="6.18323" stroke-width="0.5" stroke="black" fill="cyan"/>
  <circle cx="2253.42" cy="333.508" r="3.78566" stroke-width="0.5" stroke="black" fill="cyan"/>
   </g>
   <g id="cell134">
  <circle cx="614.587" cy="2097.5" r="5.68242" stroke-width="0.5" stroke="black" fill="cyan"/>
  <circle cx="614.587" cy="2097.5" r="3.50888" stroke-width="0.5" stroke="black" fill="cyan"/>
   </g>
   <g id="cell135">
  <circle cx="1053.33" cy="2420.27" r="6.69288" stroke-width="0.5" stroke="black" fill="cyan"/>
  <circle cx="1053.33" cy="2420.27" r="4.02051" stroke-width="0.5" stroke="black" fill="cyan"/>
   </g>
   <g id="cell136">
  <circle cx="2287.6" cy="2594.58" r="6.89675" stroke-width="0.5" stroke="black" fill="red"/>
  <circle cx="2287.6" cy="2594.58" r="4.17024" stroke-width="0.5" stroke="black" fill="red"/>
   </g>
   <g id="cell137">
  <circle cx="2307.19" cy="1924.22" r="6.89675" stroke-width="0.5" stroke="black" fill="red"/>
  <circle cx="2307.19" cy="1924.22" r="4.17024" stroke-width="0.5" stroke="black" fill="red"/>
   </g>
   <g id="cell138">
  <circle cx="2648.34" cy="2400.2" r="6.89675" stroke-width="0.5" stroke="black" fill="red"/>
  <circle cx="2648.34" cy="2400.2" r="4.17024" stroke-width="0.5" stroke="black" fill="red"/>
   </g>
   <g id="cell139">
  <circle cx="1192.54" cy="1894.97" r="8.41271" stroke-width="0.5" stroke="black" fill="cyan"/>
  <circle cx="1192.54" cy="1894.97" r="5.05167" stroke-width="0.5" stroke="black" fill="cyan"/>
   </g>
   <g id="cell140">
  <circle cx="570.662" cy="1926.15" r="6.86652" stroke-width="0.5" stroke="black" fill="red"/>
  <circle cx="570.662" cy="1926.15" r="4.14883" stroke-width="0.5" stroke="black" fill="red"/>
   </g>
   <g id="cell141">
  <circle cx="635.322" cy="1589.84" r="8.41271" stroke-width="0.5" stroke="black" fill="cyan"/>
  <circle cx="635.322" cy="1589.84" r="5.05167" stroke-width="0.5" stroke="black" fill="cyan"/>
   </g>
   <g id="cell142">
  <circle cx="927.605" cy="1525.51" r="6.86652" stroke-width="0.5" stroke="black" fill="red"/>
  <circle cx="927.605" cy="1525.51" r="4.14883" stroke-width="0.5" stroke="black" fill="red"/>
   </g>
   <g id="cell143">
  <circle cx="2380.22" cy="2392.36" r="6.83713" stroke-width="0.5" stroke="black" fill="red"/>
  <circle cx="2380.22" cy="2392.36" r="4.12773" stroke-width="0.5" stroke="black" fill="red"/>
   </g>
   <g id="cell144">
  <circle cx="763.503" cy="2575.91" r="6.83713" stroke-width="0.5" stroke="black" fill="red"/>
  <circle cx="763.503" cy="2575.91" r="4.12773" stroke-width="0.5" stroke="black" fill="red"/>
   </g>
   <g id="cell145">
  <circle cx="1410.45" cy="1440.7" r="6.80881" stroke-width="0.5" stroke="black" fill="cyan"/>
  <circle cx="1410.45" cy="1440.7" r="4.10709" stroke-width="0.5" stroke="black" fill="cyan"/>
   </g>
   <g id="cell146">
  <circle cx="2312.91" cy="2603.34" r="4.66792" stroke-width="0.5" stroke="black" fill="red"/>
  <circle cx="2312.91" cy="2603.34" r="2.85684" stroke-width="0.5" stroke="black" fill="red"/>
   </g>
   <g id="cell147">
  <circle cx="1844.08" cy="1692.04" r="6.78181" stroke-width="0.5" stroke="black" fill="red"/>
  <circle cx="1844.08" cy="1692.04" r="4.08714" stroke-width="0.5" stroke="black" fill="red"/>
   </g>
   <g id="cell148">
  <circle cx="1702.97" cy="1634.22" r="6.78181" stroke-width="0.5" stroke="black" fill="cyan"/>
  <circle cx="1702.97" cy="1634.22" r="4.08714" stroke-width="0.5" stroke="black" fill="cyan"/>
   </g>
   <g id="cell149">
  <circle cx="1655.77" cy="623.966" r="4.79728" stroke-width="0.5" stroke="black" fill="red"/>
  <circle cx="1655.77" cy="623.966" r="2.9394" stroke-width="0.5" stroke="black" fill="red"/>
   </g>
   <g id="cell150">
  <circle cx="623.373" cy="2165.05" r="6.78181" stroke-width="0.5" stroke="black" fill="red"/>
  <circle cx="623.373" cy="2165.05" r="4.08714" stroke-width="0.5" stroke="black" fill="red"/>
   </g>
   <g id="cell151">
  <circle cx="582.528" cy="1171.41" r="6.78181" stroke-width="0.5" stroke="black" fill="red"/>
  <circle cx="582.528" cy="1171.41" r="4.08714" stroke-width="0.5" stroke="black" fill="red"/>
   </g>
   <g id="cell152">
  <circle cx="1787.3" cy="1233.31" r="6.78181" stroke-width="0.5" stroke="black" fill="red"/>
  <circle cx="1787.3" cy="1233.31" r="4.08714" stroke-width="0.5" stroke="black" fill="red"/>
   </g>
   <g id="cell153">
  <circle cx="511.611" cy="1846.21" r="5.96599" stroke-width="0.5" stroke="black" fill="red"/>
  <circle cx="511.611" cy="1846.21" r="3.63642" stroke-width="0.5" stroke="black" fill="red"/>
   </g>
   <g id="cell154">
  <circle cx="2319.41" cy="1916.32" r="5.59073" stroke-width="0.5" stroke="black" fill="red"/>
  <circle cx="2319.41" cy="1916.32" r="3.39409" stroke-width="0.5" stroke="black" fill="red"/>
   </g>
   <g id="cell155">
  <circle cx="527.506" cy="2641.18" r="6.75639" stroke-width="0.5" stroke="black" fill="red"/>
  <circle cx="527.506" cy="2641.18" r="4.06813" stroke-width="0.5" stroke="black" fill="red"/>
   </g>
   <g id="cell156">
  <circle cx="2304.2" cy="2602.39" r="4.66792" stroke-width="0.5" stroke="black" fill="red"/>
  <circle cx="2304.2" cy="2602.39" r="2.85684" stroke-width="0.5" stroke="black" fill="red"/>
   </g>
   <g id="cell157">
  <circle cx="1664.69" cy="622.776" r="4.79728" stroke-width="0.5" stroke="black" fill="red"/>
  <circle cx="1664.69" cy="622.776" r="2.9394" stroke-width="0.5" stroke="black" fill="red"/>
   </g>
   <g id="cell158">
  <circle cx="1899.65" cy="707.128" r="8.41271" stroke-width="0.5" stroke="black" fill="cyan"/>
  <circle cx="1899.65" cy="707.128" r="5.05167" stroke-width="0.5" stroke="black" fill="cyan"/>
   </g>
   <g id="cell159">
  <circle cx="1905.66" cy="2313.81" r="6.73287" stroke-width="0.5" stroke="black" fill="red"/>
  <circle cx="1905.66" cy="2313.81" r="4.05039" stroke-width="0.5" stroke="black" fill="red"/>
   </g>
   <g id="cell160">
  <circle cx="1191.7" cy="1882.63" r="4.90011" stroke-width="0.5" stroke="black" fill="red"/>
  <circle cx="1191.7" cy="1882.63" r="3.00647" stroke-width="0.5" stroke="black" fill="red"/>
   </g>
   <g id="cell161">
  <circle cx="590.576" cy="2035.01" r="6.71158" stroke-width="0.5" stroke="black" fill="red"/>
  <circle cx="590.576" cy="2035.01" r="4.03435" stroke-width="0.5" stroke="black" fill="red"/>
   </g>
   <g id="cell162">
  <circle cx="595.613" cy="1165.95" r="8.41271" stroke-width="0.5" stroke="black" fill="cyan"/>
  <circle cx="595.613" cy="1165.95" r="5.05167" stroke-width="0.5" stroke="black" fill="cyan"/>
   </g>
   <g id="cell163">
  <circle cx="1786.81" cy="669.301" r="5.35161" stroke-width="0.5" stroke="black" fill="red"/>
  <circle cx="1786.81" cy="669.301" r="3.21926" stroke-width="0.5" stroke="black" fill="red"/>
   </g>
   <g id="cell164">
  <circle cx="1055.71" cy="2408.05" r="6.69288" stroke-width="0.5" stroke="black" fill="cyan"/>
  <circle cx="1055.71" cy="2408.05" r="4.02051" stroke-width="0.5" stroke="black" fill="cyan"/>
   </g>
   <g id="cell165">
  <circle cx="2270.04" cy="325.934" r="5.88418" stroke-width="0.5" stroke="black" fill="cyan"/>
  <circle cx="2270.04" cy="325.934" r="3.57785" stroke-width="0.5" stroke="black" fill="cyan"/>
   </g>
   <g id="cell166">
  <circle cx="1903.18" cy="719.101" r="5.36836" stroke-width="0.5" stroke="black" fill="red"/>
  <circle cx="1903.18" cy="719.101" r="3.23186" stroke-width="0.5" stroke="black" fill="red"/>
   </g>
   <g id="cell167">
  <circle cx="1761.38" cy="829.763" r="6.69288" stroke-width="0.5" stroke="black" fill="red"/>
  <circle cx="1761.38" cy="829.763" r="4.02051" stroke-width="0.5" stroke="black" fill="red"/>
   </g>
   <g id="cell168">
  <circle cx="1219.07" cy="1438.93" r="5.96821" stroke-width="0.5" stroke="black" fill="red"/>
  <circle cx="1219.07" cy="1438.93" r="3.6292" stroke-width="0.5" stroke="black" fill="red"/>
   </g>
   <g id="cell169">
  <circle cx="1778.04" cy="664.524" r="5.35161" stroke-width="0.5" stroke="black" fill="red"/>
  <circle cx="1778.04" cy="664.524" r="3.21926" stroke-width="0.5" stroke="black" fill="red"/>
   </g>
   <g id="cell170">
  <circle cx="650.129" cy="1594.44" r="5.77221" stroke-width="0.5" stroke="black" fill="cyan"/>
  <circle cx="650.129" cy="1594.44" r="3.50685" stroke-width="0.5" stroke="black" fill="cyan"/>
   </g>
   <g id="cell171">
  <circle cx="1402.08" cy="823.625" r="6.67717" stroke-width="0.5" stroke="black" fill="cyan"/>
  <circle cx="1402.08" cy="823.625" r="4.00951" stroke-width="0.5" stroke="black" fill="cyan"/>
   </g>
   <g id="cell172">
  <circle cx="2302.15" cy="2589.21" r="4.49777" stroke-width="0.5" stroke="black" fill="red"/>
  <circle cx="2302.15" cy="2589.21" r="2.73721" stroke-width="0.5" stroke="black" fill="red"/>
   </g>
  </g>
 </g>
  <rect x="2725" y="3105" width="200" height="30" stroke-width="6" stroke="rgb(255,255,255)" fill="rgb(0,0,0)"/>
  <text x="2743.75" y="3086.25"
   font-family="Arial" font-size="75" fill="black" >
   200 &#956;m
  </text>
  <text x="75" y="3135"
   font-family="Arial" font-size="56.25" fill="black" >
   0 days, 0 hours, 0 minutes, and 2.3348 seconds
  </text>
  <rect x="0" y="210" width="3000" height="3000" stroke-width="6" stroke="rgb(0,0,0)" fill="none"/>
</svg>
