<?xml version="1.0" encoding="UTF-8" standalone="no"?>
<!-- Created with PhysiCell (http://PhysiCell.MathCancer.org/) -->
<svg 
 xmlns:dc="http://purl.org/dc/elements/1.1/" 
 xmlns:cc="http://creativecommons.org/ns#" 
 xmlns:rdf="http://www.w3.org/1999/02/22-rdf-syntax-ns#" 
 xmlns:svg="http://www.w3.org/2000/svg" 
 xmlns="http://www.w3.org/2000/svg" 
 version="1.1" 
 width="3000" 
 height="3210" 
 id="svg2">
  <rect x="0" y="0" width="3000" height="3210" stroke-width="6" stroke="white" fill="white"/>
  <text x="37.5" y="90"
   font-family="Arial" font-size="75" fill="black" >
   Current time: 0 days, 2 hours, and 0.00 minutes, z = 0.00 &#956;m
  </text>
  <text x="37.5" y="172.5"
   font-family="Arial" font-size="71.25" fill="black" >
   136 agents
  </text>
 <g id="tissue" 
    transform="translate(0,3210) scale(1,-1)">
  <g id="ECM">
  </g>
  <g id="cells">
   <g id="cell0">
  <circle cx="1617.15" cy="1722.83" r="8.41271" stroke-width="0.5" stroke="black" fill="red"/>
  <circle cx="1617.15" cy="1722.83" r="5.05167" stroke-width="0.5" stroke="black" fill="red"/>
   </g>
   <g id="cell1">
  <circle cx="2014.88" cy="2330.23" r="8.41271" stroke-width="0.5" stroke="black" fill="red"/>
  <circle cx="2014.88" cy="2330.23" r="5.05167" stroke-width="0.5" stroke="black" fill="red"/>
   </g>
   <g id="cell2">
  <circle cx="1746.63" cy="2359.07" r="8.41271" stroke-width="0.5" stroke="black" fill="red"/>
  <circle cx="1746.63" cy="2359.07" r="5.05167" stroke-width="0.5" stroke="black" fill="red"/>
   </g>
   <g id="cell3">
  <circle cx="1607.72" cy="2333.4" r="8.41271" stroke-width="0.5" stroke="black" fill="red"/>
  <circle cx="1607.72" cy="2333.4" r="5.05167" stroke-width="0.5" stroke="black" fill="red"/>
   </g>
   <g id="cell4">
  <circle cx="1312.22" cy="1799.81" r="8.41271" stroke-width="0.5" stroke="black" fill="cyan"/>
  <circle cx="1312.22" cy="1799.81" r="5.05167" stroke-width="0.5" stroke="black" fill="cyan"/>
   </g>
   <g id="cell5">
  <circle cx="1850.15" cy="1222.52" r="8.41271" stroke-width="0.5" stroke="black" fill="red"/>
  <circle cx="1850.15" cy="1222.52" r="5.05167" stroke-width="0.5" stroke="black" fill="red"/>
   </g>
   <g id="cell6">
  <circle cx="1350.21" cy="1014.08" r="8.41271" stroke-width="0.5" stroke="black" fill="red"/>
  <circle cx="1350.21" cy="1014.08" r="5.05167" stroke-width="0.5" stroke="black" fill="red"/>
   </g>
   <g id="cell7">
  <circle cx="2436.43" cy="438.339" r="7.1497" stroke-width="0.5" stroke="black" fill="red"/>
  <circle cx="2436.43" cy="438.339" r="4.34001" stroke-width="0.5" stroke="black" fill="red"/>
   </g>
   <g id="cell8">
  <circle cx="2612.79" cy="954.375" r="8.41271" stroke-width="0.5" stroke="black" fill="red"/>
  <circle cx="2612.79" cy="954.375" r="5.05167" stroke-width="0.5" stroke="black" fill="red"/>
   </g>
   <g id="cell9">
  <circle cx="1224.3" cy="1444.44" r="7.21189" stroke-width="0.5" stroke="black" fill="red"/>
  <circle cx="1224.3" cy="1444.44" r="4.37993" stroke-width="0.5" stroke="black" fill="red"/>
   </g>
   <g id="cell10">
  <circle cx="2198.3" cy="2252.94" r="6.86652" stroke-width="0.5" stroke="black" fill="red"/>
  <circle cx="2198.3" cy="2252.94" r="4.14883" stroke-width="0.5" stroke="black" fill="red"/>
   </g>
   <g id="cell11">
  <circle cx="1569.35" cy="1451.95" r="8.41271" stroke-width="0.5" stroke="black" fill="red"/>
  <circle cx="1569.35" cy="1451.95" r="5.05167" stroke-width="0.5" stroke="black" fill="red"/>
   </g>
   <g id="cell12">
  <circle cx="1663.31" cy="1242.68" r="8.41271" stroke-width="0.5" stroke="black" fill="cyan"/>
  <circle cx="1663.31" cy="1242.68" r="5.05167" stroke-width="0.5" stroke="black" fill="cyan"/>
   </g>
   <g id="cell13">
  <circle cx="2521.86" cy="2302.64" r="6.71158" stroke-width="0.5" stroke="black" fill="red"/>
  <circle cx="2521.86" cy="2302.64" r="4.03435" stroke-width="0.5" stroke="black" fill="red"/>
   </g>
   <g id="cell14">
  <circle cx="470.487" cy="1109.75" r="8.41271" stroke-width="0.5" stroke="black" fill="red"/>
  <circle cx="470.487" cy="1109.75" r="5.05167" stroke-width="0.5" stroke="black" fill="red"/>
   </g>
   <g id="cell15">
  <circle cx="507.033" cy="1863.3" r="5.6728" stroke-width="0.5" stroke="black" fill="red"/>
  <circle cx="507.033" cy="1863.3" r="3.44585" stroke-width="0.5" stroke="black" fill="red"/>
   </g>
   <g id="cell16">
  <circle cx="348.524" cy="1183.78" r="8.41271" stroke-width="0.5" stroke="black" fill="red"/>
  <circle cx="348.524" cy="1183.78" r="5.05167" stroke-width="0.5" stroke="black" fill="red"/>
   </g>
   <g id="cell17">
  <circle cx="2298.29" cy="2597.17" r="8.41271" stroke-width="0.5" stroke="black" fill="red"/>
  <circle cx="2298.29" cy="2597.17" r="5.05167" stroke-width="0.5" stroke="black" fill="red"/>
   </g>
   <g id="cell18">
  <circle cx="2164.66" cy="633.795" r="6.92764" stroke-width="0.5" stroke="black" fill="red"/>
  <circle cx="2164.66" cy="633.795" r="4.1918" stroke-width="0.5" stroke="black" fill="red"/>
   </g>
   <g id="cell19">
  <circle cx="2388.03" cy="2388.21" r="8.41271" stroke-width="0.5" stroke="black" fill="red"/>
  <circle cx="2388.03" cy="2388.21" r="5.05167" stroke-width="0.5" stroke="black" fill="red"/>
   </g>
   <g id="cell20">
  <circle cx="2646.01" cy="1439.74" r="6.78181" stroke-width="0.5" stroke="black" fill="cyan"/>
  <circle cx="2646.01" cy="1439.74" r="4.08714" stroke-width="0.5" stroke="black" fill="cyan"/>
   </g>
   <g id="cell21">
  <circle cx="2215.38" cy="2217.77" r="7.08639" stroke-width="0.5" stroke="black" fill="red"/>
  <circle cx="2215.38" cy="2217.77" r="4.29876" stroke-width="0.5" stroke="black" fill="red"/>
   </g>
   <g id="cell22">
  <circle cx="1407.55" cy="1549.15" r="8.41271" stroke-width="0.5" stroke="black" fill="cyan"/>
  <circle cx="1407.55" cy="1549.15" r="5.05167" stroke-width="0.5" stroke="black" fill="cyan"/>
   </g>
   <g id="cell23">
  <circle cx="2173.27" cy="1929.31" r="8.41271" stroke-width="0.5" stroke="black" fill="red"/>
  <circle cx="2173.27" cy="1929.31" r="5.05167" stroke-width="0.5" stroke="black" fill="red"/>
   </g>
   <g id="cell24">
  <circle cx="583.859" cy="2029.52" r="8.41271" stroke-width="0.5" stroke="black" fill="red"/>
  <circle cx="583.859" cy="2029.52" r="5.05167" stroke-width="0.5" stroke="black" fill="red"/>
   </g>
   <g id="cell25">
  <circle cx="1835.81" cy="1696.85" r="8.41271" stroke-width="0.5" stroke="black" fill="red"/>
  <circle cx="1835.81" cy="1696.85" r="5.05167" stroke-width="0.5" stroke="black" fill="red"/>
   </g>
   <g id="cell26">
  <circle cx="642.701" cy="1585.48" r="7.18097" stroke-width="0.5" stroke="black" fill="red"/>
  <circle cx="642.701" cy="1585.48" r="4.36015" stroke-width="0.5" stroke="black" fill="red"/>
   </g>
   <g id="cell27">
  <circle cx="2572.24" cy="2121.16" r="8.41271" stroke-width="0.5" stroke="black" fill="cyan"/>
  <circle cx="2572.24" cy="2121.16" r="5.05167" stroke-width="0.5" stroke="black" fill="cyan"/>
   </g>
   <g id="cell28">
  <circle cx="1552.44" cy="554.178" r="8.41271" stroke-width="0.5" stroke="black" fill="red"/>
  <circle cx="1552.44" cy="554.178" r="5.05167" stroke-width="0.5" stroke="black" fill="red"/>
   </g>
   <g id="cell29">
  <circle cx="1295.19" cy="1436.64" r="8.41271" stroke-width="0.5" stroke="black" fill="red"/>
  <circle cx="1295.19" cy="1436.64" r="5.05167" stroke-width="0.5" stroke="black" fill="red"/>
   </g>
   <g id="cell30">
  <circle cx="934.933" cy="747.198" r="8.41271" stroke-width="0.5" stroke="black" fill="red"/>
  <circle cx="934.933" cy="747.198" r="5.05167" stroke-width="0.5" stroke="black" fill="red"/>
   </g>
   <g id="cell31">
  <circle cx="2158.16" cy="2068.6" r="8.41271" stroke-width="0.5" stroke="black" fill="red"/>
  <circle cx="2158.16" cy="2068.6" r="5.05167" stroke-width="0.5" stroke="black" fill="red"/>
   </g>
   <g id="cell32">
  <circle cx="1394.76" cy="819.721" r="8.41271" stroke-width="0.5" stroke="black" fill="cyan"/>
  <circle cx="1394.76" cy="819.721" r="5.05167" stroke-width="0.5" stroke="black" fill="cyan"/>
   </g>
   <g id="cell33">
  <circle cx="1662.53" cy="628.319" r="6.86652" stroke-width="0.5" stroke="black" fill="red"/>
  <circle cx="1662.53" cy="628.319" r="4.14883" stroke-width="0.5" stroke="black" fill="red"/>
   </g>
   <g id="cell34">
  <circle cx="345.096" cy="1077.94" r="8.41271" stroke-width="0.5" stroke="black" fill="red"/>
  <circle cx="345.096" cy="1077.94" r="5.05167" stroke-width="0.5" stroke="black" fill="red"/>
   </g>
   <g id="cell35">
  <circle cx="1782.33" cy="659.22" r="8.41271" stroke-width="0.5" stroke="black" fill="red"/>
  <circle cx="1782.33" cy="659.22" r="5.05167" stroke-width="0.5" stroke="black" fill="red"/>
   </g>
   <g id="cell36">
  <circle cx="1769.03" cy="833.571" r="8.41271" stroke-width="0.5" stroke="black" fill="red"/>
  <circle cx="1769.03" cy="833.571" r="5.05167" stroke-width="0.5" stroke="black" fill="red"/>
   </g>
   <g id="cell37">
  <circle cx="1780.64" cy="1227.57" r="8.41271" stroke-width="0.5" stroke="black" fill="red"/>
  <circle cx="1780.64" cy="1227.57" r="5.05167" stroke-width="0.5" stroke="black" fill="red"/>
   </g>
   <g id="cell38">
  <circle cx="2565" cy="2466.24" r="8.41271" stroke-width="0.5" stroke="black" fill="red"/>
  <circle cx="2565" cy="2466.24" r="5.05167" stroke-width="0.5" stroke="black" fill="red"/>
   </g>
   <g id="cell39">
  <circle cx="1936.37" cy="1379.88" r="8.41271" stroke-width="0.5" stroke="black" fill="red"/>
  <circle cx="1936.37" cy="1379.88" r="5.05167" stroke-width="0.5" stroke="black" fill="red"/>
   </g>
   <g id="cell40">
  <circle cx="1162.82" cy="1771.35" r="8.41271" stroke-width="0.5" stroke="black" fill="cyan"/>
  <circle cx="1162.82" cy="1771.35" r="5.05167" stroke-width="0.5" stroke="black" fill="cyan"/>
   </g>
   <g id="cell41">
  <circle cx="1348.88" cy="2465.64" r="8.41271" stroke-width="0.5" stroke="black" fill="red"/>
  <circle cx="1348.88" cy="2465.64" r="5.05167" stroke-width="0.5" stroke="black" fill="red"/>
   </g>
   <g id="cell42">
  <circle cx="1974.31" cy="538.273" r="8.41271" stroke-width="0.5" stroke="black" fill="red"/>
  <circle cx="1974.31" cy="538.273" r="5.05167" stroke-width="0.5" stroke="black" fill="red"/>
   </g>
   <g id="cell43">
  <circle cx="444.541" cy="2627.54" r="8.41271" stroke-width="0.5" stroke="black" fill="red"/>
  <circle cx="444.541" cy="2627.54" r="5.05167" stroke-width="0.5" stroke="black" fill="red"/>
   </g>
   <g id="cell44">
  <circle cx="1904.6" cy="1870.96" r="7.18097" stroke-width="0.5" stroke="black" fill="red"/>
  <circle cx="1904.6" cy="1870.96" r="4.36015" stroke-width="0.5" stroke="black" fill="red"/>
   </g>
   <g id="cell45">
  <circle cx="1909.53" cy="710.183" r="8.41271" stroke-width="0.5" stroke="black" fill="red"/>
  <circle cx="1909.53" cy="710.183" r="5.05167" stroke-width="0.5" stroke="black" fill="red"/>
   </g>
   <g id="cell46">
  <circle cx="804.918" cy="1159.57" r="8.41271" stroke-width="0.5" stroke="black" fill="red"/>
  <circle cx="804.918" cy="1159.57" r="5.05167" stroke-width="0.5" stroke="black" fill="red"/>
   </g>
   <g id="cell47">
  <circle cx="606.37" cy="2092.55" r="6.09892" stroke-width="0.5" stroke="black" fill="cyan"/>
  <circle cx="606.37" cy="2092.55" r="3.73546" stroke-width="0.5" stroke="black" fill="cyan"/>
   </g>
   <g id="cell48">
  <circle cx="1053.72" cy="1756.4" r="6.78181" stroke-width="0.5" stroke="black" fill="red"/>
  <circle cx="1053.72" cy="1756.4" r="4.08714" stroke-width="0.5" stroke="black" fill="red"/>
   </g>
   <g id="cell49">
  <circle cx="1176.54" cy="1077.8" r="7.02257" stroke-width="0.5" stroke="black" fill="red"/>
  <circle cx="1176.54" cy="1077.8" r="4.25644" stroke-width="0.5" stroke="black" fill="red"/>
   </g>
   <g id="cell50">
  <circle cx="1668.47" cy="392.221" r="8.41271" stroke-width="0.5" stroke="black" fill="red"/>
  <circle cx="1668.47" cy="392.221" r="5.05167" stroke-width="0.5" stroke="black" fill="red"/>
   </g>
   <g id="cell51">
  <circle cx="1352.64" cy="1822.26" r="8.41271" stroke-width="0.5" stroke="black" fill="red"/>
  <circle cx="1352.64" cy="1822.26" r="5.05167" stroke-width="0.5" stroke="black" fill="red"/>
   </g>
   <g id="cell52">
  <circle cx="2667.23" cy="2599.86" r="6.80881" stroke-width="0.5" stroke="black" fill="red"/>
  <circle cx="2667.23" cy="2599.86" r="4.10709" stroke-width="0.5" stroke="black" fill="red"/>
   </g>
   <g id="cell53">
  <circle cx="544.908" cy="1866.7" r="8.41271" stroke-width="0.5" stroke="black" fill="red"/>
  <circle cx="544.908" cy="1866.7" r="5.05167" stroke-width="0.5" stroke="black" fill="red"/>
   </g>
   <g id="cell54">
  <circle cx="801.304" cy="1824.14" r="8.41271" stroke-width="0.5" stroke="black" fill="cyan"/>
  <circle cx="801.304" cy="1824.14" r="5.05167" stroke-width="0.5" stroke="black" fill="cyan"/>
   </g>
   <g id="cell55">
  <circle cx="687.143" cy="2688.72" r="8.41271" stroke-width="0.5" stroke="black" fill="red"/>
  <circle cx="687.143" cy="2688.72" r="5.05167" stroke-width="0.5" stroke="black" fill="red"/>
   </g>
   <g id="cell56">
  <circle cx="1867.46" cy="1696.44" r="8.41271" stroke-width="0.5" stroke="black" fill="red"/>
  <circle cx="1867.46" cy="1696.44" r="5.05167" stroke-width="0.5" stroke="black" fill="red"/>
   </g>
   <g id="cell57">
  <circle cx="903.939" cy="1293.5" r="6.78181" stroke-width="0.5" stroke="black" fill="red"/>
  <circle cx="903.939" cy="1293.5" r="4.08714" stroke-width="0.5" stroke="black" fill="red"/>
   </g>
   <g id="cell58">
  <circle cx="1419.15" cy="1439.27" r="8.41271" stroke-width="0.5" stroke="black" fill="cyan"/>
  <circle cx="1419.15" cy="1439.27" r="5.05167" stroke-width="0.5" stroke="black" fill="cyan"/>
   </g>
   <g id="cell59">
  <circle cx="887.906" cy="1800.46" r="6.86652" stroke-width="0.5" stroke="black" fill="red"/>
  <circle cx="887.906" cy="1800.46" r="4.14883" stroke-width="0.5" stroke="black" fill="red"/>
   </g>
   <g id="cell60">
  <circle cx="681.527" cy="1111.22" r="8.41271" stroke-width="0.5" stroke="black" fill="red"/>
  <circle cx="681.527" cy="1111.22" r="5.05167" stroke-width="0.5" stroke="black" fill="red"/>
   </g>
   <g id="cell61">
  <circle cx="564.9" cy="1919.41" r="8.41271" stroke-width="0.5" stroke="black" fill="red"/>
  <circle cx="564.9" cy="1919.41" r="5.05167" stroke-width="0.5" stroke="black" fill="red"/>
   </g>
   <g id="cell62">
  <circle cx="1870.39" cy="1060.46" r="8.41271" stroke-width="0.5" stroke="black" fill="cyan"/>
  <circle cx="1870.39" cy="1060.46" r="5.05167" stroke-width="0.5" stroke="black" fill="cyan"/>
   </g>
   <g id="cell63">
  <circle cx="631.639" cy="2168.03" r="8.41271" stroke-width="0.5" stroke="black" fill="red"/>
  <circle cx="631.639" cy="2168.03" r="5.05167" stroke-width="0.5" stroke="black" fill="red"/>
   </g>
   <g id="cell64">
  <circle cx="771.798" cy="2578.97" r="8.41271" stroke-width="0.5" stroke="black" fill="red"/>
  <circle cx="771.798" cy="2578.97" r="5.05167" stroke-width="0.5" stroke="black" fill="red"/>
   </g>
   <g id="cell65">
  <circle cx="1184.63" cy="1894.27" r="6.92764" stroke-width="0.5" stroke="black" fill="red"/>
  <circle cx="1184.63" cy="1894.27" r="4.1918" stroke-width="0.5" stroke="black" fill="red"/>
   </g>
   <g id="cell66">
  <circle cx="2274.92" cy="331.229" r="7.08639" stroke-width="0.5" stroke="black" fill="cyan"/>
  <circle cx="2274.92" cy="331.229" r="4.29876" stroke-width="0.5" stroke="black" fill="cyan"/>
   </g>
   <g id="cell67">
  <circle cx="533.043" cy="1794.83" r="8.41271" stroke-width="0.5" stroke="black" fill="red"/>
  <circle cx="533.043" cy="1794.83" r="5.05167" stroke-width="0.5" stroke="black" fill="red"/>
   </g>
   <g id="cell68">
  <circle cx="2311.07" cy="1916.78" r="8.41271" stroke-width="0.5" stroke="black" fill="red"/>
  <circle cx="2311.07" cy="1916.78" r="5.05167" stroke-width="0.5" stroke="black" fill="red"/>
   </g>
   <g id="cell69">
  <circle cx="530.636" cy="2632.67" r="8.41271" stroke-width="0.5" stroke="black" fill="red"/>
  <circle cx="530.636" cy="2632.67" r="5.05167" stroke-width="0.5" stroke="black" fill="red"/>
   </g>
   <g id="cell70">
  <circle cx="2643.5" cy="2407.66" r="8.41271" stroke-width="0.5" stroke="black" fill="red"/>
  <circle cx="2643.5" cy="2407.66" r="5.05167" stroke-width="0.5" stroke="black" fill="red"/>
   </g>
   <g id="cell71">
  <circle cx="1424.51" cy="1519.18" r="6.95901" stroke-width="0.5" stroke="black" fill="red"/>
  <circle cx="1424.51" cy="1519.18" r="4.21341" stroke-width="0.5" stroke="black" fill="red"/>
   </g>
   <g id="cell72">
  <circle cx="2644.23" cy="433.715" r="8.41271" stroke-width="0.5" stroke="black" fill="red"/>
  <circle cx="2644.23" cy="433.715" r="5.05167" stroke-width="0.5" stroke="black" fill="red"/>
   </g>
   <g id="cell73">
  <circle cx="1751.63" cy="1382.78" r="8.41271" stroke-width="0.5" stroke="black" fill="red"/>
  <circle cx="1751.63" cy="1382.78" r="5.05167" stroke-width="0.5" stroke="black" fill="red"/>
   </g>
   <g id="cell74">
  <circle cx="2074.23" cy="347.97" r="8.41271" stroke-width="0.5" stroke="black" fill="cyan"/>
  <circle cx="2074.23" cy="347.97" r="5.05167" stroke-width="0.5" stroke="black" fill="cyan"/>
   </g>
   <g id="cell75">
  <circle cx="394.051" cy="1360.11" r="8.41271" stroke-width="0.5" stroke="black" fill="red"/>
  <circle cx="394.051" cy="1360.11" r="5.05167" stroke-width="0.5" stroke="black" fill="red"/>
   </g>
   <g id="cell76">
  <circle cx="978.737" cy="2651.01" r="8.41271" stroke-width="0.5" stroke="black" fill="red"/>
  <circle cx="978.737" cy="2651.01" r="5.05167" stroke-width="0.5" stroke="black" fill="red"/>
   </g>
   <g id="cell77">
  <circle cx="588.472" cy="1162.67" r="8.41271" stroke-width="0.5" stroke="black" fill="red"/>
  <circle cx="588.472" cy="1162.67" r="5.05167" stroke-width="0.5" stroke="black" fill="red"/>
   </g>
   <g id="cell78">
  <circle cx="1006.56" cy="1454.45" r="6.89675" stroke-width="0.5" stroke="black" fill="cyan"/>
  <circle cx="1006.56" cy="1454.45" r="4.17024" stroke-width="0.5" stroke="black" fill="cyan"/>
   </g>
   <g id="cell79">
  <circle cx="584.947" cy="1952.79" r="8.41271" stroke-width="0.5" stroke="black" fill="red"/>
  <circle cx="584.947" cy="1952.79" r="5.05167" stroke-width="0.5" stroke="black" fill="red"/>
   </g>
   <g id="cell80">
  <circle cx="1066.52" cy="2411.89" r="6.67717" stroke-width="0.5" stroke="black" fill="red"/>
  <circle cx="1066.52" cy="2411.89" r="4.00951" stroke-width="0.5" stroke="black" fill="red"/>
   </g>
   <g id="cell81">
  <circle cx="1290.35" cy="2506.42" r="8.41271" stroke-width="0.5" stroke="black" fill="cyan"/>
  <circle cx="1290.35" cy="2506.42" r="5.05167" stroke-width="0.5" stroke="black" fill="cyan"/>
   </g>
   <g id="cell82">
  <circle cx="456.231" cy="816.541" r="7.18097" stroke-width="0.5" stroke="black" fill="cyan"/>
  <circle cx="456.231" cy="816.541" r="4.36015" stroke-width="0.5" stroke="black" fill="cyan"/>
   </g>
   <g id="cell83">
  <circle cx="1966.38" cy="1658.23" r="8.41271" stroke-width="0.5" stroke="black" fill="cyan"/>
  <circle cx="1966.38" cy="1658.23" r="5.05167" stroke-width="0.5" stroke="black" fill="cyan"/>
   </g>
   <g id="cell84">
  <circle cx="1659.84" cy="2376.25" r="8.41271" stroke-width="0.5" stroke="black" fill="red"/>
  <circle cx="1659.84" cy="2376.25" r="5.05167" stroke-width="0.5" stroke="black" fill="red"/>
   </g>
   <g id="cell85">
  <circle cx="936.935" cy="1521.53" r="8.41271" stroke-width="0.5" stroke="black" fill="red"/>
  <circle cx="936.935" cy="1521.53" r="5.05167" stroke-width="0.5" stroke="black" fill="red"/>
   </g>
   <g id="cell86">
  <circle cx="1555.8" cy="2500.14" r="8.41271" stroke-width="0.5" stroke="black" fill="red"/>
  <circle cx="1555.8" cy="2500.14" r="5.05167" stroke-width="0.5" stroke="black" fill="red"/>
   </g>
   <g id="cell87">
  <circle cx="525.457" cy="2510.78" r="8.41271" stroke-width="0.5" stroke="black" fill="red"/>
  <circle cx="525.457" cy="2510.78" r="5.05167" stroke-width="0.5" stroke="black" fill="red"/>
   </g>
   <g id="cell88">
  <circle cx="1682.27" cy="499.47" r="8.41271" stroke-width="0.5" stroke="black" fill="cyan"/>
  <circle cx="1682.27" cy="499.47" r="5.05167" stroke-width="0.5" stroke="black" fill="cyan"/>
   </g>
   <g id="cell89">
  <circle cx="2530.31" cy="966.525" r="8.41271" stroke-width="0.5" stroke="black" fill="red"/>
  <circle cx="2530.31" cy="966.525" r="5.05167" stroke-width="0.5" stroke="black" fill="red"/>
   </g>
   <g id="cell90">
  <circle cx="1064.57" cy="322.456" r="8.41271" stroke-width="0.5" stroke="black" fill="red"/>
  <circle cx="1064.57" cy="322.456" r="5.05167" stroke-width="0.5" stroke="black" fill="red"/>
   </g>
   <g id="cell91">
  <circle cx="1901.78" cy="2321.62" r="8.41271" stroke-width="0.5" stroke="black" fill="red"/>
  <circle cx="1901.78" cy="2321.62" r="5.05167" stroke-width="0.5" stroke="black" fill="red"/>
   </g>
   <g id="cell92">
  <circle cx="616.315" cy="1853.22" r="8.41271" stroke-width="0.5" stroke="black" fill="red"/>
  <circle cx="616.315" cy="1853.22" r="5.05167" stroke-width="0.5" stroke="black" fill="red"/>
   </g>
   <g id="cell93">
  <circle cx="2020.76" cy="2315.33" r="8.41271" stroke-width="0.5" stroke="black" fill="cyan"/>
  <circle cx="2020.76" cy="2315.33" r="5.05167" stroke-width="0.5" stroke="black" fill="cyan"/>
   </g>
   <g id="cell94">
  <circle cx="994.575" cy="935.352" r="8.41271" stroke-width="0.5" stroke="black" fill="cyan"/>
  <circle cx="994.575" cy="935.352" r="5.05167" stroke-width="0.5" stroke="black" fill="cyan"/>
   </g>
   <g id="cell95">
  <circle cx="736.355" cy="1257.44" r="6.95901" stroke-width="0.5" stroke="black" fill="red"/>
  <circle cx="736.355" cy="1257.44" r="4.21341" stroke-width="0.5" stroke="black" fill="red"/>
   </g>
   <g id="cell96">
  <circle cx="1707.63" cy="1626.77" r="8.41271" stroke-width="0.5" stroke="black" fill="cyan"/>
  <circle cx="1707.63" cy="1626.77" r="5.05167" stroke-width="0.5" stroke="black" fill="cyan"/>
   </g>
   <g id="cell97">
  <circle cx="348.258" cy="695.857" r="8.41271" stroke-width="0.5" stroke="black" fill="red"/>
  <circle cx="348.258" cy="695.857" r="5.05167" stroke-width="0.5" stroke="black" fill="red"/>
   </g>
   <g id="cell98">
  <circle cx="2291.45" cy="1191.06" r="6.75639" stroke-width="0.5" stroke="black" fill="cyan"/>
  <circle cx="2291.45" cy="1191.06" r="4.06813" stroke-width="0.5" stroke="black" fill="cyan"/>
   </g>
   <g id="cell99">
  <circle cx="311.269" cy="651.46" r="8.41271" stroke-width="0.5" stroke="black" fill="cyan"/>
  <circle cx="311.269" cy="651.46" r="5.05167" stroke-width="0.5" stroke="black" fill="cyan"/>
   </g>
   <g id="cell100">
  <circle cx="1211.99" cy="1450.4" r="7.21189" stroke-width="0.5" stroke="black" fill="red"/>
  <circle cx="1211.99" cy="1450.4" r="4.37993" stroke-width="0.5" stroke="black" fill="red"/>
   </g>
   <g id="cell101">
  <circle cx="606.631" cy="2109.54" r="7.21189" stroke-width="0.5" stroke="black" fill="cyan"/>
  <circle cx="606.631" cy="2109.54" r="4.37993" stroke-width="0.5" stroke="black" fill="cyan"/>
   </g>
   <g id="cell102">
  <circle cx="449.273" cy="828.251" r="7.18097" stroke-width="0.5" stroke="black" fill="cyan"/>
  <circle cx="449.273" cy="828.251" r="4.36015" stroke-width="0.5" stroke="black" fill="cyan"/>
   </g>
   <g id="cell103">
  <circle cx="642.462" cy="1598.9" r="6.95901" stroke-width="0.5" stroke="black" fill="cyan"/>
  <circle cx="642.462" cy="1598.9" r="4.21341" stroke-width="0.5" stroke="black" fill="cyan"/>
   </g>
   <g id="cell104">
  <circle cx="2557.49" cy="2119.74" r="7.18097" stroke-width="0.5" stroke="black" fill="red"/>
  <circle cx="2557.49" cy="2119.74" r="4.36015" stroke-width="0.5" stroke="black" fill="red"/>
   </g>
   <g id="cell105">
  <circle cx="1891.18" cy="1865.47" r="8.41271" stroke-width="0.5" stroke="black" fill="cyan"/>
  <circle cx="1891.18" cy="1865.47" r="5.05167" stroke-width="0.5" stroke="black" fill="cyan"/>
   </g>
   <g id="cell106">
  <circle cx="2448.15" cy="431.515" r="7.1497" stroke-width="0.5" stroke="black" fill="red"/>
  <circle cx="2448.15" cy="431.515" r="4.34001" stroke-width="0.5" stroke="black" fill="red"/>
   </g>
   <g id="cell107">
  <circle cx="505.484" cy="1845.74" r="7.08639" stroke-width="0.5" stroke="black" fill="red"/>
  <circle cx="505.484" cy="1845.74" r="4.29876" stroke-width="0.5" stroke="black" fill="red"/>
   </g>
   <g id="cell108">
  <circle cx="2222.2" cy="2229.35" r="7.08639" stroke-width="0.5" stroke="black" fill="red"/>
  <circle cx="2222.2" cy="2229.35" r="4.29876" stroke-width="0.5" stroke="black" fill="red"/>
   </g>
   <g id="cell109">
  <circle cx="2264.42" cy="335.771" r="5.62448" stroke-width="0.5" stroke="black" fill="cyan"/>
  <circle cx="2264.42" cy="335.771" r="3.41193" stroke-width="0.5" stroke="black" fill="cyan"/>
   </g>
   <g id="cell110">
  <circle cx="1165.3" cy="1084.95" r="7.02257" stroke-width="0.5" stroke="black" fill="red"/>
  <circle cx="1165.3" cy="1084.95" r="4.25644" stroke-width="0.5" stroke="black" fill="red"/>
   </g>
   <g id="cell111">
  <circle cx="655.627" cy="1597.88" r="6.95901" stroke-width="0.5" stroke="black" fill="cyan"/>
  <circle cx="655.627" cy="1597.88" r="4.21341" stroke-width="0.5" stroke="black" fill="cyan"/>
   </g>
   <g id="cell112">
  <circle cx="1425.45" cy="1533.75" r="8.41271" stroke-width="0.5" stroke="black" fill="cyan"/>
  <circle cx="1425.45" cy="1533.75" r="5.05167" stroke-width="0.5" stroke="black" fill="cyan"/>
   </g>
   <g id="cell113">
  <circle cx="618.715" cy="2105.03" r="4.84072" stroke-width="0.5" stroke="black" fill="cyan"/>
  <circle cx="618.715" cy="2105.03" r="2.96484" stroke-width="0.5" stroke="black" fill="cyan"/>
   </g>
   <g id="cell114">
  <circle cx="746.625" cy="1249.14" r="6.95901" stroke-width="0.5" stroke="black" fill="red"/>
  <circle cx="746.625" cy="1249.14" r="4.21341" stroke-width="0.5" stroke="black" fill="red"/>
   </g>
   <g id="cell115">
  <circle cx="2173.75" cy="643.288" r="6.92764" stroke-width="0.5" stroke="black" fill="red"/>
  <circle cx="2173.75" cy="643.288" r="4.1918" stroke-width="0.5" stroke="black" fill="red"/>
   </g>
   <g id="cell116">
  <circle cx="1185.61" cy="1881.16" r="6.92764" stroke-width="0.5" stroke="black" fill="red"/>
  <circle cx="1185.61" cy="1881.16" r="4.1918" stroke-width="0.5" stroke="black" fill="red"/>
   </g>
   <g id="cell117">
  <circle cx="1019.61" cy="1453.49" r="6.89675" stroke-width="0.5" stroke="black" fill="cyan"/>
  <circle cx="1019.61" cy="1453.49" r="4.17024" stroke-width="0.5" stroke="black" fill="cyan"/>
   </g>
   <g id="cell118">
  <circle cx="1667.88" cy="616.437" r="6.86652" stroke-width="0.5" stroke="black" fill="red"/>
  <circle cx="1667.88" cy="616.437" r="4.14883" stroke-width="0.5" stroke="black" fill="red"/>
   </g>
   <g id="cell119">
  <circle cx="883.949" cy="1788.04" r="6.86652" stroke-width="0.5" stroke="black" fill="red"/>
  <circle cx="883.949" cy="1788.04" r="4.14883" stroke-width="0.5" stroke="black" fill="red"/>
   </g>
   <g id="cell120">
  <circle cx="2204.07" cy="2241.25" r="6.86652" stroke-width="0.5" stroke="black" fill="red"/>
  <circle cx="2204.07" cy="2241.25" r="4.14883" stroke-width="0.5" stroke="black" fill="red"/>
   </g>
   <g id="cell121">
  <circle cx="2679.49" cy="2603.94" r="6.80881" stroke-width="0.5" stroke="black" fill="red"/>
  <circle cx="2679.49" cy="2603.94" r="4.10709" stroke-width="0.5" stroke="black" fill="red"/>
   </g>
   <g id="cell122">
  <circle cx="1884.63" cy="1062.91" r="6.80881" stroke-width="0.5" stroke="black" fill="red"/>
  <circle cx="1884.63" cy="1062.91" r="4.10709" stroke-width="0.5" stroke="black" fill="red"/>
   </g>
   <g id="cell123">
  <circle cx="1064.14" cy="1763.95" r="6.78181" stroke-width="0.5" stroke="black" fill="red"/>
  <circle cx="1064.14" cy="1763.95" r="4.08714" stroke-width="0.5" stroke="black" fill="red"/>
   </g>
   <g id="cell124">
  <circle cx="2654.44" cy="1430.02" r="6.78181" stroke-width="0.5" stroke="black" fill="cyan"/>
  <circle cx="2654.44" cy="1430.02" r="4.08714" stroke-width="0.5" stroke="black" fill="cyan"/>
   </g>
   <g id="cell125">
  <circle cx="916.429" cy="1296.6" r="6.78181" stroke-width="0.5" stroke="black" fill="red"/>
  <circle cx="916.429" cy="1296.6" r="4.08714" stroke-width="0.5" stroke="black" fill="red"/>
   </g>
   <g id="cell126">
  <circle cx="2285.14" cy="1179.92" r="6.75639" stroke-width="0.5" stroke="black" fill="cyan"/>
  <circle cx="2285.14" cy="1179.92" r="4.06813" stroke-width="0.5" stroke="black" fill="cyan"/>
   </g>
   <g id="cell127">
  <circle cx="1325.15" cy="1790.55" r="8.41271" stroke-width="0.5" stroke="black" fill="cyan"/>
  <circle cx="1325.15" cy="1790.55" r="5.05167" stroke-width="0.5" stroke="black" fill="cyan"/>
   </g>
   <g id="cell128">
  <circle cx="1953.12" cy="1652.94" r="6.73287" stroke-width="0.5" stroke="black" fill="red"/>
  <circle cx="1953.12" cy="1652.94" r="4.05039" stroke-width="0.5" stroke="black" fill="red"/>
   </g>
   <g id="cell129">
  <circle cx="1302" cy="2498.45" r="6.71158" stroke-width="0.5" stroke="black" fill="red"/>
  <circle cx="1302" cy="2498.45" r="4.03435" stroke-width="0.5" stroke="black" fill="red"/>
   </g>
   <g id="cell130">
  <circle cx="1895.64" cy="1853.07" r="5.74662" stroke-width="0.5" stroke="black" fill="red"/>
  <circle cx="1895.64" cy="1853.07" r="3.49362" stroke-width="0.5" stroke="black" fill="red"/>
   </g>
   <g id="cell131">
  <circle cx="2520.49" cy="2315.21" r="6.71158" stroke-width="0.5" stroke="black" fill="red"/>
  <circle cx="2520.49" cy="2315.21" r="4.03435" stroke-width="0.5" stroke="black" fill="red"/>
   </g>
   <g id="cell132">
  <circle cx="516.906" cy="1854.61" r="8.41271" stroke-width="0.5" stroke="black" fill="cyan"/>
  <circle cx="516.906" cy="1854.61" r="5.05167" stroke-width="0.5" stroke="black" fill="cyan"/>
   </g>
   <g id="cell133">
  <circle cx="2254.61" cy="333.788" r="5.62448" stroke-width="0.5" stroke="black" fill="cyan"/>
  <circle cx="2254.61" cy="333.788" r="3.41193" stroke-width="0.5" stroke="black" fill="cyan"/>
   </g>
   <g id="cell134">
  <circle cx="614.156" cy="2097.96" r="4.84072" stroke-width="0.5" stroke="black" fill="cyan"/>
  <circle cx="614.156" cy="2097.96" r="2.96484" stroke-width="0.5" stroke="black" fill="cyan"/>
   </g>
   <g id="cell135">
  <circle cx="1055.38" cy="2416.03" r="6.67717" stroke-width="0.5" stroke="black" fill="red"/>
  <circle cx="1055.38" cy="2416.03" r="4.00951" stroke-width="0.5" stroke="black" fill="red"/>
   </g>
  </g>
 </g>
  <rect x="2725" y="3105" width="200" height="30" stroke-width="6" stroke="rgb(255,255,255)" fill="rgb(0,0,0)"/>
  <text x="2743.75" y="3086.25"
   font-family="Arial" font-size="75" fill="black" >
   200 &#956;m
  </text>
  <text x="75" y="3135"
   font-family="Arial" font-size="56.25" fill="black" >
   0 days, 0 hours, 0 minutes, and 1.5484 seconds
  </text>
  <rect x="0" y="210" width="3000" height="3000" stroke-width="6" stroke="rgb(0,0,0)" fill="none"/>
</svg>
